<svg xmlns="http://www.w3.org/2000/svg" width="99" height="52" viewBox="0 0 99 52">
  <defs>
    <style>
      .cls-1 {
        fill: #00509f;
        fill-rule: evenodd;
      }
    </style>
  </defs>
  <path id="Shape_3_copy" data-name="Shape 3 copy" class="cls-1" d="M270.93,55.084c-0.911-7.625-5.25-10.861-14.064-10.861H242.742a6.254,6.254,0,0,0-3.378-5.295q-1.814-1.1-8.274-2.819-4.512-1.232-4.12-2.994,0.4-1.805,3.756-1.806a4.653,4.653,0,0,1,2.208.528,2.448,2.448,0,0,1,1.434,2.2h10.018a8.586,8.586,0,0,0-2.26-7.135Q239.193,24,232.843,24a20.63,20.63,0,0,0-10.691,2.621,11.257,11.257,0,0,0-5.515,7.509q-1.165,5.241,3.088,7.839,1.927,1.19,8.274,2.819,4.521,1.189,4.129,2.951a2.509,2.509,0,0,1-1.549,1.739,8.091,8.091,0,0,1-3.353.6,4.487,4.487,0,0,1-2.338-.749,3.258,3.258,0,0,1-1.6-2.056,6.247,6.247,0,0,1-.048-1.547h-10.1l-3.086-20.989h-10.74l-18.5,31.776h10.355l2.168-4.173h10.5l0.337,4.173h10.548l-0.53-3.6a9.022,9.022,0,0,0,1.224,1.395q3.3,3.084,9.6,3.083A22.268,22.268,0,0,0,236.5,54.652a12.436,12.436,0,0,0,5.109-5.473l-0.053.261L237.7,67.131h10.6l3.419-15.414h3.708c2.5,0,5.309,1.189,5.309,4.841,0,2.513-1.407,12.043-10.51,12.043H172V76h79.063C268.039,76,270.878,62.733,271,56.96V56.169C270.99,55.741,270.965,55.374,270.93,55.084Zm-70.823-9.39h-3.348l3.348-5.879,2.432-4.271,0.915,10.149h-3.347Z" transform="translate(-172 -24)"/>
</svg>
