<?xml version="1.0" encoding="utf-8"?>
<!-- Generator: Adobe Illustrator 21.0.2, SVG Export Plug-In . SVG Version: 6.00 Build 0)  -->
<svg version="1.1" id="Layer_1" xmlns="http://www.w3.org/2000/svg"  x="0px" y="0px"
	 width="28.2px" height="35.4px" viewBox="0 0 28.2 35.4" style="enable-background:new 0 0 28.2 35.4;" xml:space="preserve">
<style type="text/css">
	.st0{fill:#3172B1;}
</style>
<g>
	<path class="st0" d="M28.2,30.7l-2-23c0-0.5-0.4-0.8-0.9-0.8H21C21,3.1,17.9,0,14.1,0S7.2,3.1,7.2,6.9H2.9C2.4,6.9,2.1,7.2,2,7.7
		l-2,23v0.1c0,2.6,2.4,4.6,5.2,4.6H23C25.9,35.4,28.2,33.4,28.2,30.7L28.2,30.7z M14.1,1.8c2.9,0,5.2,2.3,5.2,5.2H8.9
		C8.9,4.1,11.2,1.8,14.1,1.8L14.1,1.8z M23,33.7H5.1c-1.9,0-3.5-1.3-3.5-2.8l2-22.1h3.5v3.1c0,0.5,0.4,0.9,0.9,0.9s0.9-0.4,0.9-0.9
		V8.8h10.4v3.1c0,0.5,0.4,0.9,0.9,0.9s0.9-0.4,0.9-0.9V8.8h3.5l2,22.1C26.4,32.4,24.9,33.7,23,33.7L23,33.7z"/>
</g>
</svg>
