<?xml version="1.0" encoding="utf-8"?>
<!-- Generator: Adobe Illustrator 19.1.0, SVG Export Plug-In . SVG Version: 6.00 Build 0)  -->
<svg version="1.1" id="Слой_1" xmlns="http://www.w3.org/2000/svg" xmlns:xlink="http://www.w3.org/1999/xlink" x="0px" y="0px"
	 width="28px" height="31px" viewBox="0 0 28 31" style="enable-background:new 0 0 28 31;" xml:space="preserve">
<style type="text/css">
	.st0{fill:#FFFFFF;}
</style>
<path class="st0" d="M27.1,17.3c0.6-0.9,0.9-1.9,0.9-3c0-1.3-0.5-2.4-1.4-3.3c-0.9-0.9-2-1.4-3.3-1.4h-3.2C20.7,8.3,21,7.1,21,6
	c0-1.5-0.2-2.6-0.6-3.5c-0.4-0.9-1-1.5-1.9-1.9C17.7,0.2,16.8,0,15.8,0c-0.6,0-1.2,0.2-1.6,0.7c-0.5,0.5-0.9,1.2-1.1,2
	c-0.2,0.8-0.4,1.6-0.6,2.4c-0.1,0.8-0.4,1.3-0.6,1.6c-0.6,0.7-1.2,1.5-2,2.4c-1.2,1.6-2.1,2.6-2.5,2.9h-5c-0.6,0-1.2,0.2-1.7,0.7
	c-0.5,0.5-0.7,1-0.7,1.7v11.9c0,0.7,0.2,1.2,0.7,1.7c0.5,0.5,1,0.7,1.7,0.7h5.3c0.3,0,1.1,0.2,2.5,0.7c1.5,0.5,2.8,0.9,3.9,1.2
	c1.1,0.3,2.3,0.4,3.5,0.4h1.7h0.7c1.7,0,3.1-0.5,4.1-1.5c1-1,1.6-2.4,1.5-4.1c0.7-1,1.1-2.1,1.1-3.3c0-0.3,0-0.5-0.1-0.8
	c0.5-0.8,0.7-1.7,0.7-2.7C27.3,18.2,27.2,17.7,27.1,17.3z M4.3,25.9c-0.2,0.2-0.5,0.4-0.8,0.4c-0.3,0-0.6-0.1-0.8-0.4
	c-0.2-0.2-0.3-0.5-0.3-0.8c0-0.3,0.1-0.6,0.3-0.8c0.2-0.2,0.5-0.4,0.8-0.4c0.3,0,0.6,0.1,0.8,0.4c0.2,0.2,0.3,0.5,0.3,0.8
	C4.7,25.4,4.6,25.6,4.3,25.9z M25.3,15.8c-0.3,0.6-0.6,0.9-1,0.9c0.2,0.2,0.3,0.5,0.5,0.9c0.1,0.4,0.2,0.7,0.2,1
	c0,0.9-0.3,1.6-1,2.2c0.2,0.4,0.3,0.8,0.3,1.3c0,0.5-0.1,0.9-0.3,1.4c-0.2,0.5-0.5,0.8-0.9,1c0.1,0.4,0.1,0.7,0.1,1
	c0,2.1-1.2,3.1-3.5,3.1h-2.2c-1.6,0-3.7-0.5-6.2-1.4c-0.1,0-0.2-0.1-0.5-0.2c-0.3-0.1-0.5-0.2-0.6-0.2c-0.1-0.1-0.4-0.1-0.6-0.2
	c-0.3-0.1-0.5-0.2-0.7-0.2c-0.2,0-0.4-0.1-0.6-0.1c-0.2,0-0.4-0.1-0.6-0.1H7V14.3h0.6c0.2,0,0.4-0.1,0.6-0.2C8.5,14,8.7,13.9,9,13.6
	c0.2-0.2,0.5-0.4,0.7-0.7c0.2-0.2,0.5-0.5,0.7-0.8c0.3-0.3,0.5-0.6,0.6-0.8c0.2-0.2,0.3-0.5,0.6-0.8c0.2-0.3,0.4-0.5,0.4-0.6
	c0.7-0.8,1.1-1.4,1.4-1.7c0.5-0.5,0.9-1.2,1.1-2c0.2-0.8,0.4-1.6,0.6-2.3c0.1-0.7,0.4-1.3,0.7-1.6c1.2,0,1.9,0.3,2.3,0.9
	c0.4,0.6,0.6,1.5,0.6,2.7c0,0.7-0.3,1.7-0.9,3c-0.6,1.3-0.9,2.3-0.9,3h6.4c0.6,0,1.1,0.2,1.6,0.7c0.5,0.5,0.7,1,0.7,1.7
	C25.7,14.7,25.5,15.2,25.3,15.8z"/>
</svg>
