<?xml version="1.0" encoding="utf-8"?>
<!-- Generator: Adobe Illustrator 21.0.2, SVG Export Plug-In . SVG Version: 6.00 Build 0)  -->
<svg version="1.1" id="Layer_1" xmlns="http://www.w3.org/2000/svg"  x="0px" y="0px"
	 width="489px" height="489px" viewBox="0 0 489 489" style="enable-background:new 0 0 489 489;" xml:space="preserve">
<style type="text/css">
	.st0{opacity:3.000000e-02;}
	.st1{fill:#FFFFFF;}
	.st2{opacity:3.000000e-02;fill-rule:evenodd;clip-rule:evenodd;fill:#FFFFFF;}
</style>
<g class="st0">
	<path class="st1" d="M244.5,105c37.3,0,72.3,14.5,98.6,40.9c26.3,26.3,40.9,61.4,40.9,98.6s-14.5,72.3-40.9,98.6
		c-26.3,26.3-61.4,40.9-98.6,40.9s-72.3-14.5-98.6-40.9c-26.3-26.3-40.9-61.4-40.9-98.6s14.5-72.3,40.9-98.6S207.2,105,244.5,105
		 M244.5,35C128.8,35,35,128.8,35,244.5C35,360.2,128.8,454,244.5,454S454,360.2,454,244.5C454,128.8,360.2,35,244.5,35L244.5,35z"
		/>
</g>
<path class="st2" d="M245,153c49.7,0,90,40.3,90,90c0,49.7-40.3,90-90,90c-49.7,0-90-40.3-90-90C155,193.3,195.3,153,245,153z"/>
</svg>
