<?xml version="1.0" encoding="utf-8"?>
<!-- Generator: Adobe Illustrator 21.0.2, SVG Export Plug-In . SVG Version: 6.00 Build 0)  -->
<svg version="1.1" id="Layer_1" xmlns="http://www.w3.org/2000/svg" xmlns:xlink="http://www.w3.org/1999/xlink" x="0px" y="0px"
	 width="1248px" height="695px" viewBox="0 0 1248 695" style="enable-background:new 0 0 1248 695;" xml:space="preserve">
<style type="text/css">
	.st0{opacity:0.5;}
	.st1{fill:#D1A923;}
</style>
<g class="st0">
	<g>
		<path class="st1" d="M423.6,207.7c-5.3-3-12.1-2.3-18.6,1.8L285.4,285c-3.3,2.1-4.3,6.5-2.2,9.8c2.1,3.3,6.5,4.3,9.8,2.2
			l119.6-75.5c2.5-1.6,3.9-1.5,4.1-1.4c0.2,0.1,1,1.2,1,4.2c0,8-6,18.9-12.7,23.1l-115.9,73.2c-6.2,3.9-11.8,5-15.5,2.9
			c-3.7-2-5.8-7.4-5.8-14.7c0-18.5,13.2-42.5,28.8-52.3l132-83.3c2.1-1.3,3.3-3.6,3.3-6c0-2.5-1.3-4.7-3.3-6L175,1.1
			c-2.3-1.5-5.3-1.5-7.6,0L33.9,85.5C14.9,97.4,0,124.5,0,147v3.8c0,22.5,14.9,49.5,33.9,61.5l198.7,125.5c3.3,2.1,7.7,1.1,9.8-2.2
			c2.1-3.3,1.1-7.7-2.2-9.8L41.4,200.2c-14.7-9.3-27.2-31.9-27.2-49.4V147c0-17.5,12.5-40.1,27.2-49.4l129.8-82l240.3,151.7
			l-122.4,77.3c-19.9,12.6-35.5,40.9-35.5,64.4c0,12.8,4.7,22.5,13.1,27.2c3.4,1.9,7.1,2.8,11.1,2.8c5.9,0,12.3-2.1,18.8-6.2
			l115.9-73.2c10.9-6.9,19.4-22.3,19.4-35.2C432,216.7,428.9,210.6,423.6,207.7z M335.8,174.4c2.4,0,4.7-1.2,6-3.3
			c2.1-3.3,1.1-7.7-2.2-9.8L175,57.4c-3.3-2.1-7.7-1.1-9.8,2.2c-2.1,3.3-1.1,7.7,2.2,9.8L332,173.3
			C333.2,174.1,334.5,174.4,335.8,174.4z M307.3,193.4c2.4,0,4.7-1.2,6-3.3c2.1-3.3,1.1-7.7-2.3-9.8l-69.5-43.7
			c-3.3-2.1-7.7-1.1-9.8,2.3c-2.1,3.3-1.1,7.7,2.3,9.8l69.5,43.7C304.7,193,306,193.4,307.3,193.4z M212.6,155.3
			c-3.3-2.1-7.7-1.1-9.8,2.3c-2.1,3.3-1.1,7.7,2.3,9.8l70,43.9c1.2,0.7,2.5,1.1,3.8,1.1c2.4,0,4.7-1.2,6-3.4
			c2.1-3.3,1.1-7.7-2.3-9.8L212.6,155.3z M137.9,76l-59.2,37.4c-2.1,1.3-3.3,3.6-3.3,6.1c0,2.5,1.3,4.7,3.4,6l70.6,44
			c1.2,0.7,2.5,1.1,3.8,1.1c1.3,0,2.7-0.4,3.9-1.1l15.7-10.2c3.3-2.1,4.2-6.6,2.1-9.9c-2.1-3.3-6.5-4.3-9.8-2.1L153,155l-57.1-35.6
			l45.8-28.9l56.2,35.4l-6.6,4.3c-3.3,2.1-4.2,6.6-2.1,9.9c2.1,3.3,6.5,4.3,9.8,2.1l16-10.3c2-1.3,3.3-3.6,3.3-6
			c0-2.4-1.3-4.7-3.3-6L145.4,76C143.1,74.6,140.2,74.6,137.9,76z M256.4,227.9c2.1-3.3,1.1-7.8-2.3-9.8l-70.6-44
			c-3.3-2.1-7.7-1.1-9.8,2.3c-2.1,3.3-1.1,7.8,2.3,9.8l70.6,44c1.2,0.7,2.5,1.1,3.8,1.1C252.8,231.3,255.1,230.1,256.4,227.9z
			 M50.8,136.5c-2.1,3.3-1.1,7.8,2.3,9.8L227.3,255c1.2,0.7,2.5,1.1,3.8,1.1c2.4,0,4.7-1.2,6.1-3.4c2.1-3.3,1.1-7.8-2.3-9.8
			L60.6,134.2C57.3,132.1,52.9,133.2,50.8,136.5z"/>
	</g>
</g>
<g class="st0">
	<g>
		<path class="st1" d="M1239.6,332.7c-5.3-3-12.1-2.3-18.6,1.8L1101.4,410c-3.3,2.1-4.3,6.5-2.2,9.8c2.1,3.3,6.5,4.3,9.8,2.2
			l119.6-75.5c2.5-1.6,3.9-1.5,4.1-1.4c0.2,0.1,1,1.2,1,4.2c0,8-6,18.9-12.7,23.1l-115.9,73.2c-6.2,3.9-11.8,5-15.5,2.9
			c-3.7-2-5.8-7.4-5.8-14.7c0-18.5,13.2-42.5,28.8-52.3l132-83.3c2.1-1.3,3.3-3.6,3.3-6c0-2.5-1.3-4.7-3.3-6L991,126.1
			c-2.3-1.5-5.3-1.5-7.6,0l-133.6,84.4c-19,12-33.9,39-33.9,61.5v3.8c0,22.5,14.9,49.5,33.9,61.5l198.7,125.5
			c3.3,2.1,7.7,1.1,9.8-2.2c2.1-3.3,1.1-7.7-2.2-9.8L857.4,325.2c-14.7-9.3-27.2-31.9-27.2-49.4V272c0-17.5,12.5-40.1,27.2-49.4
			l129.8-82l240.3,151.7l-122.4,77.3c-19.9,12.6-35.5,40.9-35.5,64.4c0,12.8,4.7,22.5,13.1,27.2c3.4,1.9,7.1,2.8,11.1,2.8
			c5.9,0,12.3-2.1,18.8-6.2l115.9-73.2c10.9-6.9,19.4-22.3,19.4-35.2C1248,341.7,1244.9,335.6,1239.6,332.7z M1151.8,299.4
			c2.4,0,4.7-1.2,6-3.3c2.1-3.3,1.1-7.7-2.2-9.8L991,182.4c-3.3-2.1-7.7-1.1-9.8,2.2c-2.1,3.3-1.1,7.7,2.2,9.8L1148,298.3
			C1149.2,299.1,1150.5,299.4,1151.8,299.4z M1123.3,318.4c2.4,0,4.7-1.2,6-3.3c2.1-3.3,1.1-7.7-2.3-9.8l-69.5-43.7
			c-3.3-2.1-7.7-1.1-9.8,2.3c-2.1,3.3-1.1,7.7,2.3,9.8l69.5,43.7C1120.7,318,1122,318.4,1123.3,318.4z M1028.6,280.3
			c-3.3-2.1-7.7-1.1-9.8,2.3c-2.1,3.3-1.1,7.7,2.3,9.8l70,43.9c1.2,0.7,2.5,1.1,3.8,1.1c2.4,0,4.7-1.2,6-3.4
			c2.1-3.3,1.1-7.7-2.3-9.8L1028.6,280.3z M953.9,201l-59.2,37.4c-2.1,1.3-3.3,3.6-3.3,6.1c0,2.5,1.3,4.7,3.4,6l70.6,44
			c1.2,0.7,2.5,1.1,3.8,1.1c1.3,0,2.7-0.4,3.9-1.1l15.7-10.2c3.3-2.1,4.2-6.6,2.1-9.9c-2.1-3.3-6.5-4.3-9.8-2.1L969,280l-57.1-35.6
			l45.8-28.9l56.2,35.4l-6.6,4.3c-3.3,2.1-4.2,6.6-2.1,9.9c2.1,3.3,6.5,4.3,9.8,2.1l16-10.3c2-1.3,3.3-3.6,3.3-6
			c0-2.4-1.3-4.7-3.3-6L961.4,201C959.1,199.6,956.2,199.6,953.9,201z M1072.4,352.9c2.1-3.3,1.1-7.8-2.3-9.8l-70.6-44
			c-3.3-2.1-7.7-1.1-9.8,2.3c-2.1,3.3-1.1,7.8,2.3,9.8l70.6,44c1.2,0.7,2.5,1.1,3.8,1.1C1068.8,356.3,1071.1,355.1,1072.4,352.9z
			 M866.8,261.5c-2.1,3.3-1.1,7.8,2.3,9.8L1043.3,380c1.2,0.7,2.5,1.1,3.8,1.1c2.4,0,4.7-1.2,6.1-3.4c2.1-3.3,1.1-7.8-2.3-9.8
			L876.6,259.2C873.3,257.1,868.9,258.2,866.8,261.5z"/>
	</g>
</g>
<g class="st0">
	<g>
		<path class="st1" d="M731.6,563.7c-5.3-3-12.1-2.3-18.6,1.8L593.4,641c-3.3,2.1-4.3,6.5-2.2,9.8c2.1,3.3,6.5,4.3,9.8,2.2
			l119.6-75.5c2.5-1.6,3.9-1.5,4.1-1.4c0.2,0.1,1,1.2,1,4.2c0,8-6,18.9-12.7,23.1l-115.9,73.2c-6.2,3.9-11.8,5-15.5,2.9
			c-3.7-2-5.8-7.4-5.8-14.7c0-18.5,13.2-42.5,28.8-52.3l132-83.3c2.1-1.3,3.3-3.6,3.3-6c0-2.5-1.3-4.7-3.3-6L483,357.1
			c-2.3-1.5-5.3-1.5-7.6,0l-133.6,84.4c-19,12-33.9,39-33.9,61.5v3.8c0,22.5,14.9,49.5,33.9,61.5l198.7,125.5
			c3.3,2.1,7.7,1.1,9.8-2.2c2.1-3.3,1.1-7.7-2.2-9.8L349.4,556.2c-14.7-9.3-27.2-31.9-27.2-49.4V503c0-17.5,12.5-40.1,27.2-49.4
			l129.8-82l240.3,151.7l-122.4,77.3c-19.9,12.6-35.5,40.9-35.5,64.4c0,12.8,4.7,22.5,13.1,27.2c3.4,1.9,7.1,2.8,11.1,2.8
			c5.9,0,12.3-2.1,18.8-6.2l115.9-73.2c10.9-6.9,19.4-22.3,19.4-35.2C740,572.7,736.9,566.6,731.6,563.7z M643.8,530.4
			c2.4,0,4.7-1.2,6-3.3c2.1-3.3,1.1-7.7-2.2-9.8L483,413.4c-3.3-2.1-7.7-1.1-9.8,2.2c-2.1,3.3-1.1,7.7,2.2,9.8L640,529.3
			C641.2,530.1,642.5,530.4,643.8,530.4z M615.3,549.4c2.4,0,4.7-1.2,6-3.3c2.1-3.3,1.1-7.7-2.3-9.8l-69.5-43.7
			c-3.3-2.1-7.7-1.1-9.8,2.3c-2.1,3.3-1.1,7.7,2.3,9.8l69.5,43.7C612.7,549,614,549.4,615.3,549.4z M520.6,511.3
			c-3.3-2.1-7.7-1.1-9.8,2.3c-2.1,3.3-1.1,7.7,2.3,9.8l70,43.9c1.2,0.7,2.5,1.1,3.8,1.1c2.4,0,4.7-1.2,6-3.4
			c2.1-3.3,1.1-7.7-2.3-9.8L520.6,511.3z M445.9,432l-59.2,37.4c-2.1,1.3-3.3,3.6-3.3,6.1c0,2.5,1.3,4.7,3.4,6l70.6,44
			c1.2,0.7,2.5,1.1,3.8,1.1c1.3,0,2.7-0.4,3.9-1.1l15.7-10.2c3.3-2.1,4.2-6.6,2.1-9.9c-2.1-3.3-6.5-4.3-9.8-2.1L461,511l-57.1-35.6
			l45.8-28.9l56.2,35.4l-6.6,4.3c-3.3,2.1-4.2,6.6-2.1,9.9c2.1,3.3,6.5,4.3,9.8,2.1l16-10.3c2-1.3,3.3-3.6,3.3-6
			c0-2.4-1.3-4.7-3.3-6L453.4,432C451.1,430.6,448.2,430.6,445.9,432z M564.4,583.9c2.1-3.3,1.1-7.8-2.3-9.8l-70.6-44
			c-3.3-2.1-7.7-1.1-9.8,2.3c-2.1,3.3-1.1,7.8,2.3,9.8l70.6,44c1.2,0.7,2.5,1.1,3.8,1.1C560.8,587.3,563.1,586.1,564.4,583.9z
			 M358.8,492.5c-2.1,3.3-1.1,7.8,2.3,9.8L535.3,611c1.2,0.7,2.5,1.1,3.8,1.1c2.4,0,4.7-1.2,6.1-3.4c2.1-3.3,1.1-7.8-2.3-9.8
			L368.6,490.2C365.3,488.1,360.9,489.2,358.8,492.5z"/>
	</g>
</g>
</svg>
