<?xml version="1.0" encoding="utf-8"?>
<!-- Generator: Adobe Illustrator 19.1.0, SVG Export Plug-In . SVG Version: 6.00 Build 0)  -->
<svg version="1.1" id="Layer_1" xmlns="http://www.w3.org/2000/svg" xmlns:xlink="http://www.w3.org/1999/xlink" x="0px" y="0px"
	 width="1586.5px" height="736.9px" viewBox="-306.5 735.1 1586.5 736.9" style="enable-background:new -306.5 735.1 1586.5 736.9;"
	 xml:space="preserve">
<style type="text/css">
	.st0{opacity:0.5;}
	.st1{fill:#D1A923;}
</style>
<image style="display:none;overflow:visible;" width="1593" height="737" xlink:href="594A1131.jpg"  transform="matrix(0.9999 0 0 0.9999 -309.5002 736.0852)">
</image>
<g class="st0">
	<path class="st1" d="M1278.7,893.2l-53.4-144.4c-1.9-5.2-5.8-9.4-10.9-11.8c-5.1-2.3-10.8-2.6-16-0.6l-260.5,96.4
		c-5.2,1.9-9.4,5.8-11.8,10.9c-2.3,5.1-2.6,10.8-0.6,16l53.4,144.4c1.9,5.2,5.8,9.4,10.9,11.8c2.8,1.3,5.8,1.9,8.7,1.9
		c2.5,0,4.9-0.4,7.3-1.3l260.5-96.4h0C1277.2,916.1,1282.7,904,1278.7,893.2 M1103.2,879.6l-136.5-35.1L1184,764L1103.2,879.6z
		 M1105,901.7c0.9,0.2,1.7,0.3,2.6,0.3c3.4,0,6.6-1.6,8.6-4.5l16.6-23.7l107.3,33.7l-222.7,82.4l59.6-95.4L1105,901.7z
		 M1255.3,890.3l-109.9-34.5l63.5-90.8L1255.3,890.3z M948.4,861.4l107.3,27.6l-61,97.7L948.4,861.4z"/>
	<path class="st1" d="M920.4,1000.8l-39.5,14.6c-5.4,2-8.2,8-6.2,13.5c1.6,4.2,5.6,6.8,9.8,6.8c1.2,0,2.4-0.2,3.6-0.7l39.5-14.6
		c5.4-2,8.2-8,6.2-13.5C931.8,1001.6,925.8,998.8,920.4,1000.8"/>
	<path class="st1" d="M846.2,932.9c1.2,0,2.4-0.2,3.6-0.7l24.4-9c5.4-2,8.2-8,6.2-13.5c-2-5.4-8-8.2-13.5-6.2l-24.4,9
		c-5.4,2-8.2,8-6.2,13.5C838,930.3,842,932.9,846.2,932.9"/>
	<path class="st1" d="M836.8,982.9l-18.1,6.7c-5.4,2-8.2,8-6.2,13.5c1.6,4.2,5.6,6.8,9.8,6.8c1.2,0,2.4-0.2,3.6-0.7l18.1-6.7
		c5.4-2,8.2-8,6.2-13.5C848.2,983.7,842.2,980.9,836.8,982.9"/>
</g>
<g class="st0">
	<path class="st1" d="M1073.5,1329.5l-53.4-144.4c-1.9-5.2-5.8-9.4-10.9-11.8c-5.1-2.3-10.8-2.6-16-0.6l-260.5,96.4
		c-5.2,1.9-9.4,5.8-11.8,10.9c-2.3,5.1-2.6,10.8-0.6,16l53.4,144.4c1.9,5.2,5.8,9.4,10.9,11.8c2.8,1.3,5.8,1.9,8.7,1.9
		c2.5,0,4.9-0.4,7.3-1.3l260.5-96.4h0C1072,1352.4,1077.6,1340.3,1073.5,1329.5 M898.1,1315.9l-136.5-35.1l217.4-80.4L898.1,1315.9z
		 M899.9,1338c0.9,0.2,1.7,0.3,2.6,0.3c3.4,0,6.6-1.6,8.6-4.5l16.6-23.7l107.3,33.7l-222.7,82.4l59.6-95.4L899.9,1338z
		 M1050.1,1326.6l-109.9-34.5l63.5-90.8L1050.1,1326.6z M743.3,1297.7l107.3,27.6l-61,97.7L743.3,1297.7z"/>
	<path class="st1" d="M715.2,1437.1l-39.5,14.6c-5.4,2-8.2,8-6.2,13.5c1.6,4.2,5.6,6.8,9.8,6.8c1.2,0,2.4-0.2,3.6-0.7l39.5-14.6
		c5.4-2,8.2-8,6.2-13.5C726.7,1437.9,720.7,1435.1,715.2,1437.1"/>
	<path class="st1" d="M641.1,1369.2c1.2,0,2.4-0.2,3.6-0.7l24.4-9c5.4-2,8.2-8,6.2-13.5c-2-5.4-8-8.2-13.5-6.2l-24.4,9
		c-5.4,2-8.2,8-6.2,13.5C632.8,1366.6,636.8,1369.2,641.1,1369.2"/>
	<path class="st1" d="M631.6,1419.2l-18.1,6.7c-5.4,2-8.2,8-6.2,13.5c1.6,4.2,5.6,6.8,9.8,6.8c1.2,0,2.4-0.2,3.6-0.7l18.1-6.7
		c5.4-2,8.2-8,6.2-13.5C643.1,1420,637,1417.2,631.6,1419.2"/>
</g>
<g class="st0">
	<path class="st1" d="M160.4,1092L107,947.5c-1.9-5.2-5.8-9.4-10.9-11.8c-5.1-2.3-10.8-2.6-16-0.6l-260.5,96.4
		c-5.2,1.9-9.4,5.8-11.8,10.9c-2.3,5.1-2.6,10.8-0.6,16l53.4,144.4c1.9,5.2,5.8,9.4,10.9,11.8c2.8,1.3,5.8,1.9,8.7,1.9
		c2.5,0,4.9-0.4,7.3-1.3l260.5-96.4h0C158.9,1114.9,164.4,1102.8,160.4,1092 M-15.1,1078.3l-136.5-35.1l217.4-80.4L-15.1,1078.3z
		 M-13.3,1100.4c0.9,0.2,1.7,0.3,2.6,0.3c3.4,0,6.6-1.6,8.6-4.5l16.6-23.7l107.3,33.7l-222.7,82.4l59.6-95.4L-13.3,1100.4z
		 M137,1089l-109.9-34.5l63.5-90.8L137,1089z M-169.9,1060.1l107.3,27.6l-61,97.7L-169.9,1060.1z"/>
	<path class="st1" d="M-197.9,1199.6l-39.5,14.6c-5.4,2-8.2,8-6.2,13.5c1.6,4.2,5.6,6.8,9.8,6.8c1.2,0,2.4-0.2,3.6-0.7l39.5-14.6
		c5.4-2,8.2-8,6.2-13.5C-186.5,1200.3-192.5,1197.5-197.9,1199.6"/>
	<path class="st1" d="M-272.1,1131.6c1.2,0,2.4-0.2,3.6-0.7l24.4-9c5.4-2,8.2-8,6.2-13.5c-2-5.4-8-8.2-13.5-6.2l-24.4,9
		c-5.4,2-8.2,8-6.2,13.5C-280.3,1129-276.3,1131.6-272.1,1131.6"/>
	<path class="st1" d="M-281.5,1181.7l-18.1,6.7c-5.4,2-8.2,8-6.2,13.5c1.6,4.2,5.6,6.8,9.8,6.8c1.2,0,2.4-0.2,3.6-0.7l18.1-6.7
		c5.4-2,8.2-8,6.2-13.5C-270.1,1182.4-276.1,1179.7-281.5,1181.7"/>
</g>
</svg>
