<?xml version="1.0" encoding="utf-8"?>
<!-- Generator: Adobe Illustrator 21.0.2, SVG Export Plug-In . SVG Version: 6.00 Build 0)  -->
<svg version="1.1" id="Layer_2" xmlns="http://www.w3.org/2000/svg"  x="0px" y="0px"
	 width="359.6px" height="360px" viewBox="0 0 359.6 360" style="enable-background:new 0 0 359.6 360;" xml:space="preserve">
<style type="text/css">
	.st0{fill:#F7D561;}
	.st1{fill:#F5CA3A;}
</style>
<circle class="st0" cx="-122.9" cy="-25.2" r="482.5"/>
<g>
	<path class="st1" d="M316.1,174.2c11.8-25.9,21.5-53,28.6-81.1L214,202.3L316.1,174.2z"/>
	<polygon class="st1" points="213.2,203 213.2,203 213.2,203 	"/>
	<path class="st1" d="M118.1,391.9c44.6-25.8,84.8-58.5,118.9-96.7l-24.1-91.4L118.1,391.9z"/>
	<path class="st1" d="M212.9,203.6l-0.1-0.3l-0.2,0l0,0l0,0l-298.8,34l-0.2-125l298.9,90.6l0-0.1l-0.1,0l0.1,0l0-0.1L-49.4,10.3
		l97-89l164.8,280.6L173.6-26.7h89l-49.8,229.2l0.1,0.1l0.6-0.2l146-238.1c-5-262.1-219.1-473.1-482.4-473.1
		c-266.5,0-482.5,216-482.5,482.5s216,482.5,482.5,482.5c60.9,0,119.1-11.3,172.7-31.8l-75.2-94.2L212.9,203.6z"/>
	<polygon class="st1" points="212.7,203 212.7,203 212.7,202.9 	"/>
	<path class="st1" d="M213.2,203L213.2,203l53.8,55c8.4-11.6,16.4-23.5,23.8-35.8L213.2,203z"/>
	<polygon class="st1" points="212.7,202.8 212.6,202.7 212.5,202.7 212.5,202.8 212.7,202.8 	"/>
	<polygon class="st1" points="213.5,202.5 213.2,203 213.2,203 214,202.3 	"/>
	<polygon class="st1" points="212.7,202.8 212.7,202.9 212.7,202.8 	"/>
	<polygon class="st1" points="212.8,202.6 212.8,202.5 212.7,202.5 	"/>
	<polygon class="st1" points="213.1,203.1 213.2,203 213.2,203 	"/>
	<polygon class="st1" points="213.1,203.1 213.1,203.1 213.1,203.1 213.1,203.1 	"/>
	<polygon class="st1" points="213,202.9 213.2,203 212.9,202.6 212.8,202.7 	"/>
	<polygon class="st1" points="212.7,202.9 212.7,202.8 212.7,202.8 	"/>
	<polygon class="st1" points="213.1,203.4 212.9,203.6 212.9,203.8 	"/>
	<polygon class="st1" points="212.5,202.9 212.6,203.3 212.6,203.3 212.7,203 	"/>
	<polygon class="st1" points="213.1,203.1 213.1,203.1 213.1,203.1 213,203.1 212.7,203 212.8,203.2 213.4,203.2 213.1,203.1 
		213.1,203.1 	"/>
	<polygon class="st1" points="212.7,202.7 212.6,202.3 212.4,202.2 212.5,202.7 212.6,202.7 	"/>
	<polygon class="st1" points="212.7,202.5 212.4,201.9 212.4,202.2 	"/>
	<polygon class="st1" points="213,203.1 213.1,203.1 213,202.9 212.7,202.9 	"/>
	<polygon class="st1" points="212.8,202.7 212.8,202.6 212.7,202.7 	"/>
	<polygon class="st1" points="212.2,202 212.4,202.2 212.4,202.2 	"/>
	<polygon class="st1" points="212.7,202.7 212.7,202.7 212.7,202.8 212.7,202.8 	"/>
</g>
</svg>
