<?xml version="1.0" encoding="utf-8"?>
<!-- Generator: Adobe Illustrator 21.0.2, SVG Export Plug-In . SVG Version: 6.00 Build 0)  -->
<svg version="1.1" id="Layer_1" xmlns="http://www.w3.org/2000/svg"  x="0px" y="0px"
	 width="9px" height="7px" viewBox="0 0 9 7" style="enable-background:new 0 0 9 7;" xml:space="preserve">
<style type="text/css">
	.st0{fill:#FFFFFF;}
</style>
<path class="st0" d="M9,1.4C9,1.2,8.9,1.1,8.8,1L8,0.2C7.9,0.1,7.8,0,7.6,0C7.5,0,7.4,0.1,7.3,0.2L3.4,4L1.7,2.3
	C1.6,2.2,1.5,2.1,1.3,2.1C1.2,2.1,1.1,2.2,1,2.3L0.2,3.1C0.1,3.2,0,3.3,0,3.5c0,0.1,0.1,0.3,0.2,0.4L2.3,6l0.8,0.8
	C3.2,6.9,3.3,7,3.4,7c0.1,0,0.3-0.1,0.4-0.2L4.6,6l4.2-4.3C8.9,1.7,9,1.5,9,1.4z"/>
</svg>
