<?xml version="1.0" encoding="utf-8"?>
<!-- Generator: Adobe Illustrator 21.0.2, SVG Export Plug-In . SVG Version: 6.00 Build 0)  -->
<svg version="1.1" id="Layer_1" xmlns="http://www.w3.org/2000/svg"  x="0px" y="0px"
	 width="1226px" height="1226px" viewBox="0 0 1226 1226" style="enable-background:new 0 0 1226 1226;" xml:space="preserve">
<style type="text/css">
	.st0{fill-rule:evenodd;clip-rule:evenodd;fill:#F5F5F7;}
	.st1{fill:#7979B2;}
</style>
<g>
	<path class="st0" d="M571.5,1036c-60.7,0-119.7-11.9-175.2-35.4c-53.6-22.7-101.7-55.1-143-96.4s-73.8-89.4-96.4-143
		c-23.5-55.5-35.4-114.4-35.4-175.2c0-60.7,11.9-119.7,35.4-175.2c22.7-53.6,55.1-101.7,96.4-143s89.4-73.8,143-96.4
		c55.5-23.5,114.4-35.4,175.2-35.4c60.7,0,119.7,11.9,175.2,35.4c53.6,22.7,101.7,55.1,143,96.4s73.8,89.4,96.4,143
		c23.5,55.5,35.4,114.4,35.4,175.2c0,60.7-11.9,119.7-35.4,175.2c-22.7,53.6-55.1,101.7-96.4,143s-89.4,73.8-143,96.4
		C691.2,1024.1,632.2,1036,571.5,1036z"/>
	<path class="st1" d="M571.5,172c228.6,0,414,185.4,414,414s-185.4,414-414,414s-414-185.4-414-414S342.9,172,571.5,172 M571.5,100
		c-65.6,0-129.2,12.9-189.2,38.2c-57.9,24.5-109.8,59.5-154.5,104.1c-44.6,44.6-79.6,96.6-104.1,154.5
		c-25.4,60-38.2,123.6-38.2,189.2s12.9,129.2,38.2,189.2c24.5,57.9,59.5,109.8,104.1,154.5c44.6,44.6,96.6,79.6,154.5,104.1
		c60,25.4,123.6,38.2,189.2,38.2s129.2-12.9,189.2-38.2c57.9-24.5,109.8-59.5,154.5-104.1c44.6-44.6,79.6-96.6,104.1-154.5
		c25.4-60,38.2-123.6,38.2-189.2s-12.9-129.2-38.2-189.2c-24.5-57.9-59.5-109.8-104.1-154.5c-44.6-44.6-96.6-79.6-154.5-104.1
		C700.7,112.9,637.1,100,571.5,100L571.5,100z"/>
</g>
</svg>
