<?xml version="1.0" encoding="utf-8"?>
<!-- Generator: Adobe Illustrator 21.0.2, SVG Export Plug-In . SVG Version: 6.00 Build 0)  -->
<svg version="1.1" id="Layer_1" xmlns="http://www.w3.org/2000/svg"  x="0px" y="0px"
	 width="1226px" height="1226px" viewBox="0 0 1226 1226" style="enable-background:new 0 0 1226 1226;" xml:space="preserve">
<style type="text/css">
	.st0{fill-rule:evenodd;clip-rule:evenodd;fill:#F5F5F7;}
	.st1{fill-rule:evenodd;clip-rule:evenodd;fill:#FFFFFF;}
	.st2{fill-rule:evenodd;clip-rule:evenodd;fill:#F6F6F8;}
</style>
<path class="st0" d="M613,0C274.4,0,0,274.4,0,613s274.4,613,613,613s613-274.4,613-613S951.6,0,613,0z M614,826
	c-117.6,0-213-95.4-213-213c0-117.6,95.4-213,213-213c117.6,0,213,95.4,213,213C827,730.6,731.6,826,614,826z"/>
<path class="st1" d="M612,151c-255.2,0-462,206.8-462,462s206.8,462,462,462s462-206.8,462-462S867.2,151,612,151z M614,826
	c-117.6,0-213-95.4-213-213c0-117.6,95.4-213,213-213c117.6,0,213,95.4,213,213C827,730.6,731.6,826,614,826z"/>
<path class="st2" d="M612.5,274C425,274,273,426,273,613.5S425,953,612.5,953S952,801,952,613.5S800,274,612.5,274z M614,826
	c-117.6,0-213-95.4-213-213c0-117.6,95.4-213,213-213c117.6,0,213,95.4,213,213C827,730.6,731.6,826,614,826z"/>
</svg>
