<?xml version="1.0" encoding="utf-8"?>
<!-- Generator: Adobe Illustrator 21.0.2, SVG Export Plug-In . SVG Version: 6.00 Build 0)  -->
<svg version="1.1" id="Слой_1" xmlns="http://www.w3.org/2000/svg" xmlns:xlink="http://www.w3.org/1999/xlink" x="0px" y="0px"
	 width="40.8121px" height="25.6064px" viewBox="0 0 40.8121 25.6064" style="enable-background:new 0 0 40.8121 25.6064;"
	 xml:space="preserve">
<style type="text/css">
	.st0{fill:#060606;}
</style>
<g>
	<path class="st0" d="M9.5181,19.5674c-0.4258,0-0.8472-0.1299-1.2148-0.3789c-0.894-0.605-1.355-1.8745-0.5049-3.1309l3.145-4.6509
		c0.8506-1.2573,2.2002-1.3003,3.0942-0.6963c0.894,0.605,1.355,1.8745,0.5049,3.1309l-3.145,4.6509
		c-0.4946,0.731-1.1011,0.9712-1.5225,1.0444C9.7563,19.5571,9.6367,19.5674,9.5181,19.5674z M12.8218,11.332
		c-0.062,0-0.124,0.0049-0.1851,0.0156c-0.3306,0.0571-0.6299,0.2715-0.8652,0.6196l-3.145,4.6509
		c-0.5068,0.7495-0.2466,1.415,0.2368,1.7422c0.4854,0.3267,1.1982,0.3208,1.7061-0.4287l3.145-4.6509l0,0
		c0.2354-0.3477,0.3228-0.7051,0.2529-1.0332c-0.0605-0.2842-0.2349-0.5361-0.4897-0.709
		C13.2764,11.4028,13.0493,11.332,12.8218,11.332z"/>
	<path class="st0" d="M22.5503,24.9394c-0.6665,0-1.3135-0.3267-1.7969-0.9346l-0.4448-0.5596
		c-0.1719-0.2158-0.1357-0.5308,0.0806-0.7026c0.2158-0.1719,0.5303-0.1357,0.7026,0.0806l0.4448,0.5596
		c0.397,0.5005,0.915,0.6738,1.417,0.4785c0.48-0.187,0.791-0.6587,0.7568-1.147c-0.0146-0.2051,0.0981-0.3984,0.2842-0.4868
		c0.186-0.0879,0.4067-0.0537,0.5566,0.0874c0.6484,0.6089,1.3638,0.4424,1.7808,0.1162c0.417-0.3271,0.75-0.9819,0.3164-1.7505
		c-0.1221-0.2163-0.0669-0.4893,0.1299-0.6411c0.1968-0.1528,0.4746-0.1367,0.6533,0.0361
		c0.6626,0.6411,1.3945,0.4658,1.8198,0.1206c0.4253-0.3447,0.7461-1.0273,0.2505-1.8154c-0.1304-0.207-0.0913-0.4785,0.0923-0.6406
		c0.1826-0.1636,0.457-0.1685,0.6475-0.0127c0.5674,0.4634,1.1953,0.3013,1.5664-0.0645c0.3506-0.3462,0.5396-0.9473,0.0449-1.6133
		c-0.0146-0.0088-0.0283-0.0186-0.0415-0.0288c-1.4243-1.1313-2.7056-2.5937-3.9448-4.0078c-1.2378-1.4131-2.4072-2.7476-3.52-3.499
		c-1.3584-0.9175-4.0347-2.2676-6.688-0.9976c-1.4658,0.7007-2.8628,1.1128-4.0396,1.1909
		c-1.7998,0.1147-2.7397-0.6011-2.9941-1.2559c-0.187-0.4805-0.0547-0.9775,0.3452-1.2979
		c0.2495-0.2002,0.4946-0.3872,0.7451-0.5781c0.2485-0.1895,0.5024-0.3833,0.771-0.5981c0.6709-0.5361,1.2725-1.0376,1.8179-1.4922
		c1.5059-1.2549,2.5547-2.1294,3.5239-2.4868c-0.9536,0.0088-1.8901,0.2959-3.0093,0.6392
		c-2.2065,0.6763-4.5332,1.2754-6.8257,1.1411L4.583,12.5723c0.4458,0.292,0.875,0.6689,1.3022,1.1436l2.4541,2.7656
		c0.1831,0.2065,0.1646,0.5225-0.042,0.7061c-0.2065,0.1821-0.5229,0.1646-0.7061-0.042l-2.4517-2.7632
		c-0.457-0.5078-0.9292-0.8955-1.4004-1.1504c-0.2158-0.1167-0.3149-0.3726-0.2344-0.6045L7.1753,2.0869
		c0.0752-0.2173,0.2852-0.3608,0.519-0.333c2.2402,0.2075,4.5972-0.3882,6.8105-1.0659c1.9839-0.6079,3.6787-1.1274,5.8638-0.1187
		c0.1987,0.0918,0.3145,0.3013,0.2866,0.5181c-0.0283,0.2168-0.1934,0.3901-0.4087,0.4282
		c-0.7622,0.1357-1.4883,0.2715-1.8481,0.3511c-0.8335,0.2026-1.9326,1.1187-3.4536,2.3867
		c-0.5503,0.4585-1.1572,0.9644-1.834,1.5054c-0.2749,0.2197-0.5347,0.418-0.7891,0.6123c-0.2441,0.186-0.4834,0.3682-0.7266,0.563
		c-0.0498,0.04-0.0693,0.0752-0.0386,0.1553c0.1108,0.2832,0.7524,0.7012,1.9961,0.6201c1.0518-0.0698,2.3223-0.4482,3.6743-1.0952
		c2.3003-1.0996,5.0264-0.7197,7.6792,1.0708c1.2202,0.8242,2.4307,2.2061,3.7129,3.6689c1.1797,1.3467,2.3989,2.7383,3.7144,3.8037
		c0.0791,0.0293,0.1504,0.0776,0.2046,0.1455c0.9541,1.2002,0.6611,2.3916-0.0278,3.0713
		c-0.4385,0.4331-1.0918,0.6943-1.7661,0.6196c0.0645,0.8188-0.3281,1.5454-0.8628,1.979
		c-0.5176,0.4199-1.2754,0.6528-2.0361,0.4604c-0.0098,0.6807-0.3188,1.332-0.8965,1.7842
		c-0.6133,0.481-1.5137,0.6987-2.3735,0.3086c-0.2144,0.5635-0.6665,1.0361-1.2593,1.2666
		C23.0635,24.8916,22.8052,24.9394,22.5503,24.9394z"/>
	<path class="st0" d="M18.4521,25.6064c-0.0498,0-0.0996-0.0015-0.1494-0.0049c-0.7656-0.0547-1.4771-0.5361-1.8125-1.2261
		c-0.3462-0.7119-0.2593-1.5425,0.2388-2.2783l3.145-4.6509c0.8501-1.2559,2.1992-1.3008,3.0942-0.6963
		c0.4702,0.3184,0.793,0.7905,0.9077,1.3291c0.0894,0.4189,0.0918,1.0713-0.4028,1.8022l-3.145,4.6504
		C19.8623,25.2207,19.1851,25.6064,18.4521,25.6064z M21.7534,17.3721c-0.3613,0-0.7441,0.1812-1.0513,0.6348l-3.145,4.6509
		c-0.2964,0.438-0.356,0.8931-0.1675,1.2803c0.1821,0.375,0.5684,0.6362,0.9839,0.666c0.4248,0.0259,0.8296-0.1943,1.1265-0.6328
		l3.145-4.6504l0,0c0.2354-0.3477,0.3228-0.7051,0.2529-1.0332c-0.0605-0.2847-0.2349-0.5366-0.4902-0.7095
		C22.2168,17.4492,21.9897,17.3721,21.7534,17.3721z"/>
	<path class="st0" d="M12.2666,21.9858c-0.4751,0-0.937-0.1489-1.3213-0.4087c-0.5098-0.3447-0.8594-0.856-0.9839-1.439
		c-0.0967-0.4536-0.0991-1.1611,0.438-1.9556l3.4849-5.1528l0,0c0.9209-1.3633,2.3843-1.4116,3.3535-0.7573
		c0.9683,0.6553,1.4668,2.0317,0.5449,3.3945l-3.4849,5.1523C13.7422,21.6416,12.9893,21.9858,12.2666,21.9858z M14.7124,13.5903
		l-3.4849,5.1528c-0.269,0.3979-0.3687,0.8081-0.2881,1.1865c0.0703,0.3291,0.2715,0.6201,0.5659,0.8188
		c0.5576,0.3774,1.3818,0.3726,1.9644-0.4897l3.4849-5.1523c0.5825-0.8618,0.2808-1.6279-0.2773-2.0054
		C16.1201,12.7241,15.2954,12.728,14.7124,13.5903L14.7124,13.5903z"/>
	<path class="st0" d="M15.3369,24.0625c-0.4751,0-0.937-0.1489-1.3213-0.4087c-0.9692-0.6553-1.4678-2.0317-0.5459-3.395
		l3.4849-5.1523c0.9219-1.3628,2.3857-1.4121,3.353-0.7578c0.9688,0.6553,1.4673,2.0317,0.5454,3.3945l0,0l-3.4849,5.1528
		C16.8125,23.7178,16.0591,24.0625,15.3369,24.0625z M18.9907,14.9385c-0.416,0-0.856,0.208-1.208,0.7285l-3.4849,5.1523
		c-0.5825,0.8618-0.2803,1.6284,0.2778,2.0059c0.5571,0.3774,1.3809,0.3726,1.9644-0.4897l3.4849-5.1528
		c0.5825-0.8613,0.2803-1.6279-0.2773-2.0054C19.5264,15.0278,19.2637,14.9385,18.9907,14.9385z M20.439,17.4629h0.0098H20.439z"/>
	<path class="st0" d="M32.1226,16.1294c-0.1104,0-0.2207-0.0366-0.311-0.1084c-1.4243-1.1313-2.7056-2.5937-3.9448-4.0078
		c-1.2378-1.4131-2.4072-2.7476-3.52-3.499c-1.3584-0.9175-4.0347-2.2676-6.688-0.9976c-1.4658,0.7007-2.8628,1.1128-4.0396,1.1909
		c-1.7998,0.1147-2.7397-0.6011-2.9941-1.2559c-0.187-0.4805-0.0547-0.9775,0.3452-1.2979
		c0.2495-0.2002,0.4946-0.3872,0.7451-0.5781c0.2485-0.1895,0.5024-0.3833,0.771-0.5981h0.0005
		c0.6704-0.5361,1.272-1.0376,1.8174-1.4922c1.6855-1.4048,2.7988-2.333,3.8682-2.5928c0.9209-0.2041,3.9683-0.7275,4.4668-0.792
		c1.2715-0.1621,1.9634,0.042,3.812,0.5894l0.2886,0.0854c2.2119,0.6538,4.4507,1.2549,6.2534,1.251c0.0005,0,0.0015,0,0.002,0
		c0.208,0,0.3945,0.1289,0.4678,0.3237l3.8784,10.3042c0.0859,0.2275-0.0044,0.4839-0.2139,0.6069l-4.751,2.7988
		C32.2979,16.1064,32.21,16.1294,32.1226,16.1294z M19.9673,5.9975c1.5938,0,3.2808,0.5684,4.939,1.6875
		c1.2202,0.8242,2.4307,2.2061,3.7129,3.6689c1.1304,1.2905,2.2969,2.6216,3.5493,3.668l4.0889-2.4087L32.647,3.021
		c-1.8223-0.063-4.0459-0.6523-6.1904-1.2866L26.167,1.6489c-1.7964-0.5327-2.3379-0.6948-3.3999-0.5562
		c-0.4761,0.061-3.5034,0.5825-4.3687,0.7739c-0.8335,0.2026-1.9326,1.1187-3.4536,2.3867
		c-0.5503,0.4585-1.1572,0.9644-1.834,1.5054c-0.2749,0.2197-0.5347,0.418-0.7891,0.6123c-0.2441,0.186-0.4834,0.3682-0.7266,0.563
		c-0.0498,0.04-0.0693,0.0752-0.0386,0.1553c0.1108,0.2832,0.7524,0.7012,1.9961,0.6201c1.0518-0.0698,2.3223-0.4482,3.6743-1.0952
		C18.0894,6.2021,19.0117,5.9975,19.9673,5.9975z"/>
	<path class="st0" d="M36.9844,13.499c-0.0698,0-0.1396-0.0146-0.2051-0.0439c-0.1206-0.0542-0.2153-0.1543-0.2622-0.2783
		L32.416,2.3808c-0.0474-0.124-0.043-0.2617,0.0112-0.3828c0.0542-0.1206,0.1543-0.2153,0.2783-0.2622l3.3281-1.2642
		c0.1245-0.0464,0.2612-0.042,0.3828,0.0112c0.1211,0.0542,0.2153,0.1548,0.2622,0.2783l4.1006,10.7959
		c0.0981,0.2583-0.0317,0.5469-0.2896,0.645l-3.3276,1.2642C37.1045,13.4883,37.0444,13.499,36.9844,13.499z M33.5283,2.4932
		l3.7461,9.8608l2.3926-0.9092L35.9214,1.584L33.5283,2.4932z"/>
	<path class="st0" d="M3.8599,13.6016c-0.0557,0-0.1118-0.0093-0.1655-0.0283L0.3345,12.395
		c-0.2607-0.0913-0.3975-0.3765-0.3062-0.6372L3.8496,0.8599c0.0918-0.2598,0.3774-0.3994,0.6372-0.3062l3.3594,1.1777
		c0.125,0.0439,0.2275,0.1353,0.2852,0.2549s0.0649,0.2568,0.021,0.3823L4.3315,13.2671c-0.0439,0.125-0.1357,0.2275-0.2549,0.2852
		C4.0083,13.585,3.9341,13.6016,3.8599,13.6016z M1.1372,11.6172l2.416,0.8472l3.4902-9.9546L4.6279,1.6626L1.1372,11.6172z"/>
</g>
</svg>
