<?xml version="1.0" encoding="utf-8"?>
<!-- Generator: Adobe Illustrator 19.1.0, SVG Export Plug-In . SVG Version: 6.00 Build 0)  -->
<svg version="1.1" id="Слой_1" xmlns="http://www.w3.org/2000/svg" xmlns:xlink="http://www.w3.org/1999/xlink" x="0px" y="0px"
	 width="39.5px" height="41.5px" viewBox="0 0 39.5 41.5" style="enable-background:new 0 0 39.5 41.5;" xml:space="preserve">
<style type="text/css">
	
		.st0{clip-path:url(#SVGID_2_);fill:none;stroke:#00509F;stroke-width:1.5;stroke-linecap:round;stroke-linejoin:round;stroke-miterlimit:22.926;}
</style>
<g>
	<defs>
		<rect id="SVGID_1_" width="39.5" height="41.5"/>
	</defs>
	<clipPath id="SVGID_2_">
		<use xlink:href="#SVGID_1_"  style="overflow:visible;"/>
	</clipPath>
	<path class="st0" d="M26.5,38.7c0,1.1-0.9,2-2,2H2.8c-1.1,0-2-0.9-2-2V15c0-1.1,0.9-2,2-2H8c0.5-0.7,0.5-1.5,0-2.5
		c-0.6-1-0.9-2.1-0.9-3.3c0-3.5,2.9-6.4,6.5-6.4s6.5,2.9,6.5,6.4c0,1.2-0.3,2.3-0.9,3.3h0c-0.5,1-0.5,1.8,0,2.5h5.2c1.1,0,2,0.9,2,2
		v6.4"/>
	<path class="st0" d="M29,34l3.4-3.8l5.5,4.7c1.1,0.9,1.2,2.5,0.2,3.5c-0.9,1-2.5,1.2-3.6,0.2L29,34z"/>
	<path class="st0" d="M32.4,30.2l-4.7,5.3l-9.4-8.1c-4.3-3.7-3.6-8.4-2.5-11.5L32.4,30.2z"/>
	<ellipse class="st0" cx="13.6" cy="6.6" rx="1.3" ry="1.3"/>
</g>
</svg>
