<?xml version="1.0" encoding="utf-8"?>
<!-- Generator: Adobe Illustrator 21.0.2, SVG Export Plug-In . SVG Version: 6.00 Build 0)  -->
<svg version="1.1" id="Режим_изоляции"
	 xmlns="http://www.w3.org/2000/svg"  x="0px" y="0px" width="39.5px" height="41.5px"
	 viewBox="0 0 39.5 41.5" style="enable-background:new 0 0 39.5 41.5;" xml:space="preserve">
<style type="text/css">
	.st0{fill:none;stroke:#0B4B93;stroke-width:1.5001;stroke-linecap:round;stroke-linejoin:round;stroke-miterlimit:22.9256;}
</style>
<g>
	<path class="st0" d="M26.5,38.7c0,1.1-0.9,2-2,2"/>
	<line class="st0" x1="24.4" y1="40.7" x2="2.8" y2="40.7"/>
	<path class="st0" d="M2.8,40.7c-1.1,0-2-0.9-2-2"/>
	<line class="st0" x1="0.8" y1="38.7" x2="0.8" y2="15"/>
	<path class="st0" d="M0.8,15c0-1.1,0.9-2,2-2"/>
	<line class="st0" x1="2.8" y1="13" x2="8" y2="13"/>
	<path class="st0" d="M8,13c0.5-0.7,0.5-1.5,0-2.5"/>
	<line class="st0" x1="8" y1="10.5" x2="8" y2="10.5"/>
	<path class="st0" d="M8,10.5c-0.6-1-0.9-2.1-0.9-3.3c0-3.5,2.9-6.4,6.5-6.4c3.6,0,6.5,2.9,6.5,6.4c0,1.2-0.3,2.3-0.9,3.3"/>
	<line class="st0" x1="19.2" y1="10.5" x2="19.2" y2="10.5"/>
	<path class="st0" d="M19.2,10.5c-0.5,1-0.5,1.8,0,2.5"/>
	<line class="st0" x1="19.2" y1="13" x2="24.4" y2="13"/>
	<path class="st0" d="M24.4,13c1.1,0,2,0.9,2,2"/>
	<line class="st0" x1="26.5" y1="15" x2="26.5" y2="21.4"/>
	<g>
		<polyline class="st0" points="29,34 32.4,30.2 37.9,34.9 		"/>
		<path class="st0" d="M37.9,34.9c1.1,0.9,1.2,2.5,0.2,3.6"/>
		<path class="st0" d="M38.1,38.5c-0.9,1-2.5,1.2-3.6,0.2"/>
		<line class="st0" x1="34.5" y1="38.7" x2="29" y2="34"/>
		<polyline class="st0" points="32.4,30.2 27.6,35.5 18.2,27.4 		"/>
		<path class="st0" d="M18.2,27.4c-4.3-3.7-3.6-8.4-2.5-11.5"/>
		<line class="st0" x1="15.7" y1="15.9" x2="32.4" y2="30.2"/>
	</g>
	<path class="st0" d="M13.6,7.9c0.7,0,1.3-0.6,1.3-1.3c0-0.7-0.6-1.3-1.3-1.3c-0.7,0-1.3,0.6-1.3,1.3C12.3,7.3,12.9,7.9,13.6,7.9"/>
</g>
</svg>
