<?xml version="1.0" encoding="utf-8"?>
<!-- Generator: Adobe Illustrator 21.0.2, SVG Export Plug-In . SVG Version: 6.00 Build 0)  -->
<svg version="1.1" id="Слой_1" xmlns="http://www.w3.org/2000/svg"  x="0px" y="0px"
	 width="41.5px" height="41.2px" viewBox="0 0 41.5 41.2" style="enable-background:new 0 0 41.5 41.2;" xml:space="preserve">
<style type="text/css">
	.st0{fill:#00509F;}
</style>
<path class="st0" d="M9.7,34.2C9.7,34.2,9.7,34.2,9.7,34.2c-0.8,0-1.5-0.3-2-0.9l-6.9-7.2c-0.5-0.5-0.8-1.2-0.8-2
	c0-0.7,0.3-1.4,0.9-2L23.2,0.8c0.5-0.5,1.2-0.8,2-0.8c0.7,0,1.4,0.3,2,0.9l6.9,7.2c1.1,1.1,1,2.9-0.1,3.9L11.6,33.4
	C11.1,33.9,10.4,34.2,9.7,34.2z M25.1,1.5c-0.3,0-0.7,0.1-0.9,0.4L1.9,23.3v0c-0.2,0.2-0.4,0.6-0.4,0.9c0,0.3,0.1,0.7,0.4,0.9
	l6.9,7.2c0.2,0.2,0.6,0.4,0.9,0.4c0.3,0,0.7-0.1,0.9-0.4L33,10.9c0.5-0.5,0.5-1.3,0-1.8l-6.9-7.2C25.8,1.6,25.5,1.5,25.1,1.5
	C25.2,1.5,25.2,1.5,25.1,1.5z M1.4,22.7L1.4,22.7L1.4,22.7z"/>
<path class="st0" d="M36.5,41.2c-0.6,0-1.3-0.2-1.7-0.7L27.6,33c-0.1-0.1-0.2-0.3-0.2-0.5L27,27.1c0-0.2,0.1-0.4,0.2-0.6
	c0.2-0.2,0.4-0.2,0.6-0.2l5.4,0.7c0.2,0,0.3,0.1,0.5,0.2l7.2,7.5c0.9,1,0.9,2.5-0.1,3.4l-2.6,2.5C37.7,41,37.1,41.2,36.5,41.2z
	 M28.9,32.1l7,7.3c0.3,0.4,0.9,0.4,1.3,0l2.6-2.5c0.4-0.3,0.4-0.9,0-1.3l-7-7.3l-4.2-0.5L28.9,32.1z"/>
<path class="st0" d="M27.8,27.9c-0.2,0-0.4-0.1-0.5-0.2L26,26.3c-0.4-0.4-0.6-0.8-0.5-1.3c0-0.5,0.2-1,0.7-1.4l11.6-11.1
	c1.2-1.1,1.2-3,0.1-4.1l-4.1-4.2c-0.2-0.2-0.4-0.3-0.6-0.3c-0.3,0-0.4,0.1-0.6,0.2l-1.7,1.6c-0.3,0.3-0.8,0.3-1.1,0
	c-0.3-0.3-0.3-0.8,0-1.1L31.6,3c0.4-0.4,1-0.7,1.7-0.6c0.6,0,1.2,0.3,1.6,0.7l4.1,4.2c1.7,1.8,1.6,4.6-0.1,6.3L27.2,24.7
	C27.1,24.8,27,25,27,25.1c0,0.1,0,0.2,0.1,0.2l1.2,1.3c0.3,0.3,0.3,0.8,0,1.1C28.2,27.8,28,27.9,27.8,27.9z"/>
<path class="st0" d="M12,19.8c-0.2,0-0.4-0.1-0.5-0.2c-0.3-0.3-0.3-0.8,0-1.1L22.8,8c0.3-0.3,0.8-0.3,1.1,0c0.3,0.3,0.3,0.8,0,1.1
	L12.5,19.6C12.3,19.8,12.2,19.8,12,19.8z"/>
<path class="st0" d="M3,28.1c-0.2,0-0.4-0.1-0.5-0.2c-0.3-0.3-0.3-0.8,0-1.1l6-5.6c0.3-0.3,0.8-0.3,1.1,0c0.3,0.3,0.3,0.8,0,1.1
	l-6,5.6C3.3,28,3.1,28.1,3,28.1z"/>
</svg>
