<?xml version="1.0" encoding="utf-8"?>
<!-- Generator: Adobe Illustrator 19.1.0, SVG Export Plug-In . SVG Version: 6.00 Build 0)  -->
<svg version="1.1" id="Слой_1" xmlns="http://www.w3.org/2000/svg" xmlns:xlink="http://www.w3.org/1999/xlink" x="0px" y="0px"
	 width="48.1px" height="41.7px" viewBox="0 0 48.1 41.7" style="enable-background:new 0 0 48.1 41.7;" xml:space="preserve">
<style type="text/css">
	.st0{fill:none;stroke:#00509F;stroke-width:1.5;stroke-linecap:round;stroke-linejoin:round;stroke-miterlimit:22.926;}
	
		.st1{clip-path:url(#SVGID_2_);fill:none;stroke:#00509F;stroke-width:1.5;stroke-linecap:round;stroke-linejoin:round;stroke-miterlimit:22.926;}
	
		.st2{clip-path:url(#SVGID_4_);fill:none;stroke:#00509F;stroke-width:1.5;stroke-linecap:round;stroke-linejoin:round;stroke-miterlimit:22.926;}
</style>
<polygon class="st0" points="44.7,38.2 20.4,38.2 32.5,15.4 "/>
<g>
	<defs>
		<rect id="SVGID_1_" y="0" width="48.1" height="41.7"/>
	</defs>
	<clipPath id="SVGID_2_">
		<use xlink:href="#SVGID_1_"  style="overflow:visible;"/>
	</clipPath>
	<polygon class="st1" points="0.8,38.2 20.4,38.2 32.5,15.4 12.9,15.4 	"/>
</g>
<line class="st0" x1="32.5" y1="15.4" x2="32.5" y2="34.5"/>
<g>
	<defs>
		<rect id="SVGID_3_" y="0" width="48.1" height="41.7"/>
	</defs>
	<clipPath id="SVGID_4_">
		<use xlink:href="#SVGID_3_"  style="overflow:visible;"/>
	</clipPath>
	<line class="st2" x1="20.3" y1="34.2" x2="20.4" y2="40.9"/>
	<line class="st2" x1="0.8" y1="34.2" x2="0.8" y2="40.9"/>
	<line class="st2" x1="44.8" y1="34.2" x2="44.8" y2="40.9"/>
	<path class="st2" d="M43.1,0.7c0.2,0,0.5,0,0.7,0.1C43.3,1.5,43,2.3,43,3.2c0,2.2,1.8,4,4,4c0.1,0,0.2,0,0.4,0
		C46.6,8.9,45,10,43.1,10c-2.6,0-4.6-2.1-4.6-4.6C38.4,2.8,40.5,0.7,43.1,0.7z"/>
</g>
</svg>
