<?xml version="1.0" encoding="utf-8"?>
<!-- Generator: Adobe Illustrator 21.0.2, SVG Export Plug-In . SVG Version: 6.00 Build 0)  -->
<svg version="1.1" id="Layer_1" xmlns="http://www.w3.org/2000/svg" xmlns:xlink="http://www.w3.org/1999/xlink" x="0px" y="0px"
	 width="40px" height="40px" viewBox="0 0 40 40" style="enable-background:new 0 0 40 40;" xml:space="preserve">
<style type="text/css">
	.st0{fill:url(#SVGID_1_);}
	.st1{display:none;fill-rule:evenodd;clip-rule:evenodd;fill:#FFFFFF;}
	.st2{fill:#FFFFFF;}
</style>
<g>
	<linearGradient id="SVGID_1_" gradientUnits="userSpaceOnUse" x1="30.0017" y1="37.3234" x2="9.9983" y2="2.6766">
		<stop  offset="0" style="stop-color:#5F47CA"/>
		<stop  offset="0.1981" style="stop-color:#F20C7F"/>
		<stop  offset="0.5068" style="stop-color:#E63A60"/>
		<stop  offset="0.7937" style="stop-color:#FC8B21"/>
		<stop  offset="1" style="stop-color:#FED76F"/>
	</linearGradient>
	<circle class="st0" cx="20" cy="20" r="20"/>
</g>
<path class="st1" d="M29.8,15.9c-0.2-1-1.1-1.8-2.1-1.9c-2.4-0.3-4.8-0.3-7.2-0.3c-2.4,0-4.8,0-7.2,0.3c-1,0.1-1.9,0.9-2.1,1.9
	c-0.3,1.5-0.3,3.1-0.3,4.6c0,1.5,0,3.1,0.3,4.6c0.2,1,1.1,1.8,2.1,1.9c2.4,0.3,4.8,0.3,7.2,0.3c2.4,0,4.8,0,7.2-0.3
	c1-0.1,1.9-0.9,2.1-1.9c0.3-1.5,0.3-3.1,0.3-4.6C30.1,19,30.1,17.4,29.8,15.9L29.8,15.9z M18,23.5v-6.4c2,1.1,4.1,2.1,6.1,3.2
	C22.1,21.4,20.1,22.4,18,23.5L18,23.5z M18,23.5"/>
<path class="st2" d="M22.8,20c0,1.8-1.5,3.3-3.3,3.3c-1.8,0-3.3-1.5-3.3-3.3s1.5-3.3,3.3-3.3C21.3,16.7,22.8,18.2,22.8,20z M24.6,20
	c0-2.8-2.3-5.1-5.1-5.1c-2.8,0-5.1,2.3-5.1,5.1c0,2.8,2.3,5.1,5.1,5.1C22.3,25.1,24.6,22.8,24.6,20z M26,14.7c0-0.7-0.5-1.2-1.2-1.2
	c-0.7,0-1.2,0.5-1.2,1.2c0,0.7,0.5,1.2,1.2,1.2C25.5,15.9,26,15.3,26,14.7z M19.5,11.8c1.5,0,4.6-0.1,5.9,0.4
	c0.5,0.2,0.8,0.4,1.1,0.8c0.4,0.4,0.6,0.7,0.8,1.1c0.5,1.3,0.4,4.4,0.4,5.9s0.1,4.6-0.4,5.9c-0.2,0.5-0.4,0.8-0.8,1.1
	c-0.4,0.4-0.7,0.6-1.1,0.8c-1.3,0.5-4.4,0.4-5.9,0.4c-1.5,0-4.6,0.1-5.9-0.4c-0.5-0.2-0.8-0.4-1.1-0.8c-0.4-0.4-0.6-0.7-0.8-1.1
	c-0.5-1.3-0.4-4.4-0.4-5.9s-0.1-4.6,0.4-5.9c0.2-0.5,0.4-0.8,0.8-1.1c0.4-0.4,0.7-0.6,1.1-0.8C14.9,11.7,18,11.8,19.5,11.8z
	 M29.5,20c0-1.4,0-2.7-0.1-4.1c-0.1-1.6-0.4-3-1.6-4.2c-1.2-1.2-2.6-1.5-4.2-1.6C22.2,10,20.9,10,19.5,10c-1.4,0-2.7,0-4.1,0.1
	c-1.6,0.1-3,0.4-4.2,1.6s-1.5,2.6-1.6,4.2c-0.1,1.4-0.1,2.7-0.1,4.1s0,2.7,0.1,4.1c0.1,1.6,0.4,3,1.6,4.2s2.6,1.5,4.2,1.6
	c1.4,0.1,2.7,0.1,4.1,0.1c1.4,0,2.7,0,4.1-0.1c1.6-0.1,3-0.4,4.2-1.6c1.2-1.2,1.5-2.6,1.6-4.2C29.5,22.7,29.5,21.4,29.5,20z"/>
</svg>
