<?xml version="1.0" encoding="utf-8"?>
<!-- Generator: Adobe Illustrator 21.0.2, SVG Export Plug-In . SVG Version: 6.00 Build 0)  -->
<svg version="1.1" id="Слой_1" xmlns="http://www.w3.org/2000/svg"  x="0px" y="0px"
	 width="41.1px" height="34.9px" viewBox="0 0 41.1 34.9" style="enable-background:new 0 0 41.1 34.9;" xml:space="preserve">
<style type="text/css">
	.st0{fill:#3172B1;}
</style>
<path class="st0" d="M17.1,15.3c-0.6,0-1-0.4-1-1c0-0.6,0.4-1,1-1l7,0c0,0,0,0,0,0c0.6,0,1,0.4,1,1c0,0.6-0.4,1-1,1L17.1,15.3
	C17.1,15.3,17.1,15.3,17.1,15.3z"/>
<g>
	<path class="st0" d="M34.7,15.3c-0.6,0-1-0.4-1-1s0.4-1,1-1l5.4,0h0c0.6,0,1,0.4,1,1s-0.4,1-1,1L34.7,15.3L34.7,15.3z"/>
	<path class="st0" d="M1,15.3c-0.6,0-1-0.4-1-1s0.4-1,1-1l5.4,0c0,0,0,0,0,0c0.6,0,1,0.4,1,1s-0.4,1-1,1L1,15.3
		C1,15.3,1,15.3,1,15.3z"/>
</g>
<path class="st0" d="M20.6,18.8c-0.6,0-1-0.4-1-1l0-7c0-0.6,0.4-1,1-1c0,0,0,0,0,0c0.6,0,1,0.4,1,1l0,7
	C21.6,18.3,21.1,18.8,20.6,18.8C20.6,18.8,20.6,18.8,20.6,18.8z"/>
<path class="st0" d="M20.6,22.9c-4.8,0-8.6-3.9-8.6-8.6s3.9-8.6,8.6-8.6s8.6,3.9,8.6,8.6S25.3,22.9,20.6,22.9z M20.6,7.6
	c-3.7,0-6.6,3-6.6,6.6s3,6.6,6.6,6.6s6.6-3,6.6-6.6S24.2,7.6,20.6,7.6z"/>
<path class="st0" d="M33.2,34.9H7.9c-1.5,0-2.8-1.1-3.1-2.7L1.8,14.4c-0.1-0.3,0-0.6,0.2-0.8c0.2-0.2,0.5-0.4,0.8-0.4h10
	c0.6,0,1,0.4,1,1s-0.4,1-1,1H3.9l2.9,16.6c0.1,0.5,0.4,1.1,1.1,1.1h25.3c0.7,0,1-0.6,1.1-1.1l2.9-16.6h-8.8c-0.6,0-1-0.4-1-1
	s0.4-1,1-1h10c0.3,0,0.6,0.1,0.8,0.4c0.2,0.2,0.3,0.5,0.2,0.8l-3.1,17.7C36,33.8,34.7,34.9,33.2,34.9z"/>
<g>
	<path class="st0" d="M36.6,15.1c-0.3,0-0.7-0.2-0.9-0.5L28.2,1.5C27.9,1,28,0.4,28.5,0.1C29-0.1,29.6,0,29.9,0.5l7.6,13.1
		c0.3,0.5,0.1,1.1-0.4,1.4C37,15.1,36.8,15.1,36.6,15.1z"/>
	<path class="st0" d="M4.5,15.1c-0.2,0-0.3,0-0.5-0.1c-0.5-0.3-0.6-0.9-0.4-1.4l7.6-13.1c0.3-0.5,0.9-0.6,1.4-0.4
		C13.1,0.4,13.3,1,13,1.5L5.4,14.6C5.2,14.9,4.8,15.1,4.5,15.1z"/>
</g>
</svg>
