<?xml version="1.0" encoding="utf-8"?>
<!-- Generator: Adobe Illustrator 21.0.2, SVG Export Plug-In . SVG Version: 6.00 Build 0)  -->
<svg version="1.1" id="Слой_1" xmlns="http://www.w3.org/2000/svg"  x="0px" y="0px"
	 width="33px" height="33.5px" viewBox="0 0 33 33.5" style="enable-background:new 0 0 33 33.5;" xml:space="preserve">
<style type="text/css">
	.st0{fill:#3172B1;}
</style>
<g>
	<path class="st0" d="M11.9,13.3c-2.2,0-3.9-1.8-3.9-3.9s1.8-3.9,3.9-3.9s3.9,1.8,3.9,3.9S14.1,13.3,11.9,13.3z M11.9,7.4
		c-1.1,0-1.9,0.9-1.9,1.9s0.9,1.9,1.9,1.9s1.9-0.9,1.9-1.9S13,7.4,11.9,7.4z"/>
	<path class="st0" d="M20.9,24.4c-2.2,0-3.9-1.8-3.9-3.9s1.8-3.9,3.9-3.9s3.9,1.8,3.9,3.9S23,24.4,20.9,24.4z M20.9,18.5
		c-1.1,0-1.9,0.9-1.9,1.9s0.9,1.9,1.9,1.9s1.9-0.9,1.9-1.9S21.9,18.5,20.9,18.5z"/>
	<path class="st0" d="M10.2,22c-0.3,0-0.5-0.1-0.7-0.3c-0.4-0.4-0.4-1,0-1.4L21.8,8.1c0.4-0.4,1-0.4,1.4,0c0.4,0.4,0.4,1,0,1.4
		L10.9,21.7C10.8,21.9,10.5,22,10.2,22z"/>
	<path class="st0" d="M32,33.5c-0.1,0-0.3,0-0.4-0.1l-4.8-2l-4.8,2c-0.3,0.1-0.5,0.1-0.8,0l-4.8-2l-4.8,2c-0.3,0.1-0.5,0.1-0.8,0
		l-4.8-2l-4.8,2c-0.3,0.1-0.7,0.1-0.9-0.1C0.2,33.1,0,32.8,0,32.5V1c0-0.6,0.4-1,1-1h31c0.6,0,1,0.4,1,1v31.5c0,0.3-0.2,0.6-0.4,0.8
		C32.4,33.4,32.2,33.5,32,33.5z M6.2,29.3c0.1,0,0.3,0,0.4,0.1l4.8,2l4.8-2c0.3-0.1,0.5-0.1,0.8,0l4.8,2l4.8-2
		c0.3-0.1,0.5-0.1,0.8,0L31,31V2H2v29l3.8-1.6C5.9,29.3,6,29.3,6.2,29.3z"/>
</g>
</svg>
