<?xml version="1.0" encoding="utf-8"?>
<!-- Generator: Adobe Illustrator 21.0.2, SVG Export Plug-In . SVG Version: 6.00 Build 0)  -->
<svg version="1.1" id="Слой_1" xmlns="http://www.w3.org/2000/svg"  x="0px" y="0px"
	 width="40.8px" height="39.5px" viewBox="0 0 40.8 39.5" style="enable-background:new 0 0 40.8 39.5;" xml:space="preserve">
<style type="text/css">
	.st0{fill:#3172B1;}
</style>
<g>
	<path class="st0" d="M23.6,39.5c-0.8,0-1.7-0.3-2.7-1.3l-17-17c-1.1-1.1-1.8-2.7-1.7-4.4c0-1.7,0.6-3.3,1.8-4.4l7.9-7.9
		c2.3-2.3,6.2-2.3,8.5,0l0.7,0.7c0.4,0.4,0.4,1,0,1.4c-0.4,0.4-1,0.4-1.4,0l-0.7-0.7c-1.6-1.6-4.1-1.6-5.7,0l-7.9,7.9
		c-0.7,0.7-1.2,1.8-1.2,3c0,1.2,0.4,2.2,1.2,3l17,17c0.4,0.4,1,0.8,1.7,0.6c0.5-0.1,0.9-0.6,1.1-1.1c0.1-0.3,0.1-0.6-0.2-1l-3.1-3.1
		c-0.2-0.2-0.3-0.4-0.3-0.7s0.1-0.5,0.3-0.7c0.2-0.2,0.5-0.3,0.7-0.3c0.3,0,0.5,0.1,0.7,0.3l4.2,4.1c0.7,0.7,1.8,0.7,2.5,0
		c0.7-0.7,0.7-1.8,0-2.5l-4.2-4.1c-0.2-0.2-0.3-0.4-0.3-0.7s0.1-0.5,0.3-0.7c0.2-0.2,0.4-0.3,0.7-0.3c0.3,0,0.5,0.1,0.7,0.3l4.2,4.2
		c0.7,0.7,1.8,0.7,2.5,0c0.3-0.3,0.5-0.8,0.5-1.2c0-0.5-0.2-0.9-0.5-1.2l-4.2-4.1c-0.2-0.2-0.3-0.5-0.4-0.7c0-0.3,0.1-0.6,0.3-0.8
		c0.2-0.2,0.5-0.3,0.8-0.3c0.3,0,0.6,0.1,0.7,0.4c0,0.1,0.1,0.1,0.2,0.2l4.2,4.1c0.7,0.7,1.8,0.7,2.5,0c0.7-0.7,0.7-1.8,0-2.5
		l-4.2-4.1c-0.4-0.4-0.4-1,0-1.4s1-0.4,1.4,0l4.2,4.1c0.7,0.7,1.1,1.7,1.1,2.7c0,1-0.4,2-1.1,2.7c-0.7,0.7-1.7,1.1-2.7,1.1
		c-0.1,0-0.2,0-0.3,0c0,0,0,0,0,0c0,1-0.4,2-1.1,2.7c-0.8,0.8-1.8,1.2-2.9,1.1c0,1-0.3,2-1.1,2.8c-1.2,1.2-2.9,1.4-4.3,0.7
		c-0.4,1.1-1.3,1.9-2.4,2.2C24.2,39.4,24,39.5,23.6,39.5z"/>
	<path class="st0" d="M16.8,39.5c-0.3,0-0.6-0.1-0.8-0.1c-1.1-0.3-2-1.2-2.4-2.2c-1.4,0.7-3.1,0.4-4.3-0.7c-0.8-0.8-1.1-1.8-1.1-2.8
		c-1.1,0.1-2.1-0.3-2.9-1.1c-0.7-0.7-1.1-1.7-1.1-2.7c-1.1,0.1-2.2-0.3-3-1.1c-1.5-1.5-1.5-3.9,0-5.3l3.2-3.1c0.4-0.4,1-0.4,1.4,0
		c0.4,0.4,0.4,1,0,1.4l-3.2,3.1c-0.3,0.3-0.5,0.8-0.5,1.2c0,0.5,0.2,0.9,0.5,1.2c0.3,0.3,0.7,0.5,1.3,0.5c0.5,0,0.9-0.2,1.2-0.5
		c1.4-1.4,2.2-2.2,2.8-2.8l0.5-0.5l0,0c0.5-0.4,0.7-0.4,1-0.3c0.3,0.1,0.6,0.4,0.7,0.7c0.1,0.4-0.1,0.7-0.3,1l0,0c0,0,0,0,0,0
		c-0.1,0.1-0.1,0.1-0.2,0.2l-3,2.9c-0.7,0.7-0.7,1.8,0,2.5c0.7,0.7,1.8,0.7,2.5,0c1.4-1.4,2.3-2.2,2.8-2.8l0.6-0.6l0,0
		c0.5-0.4,0.7-0.4,0.9-0.3c0.3,0.1,0.6,0.4,0.7,0.7c0.1,0.4,0,0.7-0.3,1l0,0c0,0-0.1,0.1-0.1,0.1c-0.1,0.1-0.2,0.2-0.3,0.3l-2.9,2.9
		c-0.7,0.7-0.7,1.8,0,2.5c0.7,0.7,1.8,0.7,2.5,0c0.1-0.1,0.4-0.4,0.7-0.7c0.5-0.5,1-1.1,1.5-1.5c0.9-0.9,1.5-1.5,2.2-0.8
		c0.2,0.2,0.7,0.7,0,1.5l-1.9,1.9c-0.3,0.3-0.3,0.7-0.2,1c0.1,0.5,0.6,1,1.1,1.1c0.7,0.2,1.3-0.3,1.7-0.6l1.1-1.1
		c0.4-0.4,1-0.4,1.4,0c0.4,0.4,0.4,1,0,1.4l-1.1,1.1C18.6,39.2,17.6,39.5,16.8,39.5z"/>
	<path class="st0" d="M3.8,14.9c-0.3,0-0.5-0.1-0.7-0.3l-2.8-2.8C0.1,11.6,0,11.4,0,11.1c0-0.3,0.1-0.5,0.3-0.7L10.4,0.3
		C10.6,0.1,10.9,0,11.1,0h0c0.3,0,0.5,0.1,0.7,0.3l2.8,2.8c0.4,0.4,0.4,1,0,1.4c-0.4,0.4-1,0.4-1.4,0l-2.1-2.1l-8.7,8.7l2.1,2.1
		c0.4,0.4,0.4,1,0,1.4C4.3,14.8,4,14.9,3.8,14.9z"/>
	<path class="st0" d="M37,14.9c-0.3,0-0.5-0.1-0.7-0.3c-0.4-0.4-0.4-1,0-1.4l2.1-2.1l-8.7-8.7l-2.1,2.1c-0.4,0.4-1,0.4-1.4,0
		c-0.4-0.4-0.4-1,0-1.4L29,0.3c0.4-0.4,1-0.4,1.4,0l10.1,10.1c0.4,0.4,0.4,1,0,1.4l-2.8,2.8C37.6,14.8,37.3,14.9,37,14.9z"/>
	<path class="st0" d="M35.4,22c-0.3,0-0.5-0.1-0.7-0.3l-9.6-9.6c-0.9-0.8-1.9,0-2.2,0.3l0,0l-5.7,5.7c-1.5,1.5-3.9,1.5-5.3,0
		c-0.7-0.7-1.1-1.7-1.1-2.7c0-1,0.4-2,1.1-2.7l7.5-7.5c0,0,0.1-0.1,0.1-0.1l0.7-0.7c2.3-2.3,6.2-2.3,8.5,0l8.1,8
		c1.1,1.1,1.8,2.6,1.8,4.3c0,1.6-0.6,3.1-1.8,4.3l-0.7,0.7C35.9,21.9,35.6,22,35.4,22L35.4,22z M24.2,9.8c0.8,0,1.6,0.3,2.2,0.9
		l8.9,8.9c0.7-0.7,1.1-1.7,1.1-2.8c0-1.1-0.4-2.1-1.2-2.8l-8.1-8c-1.6-1.6-4.1-1.6-5.7,0L21,6.5c0,0-0.1,0.1-0.1,0.1l-7.6,7.6
		c-0.3,0.3-0.5,0.8-0.5,1.2c0,0.5,0.2,0.9,0.5,1.2c0.7,0.7,1.8,0.7,2.5,0l5.7-5.7C22.3,10.2,23.2,9.8,24.2,9.8z M22.2,11.7
		L22.2,11.7L22.2,11.7z"/>
</g>
</svg>
