<?xml version="1.0" encoding="utf-8"?>
<!-- Generator: Adobe Illustrator 21.0.2, SVG Export Plug-In . SVG Version: 6.00 Build 0)  -->
<svg version="1.1" id="Слой_1" xmlns="http://www.w3.org/2000/svg"  x="0px" y="0px"
	 width="35.8px" height="38.3px" viewBox="0 0 35.8 38.3" style="enable-background:new 0 0 35.8 38.3;" xml:space="preserve">
<style type="text/css">
	.st0{fill:#3172B1;}
</style>
<path class="st0" d="M17.8,22.2C17.8,22.2,17.7,22.2,17.8,22.2c-2.6,0-4.7-1-6.2-2.7C8.3,15.8,8.8,9.7,8.9,9
	c0.2-4.6,2.5-6.8,4.3-7.8C14.6,0.4,16.2,0,18,0c1.7,0,3.3,0.4,4.7,1.2c1.8,1,4,3.3,4.3,7.9c0.1,0.6,0.6,6.7-2.7,10.4
	C22.6,21.3,20.5,22.2,17.8,22.2z M18,2c-1.4,0-2.7,0.3-3.8,0.9c-1.4,0.8-3.1,2.5-3.3,6.2c-0.1,0.6-0.5,6,2.2,9c1.2,1.3,2.7,2,4.7,2
	c2.1,0,3.7-0.7,5-2c2.7-3.1,2.2-8.7,2.2-8.9C24.7,5.5,23,3.8,21.7,3C20.6,2.4,19.3,2,18,2z"/>
<path class="st0" d="M17.9,38.3C11.9,38.3,6,37.2,1.8,35l-0.4-0.2c-1.3-0.6-1.4-1-1.4-2.5c0-0.9,0.1-2.8,0.2-4.3
	c0.3-4.2,2.9-5.4,4.8-5.9c2-0.5,3.7-1.2,5.3-2.2l0.1-0.1c0.3-0.2,1.4-0.8,1.5-0.9c0.5-0.3,1.1-0.2,1.4,0.3c0.3,0.5,0.2,1.1-0.3,1.4
	c-0.1,0.1-1.2,0.7-1.5,0.9l-0.1,0.1c-1.8,1.1-3.7,1.9-5.8,2.4c-1.9,0.5-3.1,1.4-3.3,4.1C2.1,29.6,2,31.5,2,32.3c0,0.2,0,0.4,0,0.6
	c0.1,0,0.2,0.1,0.3,0.2l0.4,0.2c7.8,4.1,22.5,4.1,30.3,0l0.4-0.2c0.1-0.1,0.2-0.1,0.3-0.1c0-0.1,0-0.4,0-0.6c0-0.9-0.1-2.7-0.2-4.2
	c-0.2-2.7-1.5-3.6-3.3-4.1c-2.2-0.6-4.1-1.4-5.9-2.5c-0.1,0-0.5-0.3-0.9-0.6c-0.3-0.2-0.5-0.4-0.6-0.4c-0.5-0.3-0.6-0.9-0.3-1.4
	c0.3-0.5,0.9-0.6,1.4-0.3c0.1,0,0.3,0.2,0.7,0.5c0.4,0.2,0.7,0.5,0.8,0.6c1.6,1,3.4,1.7,5.4,2.3c1.9,0.5,4.5,1.7,4.8,5.9
	c0.1,1.5,0.2,3.4,0.2,4.3c0,1.5-0.1,1.9-1.4,2.5L34,35C29.8,37.2,23.8,38.3,17.9,38.3z"/>
</svg>
