<?xml version="1.0" encoding="utf-8"?>
<!-- Generator: Adobe Illustrator 19.1.0, SVG Export Plug-In . SVG Version: 6.00 Build 0)  -->
<svg version="1.1" id="Слой_1" xmlns="http://www.w3.org/2000/svg" xmlns:xlink="http://www.w3.org/1999/xlink" x="0px" y="0px"
	 width="99px" height="52px" viewBox="-25 50 99 52" style="enable-background:new -25 50 99 52;" xml:space="preserve">
<style type="text/css">
	.st0{fill:#00509F;}
</style>
<path class="st0" d="M73.9,81.1c-0.9-7.6-5.3-10.9-14.1-10.9H47.2h-1.4c-0.1-2.2-1.2-4-3.4-5.3c-1.2-0.7-4-1.7-8.3-2.8
	c-3-0.8-4.4-1.8-4.1-3c0.3-1.2,1.5-1.8,3.8-1.8c0.8,0,1.5,0.2,2.2,0.5c0.9,0.5,1.4,1.2,1.4,2.2h10c0.2-3-0.5-5.4-2.3-7.1
	c-2-1.9-5-2.9-9.3-2.9c-4.2,0-7.7,0.9-10.7,2.6c-3,1.7-4.8,4.2-5.5,7.5c-0.8,3.5,0.3,6.1,3.1,7.8c1.3,0.8,4,1.7,8.3,2.8
	c3,0.8,4.4,1.8,4.1,3c-0.2,0.8-0.7,1.3-1.5,1.7c-0.9,0.4-2,0.6-3.4,0.6c-0.7,0-1.5-0.2-2.3-0.7c-0.9-0.5-1.4-1.2-1.6-2.1
	c-0.1-0.4-0.1-0.9,0-1.5H16.1l-3.1-21H3.1H2.3l-18.5,31.8h10.4l2.2-4.2h6.8h3.7l0.3,4.2h10.5l-0.5-3.6c0.3,0.5,0.7,1,1.2,1.4
	c2.2,2.1,5.4,3.1,9.6,3.1c4.6,0,8.4-0.9,11.5-2.7c2.3-1.4,4.1-3.2,5.1-5.5l-0.1,0.3l-3.9,17.7h10.6l3.4-15.4h3.7
	c2.5,0,5.3,1.2,5.3,4.8c0,2.5-1.4,12-10.5,12h-0.9l0,0H3.1H-25v7.4H3.1h49.2l0,0h1.8C71,102,73.9,88.7,74,83v-0.8
	C74,81.7,74,81.4,73.9,81.1z M3.1,71.7h-3.3l3.3-5.9l2.4-4.3l0.9,10.1L3.1,71.7L3.1,71.7z"/>
</svg>
