<?xml version="1.0" encoding="utf-8"?>
<!-- Generator: Adobe Illustrator 21.0.2, SVG Export Plug-In . SVG Version: 6.00 Build 0)  -->
<svg version="1.1" id="Layer_1" xmlns="http://www.w3.org/2000/svg" xmlns:xlink="http://www.w3.org/1999/xlink" x="0px" y="0px"
	 width="197.3525px" height="52px" viewBox="0 0 197.3525 52" style="enable-background:new 0 0 197.3525 52;" xml:space="preserve"
	>
<style type="text/css">
	.st0{fill:#00509F;}
	.st1{fill:#99B9D9;}
</style>
<image style="display:none;overflow:visible;" width="218" height="52" xlink:href="BA13EFB1.jpg"  transform="matrix(0.9999 0 0 0.9999 0.3525 0)">
</image>
<path class="st0" d="M197.2525,31.1c-0.9-7.6-5.3-10.9-14.1-10.9h-12.6h-1.4c-0.1-2.2-1.2-4-3.4-5.3c-1.2-0.7-4-1.7-8.3-2.8
	c-3-0.8-4.4-1.8-4.1-3c0.3-1.2,1.5-1.8,3.8-1.8c0.8,0,1.5,0.2,2.2,0.5c0.9,0.5,1.4,1.2,1.4,2.2h10c0.2-3-0.5-5.4-2.3-7.1
	c-2-1.9-5-2.9-9.3-2.9c-4.2,0-7.7,0.9-10.7,2.6s-4.8,4.2-5.5,7.5c-0.8,3.5,0.3,6.1,3.1,7.8c1.3,0.8,4,1.7,8.3,2.8
	c3,0.8,4.4,1.8,4.1,3c-0.2,0.8-0.7,1.3-1.5,1.7c-0.9,0.4-2,0.6-3.4,0.6c-0.7,0-1.5-0.2-2.3-0.7c-0.9-0.5-1.4-1.2-1.6-2.1
	c-0.1-0.4-0.1-0.9,0-1.5h-10.2l-3.1-21h-9.9h-0.8l-18.5,31.8h10.4l2.2-4.2h6.8h3.7l0.3,4.2h10.5l-0.5-3.6c0.3,0.5,0.7,1,1.2,1.4
	c2.2,2.1,5.4,3.1,9.6,3.1c4.6,0,8.4-0.9,11.5-2.7c2.3-1.4,4.1-3.2,5.1-5.5l-0.1,0.3l-3.9,17.7h10.6l3.4-15.4h3.7
	c2.5,0,5.3,1.2,5.3,4.8c0,2.5-1.4,12-10.5,12h-0.9l0,0h-49.1h-28.1V52h28.1h49.2l0,0h1.8c16.9,0,19.8-13.3,19.9-19v-0.8
	C197.3525,31.7,197.3525,31.4,197.2525,31.1z M126.4525,21.7h-3.3l3.3-5.9l2.4-4.3l0.9,10.1h-3.3V21.7z"/>
<g>
	<path class="st1" d="M0.0962,8.2441C0.3994,8.1719,0.7275,8.124,1.0801,8.0996C1.4326,8.0762,1.7803,8.0645,2.124,8.0645
		c0.3682,0,0.7422,0.0352,1.1221,0.1074S3.9717,8.376,4.2842,8.5684c0.3115,0.1914,0.5654,0.4551,0.7617,0.791
		c0.1963,0.3369,0.2939,0.7646,0.2939,1.2852c0,0.5117-0.0918,0.9434-0.2754,1.2949c-0.1846,0.3525-0.4287,0.6387-0.7324,0.8584
		s-0.6514,0.3779-1.0439,0.4736c-0.3926,0.0967-0.7959,0.1445-1.2119,0.1445c-0.04,0-0.1064,0-0.1982,0s-0.1875-0.002-0.2871-0.0059
		c-0.1006-0.0039-0.1992-0.0098-0.2949-0.0176s-0.1641-0.0166-0.2031-0.0244v3.1924H0.0962V8.2441z M2.1475,8.9277
		c-0.207,0-0.4072,0.0039-0.5996,0.0117C1.3564,8.9482,1.2041,8.9688,1.0928,9v3.4805c0.0391,0.0156,0.1035,0.0254,0.1914,0.0293
		s0.1797,0.0078,0.2754,0.0117c0.0967,0.0049,0.1885,0.0059,0.2764,0.0059c0.0889,0,0.1523,0,0.1924,0
		c0.2715,0,0.541-0.0254,0.8105-0.0771c0.2676-0.0518,0.5098-0.1455,0.7246-0.2822c0.2168-0.1357,0.3906-0.3281,0.5225-0.5762
		s0.1982-0.5645,0.1982-0.9473c0-0.3281-0.0625-0.6025-0.1855-0.8223c-0.125-0.2207-0.2891-0.3965-0.4922-0.5283
		C3.4023,9.1621,3.1719,9.0684,2.916,9.0117C2.6602,8.9561,2.4043,8.9277,2.1475,8.9277z"/>
	<path class="st1" d="M5.9404,13.5605c0-1.0166,0.2256-1.7949,0.6777-2.334c0.4521-0.541,1.1025-0.8105,1.9502-0.8105
		c0.4482,0,0.8379,0.0742,1.1699,0.2227c0.332,0.1475,0.6064,0.3594,0.8223,0.6348c0.2158,0.2773,0.376,0.6094,0.4805,0.9961
		c0.1035,0.3887,0.1553,0.8184,0.1553,1.291c0,1.0156-0.2256,1.793-0.6777,2.334c-0.4521,0.5391-1.1025,0.8096-1.9502,0.8096
		c-0.4482,0-0.8379-0.0742-1.1699-0.2217c-0.332-0.1484-0.6055-0.3604-0.8223-0.6367c-0.2158-0.2754-0.376-0.6074-0.4795-0.9961
		C5.9922,14.4619,5.9404,14.0322,5.9404,13.5605z M6.9365,13.5605c0,0.3037,0.0303,0.5957,0.0898,0.875
		c0.0605,0.2813,0.1543,0.5244,0.2822,0.7324s0.2959,0.376,0.5039,0.5039c0.208,0.1289,0.46,0.1924,0.7559,0.1924
		c1.0879,0.0078,1.6318-0.7607,1.6318-2.3037c0-0.3125-0.0293-0.6084-0.0898-0.8887c-0.0596-0.2793-0.1543-0.5234-0.2822-0.7324
		c-0.1279-0.207-0.2959-0.373-0.5039-0.498c-0.208-0.123-0.46-0.1855-0.7559-0.1855C7.4805,11.248,6.9365,12.0156,6.9365,13.5605z"
		/>
	<path class="st1" d="M16.7998,16.1641c-0.2393,0.1758-0.5234,0.3105-0.8516,0.4023s-0.6719,0.1377-1.0322,0.1377
		c-0.4639,0-0.8564-0.0742-1.1758-0.2217c-0.3203-0.1484-0.582-0.3604-0.7861-0.6367c-0.2041-0.2754-0.3516-0.6074-0.4443-0.9961
		c-0.0918-0.3877-0.1377-0.8174-0.1377-1.2891c0-1.0166,0.2236-1.7949,0.6719-2.334c0.4482-0.541,1.0918-0.8105,1.9326-0.8105
		c0.3838,0,0.71,0.0303,0.9775,0.0898c0.2676,0.0605,0.5098,0.1465,0.7266,0.2578l-0.2764,0.8281
		c-0.1846-0.1035-0.3887-0.1855-0.6123-0.2461c-0.2236-0.0596-0.4639-0.0898-0.7197-0.0898c-1.1357,0-1.7041,0.7676-1.7041,2.3047
		c0,0.3037,0.0303,0.5938,0.0898,0.8691c0.0605,0.2764,0.1602,0.5205,0.2998,0.7324c0.1406,0.2119,0.3242,0.3818,0.5527,0.5098
		c0.2275,0.1289,0.5098,0.1924,0.8457,0.1924c0.2881,0,0.5459-0.0439,0.7744-0.1318c0.2275-0.0879,0.4131-0.1885,0.5576-0.3008
		L16.7998,16.1641z"/>
	<path class="st1" d="M21.9355,16.1641c-0.2393,0.1758-0.5234,0.3105-0.8516,0.4023s-0.6719,0.1377-1.0322,0.1377
		c-0.4639,0-0.8564-0.0742-1.1758-0.2217c-0.3203-0.1484-0.582-0.3604-0.7861-0.6367c-0.2041-0.2754-0.3516-0.6074-0.4443-0.9961
		c-0.0918-0.3877-0.1377-0.8174-0.1377-1.2891c0-1.0166,0.2236-1.7949,0.6719-2.334c0.4482-0.541,1.0918-0.8105,1.9326-0.8105
		c0.3838,0,0.71,0.0303,0.9775,0.0898c0.2676,0.0605,0.5098,0.1465,0.7266,0.2578L21.54,11.5918
		c-0.1846-0.1035-0.3887-0.1855-0.6123-0.2461c-0.2236-0.0596-0.4639-0.0898-0.7197-0.0898c-1.1357,0-1.7041,0.7676-1.7041,2.3047
		c0,0.3037,0.0303,0.5938,0.0898,0.8691c0.0605,0.2764,0.1602,0.5205,0.2998,0.7324c0.1406,0.2119,0.3242,0.3818,0.5527,0.5098
		c0.2275,0.1289,0.5098,0.1924,0.8457,0.1924c0.2881,0,0.5459-0.0439,0.7744-0.1318c0.2275-0.0879,0.4131-0.1885,0.5576-0.3008
		L21.9355,16.1641z"/>
	<path class="st1" d="M27,13.0078l0.0361-0.7441H27l-0.4922,0.7686l-2.7002,3.5283h-0.5518v-6h0.96v3.6602l-0.0361,0.707h0.0488
		l0.4678-0.7441l2.7002-3.623H27.96v6H27V13.0078z"/>
	<path class="st1" d="M33.5518,13.0078l0.0361-0.7441h-0.0361l-0.4922,0.7686l-2.7002,3.5283h-0.5518v-6h0.96v3.6602l-0.0361,0.707
		h0.0488l0.4678-0.7441l2.7002-3.623h0.5635v6h-0.96V13.0078z M31.1875,8.1367c0.0801,0.3672,0.2178,0.623,0.4141,0.7676
		c0.1963,0.1436,0.4219,0.2158,0.6787,0.2158c0.2559,0,0.4834-0.0762,0.6836-0.2275c0.2002-0.1523,0.3359-0.4004,0.4082-0.7441
		l0.7197,0.2275c-0.0723,0.4639-0.2783,0.8203-0.6182,1.0674c-0.3398,0.248-0.7461,0.373-1.2178,0.373
		c-0.2158,0-0.4307-0.0283-0.6416-0.084c-0.2129-0.0566-0.4023-0.1406-0.5703-0.252c-0.168-0.1123-0.3125-0.2559-0.4326-0.4326
		c-0.1191-0.1758-0.1992-0.3838-0.2393-0.624L31.1875,8.1367z"/>
	<path class="st1" d="M40.4512,16.1641c-0.2393,0.1758-0.5234,0.3105-0.8516,0.4023s-0.6719,0.1377-1.0322,0.1377
		c-0.4639,0-0.8564-0.0742-1.1758-0.2217c-0.3203-0.1484-0.582-0.3604-0.7861-0.6367c-0.2041-0.2754-0.3516-0.6074-0.4443-0.9961
		c-0.0918-0.3877-0.1377-0.8174-0.1377-1.2891c0-1.0166,0.2236-1.7949,0.6719-2.334c0.4482-0.541,1.0918-0.8105,1.9326-0.8105
		c0.3838,0,0.71,0.0303,0.9775,0.0898c0.2676,0.0605,0.5098,0.1465,0.7266,0.2578l-0.2764,0.8281
		c-0.1846-0.1035-0.3887-0.1855-0.6123-0.2461c-0.2236-0.0596-0.4639-0.0898-0.7197-0.0898c-1.1357,0-1.7041,0.7676-1.7041,2.3047
		c0,0.3037,0.0303,0.5938,0.0898,0.8691c0.0605,0.2764,0.1602,0.5205,0.2998,0.7324c0.1406,0.2119,0.3242,0.3818,0.5527,0.5098
		c0.2275,0.1289,0.5098,0.1924,0.8457,0.1924c0.2881,0,0.5459-0.0439,0.7744-0.1318c0.2275-0.0879,0.4131-0.1885,0.5576-0.3008
		L40.4512,16.1641z"/>
	<path class="st1" d="M43.2832,13.8594h-0.5518v2.7012h-0.96v-6h0.96v2.7109l0.5166-0.168l1.9199-2.543h1.0439l-1.8604,2.4121
		l-0.5039,0.3955l0.624,0.4795l2.0039,2.7129h-1.1875L43.2832,13.8594z"/>
	<path class="st1" d="M47.4111,11.0039c0.3037-0.1836,0.6582-0.3203,1.0615-0.4082c0.4043-0.0879,0.8262-0.1318,1.2666-0.1318
		c0.416,0,0.75,0.0557,1.002,0.168s0.4434,0.2588,0.5762,0.4385c0.1318,0.1797,0.2197,0.3779,0.2637,0.5938
		s0.0664,0.4316,0.0664,0.6484c0,0.4795-0.0127,0.9473-0.0361,1.4033c-0.0244,0.4561-0.0361,0.8877-0.0361,1.2959
		c0,0.2969,0.0117,0.5762,0.0361,0.8398c0.0234,0.2646,0.0674,0.5088,0.1318,0.7324h-0.708l-0.252-0.8398h-0.0605
		c-0.0713,0.1113-0.1621,0.2217-0.2695,0.3301c-0.1084,0.1074-0.2383,0.2031-0.3896,0.2871
		c-0.1523,0.085-0.3281,0.1543-0.5283,0.2109c-0.2002,0.0557-0.4277,0.084-0.6846,0.084c-0.2559,0-0.4932-0.041-0.7139-0.1201
		c-0.2197-0.0801-0.4102-0.1943-0.5693-0.3428c-0.1602-0.1475-0.2861-0.3252-0.3779-0.5332
		c-0.0928-0.208-0.1387-0.4443-0.1387-0.708c0-0.3525,0.0723-0.6455,0.2158-0.8818c0.1445-0.2363,0.3467-0.4238,0.6064-0.5645
		c0.2598-0.1396,0.5723-0.2402,0.9355-0.2998c0.3643-0.0596,0.7666-0.0898,1.2061-0.0898c0.1123,0,0.2227,0,0.3301,0
		c0.1084,0,0.2178,0.0078,0.3301,0.0244c0.0244-0.2402,0.0361-0.457,0.0361-0.6484c0-0.4395-0.0879-0.748-0.2637-0.9238
		c-0.1768-0.1758-0.4961-0.2637-0.96-0.2637c-0.1367,0-0.2822,0.0098-0.4385,0.0303s-0.3164,0.0498-0.4795,0.0869
		c-0.1641,0.0371-0.3203,0.082-0.4688,0.1348c-0.1475,0.0547-0.2773,0.1133-0.3896,0.1797L47.4111,11.0039z M49.1152,15.8164
		c0.2236,0,0.4238-0.0303,0.5996-0.0898c0.1758-0.0605,0.3281-0.1367,0.4561-0.2285s0.2344-0.1934,0.3184-0.3066
		c0.084-0.1113,0.1455-0.2188,0.1855-0.3232v-0.9961c-0.1123-0.0078-0.2256-0.0137-0.3418-0.0186
		c-0.1162-0.0039-0.2305-0.0059-0.3418-0.0059c-0.248,0-0.4902,0.0146-0.7266,0.043c-0.2354,0.0273-0.4434,0.0801-0.624,0.1553
		c-0.1797,0.0762-0.3232,0.1807-0.4316,0.3115c-0.1084,0.1328-0.1621,0.2988-0.1621,0.498c0,0.2813,0.0996,0.5107,0.2998,0.6904
		C48.5469,15.7266,48.8027,15.8164,49.1152,15.8164z"/>
	<path class="st1" d="M56.4473,14.0762l-0.9238,0.1445l-1.584,2.3398h-1.1641l1.4395-2.0527l0.4805-0.4434
		c-0.416-0.0645-0.7705-0.2324-1.0625-0.5039c-0.292-0.2725-0.4375-0.6406-0.4375-1.1045c0-0.3604,0.0615-0.668,0.1855-0.9238
		c0.124-0.2568,0.3018-0.4678,0.5342-0.6357s0.5078-0.291,0.8281-0.3662c0.3203-0.0762,0.6797-0.1143,1.0801-0.1143
		c0.2959,0,0.5723,0.0195,0.8281,0.0605c0.2559,0.0391,0.5078,0.084,0.7559,0.1309v5.9531h-0.96V14.0762z M56.4473,11.376
		c-0.1045-0.04-0.2207-0.0693-0.3477-0.0898c-0.1289-0.0205-0.2402-0.0303-0.3369-0.0303c-0.5117,0-0.9014,0.0918-1.1699,0.2764
		c-0.2676,0.1846-0.4014,0.4756-0.4014,0.876c0,0.3594,0.1416,0.6377,0.4258,0.834c0.2842,0.1953,0.6582,0.2939,1.1221,0.2939
		c0.0078,0,0.0195,0,0.0361,0c0.0156,0,0.0479,0,0.0957,0s0.1162-0.002,0.2041-0.0059c0.0879-0.0049,0.2119-0.0107,0.3721-0.0186
		V11.376z"/>
	<path class="st1" d="M65.9033,11.4004h-1.8721v5.1602h-0.96v-5.1602h-1.8721v-0.8398h4.7041V11.4004z"/>
	<path class="st1" d="M66.3232,13.5605c0-1.0166,0.2256-1.7949,0.6777-2.334c0.4521-0.541,1.1025-0.8105,1.9502-0.8105
		c0.4482,0,0.8379,0.0742,1.1699,0.2227c0.332,0.1475,0.6064,0.3594,0.8223,0.6348c0.2158,0.2773,0.376,0.6094,0.4805,0.9961
		c0.1035,0.3887,0.1553,0.8184,0.1553,1.291c0,1.0156-0.2256,1.793-0.6777,2.334c-0.4521,0.5391-1.1025,0.8096-1.9502,0.8096
		c-0.4482,0-0.8379-0.0742-1.1699-0.2217c-0.332-0.1484-0.6055-0.3604-0.8223-0.6367c-0.2158-0.2754-0.376-0.6074-0.4795-0.9961
		C66.375,14.4619,66.3232,14.0322,66.3232,13.5605z M67.3193,13.5605c0,0.3037,0.0303,0.5957,0.0898,0.875
		c0.0605,0.2813,0.1543,0.5244,0.2822,0.7324s0.2959,0.376,0.5039,0.5039c0.208,0.1289,0.46,0.1924,0.7559,0.1924
		c1.0879,0.0078,1.6318-0.7607,1.6318-2.3037c0-0.3125-0.0293-0.6084-0.0898-0.8887c-0.0596-0.2793-0.1543-0.5234-0.2822-0.7324
		c-0.1279-0.207-0.2959-0.373-0.5039-0.498c-0.208-0.123-0.46-0.1855-0.7559-0.1855C67.8633,11.248,67.3193,12.0156,67.3193,13.5605
		z"/>
	<path class="st1" d="M73.0908,10.5605h0.6602l0.1797,0.7197h0.0479c0.1846-0.2803,0.4219-0.4941,0.7148-0.6416
		c0.292-0.1484,0.626-0.2227,1.002-0.2227c0.7998,0,1.3955,0.2363,1.7881,0.708c0.3916,0.4717,0.5879,1.2441,0.5879,2.3154
		c0,0.5039-0.0664,0.959-0.1982,1.3633c-0.1318,0.4033-0.3184,0.7461-0.5576,1.0254c-0.2402,0.2803-0.5303,0.4961-0.8701,0.6484
		c-0.3408,0.1514-0.7188,0.2275-1.1348,0.2275c-0.2959,0-0.5293-0.0186-0.7012-0.0537c-0.1729-0.0361-0.3584-0.0977-0.5586-0.1865
		V18.96h-0.96V10.5605z M75.5146,11.2559c-0.4072,0-0.7295,0.1064-0.9658,0.3184s-0.4014,0.5332-0.498,0.9658v2.9756
		c0.1445,0.1133,0.3076,0.1982,0.4922,0.2578c0.1836,0.0605,0.4277,0.0908,0.7324,0.0908c0.5518,0,0.9893-0.2061,1.3135-0.6182
		s0.4863-1.0176,0.4863-1.8184c0-0.3281-0.0283-0.625-0.084-0.8936c-0.0566-0.2686-0.1465-0.4961-0.2705-0.6846
		c-0.124-0.1875-0.2842-0.334-0.4795-0.4375C76.0449,11.3086,75.8027,11.2559,75.5146,11.2559z"/>
	<path class="st1" d="M83.0869,11.4004H80.543v5.1602h-0.96v-6h3.5039V11.4004z"/>
	<path class="st1" d="M83.4824,13.5605c0-1.0166,0.2256-1.7949,0.6777-2.334c0.4521-0.541,1.1025-0.8105,1.9502-0.8105
		c0.4482,0,0.8379,0.0742,1.1699,0.2227c0.332,0.1475,0.6064,0.3594,0.8223,0.6348c0.2158,0.2773,0.376,0.6094,0.4805,0.9961
		c0.1035,0.3887,0.1553,0.8184,0.1553,1.291c0,1.0156-0.2256,1.793-0.6777,2.334c-0.4521,0.5391-1.1025,0.8096-1.9502,0.8096
		c-0.4482,0-0.8379-0.0742-1.1699-0.2217c-0.332-0.1484-0.6055-0.3604-0.8223-0.6367c-0.2158-0.2754-0.376-0.6074-0.4795-0.9961
		C83.5342,14.4619,83.4824,14.0322,83.4824,13.5605z M84.4785,13.5605c0,0.3037,0.0303,0.5957,0.0898,0.875
		c0.0605,0.2813,0.1543,0.5244,0.2822,0.7324s0.2959,0.376,0.5039,0.5039c0.208,0.1289,0.46,0.1924,0.7559,0.1924
		c1.0879,0.0078,1.6318-0.7607,1.6318-2.3037c0-0.3125-0.0293-0.6084-0.0898-0.8887c-0.0596-0.2793-0.1543-0.5234-0.2822-0.7324
		c-0.1279-0.207-0.2959-0.373-0.5039-0.498c-0.208-0.123-0.46-0.1855-0.7559-0.1855C85.0225,11.248,84.4785,12.0156,84.4785,13.5605
		z"/>
	<path class="st1" d="M90.251,10.5723c0.2803-0.0156,0.5742-0.0361,0.8818-0.0605c0.3086-0.0234,0.6904-0.0352,1.1465-0.0352
		c0.792,0,1.3594,0.1211,1.7041,0.3652c0.3438,0.2441,0.5156,0.6143,0.5156,1.1104c0,0.2803-0.082,0.5537-0.2461,0.8213
		c-0.1641,0.2686-0.4336,0.4668-0.8096,0.5947v0.0479c0.4717,0.0879,0.8037,0.252,0.9961,0.4922
		c0.1914,0.2402,0.2881,0.5605,0.2881,0.96c0,0.624-0.2246,1.0762-0.6729,1.3564c-0.4473,0.2793-1.1201,0.4199-2.0156,0.4199
		c-0.3359,0-0.6475-0.0107-0.9355-0.0303c-0.2881-0.0205-0.5723-0.042-0.8525-0.0664V10.5723z M92.3867,13.0918
		c0.1445,0,0.2842-0.0234,0.4209-0.0723c0.1357-0.0469,0.2578-0.1133,0.3652-0.1973c0.1084-0.084,0.1963-0.1816,0.2646-0.2949
		c0.0674-0.1113,0.1016-0.2314,0.1016-0.3594c0-0.3203-0.0957-0.542-0.2881-0.666c-0.1914-0.124-0.5273-0.1855-1.0078-0.1855
		c-0.2559,0-0.458,0.0039-0.6064,0.0117c-0.1475,0.0078-0.29,0.0156-0.4258,0.0234v1.7402H92.3867z M91.2109,15.7559
		c0.1523,0.0156,0.3018,0.0283,0.4502,0.0361c0.1484,0.0088,0.3223,0.0127,0.5225,0.0127c0.5352,0,0.9336-0.0762,1.1934-0.2285
		s0.3906-0.4121,0.3906-0.7803c0-0.2881-0.1104-0.5225-0.3301-0.7021c-0.2207-0.1797-0.6104-0.2695-1.1699-0.2695h-1.0566V15.7559z"
		/>
	<path class="st1" d="M95.9023,13.5605c0-1.0166,0.2256-1.7949,0.6777-2.334c0.4521-0.541,1.1025-0.8105,1.9502-0.8105
		c0.4482,0,0.8379,0.0742,1.1699,0.2227c0.332,0.1475,0.6064,0.3594,0.8223,0.6348c0.2158,0.2773,0.376,0.6094,0.4805,0.9961
		c0.1035,0.3887,0.1553,0.8184,0.1553,1.291c0,1.0156-0.2256,1.793-0.6777,2.334c-0.4521,0.5391-1.1025,0.8096-1.9502,0.8096
		c-0.4482,0-0.8379-0.0742-1.1699-0.2217c-0.332-0.1484-0.6055-0.3604-0.8223-0.6367c-0.2158-0.2754-0.376-0.6074-0.4795-0.9961
		C95.9541,14.4619,95.9023,14.0322,95.9023,13.5605z M96.8984,13.5605c0,0.3037,0.0303,0.5957,0.0898,0.875
		c0.0605,0.2813,0.1543,0.5244,0.2822,0.7324s0.2959,0.376,0.5039,0.5039c0.208,0.1289,0.46,0.1924,0.7559,0.1924
		c1.0879,0.0078,1.6318-0.7607,1.6318-2.3037c0-0.3125-0.0293-0.6084-0.0898-0.8887c-0.0596-0.2793-0.1543-0.5234-0.2822-0.7324
		c-0.1279-0.207-0.2959-0.373-0.5039-0.498c-0.208-0.123-0.46-0.1855-0.7559-0.1855C97.4424,11.248,96.8984,12.0156,96.8984,13.5605
		z"/>
	<path class="st1" d="M102.4551,12.6602h2.9043v0.8877h-2.9043V12.6602z"/>
	<path class="st1" d="M3.6123,26.4004H0.96v5.1602H0v-6h4.5723v6h-0.96V26.4004z"/>
	<path class="st1" d="M6.4199,25.5605h0.6602l0.1797,0.7197h0.0479c0.1846-0.2793,0.4219-0.4932,0.7148-0.6416
		c0.292-0.1484,0.626-0.2217,1.002-0.2217c0.7998,0,1.3955,0.2354,1.7881,0.708c0.3916,0.4717,0.5879,1.2432,0.5879,2.3154
		c0,0.5039-0.0664,0.958-0.1982,1.3623s-0.3184,0.7461-0.5576,1.0254c-0.2402,0.2803-0.5303,0.4961-0.8701,0.6484
		c-0.3408,0.1523-0.7188,0.2275-1.1348,0.2275c-0.2959,0-0.5293-0.0176-0.7012-0.0537c-0.1729-0.0361-0.3584-0.0977-0.5586-0.1855
		v2.4961h-0.96V25.5605z M8.8438,26.2568c-0.4072,0-0.7295,0.1055-0.9658,0.3174s-0.4014,0.5342-0.498,0.9668v2.9756
		c0.1445,0.1123,0.3076,0.1982,0.4922,0.2578c0.1836,0.0605,0.4277,0.0898,0.7324,0.0898c0.5518,0,0.9893-0.2061,1.3135-0.6182
		c0.3242-0.4111,0.4863-1.0176,0.4863-1.8174c0-0.3281-0.0283-0.626-0.084-0.8945c-0.0566-0.2676-0.1465-0.4951-0.2705-0.6836
		c-0.124-0.1875-0.2842-0.334-0.4795-0.4385C9.374,26.3086,9.1318,26.2568,8.8438,26.2568z"/>
	<path class="st1" d="M12.5762,28.5605c0-1.0156,0.2256-1.7939,0.6777-2.334s1.1025-0.8096,1.9502-0.8096
		c0.4482,0,0.8379,0.0732,1.1699,0.2217s0.6064,0.3604,0.8223,0.6357c0.2158,0.2764,0.376,0.6084,0.4805,0.9961
		c0.1035,0.3877,0.1553,0.8184,0.1553,1.29c0,1.0156-0.2256,1.7939-0.6777,2.334s-1.1025,0.8096-1.9502,0.8096
		c-0.4482,0-0.8379-0.0732-1.1699-0.2217c-0.332-0.1475-0.6055-0.3604-0.8223-0.6357c-0.2158-0.2764-0.376-0.6084-0.4795-0.9961
		C12.6279,29.4629,12.5762,29.0322,12.5762,28.5605z M13.5723,28.5605c0,0.3037,0.0303,0.5957,0.0898,0.876
		c0.0605,0.2803,0.1543,0.5244,0.2822,0.7324s0.2959,0.376,0.5039,0.5039s0.46,0.1914,0.7559,0.1914
		c1.0879,0.0088,1.6318-0.7598,1.6318-2.3037c0-0.3115-0.0293-0.6074-0.0898-0.8877c-0.0596-0.2803-0.1543-0.5244-0.2822-0.7324
		s-0.2959-0.374-0.5039-0.498s-0.46-0.1855-0.7559-0.1855C14.1162,26.249,13.5723,27.0166,13.5723,28.5605z"/>
	<path class="st1" d="M23.0879,28.0088l0.0361-0.7441h-0.0361l-0.4922,0.7676l-2.7002,3.5283h-0.5518v-6h0.96v3.6602l-0.0361,0.708
		h0.0488l0.4678-0.7441l2.7002-3.624h0.5635v6h-0.96V28.0088z"/>
	<path class="st1" d="M26.4717,28.8848v-0.7803h0.8398c0.1445,0,0.2861-0.0244,0.4258-0.0723
		c0.1406-0.0479,0.2666-0.1133,0.3779-0.1973c0.1123-0.084,0.2021-0.1846,0.2705-0.3008c0.0674-0.1152,0.1016-0.2373,0.1016-0.3652
		c0-0.3125-0.1074-0.5322-0.3232-0.6602c-0.2168-0.1279-0.54-0.1924-0.9727-0.1924c-0.3115,0-0.5977,0.0469-0.8574,0.1396
		c-0.2607,0.0938-0.4619,0.1826-0.6064,0.2686l-0.2754-0.7324c0.2393-0.1357,0.5215-0.2559,0.8457-0.3594
		c0.3242-0.1045,0.71-0.1563,1.1582-0.1563c1.3271,0,1.9912,0.4922,1.9912,1.4756c0,0.2803-0.0898,0.5547-0.2695,0.8223
		c-0.1797,0.2686-0.4385,0.458-0.7744,0.5703v0.0479c0.4727,0.0879,0.8027,0.2559,0.9902,0.5039
		c0.1885,0.248,0.2822,0.5762,0.2822,0.9844c0,0.2559-0.0518,0.4912-0.1563,0.708c-0.1035,0.2158-0.2598,0.4033-0.4678,0.5635
		s-0.4697,0.2861-0.7861,0.3779s-0.6816,0.1387-1.0977,0.1387c-0.4082,0-0.7461-0.0361-1.0146-0.1084
		c-0.2676-0.0723-0.5098-0.1602-0.7256-0.2637l0.2764-0.792c0.1836,0.1035,0.4053,0.1836,0.666,0.2393
		c0.2598,0.0566,0.541,0.084,0.8457,0.084c0.4873,0,0.8594-0.084,1.1162-0.252c0.2559-0.168,0.3838-0.4238,0.3838-0.7676
		c0-0.2881-0.1201-0.5137-0.3604-0.6777s-0.6357-0.2461-1.1875-0.2461H26.4717z"/>
	<path class="st1" d="M31.1875,25.5723c0.2803-0.0156,0.5742-0.0361,0.8818-0.0596c0.3086-0.0244,0.6904-0.0361,1.1465-0.0361
		c0.792,0,1.3594,0.1221,1.7041,0.3662c0.3438,0.2441,0.5156,0.6143,0.5156,1.1094c0,0.2803-0.082,0.5547-0.2461,0.8223
		c-0.1641,0.2686-0.4336,0.4658-0.8096,0.5938v0.0488c0.4717,0.0879,0.8037,0.252,0.9961,0.4912
		c0.1914,0.2402,0.2881,0.5605,0.2881,0.96c0,0.624-0.2246,1.0762-0.6729,1.3564c-0.4473,0.2803-1.1201,0.4199-2.0156,0.4199
		c-0.3359,0-0.6475-0.0098-0.9355-0.0303c-0.2881-0.0195-0.5723-0.042-0.8525-0.0654V25.5723z M33.3232,28.0928
		c0.1445,0,0.2842-0.0244,0.4209-0.0723c0.1357-0.0479,0.2578-0.1143,0.3652-0.1982c0.1084-0.084,0.1963-0.1816,0.2646-0.2939
		c0.0674-0.1113,0.1016-0.2314,0.1016-0.3594c0-0.3203-0.0957-0.542-0.2881-0.666c-0.1914-0.124-0.5273-0.1865-1.0078-0.1865
		c-0.2559,0-0.458,0.0039-0.6064,0.0117c-0.1475,0.0088-0.29,0.0166-0.4258,0.0244v1.7402H33.3232z M32.1475,30.7568
		c0.1523,0.0156,0.3018,0.0283,0.4502,0.0361s0.3223,0.0117,0.5225,0.0117c0.5352,0,0.9336-0.0762,1.1934-0.2285
		c0.2598-0.1514,0.3906-0.4111,0.3906-0.7793c0-0.2881-0.1104-0.5225-0.3301-0.7021c-0.2207-0.1807-0.6104-0.2705-1.1699-0.2705
		h-1.0566V30.7568z"/>
	<path class="st1" d="M36.8398,28.5605c0-1.0156,0.2256-1.7939,0.6777-2.334s1.1025-0.8096,1.9502-0.8096
		c0.4482,0,0.8379,0.0732,1.1699,0.2217s0.6064,0.3604,0.8223,0.6357c0.2158,0.2764,0.376,0.6084,0.4805,0.9961
		c0.1035,0.3877,0.1553,0.8184,0.1553,1.29c0,1.0156-0.2256,1.7939-0.6777,2.334s-1.1025,0.8096-1.9502,0.8096
		c-0.4482,0-0.8379-0.0732-1.1699-0.2217c-0.332-0.1475-0.6055-0.3604-0.8223-0.6357c-0.2158-0.2764-0.376-0.6084-0.4795-0.9961
		C36.8916,29.4629,36.8398,29.0322,36.8398,28.5605z M37.8359,28.5605c0,0.3037,0.0303,0.5957,0.0898,0.876
		c0.0605,0.2803,0.1543,0.5244,0.2822,0.7324s0.2959,0.376,0.5039,0.5039s0.46,0.1914,0.7559,0.1914
		c1.0879,0.0088,1.6318-0.7598,1.6318-2.3037c0-0.3115-0.0293-0.6074-0.0898-0.8877c-0.0596-0.2803-0.1543-0.5244-0.2822-0.7324
		s-0.2959-0.374-0.5039-0.498s-0.46-0.1855-0.7559-0.1855C38.3799,26.249,37.8359,27.0166,37.8359,28.5605z"/>
	<path class="st1" d="M48.8389,33.085h-0.6475l-0.1797-1.5244H43.499l-0.1797,1.5244h-0.6484v-2.3643h0.708
		c0.0645-0.0879,0.1484-0.2461,0.252-0.4746c0.1045-0.2275,0.2061-0.5479,0.3066-0.96c0.0996-0.4111,0.1875-0.9238,0.2637-1.5352
		c0.0762-0.6123,0.1221-1.3428,0.1377-2.1904h3.624v5.1602h0.876V33.085z M47.0029,30.7207v-4.3203h-1.7998
		c-0.0156,0.3359-0.0439,0.7021-0.084,1.0986c-0.04,0.3955-0.0938,0.792-0.1621,1.1875c-0.0674,0.3965-0.1543,0.7705-0.2578,1.1221
		c-0.1035,0.3525-0.2236,0.6563-0.3604,0.9121H47.0029z"/>
	<path class="st1" d="M54.1191,31.1641c-0.2393,0.1768-0.5234,0.3105-0.8516,0.4023s-0.6719,0.1377-1.0322,0.1377
		c-0.4639,0-0.8564-0.0732-1.1758-0.2217c-0.3203-0.1475-0.582-0.3604-0.7861-0.6357c-0.2041-0.2764-0.3516-0.6084-0.4443-0.9961
		c-0.0918-0.3877-0.1377-0.8184-0.1377-1.29c0-1.0156,0.2236-1.7939,0.6719-2.334s1.0918-0.8096,1.9326-0.8096
		c0.3838,0,0.71,0.0293,0.9775,0.0898c0.2676,0.0596,0.5098,0.1455,0.7266,0.2578l-0.2764,0.8281
		c-0.1846-0.1045-0.3887-0.1865-0.6123-0.2461c-0.2236-0.0605-0.4639-0.0898-0.7197-0.0898c-1.1357,0-1.7041,0.7676-1.7041,2.3037
		c0,0.3037,0.0303,0.5938,0.0898,0.8701c0.0605,0.2764,0.1602,0.5195,0.2998,0.7314c0.1406,0.2129,0.3242,0.3828,0.5527,0.5107
		c0.2275,0.1279,0.5098,0.1914,0.8457,0.1914c0.2881,0,0.5459-0.0439,0.7744-0.1318c0.2275-0.0879,0.4131-0.1875,0.5576-0.2998
		L54.1191,31.1641z"/>
	<path class="st1" d="M59.0635,26.4004h-1.8721v5.1602h-0.96v-5.1602h-1.8721v-0.8398h4.7041V26.4004z"/>
	<path class="st1" d="M60.0107,25.5723c0.2803-0.0156,0.5742-0.0361,0.8818-0.0596c0.3086-0.0244,0.6904-0.0361,1.1465-0.0361
		c0.792,0,1.3594,0.1221,1.7041,0.3662c0.3438,0.2441,0.5156,0.6143,0.5156,1.1094c0,0.2803-0.082,0.5547-0.2461,0.8223
		c-0.1641,0.2686-0.4336,0.4658-0.8096,0.5938v0.0488c0.4717,0.0879,0.8037,0.252,0.9961,0.4912
		c0.1914,0.2402,0.2881,0.5605,0.2881,0.96c0,0.624-0.2246,1.0762-0.6729,1.3564c-0.4473,0.2803-1.1201,0.4199-2.0156,0.4199
		c-0.3359,0-0.6475-0.0098-0.9355-0.0303c-0.2881-0.0195-0.5723-0.042-0.8525-0.0654V25.5723z M62.1465,28.0928
		c0.1445,0,0.2842-0.0244,0.4209-0.0723c0.1357-0.0479,0.2578-0.1143,0.3652-0.1982c0.1084-0.084,0.1963-0.1816,0.2646-0.2939
		c0.0674-0.1113,0.1016-0.2314,0.1016-0.3594c0-0.3203-0.0957-0.542-0.2881-0.666c-0.1914-0.124-0.5273-0.1865-1.0078-0.1865
		c-0.2559,0-0.458,0.0039-0.6064,0.0117c-0.1475,0.0088-0.29,0.0166-0.4258,0.0244v1.7402H62.1465z M60.9707,30.7568
		c0.1523,0.0156,0.3018,0.0283,0.4502,0.0361s0.3223,0.0117,0.5225,0.0117c0.5352,0,0.9336-0.0762,1.1934-0.2285
		c0.2598-0.1514,0.3906-0.4111,0.3906-0.7793c0-0.2881-0.1104-0.5225-0.3301-0.7021c-0.2207-0.1807-0.6104-0.2705-1.1699-0.2705
		h-1.0566V30.7568z"/>
	<path class="st1" d="M70.3789,31.0801c-0.2393,0.1924-0.542,0.3447-0.9053,0.4561c-0.3643,0.1123-0.75,0.168-1.1582,0.168
		c-0.4561,0-0.8525-0.0732-1.1885-0.2217c-0.3359-0.1475-0.6113-0.3604-0.8281-0.6357c-0.2158-0.2764-0.376-0.6064-0.4795-0.9902
		c-0.1045-0.3838-0.1563-0.8154-0.1563-1.2959c0-1.0244,0.2285-1.8037,0.6846-2.3398c0.4551-0.5361,1.1074-0.8037,1.9551-0.8037
		c0.2725,0,0.5439,0.0293,0.8164,0.0898c0.2715,0.0596,0.5156,0.1738,0.7324,0.3418c0.2158,0.168,0.3916,0.4063,0.5273,0.7139
		c0.1357,0.3086,0.2041,0.7139,0.2041,1.2178c0,0.2646-0.0234,0.5566-0.0723,0.876h-3.8516c0,0.3525,0.0361,0.6641,0.1084,0.9365
		c0.0713,0.2715,0.1836,0.502,0.3359,0.6895c0.1514,0.1885,0.3496,0.332,0.5938,0.4326c0.2441,0.0996,0.542,0.1494,0.8936,0.1494
		c0.2725,0,0.5439-0.0479,0.8164-0.1436c0.2715-0.0957,0.4756-0.208,0.6123-0.3359L70.3789,31.0801z M68.3154,26.2568
		c-0.4727,0-0.8506,0.124-1.1338,0.3721c-0.2842,0.248-0.4541,0.6719-0.5107,1.2715h2.9766c0-0.6074-0.1162-1.0342-0.3486-1.2783
		C69.0674,26.3789,68.7393,26.2568,68.3154,26.2568z"/>
	<path class="st1" d="M75.7666,28.9082h-2.7119v2.6523h-0.96v-6h0.96v2.5078h2.7119v-2.5078h0.96v6h-0.96V28.9082z"/>
	<path class="st1" d="M82.2471,28.9082h-2.7119v2.6523h-0.96v-6h0.96v2.5078h2.7119v-2.5078h0.96v6h-0.96V28.9082z"/>
	<path class="st1" d="M84.959,26.0049c0.3037-0.1846,0.6582-0.3203,1.0615-0.4082c0.4043-0.0879,0.8262-0.1318,1.2666-0.1318
		c0.416,0,0.75,0.0557,1.002,0.168s0.4434,0.2578,0.5762,0.4375c0.1318,0.1807,0.2197,0.3779,0.2637,0.5938
		c0.0439,0.2168,0.0664,0.4326,0.0664,0.6484c0,0.4805-0.0127,0.9482-0.0361,1.4043c-0.0244,0.4561-0.0361,0.8877-0.0361,1.2959
		c0,0.2959,0.0117,0.5762,0.0361,0.8398c0.0234,0.2637,0.0674,0.5078,0.1318,0.7324h-0.708l-0.252-0.8408h-0.0605
		c-0.0713,0.1123-0.1621,0.2227-0.2695,0.3301c-0.1084,0.1084-0.2383,0.2041-0.3896,0.2881c-0.1523,0.084-0.3281,0.1543-0.5283,0.21
		c-0.2002,0.0566-0.4277,0.084-0.6846,0.084c-0.2559,0-0.4932-0.04-0.7139-0.1201c-0.2197-0.0791-0.4102-0.1934-0.5693-0.3418
		c-0.1602-0.1475-0.2861-0.3252-0.3779-0.5342c-0.0928-0.208-0.1387-0.4434-0.1387-0.708c0-0.3516,0.0723-0.6455,0.2158-0.8818
		c0.1445-0.2354,0.3467-0.4238,0.6064-0.5635c0.2598-0.1406,0.5723-0.2402,0.9355-0.2998c0.3643-0.0605,0.7666-0.0908,1.2061-0.0908
		c0.1123,0,0.2227,0,0.3301,0c0.1084,0,0.2178,0.0088,0.3301,0.0244c0.0244-0.2402,0.0361-0.4561,0.0361-0.6484
		c0-0.4395-0.0879-0.748-0.2637-0.9238c-0.1768-0.1758-0.4961-0.2637-0.96-0.2637c-0.1367,0-0.2822,0.0098-0.4385,0.0313
		c-0.1563,0.0205-0.3164,0.0488-0.4795,0.0859c-0.1641,0.0371-0.3203,0.082-0.4688,0.1357
		c-0.1475,0.0537-0.2773,0.1133-0.3896,0.1787L84.959,26.0049z M86.6631,30.8164c0.2236,0,0.4238-0.0303,0.5996-0.0898
		s0.3281-0.1357,0.4561-0.2275c0.1279-0.0928,0.2344-0.1943,0.3184-0.3066c0.084-0.1113,0.1455-0.2197,0.1855-0.3242v-0.9961
		c-0.1123-0.0078-0.2256-0.0137-0.3418-0.0176s-0.2305-0.0059-0.3418-0.0059c-0.248,0-0.4902,0.0137-0.7266,0.042
		c-0.2354,0.0283-0.4434,0.0801-0.624,0.1563c-0.1797,0.0762-0.3232,0.1797-0.4316,0.3115s-0.1621,0.2979-0.1621,0.498
		c0,0.2803,0.0996,0.5098,0.2998,0.6904C86.0947,30.7266,86.3506,30.8164,86.6631,30.8164z"/>
	<path class="st1" d="M93.9951,29.0762l-0.9238,0.1445l-1.584,2.3398h-1.1641l1.4395-2.0518l0.4805-0.4443
		c-0.416-0.0635-0.7705-0.2314-1.0625-0.5039c-0.292-0.2715-0.4375-0.6396-0.4375-1.1035c0-0.3604,0.0615-0.668,0.1855-0.9248
		c0.124-0.2559,0.3018-0.4678,0.5342-0.6357s0.5078-0.29,0.8281-0.3662c0.3203-0.0752,0.6797-0.1133,1.0801-0.1133
		c0.2959,0,0.5723,0.0195,0.8281,0.0596s0.5078,0.084,0.7559,0.1318v5.9521h-0.96V29.0762z M93.9951,26.377
		c-0.1045-0.04-0.2207-0.0703-0.3477-0.0908c-0.1289-0.0195-0.2402-0.0293-0.3369-0.0293c-0.5117,0-0.9014,0.0918-1.1699,0.2754
		c-0.2676,0.1846-0.4014,0.4766-0.4014,0.876c0,0.3604,0.1416,0.6387,0.4258,0.834c0.2842,0.1963,0.6582,0.2939,1.1221,0.2939
		c0.0078,0,0.0195,0,0.0361,0c0.0156,0,0.0479,0,0.0957,0s0.1162-0.001,0.2041-0.0059c0.0879-0.0039,0.2119-0.0098,0.3721-0.0176
		V26.377z"/>
	<path class="st1" d="M1.5127,43.8604H0.96v2.7002H0v-6h0.96v2.7119l0.5156-0.168l1.9199-2.5439h1.0449l-1.8604,2.4121
		l-0.5039,0.3955l0.624,0.4805l2.0039,2.7119H3.5166L1.5127,43.8604z"/>
	<path class="st1" d="M5.2686,43.5605c0-1.0156,0.2256-1.7939,0.6777-2.334s1.1025-0.8096,1.9502-0.8096
		c0.4482,0,0.8379,0.0732,1.1699,0.2217s0.6064,0.3604,0.8223,0.6357c0.2158,0.2764,0.376,0.6084,0.4805,0.9961
		c0.1035,0.3877,0.1553,0.8184,0.1553,1.29c0,1.0156-0.2256,1.7939-0.6777,2.334s-1.1025,0.8096-1.9502,0.8096
		c-0.4482,0-0.8379-0.0732-1.1699-0.2217c-0.332-0.1475-0.6055-0.3604-0.8223-0.6357c-0.2158-0.2764-0.376-0.6084-0.4795-0.9961
		C5.3203,44.4629,5.2686,44.0322,5.2686,43.5605z M6.2646,43.5605c0,0.3037,0.0303,0.5957,0.0898,0.876
		c0.0605,0.2803,0.1543,0.5244,0.2822,0.7324s0.2959,0.376,0.5039,0.5039s0.46,0.1914,0.7559,0.1914
		c1.0879,0.0088,1.6318-0.7598,1.6318-2.3037c0-0.3115-0.0293-0.6074-0.0898-0.8877c-0.0596-0.2803-0.1543-0.5244-0.2822-0.7324
		s-0.2959-0.374-0.5039-0.498s-0.46-0.1855-0.7559-0.1855C6.8086,41.249,6.2646,42.0166,6.2646,43.5605z"/>
	<path class="st1" d="M16.9922,42.9961l0.0723-1.1396h-0.0605l-0.4316,0.9238l-1.4521,2.3525h-0.3359l-1.5117-2.3525l-0.3965-0.9238
		h-0.0479l0.0957,1.1279v3.5762h-0.8877v-6h0.9482l1.6797,2.6885l0.3486,0.6953h0.0234l0.3604-0.7197l1.5723-2.6641h0.96v6h-0.9365
		V42.9961z"/>
	<path class="st1" d="M23.3887,41.4004h-2.6523v5.1602h-0.96v-6h4.5723v6h-0.96V41.4004z"/>
	<path class="st1" d="M26.1006,41.0049c0.3037-0.1846,0.6582-0.3203,1.0615-0.4082c0.4043-0.0879,0.8262-0.1318,1.2666-0.1318
		c0.416,0,0.75,0.0557,1.002,0.168s0.4434,0.2578,0.5762,0.4375c0.1318,0.1807,0.2197,0.3779,0.2637,0.5938
		c0.0439,0.2168,0.0664,0.4326,0.0664,0.6484c0,0.4805-0.0127,0.9482-0.0361,1.4043c-0.0244,0.4561-0.0361,0.8877-0.0361,1.2959
		c0,0.2959,0.0117,0.5762,0.0361,0.8398c0.0234,0.2637,0.0674,0.5078,0.1318,0.7324h-0.708l-0.252-0.8408h-0.0605
		c-0.0713,0.1123-0.1621,0.2227-0.2695,0.3301c-0.1084,0.1084-0.2383,0.2041-0.3896,0.2881c-0.1523,0.084-0.3281,0.1543-0.5283,0.21
		c-0.2002,0.0566-0.4277,0.084-0.6846,0.084c-0.2559,0-0.4932-0.04-0.7139-0.1201c-0.2197-0.0791-0.4102-0.1934-0.5693-0.3418
		c-0.1602-0.1475-0.2861-0.3252-0.3779-0.5342c-0.0928-0.208-0.1387-0.4434-0.1387-0.708c0-0.3516,0.0723-0.6455,0.2158-0.8818
		c0.1445-0.2354,0.3467-0.4238,0.6064-0.5635c0.2598-0.1406,0.5723-0.2402,0.9355-0.2998c0.3643-0.0605,0.7666-0.0908,1.2061-0.0908
		c0.1123,0,0.2227,0,0.3301,0c0.1084,0,0.2178,0.0088,0.3301,0.0244c0.0244-0.2402,0.0361-0.4561,0.0361-0.6484
		c0-0.4395-0.0879-0.748-0.2637-0.9238c-0.1768-0.1758-0.4961-0.2637-0.96-0.2637c-0.1367,0-0.2822,0.0098-0.4385,0.0313
		c-0.1563,0.0205-0.3164,0.0488-0.4795,0.0859c-0.1641,0.0371-0.3203,0.082-0.4688,0.1357
		c-0.1475,0.0537-0.2773,0.1133-0.3896,0.1787L26.1006,41.0049z M27.8047,45.8164c0.2236,0,0.4238-0.0303,0.5996-0.0898
		s0.3281-0.1357,0.4561-0.2275c0.1279-0.0928,0.2344-0.1943,0.3184-0.3066c0.084-0.1113,0.1455-0.2197,0.1855-0.3242v-0.9961
		c-0.1123-0.0078-0.2256-0.0137-0.3418-0.0176s-0.2305-0.0059-0.3418-0.0059c-0.248,0-0.4902,0.0137-0.7266,0.042
		c-0.2354,0.0283-0.4434,0.0801-0.624,0.1563c-0.1797,0.0762-0.3232,0.1797-0.4316,0.3115s-0.1621,0.2979-0.1621,0.498
		c0,0.2803,0.0996,0.5098,0.2998,0.6904C27.2363,45.7266,27.4922,45.8164,27.8047,45.8164z"/>
	<path class="st1" d="M35.8193,43.9082h-2.7119v2.6523h-0.96v-6h0.96v2.5078h2.7119v-2.5078h0.96v6h-0.96V43.9082z"/>
	<path class="st1" d="M42.3721,43.0088l0.0361-0.7441h-0.0361l-0.4922,0.7676l-2.7002,3.5283h-0.5518v-6h0.96v3.6602l-0.0361,0.708
		h0.0488l0.4678-0.7441l2.7002-3.624h0.5635v6h-0.96V43.0088z"/>
	<path class="st1" d="M48.168,44.0762l-0.9238,0.1445l-1.584,2.3398h-1.1641l1.4395-2.0518l0.4805-0.4443
		C46,44.001,45.6455,43.833,45.3535,43.5605c-0.292-0.2715-0.4375-0.6396-0.4375-1.1035c0-0.3604,0.0615-0.668,0.1855-0.9248
		c0.124-0.2559,0.3018-0.4678,0.5342-0.6357s0.5078-0.29,0.8281-0.3662c0.3203-0.0752,0.6797-0.1133,1.0801-0.1133
		c0.2959,0,0.5723,0.0195,0.8281,0.0596s0.5078,0.084,0.7559,0.1318v5.9521h-0.96V44.0762z M48.168,41.377
		c-0.1045-0.04-0.2207-0.0703-0.3477-0.0908c-0.1289-0.0195-0.2402-0.0293-0.3369-0.0293c-0.5117,0-0.9014,0.0918-1.1699,0.2754
		c-0.2676,0.1846-0.4014,0.4766-0.4014,0.876c0,0.3604,0.1416,0.6387,0.4258,0.834c0.2842,0.1963,0.6582,0.2939,1.1221,0.2939
		c0.0078,0,0.0195,0,0.0361,0c0.0156,0,0.0479,0,0.0957,0s0.1162-0.001,0.2041-0.0059c0.0879-0.0039,0.2119-0.0098,0.3721-0.0176
		V41.377z"/>
</g>
</svg>
