<?xml version="1.0" encoding="utf-8"?>
<!-- Generator: Adobe Illustrator 19.1.0, SVG Export Plug-In . SVG Version: 6.00 Build 0)  -->
<svg version="1.1" id="Слой_1" xmlns="http://www.w3.org/2000/svg" xmlns:xlink="http://www.w3.org/1999/xlink" x="0px" y="0px"
	 width="36px" height="36px" viewBox="0 0 36 36" style="enable-background:new 0 0 36 36;" xml:space="preserve">
<style type="text/css">
	.st0{fill:#3172B1;}
</style>
<g>
	<g>
		<path class="st0" d="M8,0H2.4C1.1,0,0,1.1,0,2.4V8c0,1.3,1.1,2.4,2.4,2.4H8c1.3,0,2.4-1.1,2.4-2.4V2.4C10.3,1.1,9.3,0,8,0z M8.6,8
			c0,0.3-0.2,0.6-0.6,0.6H2.4C2,8.6,1.8,8.3,1.8,8V2.4c0-0.3,0.2-0.6,0.6-0.6H8c0.3,0,0.6,0.3,0.6,0.6V8z M8,12.8H2.4
			c-1.3,0-2.4,1.1-2.4,2.4v5.6c0,1.3,1.1,2.4,2.4,2.4H8c1.3,0,2.4-1.1,2.4-2.4v-5.6C10.3,13.9,9.3,12.8,8,12.8z M8.6,20.8
			c0,0.3-0.2,0.6-0.6,0.6H2.4c-0.3,0-0.6-0.3-0.6-0.6v-5.6c0-0.3,0.2-0.6,0.6-0.6H8c0.3,0,0.6,0.3,0.6,0.6V20.8z M8,25.6H2.4
			C1.1,25.6,0,26.7,0,28v5.6C0,34.9,1.1,36,2.4,36H8c1.3,0,2.4-1.1,2.4-2.4V28C10.3,26.7,9.3,25.6,8,25.6z M8.6,33.6
			c0,0.3-0.2,0.6-0.6,0.6H2.4c-0.3,0-0.6-0.3-0.6-0.6V28c0-0.3,0.2-0.6,0.6-0.6H8c0.3,0,0.6,0.3,0.6,0.6V33.6z M14.9,4.1h20.2
			c0.5,0,0.9-0.4,0.9-0.9s-0.4-0.9-0.9-0.9H14.9c-0.5,0-0.9,0.4-0.9,0.9S14.4,4.1,14.9,4.1z M14.9,8.1h10.2c0.5,0,0.9-0.4,0.9-0.9
			c0-0.5-0.4-0.9-0.9-0.9H14.9c-0.5,0-0.9,0.4-0.9,0.9S14.4,8.1,14.9,8.1z M35.1,15.1H14.9c-0.5,0-0.9,0.4-0.9,0.9
			c0,0.5,0.4,0.9,0.9,0.9h20.2c0.5,0,0.9-0.4,0.9-0.9C36,15.5,35.6,15.1,35.1,15.1z M14.9,20.9h10.2c0.5,0,0.9-0.4,0.9-0.9
			c0-0.5-0.4-0.9-0.9-0.9H14.9c-0.5,0-0.9,0.4-0.9,0.9C14,20.5,14.4,20.9,14.9,20.9z M35.1,28H14.9c-0.5,0-0.9,0.4-0.9,0.9
			s0.4,0.9,0.9,0.9h20.2c0.5,0,0.9-0.4,0.9-0.9C36,28.4,35.6,28,35.1,28z M25.1,31.9H14.9c-0.5,0-0.9,0.4-0.9,0.9s0.4,0.9,0.9,0.9
			h10.2c0.5,0,0.9-0.4,0.9-0.9C26,32.3,25.6,31.9,25.1,31.9z"/>
	</g>
</g>
</svg>
