<?xml version="1.0" encoding="utf-8"?>
<!-- Generator: Adobe Illustrator 19.1.0, SVG Export Plug-In . SVG Version: 6.00 Build 0)  -->
<svg version="1.1" id="Слой_1" xmlns="http://www.w3.org/2000/svg" xmlns:xlink="http://www.w3.org/1999/xlink" x="0px" y="0px"
	 width="38px" height="38px" viewBox="0 0 38 38" style="enable-background:new 0 0 38 38;" xml:space="preserve">
<style type="text/css">
	.st0{fill:#3172B1;}
	.st1{fill:none;}
</style>
<path class="st0" d="M19,38C8.5,38,0,29.5,0,19S8.5,0,19,0s19,8.5,19,19S29.5,38,19,38 M19,2C9.6,2,2,9.6,2,19s7.6,17,17,17
	s17-7.6,17-17S28.4,2,19,2"/>
<path class="st0" d="M20.1,12.3c0,0.8-0.7,1.5-1.5,1.5c-0.8,0-1.5-0.7-1.5-1.5c0-0.8,0.7-1.5,1.5-1.5C19.4,10.8,20.1,11.5,20.1,12.3
	"/>
<path class="st0" d="M18.6,27.2c-0.3,0-0.5-0.1-0.7-0.3c-0.2-0.2-0.3-0.4-0.3-0.7v-8.3h-2c-0.6,0-1-0.4-1-1c0-0.6,0.4-1,1-1h3
	c0.6,0,1,0.4,1,1v8.3h2c0.6,0,1,0.4,1,1c0,0.6-0.4,1-1,1H18.6z"/>
<rect class="st1" width="38" height="38"/>
</svg>
