<?xml version="1.0" encoding="utf-8"?>
<!-- Generator: Adobe Illustrator 19.1.0, SVG Export Plug-In . SVG Version: 6.00 Build 0)  -->
<svg version="1.1" id="Слой_1" xmlns="http://www.w3.org/2000/svg" xmlns:xlink="http://www.w3.org/1999/xlink" x="0px" y="0px"
	 width="28.4px" height="29.7px" viewBox="0 0 28.4 29.7" style="enable-background:new 0 0 28.4 29.7;" xml:space="preserve">
<style type="text/css">
	.st0{fill:#3172B1;}
</style>
<path class="st0" d="M25.3,19.7c-0.6-0.7-1.5-1.1-2.4-1.1c-0.9,0-1.8,0.3-2.5,0.9c-0.5,0.5-1.3,0.8-2,0.8c-0.7,0-1.5-0.4-2-0.9
	L10,12.5c-0.5-0.6-0.8-1.3-0.8-2.1c0-0.8,0.3-1.5,0.9-2c1.4-1.3,1.5-3.5,0.2-4.9L8,1.1C7.4,0.4,6.5,0,5.6,0C4.7,0,3.9,0.3,3.2,0.9
	L2.5,1.6C1.3,2.7,0.4,4.3,0.1,6c-0.5,2.8,0.4,5.6,2.3,7.7l12.2,13.2c1.9,2.1,4.7,3.1,7.5,2.8c0.4,0,0.8-0.1,1.2-0.2
	c1.3-0.3,2.4-1,3.4-1.9l0.7-0.7c0.7-0.6,1-1.4,1.1-2.4c0-0.9-0.3-1.8-0.9-2.4L25.3,19.7z M26.5,24.5c0,0.4-0.2,0.7-0.4,1l-0.7,0.7
	c-0.9,0.9-2.2,1.4-3.4,1.6c-2.2,0.2-4.3-0.6-5.8-2.2L3.8,12.3c-1.5-1.6-2.1-3.8-1.8-6C2.3,5.1,2.9,3.9,3.9,3l0.7-0.7
	C4.7,2.2,4.9,2.1,5.2,2C5.3,2,5.4,2,5.6,2c0.4,0,0.7,0.2,1,0.4l2.3,2.5C9.4,5.5,9.4,6.4,8.8,7c-0.9,0.9-1.5,2.1-1.5,3.4
	c0,1.3,0.4,2.5,1.3,3.5l6.4,6.9c0.9,0.9,2,1.5,3.3,1.5c1.3,0,2.5-0.4,3.4-1.3c0.6-0.6,1.6-0.5,2.2,0.1l2.3,2.4c0,0,0,0,0,0
	C26.3,23.7,26.5,24.1,26.5,24.5z"/>
</svg>
