<?xml version="1.0" encoding="utf-8"?>
<!-- Generator: Adobe Illustrator 19.1.0, SVG Export Plug-In . SVG Version: 6.00 Build 0)  -->
<svg version="1.1" id="Слой_1" xmlns="http://www.w3.org/2000/svg" xmlns:xlink="http://www.w3.org/1999/xlink" x="0px" y="0px"
	 width="34px" height="36px" viewBox="0 0 34 36" style="enable-background:new 0 0 34 36;" xml:space="preserve">
<style type="text/css">
	.st0{fill:#3172B1;}
</style>
<g>
	<g>
		<path class="st0" d="M17.4,7.1c-5.3,0-9.6,4.3-9.6,9.6c0,2.2,0.7,4.2,2.1,5.9c0.3,0.3,0.5,0.6,0.8,1c0.8,0.9,1.6,1.8,1.8,2.8
			c0,0,0.1,0.2,0,0.9l0,0.1c0,0.6,0,1.4,0.6,1.9c0.4,0.4,1,0.6,1.7,0.6H20c0.8,0,1.4-0.2,1.8-0.6c0.5-0.5,0.5-1.3,0.5-1.7
			c0-0.1,0-0.2,0-0.3c0-0.7,0-0.9,0-0.9c0.3-1,1.2-2,1.9-2.9c0.3-0.3,0.5-0.6,0.7-0.9c1.3-1.7,2.1-3.7,2.1-5.9
			C27,11.4,22.7,7.1,17.4,7.1z M23.5,21.4c-0.2,0.3-0.4,0.5-0.7,0.8c-0.9,1.1-1.9,2.3-2.3,3.7c-0.1,0.2-0.1,0.6-0.1,1.5
			c0,0.1,0,0.2,0,0.3c0,0.1,0,0.2,0,0.3c-0.1,0-0.2,0-0.3,0h-5.2c-0.2,0-0.3,0-0.3,0c0-0.1,0-0.4,0-0.6l0-0.1c0-0.9-0.1-1.3-0.1-1.5
			c-0.4-1.4-1.4-2.5-2.2-3.5c-0.3-0.3-0.5-0.6-0.7-0.9c-1.1-1.4-1.6-3-1.6-4.7c0-4.2,3.4-7.7,7.7-7.7c4.2,0,7.7,3.4,7.7,7.7
			C25.1,18.5,24.5,20.1,23.5,21.4z M19.8,30.8h-4.8c-1,0-1.9,0.8-1.9,1.9v1.4c0,1,0.8,1.9,1.9,1.9h4.8c1,0,1.9-0.8,1.9-1.9v-1.4
			C21.7,31.7,20.9,30.8,19.8,30.8z M19.8,34.1h-4.6v-1.3h4.6V34.1z M17.4,5.9c0.5,0,1-0.4,1-1V1c0-0.5-0.4-1-1-1c-0.5,0-1,0.4-1,1v4
			C16.5,5.5,16.9,5.9,17.4,5.9z M30.2,4.5c-0.4-0.4-1-0.4-1.4,0l-2.9,2.8c-0.4,0.4-0.4,1,0,1.4c0.2,0.2,0.4,0.3,0.7,0.3
			c0.2,0,0.5-0.1,0.7-0.3l2.9-2.8C30.5,5.5,30.5,4.8,30.2,4.5z M33,14.1L33,14.1l-3.8,0c-0.5,0-1,0.4-1,1c0,0.5,0.4,1,1,1h0l3.8,0
			c0.5,0,1-0.4,1-1C34,14.5,33.6,14.1,33,14.1z M8.6,8.3c0.4-0.4,0.4-1,0-1.4L5.6,4.2c-0.4-0.4-1-0.4-1.4,0c-0.4,0.4-0.4,1,0,1.4
			l2.9,2.8c0.2,0.2,0.4,0.3,0.7,0.3C8.1,8.6,8.4,8.5,8.6,8.3z M4.7,14.1l-3.8,0h0c-0.5,0-1,0.4-1,1c0,0.5,0.4,1,1,1l3.8,0h0
			c0.5,0,1-0.4,1-1C5.7,14.5,5.3,14.1,4.7,14.1z"/>
	</g>
</g>
</svg>
