<?xml version="1.0" encoding="utf-8"?>
<!-- Generator: Adobe Illustrator 19.1.0, SVG Export Plug-In . SVG Version: 6.00 Build 0)  -->
<svg version="1.1" id="Слой_1" xmlns="http://www.w3.org/2000/svg" xmlns:xlink="http://www.w3.org/1999/xlink" x="0px" y="0px"
	 width="280px" height="400px" viewBox="0 0 280 400" style="enable-background:new 0 0 280 400;" xml:space="preserve">
<style type="text/css">
	.st0{fill-rule:evenodd;clip-rule:evenodd;fill:#F7D561;}
	.st1{fill-rule:evenodd;clip-rule:evenodd;fill:#F5CA3A;}
	.st2{display:none;}
	.st3{display:inline;}
	.st4{fill:#1F65AB;}
	.st5{fill:#D1A924;}
</style>
<g>
	<g>
		<path class="st0" d="M255.5-43.8l-71,50l-35,178l196-96L255.5-43.8z M152.5,203.2l1,3l181,199l56-175L152.5,203.2z M139.5,204.2
			l-167,239l222-1l-46.1-196.4L139.5,204.2z M120.5,202.2l-132-61l-3,163L120.5,202.2z M99.5-14.8l-206,21l236,174L99.5-14.8z"/>
	</g>
</g>
<path class="st1" d="M140.5,116.2c46.4,0,84,37.6,84,84c0,46.4-37.6,84-84,84c-46.4,0-84-37.6-84-84
	C56.5,153.8,94.1,116.2,140.5,116.2z"/>
<g class="st2">
	<g class="st3">
		<path class="st4" d="M181.4,238.4l-13.2-31.3c-0.3-0.8-1.3-1.2-2.1-0.8c-0.8,0.3-1.2,1.2-0.9,2l12,28.3l-10.9-3.1
			c-0.7-0.2-1.5,0.1-1.8,0.7l-5.5,9.8l-12.8-30.4c14.8-2.8,26-15.6,26-30.9c0-17.4-14.4-31.5-32.1-31.5c-17.7,0-32.1,14.1-32.1,31.5
			c0,7,2.4,13.5,6.4,18.8l-15.6,36.9c-0.2,0.6-0.1,1.2,0.3,1.6c0.4,0.4,1,0.6,1.6,0.5l12.9-3.7l6.5,11.5c0.3,0.5,0.8,0.8,1.4,0.8
			c0,0,0.1,0,0.1,0c0.6,0,1.2-0.4,1.4-1l12.4-29.3c0.3-0.8,0-1.7-0.9-2c-0.8-0.3-1.7,0-2.1,0.8L121.1,244l-5.5-9.8
			c-0.4-0.6-1.1-1-1.8-0.7l-10.9,3.1l13.7-32.4c5.9,6.2,14.2,10,23.5,10c1,0,1.9,0,2.8-0.1l14.4,34.1c0.2,0.6,0.8,0.9,1.4,1
			c0,0,0.1,0,0.1,0c0.6,0,1.1-0.3,1.4-0.8l6.5-11.5l12.9,3.7c0.6,0.2,1.2,0,1.6-0.5C181.5,239.6,181.6,239,181.4,238.4z M140,211.1
			c-16,0-28.9-12.7-28.9-28.4c0-15.6,13-28.4,28.9-28.4c16,0,28.9,12.7,28.9,28.4C168.9,198.3,156,211.1,140,211.1z M158.4,176.8
			c-0.2-0.6-0.7-1-1.3-1.1l-10.7-1.8l-5-9.5c-0.3-0.5-0.8-0.8-1.4-0.8c-0.6,0-1.1,0.3-1.4,0.8l-5,9.5l-10.7,1.8
			c-0.6,0.1-1.1,0.5-1.3,1.1c-0.2,0.6,0,1.2,0.4,1.6l7.6,7.6l-1.6,10.6c-0.1,0.6,0.2,1.2,0.6,1.5c0.5,0.3,1.1,0.4,1.6,0.1l9.7-4.8
			l9.7,4.8c0.2,0.1,0.5,0.2,0.7,0.2c0.3,0,0.7-0.1,0.9-0.3c0.5-0.3,0.7-0.9,0.6-1.5l-1.6-10.6l7.6-7.6
			C158.5,178,158.6,177.4,158.4,176.8z M147.6,184.4c-0.4,0.4-0.5,0.8-0.4,1.3l1.3,8.4l-7.7-3.8c-0.2-0.1-0.5-0.2-0.7-0.2
			c-0.2,0-0.5,0.1-0.7,0.2l-7.7,3.8l1.3-8.4c0.1-0.5-0.1-1-0.4-1.3l-6-6l8.5-1.4c0.5-0.1,0.9-0.4,1.2-0.8l4-7.5l4,7.5
			c0.2,0.4,0.7,0.7,1.2,0.8l8.5,1.4L147.6,184.4z M164.2,184.3c-0.9-0.1-1.7,0.5-1.8,1.3c-1.5,10.9-11.1,19.2-22.4,19.2
			c-12.4,0-22.6-9.9-22.6-22.1c0-12.2,10.1-22.1,22.6-22.1c11.3,0,20.9,8.3,22.4,19.2c0.1,0.9,0.9,1.5,1.8,1.3
			c0.9-0.1,1.5-0.9,1.4-1.8c-1.7-12.5-12.7-21.9-25.5-21.9c-14.2,0-25.8,11.3-25.8,25.3c0,13.9,11.6,25.3,25.8,25.3
			c12.9,0,23.8-9.4,25.5-21.9C165.6,185.2,165,184.4,164.2,184.3z"/>
	</g>
</g>
<path class="st5" d="M120.3,207h47.4c5.4,0,9.8-4.3,9.8-9.6v-19.7c0,0,0-0.1,0-0.1c0-0.1,0-0.1,0-0.1c0,0,0-0.1,0-0.1
	c0,0,0-0.1,0-0.1c0,0,0-0.1,0-0.1c0,0,0-0.1,0-0.1c0,0,0-0.1,0-0.1c0,0,0-0.1,0-0.1c0,0,0-0.1-0.1-0.1c0,0,0-0.1-0.1-0.1
	c0,0,0-0.1-0.1-0.1c0,0,0-0.1-0.1-0.1c0,0-0.1-0.1-0.1-0.1s0-0.1-0.1-0.1c0,0-0.1-0.1-0.1-0.1c0,0-0.1-0.1-0.1-0.1
	c0,0-0.1-0.1-0.1-0.1c0,0-0.1-0.1-0.1-0.1c0,0-0.1-0.1-0.1-0.1c0,0-0.1-0.1-0.1-0.1c0,0-0.1,0-0.1-0.1c0,0-0.1,0-0.1-0.1
	c0,0-0.1,0-0.1-0.1c0,0-0.1,0-0.1-0.1c0,0-0.1,0-0.1-0.1c0,0-0.1,0-0.1,0c0,0-0.1,0-0.1,0c0,0-0.1,0-0.1,0c-0.1,0-0.1,0-0.1,0
	c0,0,0,0-0.1,0l-60.1-8.2v-8.3c0-0.1,0-0.2,0-0.2c0,0,0,0,0-0.1c0-0.1,0-0.1,0-0.2c0-0.1,0-0.1,0-0.1c0,0,0-0.1,0-0.1
	c0-0.1,0-0.1-0.1-0.2c0,0,0-0.1,0-0.1c0-0.1,0-0.1-0.1-0.1c0,0,0-0.1,0-0.1c0,0,0-0.1-0.1-0.1c0,0,0-0.1-0.1-0.1c0,0,0-0.1-0.1-0.1
	c0,0-0.1-0.1-0.1-0.1c0,0,0,0-0.1-0.1c0,0-0.1-0.1-0.1-0.1c0,0,0,0-0.1-0.1c0,0-0.1-0.1-0.1-0.1c0,0-0.1,0-0.1-0.1
	c0,0-0.1-0.1-0.1-0.1c-0.1,0-0.1-0.1-0.1-0.1c0,0,0,0-0.1,0c-0.1,0-0.2-0.1-0.2-0.1l-13-5.4c-1.2-0.5-2.6,0.1-3.1,1.3
	s0.1,2.6,1.3,3.1l11.6,4.8V171v1.7v13v11.6V212c0,4.9,3.7,8.9,8.5,9.6c-0.9,1.4-1.4,3.1-1.4,4.9c0,5.3,4.3,9.5,9.6,9.5
	c5.3,0,9.6-4.3,9.6-9.5c0-1.7-0.5-3.4-1.3-4.8h21.5c-0.8,1.4-1.3,3.1-1.3,4.8c0,5.3,4.3,9.5,9.6,9.5c5.3,0,9.6-4.3,9.6-9.5
	c0-5.2-4.3-9.5-9.6-9.5h-45.1c-2.8,0-5-2.2-5-4.9v-6.4C116.8,206.5,118.5,207,120.3,207z M132.2,226.5c0,2.7-2.2,4.8-4.9,4.8
	s-4.9-2.2-4.9-4.8c0-2.6,2.2-4.8,4.9-4.8S132.2,223.8,132.2,226.5z M170.3,226.5c0,2.7-2.2,4.8-4.9,4.8c-2.7,0-4.9-2.2-4.9-4.8
	c0-2.6,2.2-4.8,4.9-4.8C168.1,221.7,170.3,223.8,170.3,226.5z M167.7,202.2h-47.4c-2.8,0-5-2.2-5-4.9v-11.6v-13v-0.9l57.4,7.8v17.7
	C172.7,200,170.5,202.2,167.7,202.2z"/>
</svg>
