<?xml version="1.0" encoding="utf-8"?>
<!-- Generator: Adobe Illustrator 19.1.0, SVG Export Plug-In . SVG Version: 6.00 Build 0)  -->
<svg version="1.1" id="Слой_1" xmlns="http://www.w3.org/2000/svg" xmlns:xlink="http://www.w3.org/1999/xlink" x="0px" y="0px"
	 width="1196px" height="400px" viewBox="-799 81 1196 400" style="enable-background:new -799 81 1196 400;" xml:space="preserve">
<style type="text/css">
	.st0{fill:#1F65AB;}
	.st1{fill:#00509F;}
</style>
<g>
	<g>
		<path class="st0" d="M-64-370l-125.5,635.2L515-80L-64-370z M-186.5,284.2l1,3L363,890l161-524.8L-186.5,284.2z M-199.5,285.2
			L-660,942l622,50l-152.6-665.2L-199.5,285.2z M-218.5,283.2L-857-13l-101,854L-218.5,283.2z M-299-323l-495,150l584.5,434.2
			L-299-323z"/>
	</g>
</g>
<path class="st1" d="M-198.5,197.2c46.4,0,84,37.6,84,84s-37.6,84-84,84s-84-37.6-84-84S-244.9,197.2-198.5,197.2z"/>
<g>
	<g>
		<path class="st0" d="M-157.6,319.4l-13.2-31.3c-0.3-0.8-1.3-1.2-2.1-0.8c-0.8,0.3-1.2,1.2-0.9,2l12,28.3l-10.9-3.1
			c-0.7-0.2-1.5,0.1-1.8,0.7l-5.5,9.8l-12.8-30.4c14.8-2.8,26-15.6,26-30.9c0-17.4-14.4-31.5-32.1-31.5s-32.1,14.1-32.1,31.5
			c0,7,2.4,13.5,6.4,18.8l-15.6,36.9c-0.2,0.6-0.1,1.2,0.3,1.6c0.4,0.4,1,0.6,1.6,0.5l12.9-3.7l6.5,11.5c0.3,0.5,0.8,0.8,1.4,0.8
			h0.1c0.6,0,1.2-0.4,1.4-1l12.4-29.3c0.3-0.8,0-1.7-0.9-2c-0.8-0.3-1.7,0-2.1,0.8l-11.3,26.4l-5.5-9.8c-0.4-0.6-1.1-1-1.8-0.7
			l-10.9,3.1l13.7-32.4c5.9,6.2,14.2,10,23.5,10c1,0,1.9,0,2.8-0.1l14.4,34.1c0.2,0.6,0.8,0.9,1.4,1h0.1c0.6,0,1.1-0.3,1.4-0.8
			l6.5-11.5l12.9,3.7c0.6,0.2,1.2,0,1.6-0.5C-157.5,320.6-157.4,320-157.6,319.4z M-199,292.1c-16,0-28.9-12.7-28.9-28.4
			c0-15.6,13-28.4,28.9-28.4c16,0,28.9,12.7,28.9,28.4C-170.1,279.3-183,292.1-199,292.1z M-180.6,257.8c-0.2-0.6-0.7-1-1.3-1.1
			l-10.7-1.8l-5-9.5c-0.3-0.5-0.8-0.8-1.4-0.8c-0.6,0-1.1,0.3-1.4,0.8l-5,9.5l-10.7,1.8c-0.6,0.1-1.1,0.5-1.3,1.1
			c-0.2,0.6,0,1.2,0.4,1.6l7.6,7.6l-1.6,10.6c-0.1,0.6,0.2,1.2,0.6,1.5c0.5,0.3,1.1,0.4,1.6,0.1l9.7-4.8l9.7,4.8
			c0.2,0.1,0.5,0.2,0.7,0.2c0.3,0,0.7-0.1,0.9-0.3c0.5-0.3,0.7-0.9,0.6-1.5l-1.6-10.6l7.6-7.6C-180.5,259-180.4,258.4-180.6,257.8z
			 M-191.4,265.4c-0.4,0.4-0.5,0.8-0.4,1.3l1.3,8.4l-7.7-3.8c-0.2-0.1-0.5-0.2-0.7-0.2s-0.5,0.1-0.7,0.2l-7.7,3.8l1.3-8.4
			c0.1-0.5-0.1-1-0.4-1.3l-6-6l8.5-1.4c0.5-0.1,0.9-0.4,1.2-0.8l4-7.5l4,7.5c0.2,0.4,0.7,0.7,1.2,0.8l8.5,1.4L-191.4,265.4z
			 M-174.8,265.3c-0.9-0.1-1.7,0.5-1.8,1.3c-1.5,10.9-11.1,19.2-22.4,19.2c-12.4,0-22.6-9.9-22.6-22.1s10.1-22.1,22.6-22.1
			c11.3,0,20.9,8.3,22.4,19.2c0.1,0.9,0.9,1.5,1.8,1.3c0.9-0.1,1.5-0.9,1.4-1.8c-1.7-12.5-12.7-21.9-25.5-21.9
			c-14.2,0-25.8,11.3-25.8,25.3c0,13.9,11.6,25.3,25.8,25.3c12.9,0,23.8-9.4,25.5-21.9C-173.4,266.2-174,265.4-174.8,265.3z"/>
	</g>
</g>
</svg>
