<?xml version="1.0" encoding="utf-8"?>
<!-- Generator: Adobe Illustrator 21.0.2, SVG Export Plug-In . SVG Version: 6.00 Build 0)  -->
<svg version="1.1" id="Слой_1" xmlns="http://www.w3.org/2000/svg"  x="0px" y="0px"
	 width="37.5px" height="35.5px" viewBox="0 0 37.5 35.5" style="enable-background:new 0 0 37.5 35.5;" xml:space="preserve">
<style type="text/css">
	.st0{fill:#00509F;}
</style>
<path class="st0" d="M10.2,26.4c-0.2,0-0.4,0-0.6-0.1l-2.2-0.8c-0.8-0.3-1.2-1.1-1.1-1.9l0.3-1.8c0-0.1,0-0.2-0.1-0.2
	c-0.5-0.4-0.9-0.8-1.3-1.2c-0.1-0.1-0.2-0.1-0.2-0.1l-1.7,0.5c-0.8,0.2-1.6-0.2-1.9-0.9l-1-2.2C0.1,17,0.3,16.1,1,15.6l1.5-1
	c0.1,0,0.1-0.1,0.1-0.2c-0.1-0.6-0.1-1.1-0.1-1.7c0-0.1,0-0.2-0.1-0.2l-1.5-0.9c-0.7-0.4-1-1.3-0.7-2l0.8-2.2c0.3-0.8,1.1-1.2,1.9-1
	l1.8,0.3c0.1,0,0.2,0,0.2-0.1C5.2,6.1,5.6,5.7,6,5.3C6,5.2,6.1,5.1,6.1,5L5.6,3.3C5.4,2.5,5.8,1.7,6.5,1.4l2.2-1
	C9.4,0,10.3,0.3,10.7,1l1,1.5c0,0.1,0.1,0.1,0.2,0.1c0.6-0.1,1.2-0.1,1.8-0.1c0,0,0.2,0,0.2-0.1l0.9-1.5c0.4-0.7,1.3-1,2-0.7
	l2.2,0.8c0.8,0.3,1.2,1.1,1.1,1.9l-0.3,1.8c0,0.1,0,0.2,0.1,0.2c0.4,0.3,0.8,0.7,1.2,1.2c0.1,0.1,0.2,0.1,0.3,0.1l1.7-0.5
	c0.8-0.2,1.6,0.2,1.9,0.9l1,2.2c0.3,0.7,0.1,1.6-0.6,2.1l-1.5,1c-0.3,0.2-0.8,0.1-1-0.2c-0.2-0.3-0.1-0.8,0.2-1l1.5-1
	c0.1,0,0.1-0.1,0.1-0.2l-1-2.2c0-0.1-0.1-0.1-0.2-0.1l-1.7,0.5c-0.6,0.2-1.3,0-1.8-0.5c-0.4-0.4-0.7-0.7-1.1-1
	c-0.5-0.4-0.8-1.1-0.6-1.7l0.3-1.8c0-0.1,0-0.2-0.1-0.2l-2.2-0.8c-0.1,0-0.2,0-0.2,0.1l-0.9,1.5C15,3.7,14.3,4,13.7,4
	c-0.5,0-1,0-1.5,0c-0.7,0.1-1.3-0.2-1.7-0.7l-1-1.5c0-0.1-0.1-0.1-0.2-0.1l-2.2,1C7.1,2.8,7,2.8,7,2.9l0.5,1.7
	c0.2,0.6,0,1.3-0.5,1.7C6.6,6.7,6.3,7.1,6,7.5C5.6,8,4.9,8.2,4.3,8.1L2.5,7.8c-0.1,0-0.2,0-0.2,0.1l-0.8,2.2c0,0.1,0,0.2,0.1,0.2
	l1.5,0.9C3.7,11.5,4,12.1,4,12.8c0,0.5,0,1,0,1.5c0.1,0.6-0.2,1.3-0.7,1.6l-1.5,1c-0.1,0-0.1,0.1-0.1,0.2l1,2.2
	c0,0.1,0.1,0.1,0.2,0.1l1.7-0.5c0.6-0.2,1.3,0,1.7,0.5c0.3,0.4,0.7,0.7,1.1,1c0.5,0.4,0.8,1.1,0.6,1.7l-0.3,1.8c0,0.1,0,0.2,0.1,0.2
	l2.2,0.8c0.1,0,0.2,0,0.2-0.1l0.9-1.5c0.3-0.6,0.9-0.9,1.6-0.9c0.5,0,0.9,0,1.4-0.1c0.4,0,0.8,0.3,0.8,0.7c0,0.4-0.3,0.8-0.7,0.8
	c-0.5,0.1-1.1,0.1-1.6,0.1c-0.1,0-0.2,0-0.2,0.1l-0.9,1.5C11.3,26.1,10.8,26.4,10.2,26.4z M13.3,18.3c-0.6,0-1.2-0.1-1.8-0.3l0,0
	c-2.6-0.9-4-3.9-3.1-6.5c0.5-1.3,1.4-2.3,2.6-2.9c1.2-0.6,2.6-0.7,3.9-0.2c3.1,1.1,3.9,4.1,3,6.5C17.3,16.8,15.6,18.3,13.3,18.3z
	 M13.2,9.6c-0.5,0-1,0.1-1.5,0.3c-0.9,0.4-1.5,1.1-1.8,2c-0.7,1.9,0.3,3.9,2.2,4.6l0,0c2.3,0.8,3.9-0.5,4.5-2.2
	c0.6-1.6,0.2-3.8-2.1-4.6C14,9.6,13.6,9.6,13.2,9.6z"/>
<path class="st0" d="M25.3,35.5c-0.2,0-0.3,0-0.5-0.1l-1.7-0.6c-0.6-0.2-1-0.9-0.9-1.6l0.3-1.3c-0.3-0.3-0.7-0.6-1-0.9l-1.3,0.3
	c-0.7,0.2-1.4-0.1-1.7-0.8L17.8,29c-0.3-0.6-0.1-1.4,0.5-1.8l1.1-0.7c-0.1-0.4-0.1-0.9-0.1-1.3l-1.1-0.6c-0.6-0.4-0.9-1.1-0.6-1.7
	l0.6-1.7c0.3-0.7,1-1,1.6-0.9l1.3,0.3c0.3-0.4,0.6-0.7,0.9-1l-0.3-1.3c-0.2-0.7,0.1-1.4,0.8-1.7l1.6-0.7c0.6-0.3,1.4-0.1,1.8,0.5
	l0.7,1.1c0.4-0.1,0.9-0.1,1.3-0.1l0.6-1.1c0.4-0.6,1.1-0.9,1.7-0.6l1.7,0.6c0.6,0.2,1,0.9,0.9,1.6l-0.3,1.3c0.3,0.2,0.6,0.5,0.9,0.9
	l1.2-0.4c0.7-0.2,1.4,0.1,1.7,0.8l0.7,1.6c0.3,0.6,0.1,1.4-0.5,1.8l-1.1,0.8c0.1,0.4,0.1,0.9,0,1.3l1.1,0.6c0.6,0.3,0.9,1.1,0.6,1.7
	l-0.6,1.7c-0.2,0.6-0.9,1-1.6,0.9l-1.3-0.3c-0.3,0.3-0.5,0.6-0.9,0.9l0.3,1.3c0.2,0.7-0.1,1.4-0.8,1.7l-1.6,0.7
	c-0.6,0.3-1.4,0.1-1.8-0.5l-0.8-1.1c-0.4,0.1-0.8,0.1-1.2,0.1l-0.7,1.1C26.3,35.2,25.8,35.5,25.3,35.5z M21.5,29.5
	c0.4,0,0.8,0.2,1.1,0.5c0.2,0.3,0.5,0.5,0.8,0.7c0.4,0.3,0.6,0.9,0.5,1.4l-0.3,1.3l0.8,0.2l0.8,0.3l0.6-1.1c0.3-0.5,0.8-0.8,1.4-0.7
	c0.3,0,0.7,0,1,0c0.5-0.1,1.1,0.2,1.4,0.6l0.8,1.1l0.7-0.4l0.8-0.4l-0.4-1.2c-0.1-0.5,0-1.1,0.4-1.5c0.3-0.2,0.5-0.5,0.7-0.8
	c0.4-0.4,0.9-0.6,1.4-0.5l1.3,0.3l0.2-0.8l0.3-0.8l-1.1-0.6c-0.5-0.3-0.8-0.8-0.7-1.4c0-0.3,0-0.7,0-1.1c-0.1-0.5,0.2-1.1,0.6-1.4
	l1.1-0.8l-0.4-0.7l-0.3-0.7L34,21.5c-0.5,0.1-1.1,0-1.5-0.4c-0.3-0.3-0.5-0.5-0.8-0.7c-0.4-0.4-0.6-0.9-0.5-1.4l0.2-1.3l-0.8-0.2
	L29.8,17l-0.6,1.1c-0.3,0.5-0.8,0.8-1.4,0.7c-0.4,0-0.7,0-1.1,0c-0.6,0.1-1.1-0.2-1.4-0.6l-0.7-1.1l-0.7,0.4l-0.8,0.4l0.4,1.2
	c0.1,0.5,0,1.1-0.4,1.5c-0.3,0.2-0.5,0.5-0.7,0.8c-0.3,0.4-0.9,0.6-1.4,0.5l-1.3-0.3l-0.2,0.8L19,23.3l1.1,0.6
	c0.5,0.3,0.8,0.8,0.7,1.4c0,0.4,0,0.7,0,1.1c0.1,0.5-0.2,1.1-0.6,1.4l-1.1,0.7l0.4,0.7l0.4,0.8l1.2-0.4
	C21.3,29.5,21.4,29.5,21.5,29.5z M36,27.8L36,27.8L36,27.8z M27.5,29.5c-0.4,0-0.9-0.1-1.3-0.2c-2.1-0.7-3.1-3-2.4-5.1
	c0.4-1,1.1-1.8,2-2.3c1-0.5,2-0.5,3-0.2c2.1,0.7,3.1,3,2.4,5.1c0,0,0,0,0,0c-0.4,1-1.1,1.8-2,2.3C28.7,29.3,28.1,29.5,27.5,29.5z
	 M27.5,23c-0.4,0-0.7,0.1-1.1,0.2c-0.6,0.3-1,0.8-1.3,1.4c-0.5,1.3,0.2,2.7,1.5,3.2c0.6,0.2,1.3,0.2,1.9-0.1c0.6-0.3,1-0.8,1.3-1.4
	l0,0c0.5-1.3-0.2-2.7-1.5-3.2C28.1,23.1,27.8,23,27.5,23z M30.6,26.6L30.6,26.6L30.6,26.6z"/>
</svg>
