<?xml version="1.0" encoding="utf-8"?>
<!-- Generator: Adobe Illustrator 21.0.2, SVG Export Plug-In . SVG Version: 6.00 Build 0)  -->
<svg version="1.1" id="Слой_1" xmlns="http://www.w3.org/2000/svg" xmlns:xlink="http://www.w3.org/1999/xlink" x="0px" y="0px"
	 width="32px" height="32px" viewBox="0 0 32 32" style="enable-background:new 0 0 32 32;" xml:space="preserve">
<style type="text/css">
	.st0{fill:#FFFFFF;}
	.st1{clip-path:url(#SVGID_12_);fill:#FFFFFF;}
	.st2{clip-path:url(#SVGID_16_);fill:#FFFFFF;}
	.st3{clip-path:url(#SVGID_18_);fill:#FFFFFF;}
	.st4{clip-path:url(#SVGID_20_);fill:#FFFFFF;}
</style>
<g>
	<g>
		<polygon id="SVGID_1_" class="st0" points="24,0 24,2 28.6,2 20.3,10.3 21.7,11.7 30,3.4 30,8 32,8 32,0 		"/>
	</g>
	<g>
		<g>
			<polygon id="SVGID_2_" class="st0" points="24,0 24,2 28.6,2 20.3,10.3 21.7,11.7 30,3.4 30,8 32,8 32,0 			"/>
		</g>
		<g>
			<g>
				<polygon id="SVGID_4_" class="st0" points="24,0 24,2 28.6,2 20.3,10.3 21.7,11.7 30,3.4 30,8 32,8 32,0 				"/>
			</g>
			<g>
				<defs>
					<polygon id="SVGID_8_" points="24,0 24,2 28.6,2 20.3,10.3 21.7,11.7 30,3.4 30,8 32,8 32,0 					"/>
				</defs>
				<use xlink:href="#SVGID_8_"  style="overflow:visible;fill:#FFFFFF;"/>
				<clipPath id="SVGID_12_">
					<use xlink:href="#SVGID_8_"  style="overflow:visible;"/>
				</clipPath>
				<rect x="15.3" y="-5" class="st1" width="21.7" height="21.7"/>
			</g>
		</g>
	</g>
</g>
<g>
	<g>
		<polygon id="SVGID_3_" class="st0" points="8,0 8,2 3.4,2 11.7,10.3 10.3,11.7 2,3.4 2,8 0,8 0,0 		"/>
	</g>
	<g>
		<g>
			<polygon id="SVGID_6_" class="st0" points="8,0 8,2 3.4,2 11.7,10.3 10.3,11.7 2,3.4 2,8 0,8 0,0 			"/>
		</g>
		<g>
			<g>
				<polygon id="SVGID_10_" class="st0" points="8,0 8,2 3.4,2 11.7,10.3 10.3,11.7 2,3.4 2,8 0,8 0,0 				"/>
			</g>
			<g>
				<defs>
					<polygon id="SVGID_14_" points="8,0 8,2 3.4,2 11.7,10.3 10.3,11.7 2,3.4 2,8 0,8 0,0 					"/>
				</defs>
				<use xlink:href="#SVGID_14_"  style="overflow:visible;fill:#FFFFFF;"/>
				<clipPath id="SVGID_16_">
					<use xlink:href="#SVGID_14_"  style="overflow:visible;"/>
				</clipPath>
				<rect x="-5" y="-5" class="st2" width="21.7" height="21.7"/>
			</g>
		</g>
	</g>
</g>
<g>
	<g>
		<polygon id="SVGID_5_" class="st0" points="24,32 24,30 28.6,30 20.3,21.7 21.7,20.3 30,28.6 30,24 32,24 32,32 		"/>
	</g>
	<g>
		<g>
			<polygon id="SVGID_9_" class="st0" points="24,32 24,30 28.6,30 20.3,21.7 21.7,20.3 30,28.6 30,24 32,24 32,32 			"/>
		</g>
		<g>
			<g>
				<polygon id="SVGID_13_" class="st0" points="24,32 24,30 28.6,30 20.3,21.7 21.7,20.3 30,28.6 30,24 32,24 32,32 				"/>
			</g>
			<g>
				<defs>
					<polygon id="SVGID_17_" points="24,32 24,30 28.6,30 20.3,21.7 21.7,20.3 30,28.6 30,24 32,24 32,32 					"/>
				</defs>
				<use xlink:href="#SVGID_17_"  style="overflow:visible;fill:#FFFFFF;"/>
				<clipPath id="SVGID_18_">
					<use xlink:href="#SVGID_17_"  style="overflow:visible;"/>
				</clipPath>
				<rect x="15.3" y="15.3" class="st3" width="21.7" height="21.7"/>
			</g>
		</g>
	</g>
</g>
<g>
	<g>
		<polygon id="SVGID_7_" class="st0" points="8,32 8,30 3.4,30 11.7,21.7 10.3,20.3 2,28.6 2,24 0,24 0,32 		"/>
	</g>
	<g>
		<g>
			<polygon id="SVGID_11_" class="st0" points="8,32 8,30 3.4,30 11.7,21.7 10.3,20.3 2,28.6 2,24 0,24 0,32 			"/>
		</g>
		<g>
			<g>
				<polygon id="SVGID_15_" class="st0" points="8,32 8,30 3.4,30 11.7,21.7 10.3,20.3 2,28.6 2,24 0,24 0,32 				"/>
			</g>
			<g>
				<defs>
					<polygon id="SVGID_19_" points="8,32 8,30 3.4,30 11.7,21.7 10.3,20.3 2,28.6 2,24 0,24 0,32 					"/>
				</defs>
				<use xlink:href="#SVGID_19_"  style="overflow:visible;fill:#FFFFFF;"/>
				<clipPath id="SVGID_20_">
					<use xlink:href="#SVGID_19_"  style="overflow:visible;"/>
				</clipPath>
				<rect x="-5" y="15.3" class="st4" width="21.7" height="21.7"/>
			</g>
		</g>
	</g>
</g>
<circle class="st0" cx="16" cy="16" r="2"/>
</svg>
