<?xml version="1.0" encoding="utf-8"?>
<!-- Generator: Adobe Illustrator 21.0.2, SVG Export Plug-In . SVG Version: 6.00 Build 0)  -->
<svg version="1.1" id="Layer_1" xmlns="http://www.w3.org/2000/svg"  x="0px" y="0px"
	 width="164.3px" height="150px" viewBox="0 0 164.3 150" style="enable-background:new 0 0 164.3 150;" xml:space="preserve">
<style type="text/css">
	.st0{fill:#FFFFFF;}
	.st1{fill:#00509F;}
</style>
<g id="Layer_1_copy">
	<g>
		<g>
			<path class="st0" d="M3.5,57.7"/>
		</g>
	</g>
	<g>
		<path class="st0" d="M64.4,105.9l17.9,23.5l47.9-63l-17.7-25c-20.2,0-40.2,0-60.4,0l-17.7,25l11.2,14.7"/>
		<path class="st0" d="M82.2,139.4c-3.1,0-6.1-1.5-8-3.9L56.3,112c-3.3-4.4-2.5-10.7,1.9-14s10.7-2.5,14,1.9l9.9,13l35.5-46.7
			l-10.4-14.8h-50L46.8,66.2l6.8,8.9c3.3,4.4,2.5,10.7-1.9,14s-10.7,2.5-14-1.9L26.4,72.5c-2.6-3.5-2.7-8.3-0.2-11.8l17.7-25
			c1.9-2.7,4.9-4.2,8.2-4.2l0,0h60.4c3.2,0,6.3,1.6,8.2,4.2l17.7,25c2.5,3.6,2.4,8.3-0.2,11.8l-47.9,63
			C88.3,138,85.4,139.4,82.2,139.4z"/>
	</g>
	<g>
		<path class="st1" d="M24.9,68.6H12c-1.1,0-2-0.9-2-2s0.9-2,2-2h12.9c1.1,0,2,0.9,2,2S26,68.6,24.9,68.6z"/>
		<path class="st0" d="M24.9,64.6c1.1,0,2,0.9,2,2s-0.9,2-2,2H12c-1.1,0-2-0.9-2-2s0.9-2,2-2H24.9 M24.9,54.6H12
			c-6.6,0-12,5.4-12,12s5.4,12,12,12h12.9c6.6,0,12-5.4,12-12S31.5,54.6,24.9,54.6L24.9,54.6z"/>
	</g>
	<g>
		<path class="st1" d="M152,68.6h-12.9c-1.1,0-2-0.9-2-2s0.9-2,2-2H152c1.1,0,2,0.9,2,2S153.1,68.6,152,68.6z"/>
		<path class="st0" d="M152,64.6c1.1,0,2,0.9,2,2s-0.9,2-2,2h-12.9c-1.1,0-2-0.9-2-2s0.9-2,2-2H152 M152,54.6h-12.9
			c-6.6,0-12,5.4-12,12s5.4,12,12,12H152c6.6,0,12-5.4,12-12S158.6,54.6,152,54.6L152,54.6z"/>
	</g>
	<g>
		<path class="st1" d="M82,32.5c-1.1,0-2-0.9-2-2V17.6c0-1.1,0.9-2,2-2s2,0.9,2,2v12.9C84,31.6,83.1,32.5,82,32.5z"/>
		<path class="st0" d="M82,15.6c1.1,0,2,0.9,2,2v12.9c0,1.1-0.9,2-2,2s-2-0.9-2-2V17.6C80,16.5,80.9,15.6,82,15.6 M82,5.6
			c-6.6,0-12,5.4-12,12v12.9c0,6.6,5.4,12,12,12s12-5.4,12-12V17.6C94,11,88.6,5.6,82,5.6L82,5.6z"/>
	</g>
	<g>
		<path class="st1" d="M43,36.4c-0.4,0-0.9-0.1-1.3-0.4l-11.1-9c-0.9-0.7-1-2-0.3-2.8c0.7-0.9,2-1,2.8-0.3l11.1,9
			c0.9,0.7,1,2,0.3,2.8C44.2,36.1,43.6,36.4,43,36.4z"/>
		<path class="st0" d="M32,23.4c0.4,0,0.9,0.1,1.3,0.4l11.1,9c0.9,0.7,1,2,0.3,2.8c-0.4,0.5-1,0.7-1.6,0.7c-0.4,0-0.9-0.1-1.3-0.4
			l-11.1-9c-0.9-0.7-1-2-0.3-2.8C30.8,23.6,31.4,23.4,32,23.4 M32,13.4L32,13.4c-3.6,0-7,1.6-9.3,4.4c-4.2,5.1-3.4,12.7,1.7,16.9
			l11.1,9c2.1,1.7,4.8,2.7,7.6,2.7c3.6,0,7-1.6,9.3-4.4c4.2-5.1,3.4-12.7-1.7-16.9l-11.1-9C37.4,14.3,34.7,13.4,32,13.4L32,13.4z"/>
	</g>
	<g>
		<path class="st1" d="M121,36.4c-0.6,0-1.2-0.3-1.6-0.7c-0.7-0.9-0.6-2.1,0.3-2.8l11.1-9c0.9-0.7,2.1-0.6,2.8,0.3s0.6,2.1-0.3,2.8
			l-11.1,9C121.9,36.2,121.5,36.4,121,36.4z"/>
		<path class="st0" d="M132.1,23.4c0.6,0,1.2,0.3,1.6,0.7c0.7,0.9,0.6,2.1-0.3,2.8l-11.1,9c-0.4,0.3-0.8,0.4-1.3,0.4
			c-0.6,0-1.2-0.3-1.6-0.7c-0.7-0.9-0.6-2.1,0.3-2.8l11.1-9C131.2,23.5,131.6,23.4,132.1,23.4 M132.1,13.4L132.1,13.4
			c-2.7,0-5.4,1-7.6,2.7l-11.1,9c-5.1,4.2-5.9,11.8-1.7,16.9c2.3,2.8,5.7,4.4,9.3,4.4c2.8,0,5.4-1,7.6-2.7l11.1-9
			c5.1-4.2,5.9-11.8,1.7-16.9C139.1,15,135.7,13.4,132.1,13.4L132.1,13.4z"/>
	</g>
	<g>
		<path class="st0" d="M30.7,80.6l-9.6,13.6l26,34.2l26-34.2l-9.6-13.6C52.5,80.6,41.7,80.6,30.7,80.6z"/>
		<path class="st0" d="M63.5,80.6l9.6,13.6l-26,34.2l-26-34.2l9.6-13.6c5.5,0,11,0,16.4,0S58,80.6,63.5,80.6 M63.5,70.6L63.5,70.6
			H47.1H30.7c-3.2,0-6.3,1.6-8.2,4.2l-9.6,13.6c-2.5,3.6-2.4,8.3,0.2,11.8l26,34.2c1.9,2.5,4.8,3.9,8,3.9c3.1,0,6.1-1.5,8-3.9
			l26-34.2c2.6-3.5,2.7-8.3,0.2-11.8l-9.6-13.6C69.8,72.2,66.8,70.6,63.5,70.6L63.5,70.6z"/>
	</g>
	<g>
		<path class="st1" d="M82,129.5c-0.6,0-1.2-0.3-1.6-0.8L63.1,106c-0.7-0.9-0.5-2.1,0.4-2.8c0.9-0.7,2.1-0.5,2.8,0.4L82,124.2
			l43.8-57.7l-15.6-22.1H53.8L38.2,66.6l9.9,13.1c0.7,0.9,0.5,2.1-0.4,2.8s-2.1,0.5-2.8-0.4L34.1,67.8c-0.5-0.7-0.5-1.7,0-2.4
			l17.1-24.2c0.4-0.5,1-0.8,1.6-0.8h58.4c0.6,0,1.3,0.3,1.6,0.8l17.1,24.2c0.5,0.7,0.5,1.7,0,2.4l-46.3,60.9
			C83.2,129.2,82.6,129.5,82,129.5z"/>
		<path class="st1" d="M82,68.6H35.7c-1.1,0-2-0.9-2-2s0.9-2,2-2H82c1.1,0,2,0.9,2,2S83.1,68.6,82,68.6z"/>
		<path class="st1" d="M128.3,68.6H82c-1.1,0-2-0.9-2-2s0.9-2,2-2h46.3c1.1,0,2,0.9,2,2S129.4,68.6,128.3,68.6z"/>
		<path class="st1" d="M82,127.1c-1.1,0-2-0.9-2-2V42.6c0-1.1,0.9-2,2-2s2,0.9,2,2v82.5C84,126.2,83.1,127.1,82,127.1z"/>
		<path class="st1" d="M82,68.5c-0.4,0-0.9-0.1-1.3-0.4L51.4,44.2c-0.9-0.7-1-2-0.3-2.8c0.7-0.9,2-1,2.8-0.3L83.3,65
			c0.9,0.7,1,2,0.3,2.8C83.2,68.3,82.6,68.5,82,68.5z"/>
		<path class="st1" d="M82,68.5c-0.6,0-1.2-0.3-1.6-0.7c-0.7-0.9-0.6-2.1,0.3-2.8L110,41.1c0.9-0.7,2.1-0.6,2.8,0.3s0.6,2.1-0.3,2.8
			L83.3,68.1C82.9,68.4,82.5,68.5,82,68.5z"/>
		<path class="st1" d="M47.1,129.5c-0.6,0-1.2-0.3-1.6-0.8L20.3,95.6c-0.5-0.7-0.5-1.7,0-2.4l9.3-13.1c0.4-0.5,1-0.8,1.6-0.8H63
			c0.6,0,1.3,0.3,1.6,0.8l9.3,13.1c0.5,0.7,0.5,1.7,0,2.4l-25.2,33.1C48.3,129.2,47.7,129.5,47.1,129.5z M24.4,94.4l22.7,29.9
			l22.7-29.9L62,83.3H32.2L24.4,94.4z"/>
		<path class="st1" d="M47.1,96.4H21.9c-1.1,0-2-0.9-2-2s0.9-2,2-2h25.2c1.1,0,2,0.9,2,2S48.2,96.4,47.1,96.4z"/>
		<path class="st1" d="M72.3,96.4H47.1c-1.1,0-2-0.9-2-2s0.9-2,2-2h25.2c1.1,0,2,0.9,2,2S73.4,96.4,72.3,96.4z"/>
		<path class="st1" d="M47.1,128.2c-1.1,0-2-0.9-2-2V81.4c0-1.1,0.9-2,2-2s2,0.9,2,2v44.9C49.1,127.3,48.2,128.2,47.1,128.2z"/>
		<path class="st1" d="M47.1,96.4c-0.4,0-0.9-0.1-1.3-0.4l-16-13c-0.9-0.7-1-2-0.3-2.8c0.7-0.9,2-1,2.8-0.3l16,13
			c0.9,0.7,1,2,0.3,2.8C48.2,96.1,47.7,96.4,47.1,96.4z"/>
		<path class="st1" d="M47.1,96.4c-0.6,0-1.2-0.3-1.6-0.7c-0.7-0.9-0.6-2.1,0.3-2.8l16-13c0.9-0.7,2.1-0.6,2.8,0.3
			c0.7,0.9,0.6,2.1-0.3,2.8l-16,13C48,96.2,47.5,96.4,47.1,96.4z"/>
	</g>
</g>
<g id="Layer_1_1_">
</g>
</svg>
