<?xml version="1.0" encoding="utf-8"?>
<!-- Generator: Adobe Illustrator 21.0.2, SVG Export Plug-In . SVG Version: 6.00 Build 0)  -->
<svg version="1.1" xmlns="http://www.w3.org/2000/svg"  x="0px" y="0px" width="164.3px"
	 height="150px" viewBox="0 0 164.3 150" style="enable-background:new 0 0 164.3 150;" xml:space="preserve">
<style type="text/css">
	.st0{fill-rule:evenodd;clip-rule:evenodd;fill:#FFFFFF;}
	.st1{fill:#FFFFFF;}
	.st2{fill-rule:evenodd;clip-rule:evenodd;fill:#00509F;}
	.st3{fill:#00509F;}
</style>
<g id="Layer_1_copy">
	<g>
		<g>
			<path class="st0" d="M97.1,132.3c-1.9-0.4,7.1-46,37.4-44.1c1.2-0.2,2-1.3,1.9-2.5c0-0.3-0.1-0.6-0.1-0.9l6.8-4.9
				c3.3-2.1,1.4-8.2-1.2-12.8c-1.4-2.4-3.1-4.5-4.7-5.9c-2.7-2.4-4.7-2.2-5.8-1.6l-7.7,3.4c-2.9-2.4-6.2-4.2-9.6-5.6l-0.9-8.3
				c-0.2-3.9-6.4-5.3-11.7-5.3c-5.8,0-11.6,1.7-11.7,5.4l-0.9,8.3c-3.5,1.3-6.7,3.2-9.6,5.6l-7.7-3.4c-3.5-1.8-7.8,2.9-10.5,7.5
				c-1.4,2.4-2.4,4.9-2.8,7c-0.7,3.5,0.4,5.1,1.6,5.8l6.8,4.9c-0.3,1.9-0.4,3.7-0.4,5.6c0,1.9,0.1,3.7,0.4,5.6l-6.8,4.9
				c-0.9,0.6-1.8,1.6-1.8,3.8c0,0.6,0.1,1.3,0.2,2.1c0.4,2.1,1.4,4.6,2.8,7c2.7,4.6,7,9.3,10.5,7.5l7.6-3.4c2.9,2.4,6.2,4.3,9.7,5.6
				l0.9,8.3c0.1,1.4,1.1,3.8,6.6,4.9c0.1,0,0.3,0,0.4,0c1,0,1.9-0.7,2.1-1.8C99.1,133.7,98.3,132.5,97.1,132.3L97.1,132.3z
				 M154,104.8c0.4-2.9,0.4-5.8,0.1-8.7c-0.1-0.9-0.8-1.7-1.7-1.9c-1.4-0.3-2.7-0.6-4.1-0.7c-21.5-2.7-41.1,12.6-43.8,34.1
				c-0.4,2.9-0.4,5.8-0.1,8.7c0.1,0.9,0.8,1.7,1.7,1.9c1.4,0.3,2.8,0.6,4.1,0.7c1.6,0.2,3.3,0.3,4.9,0.3c8.7,0,17.1-2.9,24-8.3
				C147.4,124.5,152.7,115.2,154,104.8L154,104.8z"/>
			<path class="st1" d="M101.4,43.7c5.3,0,11.6,1.4,11.7,5.3l0.9,8.3c3.5,1.3,6.7,3.2,9.6,5.6l7.7-3.4c0.4-0.2,1-0.4,1.6-0.4
				c1.1,0,2.5,0.5,4.2,2c1.6,1.4,3.3,3.5,4.7,5.9c2.7,4.6,4.6,10.7,1.2,12.8l-6.8,4.9c0,0.3,0.1,0.6,0.1,0.9
				c0.2,1.2-0.7,2.3-1.9,2.5c-0.6,0-1.2-0.1-1.8-0.1c-28.8,0-37.4,43.8-35.5,44.2c1.2,0.2,2,1.4,1.7,2.6c-0.2,1-1.1,1.8-2.1,1.8
				c-0.1,0-0.3,0-0.4,0c-5.6-1.1-6.6-3.5-6.6-4.9l-0.9-8.3c-3.5-1.3-6.8-3.2-9.7-5.6l-7.6,3.4c-0.5,0.3-1.1,0.4-1.6,0.4
				c-3.1,0-6.6-4-8.9-7.9c-1.4-2.4-2.4-4.9-2.8-7c-0.1-0.8-0.2-1.5-0.2-2.1c0-2.1,0.9-3.2,1.8-3.8l6.8-4.9c-0.3-1.8-0.4-3.7-0.4-5.6
				c0-1.9,0.1-3.8,0.4-5.6l-6.8-4.9c-1.1-0.7-2.2-2.3-1.6-5.8c0.4-2.1,1.4-4.6,2.8-7c2.3-3.9,5.7-7.9,8.9-7.9c0.6,0,1.1,0.1,1.6,0.4
				l7.7,3.4c2.9-2.4,6.2-4.2,9.6-5.6l0.9-8.3C89.8,45.4,95.6,43.7,101.4,43.7 M143.4,93.1c1.6,0,3.2,0.1,4.9,0.3
				c1.4,0.2,2.8,0.4,4.1,0.7c0.9,0.2,1.6,1,1.7,1.9c0.3,2.9,0.2,5.8-0.1,8.7c-1.3,10.4-6.6,19.7-14.8,26.1c-7,5.4-15.3,8.3-24,8.3
				c-1.6,0-3.3-0.1-4.9-0.3c-1.4-0.2-2.8-0.4-4.1-0.7c-0.9-0.2-1.6-1-1.7-1.9c-0.3-2.9-0.2-5.8,0.1-8.7
				C107,107.7,124,93.1,143.4,93.1 M101.4,33.7c-15.3,0-21.2,7.7-21.7,14.5l-0.3,2.5c-0.5,0.3-0.9,0.5-1.4,0.8l-2.3-1
				c-1.9-0.9-3.8-1.4-5.9-1.4c-8.8,0-14.7,8.1-17.5,12.9c-2,3.4-3.3,6.9-4,10.1c-1.3,6.7,0.8,12.7,5.7,16l2,1.5c0,0.3,0,0.6,0,0.8
				c0,0.3,0,0.5,0,0.8l-2,1.5c-3.8,2.6-6,6.9-6.1,11.9c0,1.3,0.1,2.6,0.4,4c0.6,3.2,2,6.7,4,10.1c2.8,4.8,8.8,12.9,17.5,12.9
				c2.1,0,4.1-0.5,5.9-1.4l2.2-1c0.5,0.3,1,0.6,1.4,0.8l0.3,2.5c0.3,3.1,2.2,11.4,14.7,13.8c0.8,0.1,1.6,0.2,2.3,0.2
				c1.1,0,2.2-0.1,3.2-0.4c1.2,0.8,2.5,1.4,3.9,1.7c1.7,0.4,3.5,0.7,5.2,0.9c2,0.3,4.1,0.4,6.2,0.4c11,0,21.4-3.6,30.2-10.4
				c10.4-8.1,17-19.7,18.6-32.8c0.5-3.6,0.5-7.3,0.1-10.9c-0.5-5.2-4.3-9.5-9.4-10.7c-0.7-0.2-1.4-0.3-2-0.4c3-4.8,3.4-12.2-2.2-22
				c-2-3.4-4.3-6.3-6.8-8.5c-3.4-2.9-7-4.4-10.7-4.4c-2,0-4.1,0.5-5.9,1.4l-2.3,1c-0.4-0.3-0.9-0.5-1.4-0.8l-0.3-2.5
				C122.6,41.1,116.6,33.7,101.4,33.7L101.4,33.7z"/>
		</g>
		<g>
			<path class="st0" d="M49,83.7c-1.4-0.3-2.1-0.6-2.3-0.8c0,0,27.8-33.4,27.9-32.9c0.1,0.9,0.9,1.5,1.8,1.4
				c0.9-0.1,1.5-0.9,1.4-1.8c0-0.2-0.1-0.4-0.1-0.7l5-3.6c2.4-1.5,1-6-0.9-9.4c-1-1.8-2.2-3.3-3.4-4.3c-2-1.7-3.4-1.6-4.3-1.1
				l-5.6,2.5c-2.1-1.7-4.5-3.1-7.1-4.1l-0.6-6.1c-0.1-2.9-4.7-3.9-8.6-3.9c-4.2,0-8.5,1.2-8.6,3.9l-0.6,6.1c-2.6,1-4.9,2.3-7.1,4.1
				l-5.6-2.5c-2.6-1.3-5.7,2.1-7.7,5.5c-1,1.8-1.7,3.6-2,5.1c-0.5,2.6,0.3,3.8,1.1,4.3l5,3.6c-0.2,1.4-0.3,2.7-0.3,4.1
				c0,1.4,0.1,2.7,0.3,4.1l-5,3.6c-0.6,0.4-1.3,1.2-1.3,2.8c0,0.4,0,0.9,0.2,1.5c0.3,1.5,1,3.4,2,5.1c2,3.4,5.1,6.8,7.7,5.5l5.6-2.5
				c2.2,1.8,4.5,3.1,7.1,4.1l0.6,6.1c0,1,0.8,2.8,4.9,3.6c0.1,0,0.2,0,0.3,0c0.8,0,1.4-0.5,1.6-1.3C50.5,84.8,49.9,83.9,49,83.7z"/>
			<path class="st1" d="M52.1,18.8c3.9,0,8.5,1,8.6,3.9l0.6,6.1c2.6,1,4.9,2.3,7.1,4.1l5.6-2.5c0.3-0.2,0.7-0.3,1.2-0.3
				c0.8,0,1.8,0.4,3.1,1.4c1.2,1,2.4,2.6,3.4,4.3c2,3.4,3.4,7.9,0.9,9.4l-5,3.6c0,0.2,0.1,0.4,0.1,0.7c0.1,0.9-0.5,1.7-1.4,1.8
				c-0.1,0-0.1,0-0.2,0c-0.8,0-1.5-0.6-1.6-1.4c0,0,0,0,0,0c-0.5,0-27.9,32.9-27.9,32.9c0.2,0.2,0.9,0.6,2.3,0.8
				c0.9,0.2,1.4,1,1.3,1.9c-0.1,0.8-0.8,1.3-1.6,1.3c-0.1,0-0.2,0-0.3,0c-4.1-0.8-4.8-2.5-4.9-3.6l-0.6-6.1c-2.6-1-5-2.4-7.1-4.1
				l-5.6,2.5c-0.4,0.2-0.8,0.3-1.2,0.3c-2.3,0-4.8-2.9-6.5-5.8c-1-1.8-1.7-3.6-2-5.1c-0.1-0.6-0.2-1.1-0.2-1.5
				c0-1.6,0.7-2.4,1.3-2.8l5-3.6c-0.2-1.3-0.3-2.7-0.3-4.1c0-1.4,0.1-2.8,0.3-4.1l-5-3.6c-0.8-0.5-1.6-1.7-1.1-4.3
				c0.3-1.5,1-3.4,2-5.1c1.7-2.9,4.2-5.8,6.5-5.8c0.4,0,0.8,0.1,1.2,0.3l5.6,2.5c2.1-1.7,4.5-3.1,7.1-4.1l0.6-6.1
				C43.6,20,47.9,18.8,52.1,18.8 M52.1,8.8c-12.4,0-17.6,6.3-18.5,12.2c-1.5-0.6-3.1-0.9-4.7-0.9c-5.8,0-11.1,3.8-15.2,10.8
				c-1.1,1.9-2.6,4.9-3.2,8.2c-1.1,5.7,0.6,10.8,4.5,13.9c-3.1,2.4-4.8,6.1-4.9,10.4c0,1.1,0.1,2.3,0.3,3.5c0.5,2.6,1.6,5.5,3.2,8.2
				c4,7,9.4,10.8,15.2,10.8c1.6,0,3.2-0.3,4.7-0.9c0.7,4.8,4.4,10,12.8,11.7c0.7,0.1,1.5,0.2,2.2,0.2c5.5,0,10.3-4,11.4-9.4
				c0.3-1.7,0.3-3.3-0.1-4.9c7-8.4,13.9-16.6,18-21.4c3.9-0.6,7.1-3.1,8.7-6.5l1.7-1.2c5.1-3.5,8.6-11.4,2-22.6
				c-1.1-1.9-3-4.7-5.5-6.9c-3.7-3.2-7.3-3.9-9.6-3.9c-1.6,0-3.2,0.3-4.6,0.9C69.8,15.1,64.5,8.8,52.1,8.8L52.1,8.8z"/>
		</g>
	</g>
	<g>
		<path class="st2" d="M103.9,113.1c0,1.2-1,2.2-2.2,2.2c-4.1,0-8.2-1-11.9-3c-8-4.4-13-12.7-13-21.9c0-13.7,11.2-24.9,24.9-24.9
			c10.7,0,20.1,6.8,23.5,16.8c0.4,1.1-0.2,2.4-1.4,2.8c-1.1,0.4-2.4-0.2-2.8-1.4c-2.8-8.3-10.6-13.9-19.4-13.9
			c-11.3,0-20.5,9.2-20.5,20.5c0,7.5,4.1,14.4,10.7,18c3,1.6,6.4,2.5,9.8,2.5C102.9,110.9,103.9,111.9,103.9,113.1L103.9,113.1z
			 M116.1,90.4c0-8-6.5-14.4-14.4-14.4c-8,0-14.4,6.5-14.4,14.4c0,8,6.5,14.4,14.4,14.4C109.7,104.9,116.1,98.4,116.1,90.4
			L116.1,90.4z M111.7,90.4c0-5.5-4.5-10.1-10.1-10.1c-5.5,0-10.1,4.5-10.1,10.1c0,5.5,4.5,10.1,10.1,10.1
			C107.2,100.5,111.7,96,111.7,90.4L111.7,90.4z M97.4,132.3c-1.9-0.4-2.8-0.9-3.1-1.1l-1-9.6c-0.1-0.9-0.7-1.6-1.5-1.9
			c-3.9-1.3-7.5-3.4-10.6-6.2c-0.6-0.6-1.6-0.7-2.3-0.4l-8.8,3.9c-0.8-0.3-3-2.1-5-5.6c-2-3.5-2.5-6.3-2.4-7.1l7.8-5.7
			c0.7-0.5,1-1.4,0.9-2.2c-0.4-2-0.6-4-0.6-6.1c0-2.1,0.2-4.1,0.6-6.2c0.2-0.8-0.2-1.7-0.9-2.2l-7.8-5.7c-0.1-0.9,0.4-3.6,2.4-7.1
			c2-3.5,4.2-5.3,5-5.6l8.8,4c0.8,0.4,1.7,0.2,2.3-0.4c3.1-2.7,6.7-4.8,10.6-6.1c0.8-0.3,1.4-1,1.5-1.9l1-9.6
			c0.7-0.6,3.3-1.5,7.4-1.5c4,0,6.7,0.9,7.4,1.5l1,9.6c0.1,0.9,0.7,1.6,1.5,1.9c3.9,1.3,7.5,3.4,10.6,6.1c0.6,0.6,1.6,0.7,2.3,0.4
			l8.8-4c0.8,0.3,3,2.1,5,5.6c2,3.5,2.5,6.3,2.4,7.1l-7.8,5.7c-0.7,0.5-1,1.4-0.9,2.2c0.1,0.7,0.2,1.3,0.3,2c0.2,1.2,1.3,2,2.5,1.9
			c1.2-0.2,2-1.3,1.9-2.5c0-0.3-0.1-0.6-0.1-0.9l6.8-4.9c3.3-2.1,1.4-8.2-1.2-12.8c-1.4-2.4-3.1-4.5-4.7-5.9
			c-2.7-2.4-4.7-2.2-5.8-1.6l-7.7,3.4c-2.9-2.4-6.2-4.2-9.6-5.6l-0.9-8.3c-0.2-3.9-6.4-5.3-11.7-5.3c-5.8,0-11.6,1.7-11.7,5.4
			l-0.9,8.3c-3.5,1.3-6.7,3.2-9.6,5.6l-7.7-3.4c-3.5-1.8-7.8,2.9-10.5,7.5c-1.4,2.4-2.4,4.9-2.8,7c-0.7,3.5,0.4,5.1,1.6,5.8l6.8,4.9
			c-0.3,1.9-0.4,3.7-0.4,5.6c0,1.9,0.1,3.7,0.4,5.6l-6.8,4.9c-0.9,0.6-1.8,1.6-1.8,3.8c0,0.6,0.1,1.3,0.2,2.1c0.4,2.1,1.4,4.6,2.8,7
			c2.7,4.6,7,9.3,10.5,7.5l7.6-3.4c2.9,2.4,6.2,4.3,9.7,5.6l0.9,8.3c0.1,1.4,1.1,3.8,6.6,4.9c0.1,0,0.3,0,0.4,0c1,0,1.9-0.7,2.1-1.8
			C99.4,133.7,98.6,132.5,97.4,132.3L97.4,132.3z M154.3,104.8c0.4-2.9,0.4-5.8,0.1-8.7c-0.1-0.9-0.8-1.7-1.7-1.9
			c-1.4-0.3-2.7-0.6-4.1-0.7c-21.5-2.7-41.1,12.6-43.8,34.1c-0.4,2.9-0.4,5.8-0.1,8.7c0.1,0.9,0.8,1.7,1.7,1.9
			c1.4,0.3,2.8,0.6,4.1,0.7c1.6,0.2,3.3,0.3,4.9,0.3c8.7,0,17.1-2.9,24-8.3C147.8,124.5,153,115.2,154.3,104.8L154.3,104.8z
			 M150.2,98.1c-0.7-0.1-1.4-0.2-2.1-0.3C129,95.4,111.6,109,109.2,128c-0.1,1.1-0.2,2.2-0.3,3.3l20.1-17.6c0.9-0.8,2.3-0.7,3.1,0.2
			c0.8,0.9,0.7,2.3-0.2,3.1l-20.1,17.6c9,0.9,17.8-1.6,25-7.2c7.3-5.7,12-13.9,13.2-23.2C150.2,102.2,150.3,100.2,150.2,98.1z"/>
		<g>
			<path class="st2" d="M53.4,64.5c0,0.6-0.5,1.1-1.1,1.1c-2.1,0-4.2-0.5-6-1.5c-4.1-2.2-6.6-6.4-6.6-11.1c0-6.9,5.6-12.6,12.6-12.6
				c5.4,0,10.2,3.4,11.9,8.5c0.2,0.6-0.1,1.2-0.7,1.4c-0.6,0.2-1.2-0.1-1.4-0.7c-1.4-4.2-5.4-7-9.8-7c-5.7,0-10.4,4.6-10.4,10.4
				c0,3.8,2.1,7.3,5.4,9.1c1.5,0.8,3.2,1.3,4.9,1.3C52.9,63.4,53.4,63.9,53.4,64.5z"/>
			<path class="st3" d="M52.3,66.6c-2.3,0-4.5-0.6-6.5-1.6c-4.4-2.4-7.1-7-7.1-11.9c0-7.5,6.1-13.6,13.6-13.6c5.8,0,11,3.7,12.8,9.2
				c0.4,1.1-0.2,2.3-1.3,2.7c-0.5,0.2-1.1,0.1-1.6-0.1s-0.9-0.7-1.1-1.2c-1.3-3.8-4.9-6.3-8.9-6.3c-5.2,0-9.4,4.2-9.4,9.4
				c0,3.4,1.9,6.6,4.9,8.2c1.4,0.7,2.9,1.1,4.5,1.1c1.2,0,2.1,0.9,2.1,2.1C54.4,65.7,53.5,66.6,52.3,66.6z M52.3,41.5
				c-6.4,0-11.6,5.2-11.6,11.6c0,4.2,2.3,8.1,6.1,10.2c1.7,0.9,3.6,1.4,5.5,1.4c0.1,0,0.1,0,0.1-0.1c0-0.1,0-0.1-0.1-0.1
				c-1.9,0-3.8-0.5-5.4-1.4c-3.7-2-5.9-5.8-5.9-10c0-6.3,5.1-11.4,11.4-11.4c4.9,0,9.2,3.1,10.8,7.7l0.1,0.1c0.1,0,0.1-0.1,0.1-0.1
				C61.7,44.6,57.3,41.5,52.3,41.5z"/>
		</g>
		<g>
			<path class="st2" d="M49.3,83.7c-1.4-0.3-2.1-0.6-2.3-0.8l-0.7-7c-0.1-0.6-0.5-1.2-1.1-1.4c-2.9-1-5.5-2.5-7.8-4.5
				c-0.5-0.4-1.1-0.5-1.7-0.3l-6.4,2.9c-0.6-0.2-2.2-1.6-3.7-4.1c-1.5-2.6-1.9-4.6-1.8-5.2l5.7-4.1c0.5-0.4,0.8-1,0.6-1.6
				c-0.3-1.5-0.4-3-0.4-4.5c0-1.5,0.2-3,0.5-4.5c0.1-0.6-0.1-1.3-0.6-1.6l-5.7-4.2c-0.1-0.6,0.3-2.7,1.8-5.2
				c1.5-2.6,3.1-3.9,3.7-4.1l6.5,2.9c0.6,0.3,1.2,0.2,1.7-0.3c2.3-2,4.9-3.5,7.8-4.5c0.6-0.2,1-0.7,1.1-1.4l0.7-7.1
				c0.5-0.4,2.4-1.1,5.4-1.1c3,0,4.9,0.7,5.4,1.1l0.7,7.1c0.1,0.6,0.5,1.2,1.1,1.4c2.9,1,5.5,2.5,7.8,4.5c0.5,0.4,1.1,0.5,1.7,0.3
				l6.5-2.9c0.6,0.2,2.2,1.6,3.7,4.1c1.5,2.6,1.9,4.6,1.8,5.2l-5.7,4.2c-0.5,0.4-0.8,1-0.6,1.6c0.1,0.5,0.2,1,0.2,1.5
				c0.1,0.9,0.9,1.5,1.8,1.4c0.9-0.1,1.5-0.9,1.4-1.8c0-0.2-0.1-0.4-0.1-0.7l5-3.6c2.4-1.5,1-6-0.9-9.4c-1-1.8-2.2-3.3-3.4-4.3
				c-2-1.7-3.4-1.6-4.3-1.1l-5.6,2.5c-2.1-1.7-4.5-3.1-7.1-4.1l-0.6-6.1c-0.1-2.9-4.7-3.9-8.6-3.9c-4.2,0-8.5,1.2-8.6,3.9l-0.6,6.1
				c-2.6,1-4.9,2.3-7.1,4.1l-5.6-2.5c-2.6-1.3-5.7,2.1-7.7,5.5c-1,1.8-1.7,3.6-2,5.1c-0.5,2.6,0.3,3.8,1.1,4.3l5,3.6
				c-0.2,1.4-0.3,2.7-0.3,4.1c0,1.4,0.1,2.7,0.3,4.1l-5,3.6c-0.6,0.4-1.3,1.2-1.3,2.8c0,0.4,0,0.9,0.2,1.5c0.3,1.5,1,3.4,2,5.1
				c2,3.4,5.1,6.8,7.7,5.5l5.6-2.5c2.2,1.8,4.5,3.1,7.1,4.1l0.6,6.1c0,1,0.8,2.8,4.9,3.6c0.1,0,0.2,0,0.3,0c0.8,0,1.4-0.5,1.6-1.3
				C50.8,84.8,50.2,83.9,49.3,83.7z"/>
			<path class="st3" d="M49,87.4c-0.1,0-0.3,0-0.4,0c-4.5-0.9-5.2-2.9-5.3-4.1l-0.6-5.7c-2.4-1-4.7-2.3-6.7-3.9l-5.3,2.4
				c-2.8,1.5-6.2-2-8.3-5.7c-1-1.8-1.8-3.7-2.1-5.3c-0.1-0.6-0.2-1.1-0.2-1.6c0-1.8,0.8-2.8,1.5-3.2l4.7-3.4
				c-0.2-1.3-0.3-2.6-0.3-3.8c0-1.3,0.1-2.6,0.3-3.9l-4.7-3.4c-0.9-0.6-1.9-1.9-1.3-4.8c0.3-1.6,1.1-3.5,2.1-5.3
				c2.2-3.7,5.5-7.2,8.4-5.7l5.3,2.4c2-1.6,4.3-2.9,6.7-3.9l0.6-5.8c0.1-3.2,5-4.4,9.1-4.4c4.3,0,9,1.2,9.1,4.4l0.6,5.8
				c2.4,0.9,4.6,2.2,6.7,3.9l5.3-2.4c0.9-0.5,2.6-0.7,4.8,1.2c1.2,1.1,2.5,2.7,3.5,4.5c2.2,3.7,3.5,8.4,0.7,10.1l-4.7,3.4
				c0,0.1,0,0.2,0.1,0.4c0.2,1.2-0.7,2.2-1.8,2.4c-0.6,0.1-1.1-0.1-1.6-0.4c-0.4-0.3-0.7-0.8-0.8-1.4c-0.1-0.5-0.1-1-0.2-1.4
				C74,47.8,74.4,47,75,46.5l5.5-4c0-0.7-0.4-2.4-1.7-4.7c-1.3-2.3-2.6-3.5-3.2-3.8l-6.3,2.8c-0.8,0.3-1.6,0.2-2.3-0.3
				c-2.2-2-4.8-3.4-7.6-4.4c-0.8-0.3-1.3-1-1.4-1.8l-0.7-6.8c-0.6-0.3-2.3-0.9-4.9-0.9c-2.6,0-4.3,0.5-4.9,0.9l-0.7,6.8
				c-0.1,0.8-0.6,1.5-1.4,1.8c-2.8,0.9-5.4,2.4-7.6,4.4c-0.6,0.5-1.5,0.7-2.3,0.3l-6.3-2.8c-0.6,0.3-1.9,1.6-3.2,3.8
				c-1.3,2.3-1.7,4-1.7,4.7l5.5,4c0.7,0.5,1,1.3,0.8,2.1c-0.3,1.4-0.4,2.9-0.4,4.4c0,1.5,0.1,2.9,0.4,4.4c0.2,0.8-0.2,1.6-0.8,2.1
				l-5.5,4c0,0.7,0.4,2.4,1.7,4.7c1.3,2.3,2.6,3.5,3.2,3.8l6.2-2.8c0.8-0.3,1.6-0.2,2.3,0.3c2.2,2,4.8,3.5,7.6,4.4
				c0.8,0.3,1.3,1,1.4,1.8l0.7,6.8c0.3,0.1,0.8,0.4,1.9,0.6c1.1,0.2,1.9,1.3,1.7,2.5C50.9,86.7,50,87.4,49,87.4z M36.2,72.6l0.2,0.2
				c2.1,1.7,4.5,3.1,7,4l0.3,0.1l0.7,6.4c0.1,1.5,1.6,2.6,4.5,3.1c0.6,0.1,1.2-0.3,1.3-0.9c0.1-0.6-0.3-1.2-0.9-1.3h0
				c-1.6-0.3-2.3-0.8-2.5-0.9l-0.2-0.1L45.8,76c0-0.4-0.3-0.8-0.7-0.9c-2.9-1-5.6-2.5-8-4.6c-0.3-0.3-0.8-0.4-1.2-0.2l-6.6,3
				l-0.2-0.1c-0.7-0.3-2.3-1.6-3.9-4.4c-1.6-2.7-1.9-4.8-1.8-5.6l0-0.2l5.9-4.3c0.3-0.3,0.5-0.7,0.4-1.1c-0.3-1.5-0.5-3-0.5-4.6
				c0-1.6,0.2-3.1,0.5-4.6c0.1-0.4-0.1-0.9-0.4-1.1L23.4,43l0-0.2c-0.1-0.8,0.3-2.9,1.8-5.6c1.6-2.7,3.2-4.1,3.9-4.4l0.2-0.1l6.7,3
				c0.4,0.2,0.9,0.1,1.2-0.2c2.3-2.1,5-3.6,7.9-4.6c0.4-0.1,0.7-0.5,0.7-0.9l0.8-7.3l0.2-0.1c0.6-0.5,2.6-1.2,5.7-1.2
				c3.1,0,5.1,0.7,5.7,1.2l0.2,0.1l0.8,7.3c0,0.4,0.3,0.8,0.7,0.9c2.9,1,5.6,2.5,7.9,4.6c0.3,0.3,0.8,0.4,1.2,0.2l6.7-3l0.2,0.1
				c0.7,0.3,2.3,1.6,3.9,4.4c1.6,2.7,1.9,4.8,1.8,5.6l0,0.2l-5.9,4.3c-0.4,0.3-0.5,0.7-0.4,1.1c0.1,0.5,0.2,1,0.3,1.5
				c0,0.3,0.2,0.6,0.4,0.7c0.2,0.2,0.5,0.3,0.8,0.2c0.6-0.1,1-0.6,1-1.2c0-0.2-0.1-0.4-0.1-0.6l0-0.3l5.2-3.8c2-1.3,0.9-5.3-1-8.8
				c-1-1.7-2.2-3.2-3.3-4.2c-1.4-1.2-2.7-1.6-3.7-1.1l-5.9,2.6l-0.2-0.2c-2.1-1.7-4.4-3.1-6.9-4l-0.3-0.1l-0.7-6.4
				c-0.1-2.4-4.1-3.5-8.1-3.5c-3.8,0-8,1.1-8.1,3.4l-0.7,6.4l-0.3,0.1c-2.5,1-4.8,2.3-6.9,4l-0.2,0.2l-5.9-2.6
				c-2.1-1.1-5.1,1.9-7.1,5.3c-1,1.7-1.7,3.5-2,5c-0.4,1.9,0,3.2,0.9,3.8l5.2,3.8l0,0.3c-0.2,1.3-0.3,2.7-0.3,4c0,1.3,0.1,2.7,0.3,4
				l0,0.3l-5.2,3.8c-0.7,0.5-1.1,1.2-1.1,2.4c0,0.4,0,0.9,0.1,1.4c0.3,1.5,1,3.3,2,5c2,3.4,4.9,6.4,7,5.3L36.2,72.6z"/>
		</g>
	</g>
</g>
<g id="Layer_1">
</g>
</svg>
