<?xml version="1.0" encoding="utf-8"?>
<!-- Generator: Adobe Illustrator 21.0.2, SVG Export Plug-In . SVG Version: 6.00 Build 0)  -->
<svg version="1.1" id="Layer_1" xmlns="http://www.w3.org/2000/svg"  x="0px" y="0px"
	 width="164.3px" height="150px" viewBox="0 0 164.3 150" style="enable-background:new 0 0 164.3 150;" xml:space="preserve">
<style type="text/css">
	.st0{fill:#FFFFFF;}
	.st1{fill:#00509F;}
</style>
<g id="Layer_1_1_">
</g>
<g>
	<path class="st0" d="M153.9,51.9c0-22.4-18.2-40.6-40.6-40.6c-7,0-14,1.8-20.1,5.3c-5.9,3.4-10.9,8.2-14.5,14
		c-0.6,0.9-0.3,2.1,0.6,2.6c0.9,0.6,26.5,56.1,26.5,56.1c-0.7,0.7-0.7,2,0,2.7l6.1,6.1c0.4,0.4,0.9,0.6,1.4,0.6c0.5,0,1-0.2,1.4-0.6
		c0.7-0.7,0.7-2,0-2.7l-2.9-2.9c0.5,0,1,0,1.5,0C135.7,92.5,153.9,74.3,153.9,51.9z"/>
	<path class="st0" d="M113.2,11.2c22.4,0,40.6,18.2,40.6,40.6c0,22.4-18.2,40.6-40.6,40.6c-0.5,0-1,0-1.5,0l2.9,2.9
		c0.7,0.7,0.7,2,0,2.7c-0.4,0.4-0.9,0.6-1.4,0.6c-0.5,0-1-0.2-1.4-0.6l-6.1-6.1c-0.7-0.7-0.7-2,0-2.7c0,0-25.6-55.6-26.5-56.1
		c-0.9-0.6-1.2-1.7-0.6-2.6c3.6-5.8,8.6-10.6,14.5-14C99.3,13.1,106.2,11.2,113.2,11.2 M113.2,1.2c-8.8,0-17.4,2.3-25,6.6
		C80.9,12,74.6,18,70.2,25.2c-1.7,2.7-2.2,5.9-1.5,9c0.5,1.9,1.4,3.7,2.6,5.1c2.8,5.4,13.7,28.9,23.9,50.9c0,0.1,0,0.2,0,0.4
		c0,3.2,1.2,6.2,3.5,8.4l6.1,6.1c2.2,2.2,5.2,3.5,8.4,3.5c3.2,0,6.2-1.2,8.4-3.5c1.1-1.1,2-2.4,2.6-3.8c22.7-5,39.6-25.3,39.6-49.4
		C163.9,24,141.2,1.2,113.2,1.2L113.2,1.2z"/>
</g>
<g>
	<path class="st0" d="M102.1,109.7l-3.2-1.3V68.1h12.4c1.1,0,1.9-0.9,1.9-1.9c0-1.1-0.9-1.9-1.9-1.9H99.1c0.7-2.5,2.7-3.9,5.8-5.7
		c3.7-2.2,8.3-5,8.3-11.8c0-5-4.1-9-9-9c-5,0-9,4.1-9,9c0,1.1,0.9,1.9,1.9,1.9c1.1,0,1.9-0.9,1.9-1.9c0-2.9,2.3-5.2,5.2-5.2
		s5.2,2.3,5.2,5.2c0,4.6-2.8,6.3-6.4,8.5c-1.6,0.9-3.2,1.9-4.6,3.2c-2.6-13-14.1-22.8-27.9-22.8C54.8,35.7,42,48.4,42,64.1v44.2
		l-3.2,1.3c-3,1.3-4.9,4.2-4.9,7.4v8.2c0,3.3,2.7,6,6,6H101c3.3,0,6-2.7,6-6v-8.2C107,113.8,105.1,110.9,102.1,109.7z"/>
	<path class="st0" d="M70.4,35.7c13.7,0,25.2,9.8,27.9,22.8c1.4-1.3,3-2.3,4.6-3.2c3.6-2.2,6.4-3.9,6.4-8.5c0-2.9-2.3-5.2-5.2-5.2
		s-5.2,2.3-5.2,5.2c0,1.1-0.9,1.9-1.9,1.9c-1.1,0-1.9-0.9-1.9-1.9c0-5,4.1-9,9-9s9,4.1,9,9c0,6.8-4.6,9.6-8.3,11.8
		c-3,1.8-5.1,3.2-5.8,5.7h12.1c1.1,0,1.9,0.9,1.9,1.9c0,1.1-0.9,1.9-1.9,1.9H98.9v40.3l3.2,1.3c3,1.3,4.9,4.2,4.9,7.4v8.2
		c0,3.3-2.7,6-6,6H39.9c-3.3,0-6-2.7-6-6v-8.2c0-3.3,1.9-6.2,4.9-7.4l3.2-1.3V64.1C42,48.4,54.8,35.7,70.4,35.7 M70.4,25.7
		C49.3,25.7,32,42.9,32,64.1V102c-5,3.3-8.2,8.9-8.2,15.1v8.2c0,8.8,7.2,16,16,16H101c8.8,0,16-7.2,16-16v-8.2
		c0-6.2-3.1-11.8-8.2-15.1v-24h2.4c6.6,0,11.9-5.3,11.9-11.9c0-3.1-1.2-5.9-3.1-8c1.8-2.9,3.1-6.6,3.1-11.4c0-10.5-8.5-19-19-19
		c-4.7,0-8.9,1.7-12.3,4.5C85.6,28.1,78.3,25.7,70.4,25.7L70.4,25.7z"/>
</g>
<path class="st1" d="M153.2,52.6c0-22.4-18.2-40.6-40.6-40.6c-7,0-14,1.8-20.1,5.3c-5.9,3.4-10.9,8.2-14.5,14
	c-0.6,0.9-0.3,2.1,0.6,2.6c0.9,0.6,2.1,0.3,2.6-0.6c6.8-10.9,18.5-17.4,31.3-17.4c20.3,0,36.8,16.5,36.8,36.8
	c0,20.3-16.5,36.8-36.8,36.8c-0.5,0-1,0-1.5,0l2.8-2.8c0.7-0.7,0.7-2,0-2.7c-0.7-0.7-2-0.7-2.7,0l-6.1,6.1c-0.7,0.7-0.7,2,0,2.7
	l6.1,6.1c0.4,0.4,0.9,0.6,1.4,0.6c0.5,0,1-0.2,1.4-0.6c0.7-0.7,0.7-2,0-2.7l-2.9-2.9c0.5,0,1,0,1.5,0
	C135,93.3,153.2,75.1,153.2,52.6z"/>
<path class="st1" d="M121.1,38.5c-1-0.2-2,0.5-2.2,1.5l-4.1,20.4c-0.1,0.6,0,1.1,0.4,1.6c0.4,0.4,0.9,0.7,1.5,0.7h10.3v4.2
	c0,1.1,0.9,1.9,1.9,1.9c1.1,0,1.9-0.9,1.9-1.9v-4.2h2.2c1.1,0,1.9-0.9,1.9-1.9c0-1.1-0.9-1.9-1.9-1.9h-2.2V40.4
	c0-1.1-0.9-1.9-1.9-1.9c-1.1,0-1.9,0.9-1.9,1.9v18.5h-8l3.6-18.1C122.8,39.8,122.1,38.7,121.1,38.5z"/>
<path class="st1" d="M101.4,110.5l-3.2-1.3V68.8h12.4c1.1,0,1.9-0.9,1.9-1.9c0-1.1-0.9-1.9-1.9-1.9H98.4c0.7-2.5,2.7-3.9,5.8-5.7
	c3.7-2.2,8.3-5,8.3-11.8c0-5-4.1-9-9-9s-9,4.1-9,9c0,1.1,0.9,1.9,1.9,1.9c1.1,0,1.9-0.9,1.9-1.9c0-2.9,2.3-5.2,5.2-5.2
	s5.2,2.3,5.2,5.2c0,4.6-2.8,6.3-6.4,8.5c-1.6,0.9-3.2,1.9-4.6,3.2c-2.6-13-14.1-22.8-27.9-22.8c-15.7,0-28.4,12.7-28.4,28.4v44.2
	l-3.2,1.3c-3,1.3-4.9,4.2-4.9,7.4v8.2c0,3.3,2.7,6,6,6h61.1c3.3,0,6-2.7,6-6v-8.2C106.3,114.6,104.4,111.7,101.4,110.5z M90.3,124.9
	v3.3h-6.5c3.3-8.4,5.1-15.4,5.8-18.5l9.7,4.1l-6.1,4.9C91.4,120.1,90.3,122.4,90.3,124.9z M59.9,128.2c-2.7-6.7-4.5-12.7-5.5-16.6
	c7.6,8.2,14.6,10.1,15,10.1c0.2,0,0.3,0.1,0.5,0.1s0.3,0,0.5-0.1c0.3-0.1,7.4-1.9,15-10.1c-1,3.8-2.8,9.9-5.5,16.6H59.9L59.9,128.2z
	 M46.2,118.6l-6.1-4.9l9.7-4.1c0.7,3.1,2.5,10.1,5.8,18.5h-6.5v-3.3C49.2,122.4,48.1,120.1,46.2,118.6z M92.2,74.9
	c1.2,0,2.2,1,2.2,2.2v4.1c0,1.2-1,2.2-2.2,2.2h-1.4l0.8-8.4H92.2z M86.8,84.6c-1.6,1.4-6.5,4.8-17,4.8c-1.1,0-1.9,0.9-1.9,1.9
	c0,1.1,0.9,1.9,1.9,1.9c7.3,0,12.3-1.5,15.6-3.1c-0.5,0.7-1.2,1.2-1.9,1.7l-10.6,5.9c-1.9,1.1-4.2,1.1-6.1,0l-10.6-5.9
	c-1.8-1-3-2.8-3.2-4.9L51.6,72c0-0.1,0.1-0.1,0.1-0.1c6.9-1.6,13.1-5.2,18-10.3c0,0,0.1,0,0.1,0c4.9,5.1,11.1,8.7,18,10.3
	c0.1,0,0.2,0.1,0.1,0.1L86.8,84.6z M61.5,100.9v-1.7l3.4,1.9c1.5,0.8,3.2,1.3,4.9,1.3c1.7,0,3.4-0.4,4.9-1.3l3.4-1.9v1.7
	c0,2.4,1.4,4.6,3.7,5.5l2.2,0.9c-6.3,7.5-12.4,10-14.1,10.6c-1.7-0.6-7.8-3-14.1-10.6l2.2-0.9C60,105.5,61.5,103.3,61.5,100.9z
	 M83.2,102.9c-0.8-0.3-1.3-1.1-1.3-2V97l3.4-1.9c2.9-1.6,4.8-4.6,5.1-7.9l0-0.1h1.8c0.8,0,1.5-0.1,2.2-0.4v20.8L83.2,102.9z
	 M69.8,40.3c13.6,0,24.6,11,24.6,24.6v6.6c-0.7-0.3-1.4-0.4-2.2-0.4h-0.5c-0.3-1.4-1.4-2.6-3-3c-6.2-1.5-11.7-4.6-16.1-9.2
	c-0.7-0.8-1.8-1.2-2.8-1.2c-1.1,0-2.1,0.4-2.8,1.2l0,0c-4.4,4.6-9.9,7.8-16.1,9.2c-1.5,0.4-2.7,1.5-3,3h-0.5c-0.8,0-1.5,0.1-2.2,0.4
	v-6.6C45.2,51.3,56.2,40.3,69.8,40.3z M45.2,77.1c0-1.2,1-2.2,2.2-2.2H48l0.8,8.4h-1.4c-1.2,0-2.2-1-2.2-2.2V77.1z M45.2,86.8
	c0.7,0.3,1.4,0.4,2.2,0.4h1.8l0,0.1c0.3,3.3,2.2,6.3,5.1,7.9l3.4,1.9v3.9c0,0.9-0.5,1.7-1.3,2l-11.2,4.6V86.8z M37,126v-8.2
	c0-0.5,0.1-1,0.3-1.5l6.6,5.2c1,0.8,1.6,2,1.6,3.3v3.3h-6.2C38,128.2,37,127.2,37,126z M102.5,126c0,1.2-1,2.2-2.2,2.2h-6.2v-3.3
	c0-1.3,0.6-2.5,1.6-3.3l6.6-5.2c0.2,0.5,0.3,1,0.3,1.5V126z"/>
</svg>
