<?xml version="1.0" encoding="utf-8"?>
<!-- Generator: Adobe Illustrator 21.0.2, SVG Export Plug-In . SVG Version: 6.00 Build 0)  -->
<svg version="1.1" id="Layer_1" xmlns="http://www.w3.org/2000/svg"  x="0px" y="0px"
	 width="150px" height="150px" viewBox="0 0 150 150" style="enable-background:new 0 0 150 150;" xml:space="preserve">
<style type="text/css">
	.st0{fill-rule:evenodd;clip-rule:evenodd;fill:#FFFFFF;}
	.st1{fill:#FFFFFF;}
	.st2{fill:#02519D;}
</style>
<g>
	<g>
		<polygon class="st0" points="76,42.6 109.1,30 109.1,71.4 76,82.7 		"/>
		<path class="st1" d="M109.1,30v41.4L76,82.7V42.6L109.1,30 M109.1,19.7c-1.2,0-2.5,0.2-3.7,0.7L72.3,32.9c-4,1.5-6.7,5.4-6.7,9.7
			v40.1c0,3.3,1.6,6.5,4.3,8.4c1.8,1.3,3.9,1.9,6,1.9c1.1,0,2.3-0.2,3.3-0.6l33.1-11.3c4.2-1.4,7-5.4,7-9.8V30
			c0-3.4-1.7-6.6-4.5-8.5C113.2,20.3,111.1,19.7,109.1,19.7L109.1,19.7z"/>
	</g>
	<g>
		<polygon class="st0" points="75,43 42.9,30 42.9,72.8 75,84.5 		"/>
		<path class="st1" d="M42.9,30l32,13v41.5l-32-11.7V30 M42.9,19.7c-2,0-4,0.6-5.8,1.8c-2.8,1.9-4.6,5.1-4.6,8.6v42.8
			c0,4.3,2.7,8.2,6.8,9.7l32,11.7c1.2,0.4,2.3,0.6,3.5,0.6c2.1,0,4.2-0.6,5.9-1.9c2.8-1.9,4.4-5.1,4.4-8.5V43c0-4.2-2.6-8-6.5-9.6
			l-32-13C45.6,19.9,44.2,19.7,42.9,19.7L42.9,19.7z"/>
	</g>
	<g>
		<line class="st0" x1="69.1" y1="27.1" x2="93" y2="35.8"/>
		<path class="st1" d="M93,41c-0.6,0-1.2-0.1-1.8-0.3l-23.9-8.7c-2.7-1-4.1-3.9-3.1-6.6c1-2.7,3.9-4.1,6.6-3.1L94.8,31
			c2.7,1,4.1,3.9,3.1,6.6C97.1,39.7,95.1,41,93,41z"/>
	</g>
	<g>
		<polygon class="st0" points="76,43 42.9,30 76,18.2 109.1,30 		"/>
		<path class="st1" d="M76,18.2L109.1,30L76,43L42.9,30L76,18.2 M76,7.9c-1.2,0-2.3,0.2-3.5,0.6L39.5,20.3c-4.1,1.4-6.8,5.3-6.9,9.6
			c-0.1,4.3,2.5,8.2,6.6,9.8l33.1,13c1.2,0.5,2.5,0.7,3.8,0.7c1.3,0,2.6-0.2,3.8-0.7l33.1-13c4-1.6,6.6-5.5,6.6-9.8
			c-0.1-4.3-2.8-8.1-6.9-9.6L79.5,8.5C78.3,8.1,77.2,7.9,76,7.9L76,7.9z"/>
	</g>
	<g>
		<line class="st0" x1="88.6" y1="48.5" x2="97.7" y2="44.6"/>
		<path class="st1" d="M88.6,53.6c-2,0-3.9-1.2-4.8-3.2c-1.1-2.6,0.1-5.7,2.8-6.8l9.2-3.8c2.6-1.1,5.7,0.1,6.8,2.8
			c1.1,2.6-0.1,5.7-2.8,6.8l-9.2,3.8C89.9,53.5,89.2,53.6,88.6,53.6z"/>
	</g>
	<g>
		<polygon class="st0" points="107.6,97.7 139.7,84.7 139.7,127.5 107.6,139.2 		"/>
		<path class="st1" d="M139.7,84.7v42.8l-32,11.7V97.7L139.7,84.7 M139.7,74.4c-1.3,0-2.6,0.2-3.9,0.8l-32,13
			c-3.9,1.6-6.5,5.4-6.5,9.6v41.5c0,3.4,1.6,6.5,4.4,8.5c1.8,1.2,3.8,1.9,5.9,1.9c1.2,0,2.4-0.2,3.5-0.6l32-11.7
			c4.1-1.5,6.8-5.4,6.8-9.7V84.7c0-3.4-1.7-6.6-4.6-8.6C143.7,74.9,141.7,74.4,139.7,74.4L139.7,74.4z"/>
	</g>
	<g>
		<polygon class="st0" points="106.6,97.7 75.6,84.7 75.6,127.5 106.6,139.2 		"/>
		<path class="st1" d="M75.6,84.7l31,13v41.5l-31-11.7V84.7 M75.6,74.4c-2,0-4,0.6-5.7,1.7c-2.9,1.9-4.6,5.1-4.6,8.6v42.8
			c0,4.3,2.7,8.2,6.7,9.7l31,11.7c1.2,0.4,2.4,0.7,3.6,0.7c2.1,0,4.1-0.6,5.9-1.8c2.8-1.9,4.5-5.1,4.5-8.5V97.7
			c0-4.2-2.5-7.9-6.3-9.5l-31-13C78.3,74.6,76.9,74.4,75.6,74.4L75.6,74.4z"/>
	</g>
	<g>
		<line class="st0" x1="101.8" y1="82.1" x2="124.7" y2="90.5"/>
		<path class="st1" d="M124.7,95.6c-0.6,0-1.2-0.1-1.8-0.3L100,87c-2.7-1-4.1-3.9-3.1-6.6c1-2.7,3.9-4.1,6.6-3.1l22.9,8.3
			c2.7,1,4.1,3.9,3.1,6.6C128.8,94.3,126.8,95.6,124.7,95.6z"/>
	</g>
	<g>
		<polygon class="st0" points="107.6,97.7 75.6,83.7 107.6,71 139.7,83.7 		"/>
		<path class="st1" d="M107.6,71l32,12.7l-32,14l-32-14L107.6,71 M107.6,60.6c-1.3,0-2.6,0.2-3.8,0.7l-32,12.7
			c-3.9,1.5-6.5,5.3-6.5,9.4c-0.1,4.2,2.4,8,6.2,9.6l32,14c1.3,0.6,2.7,0.9,4.1,0.9c1.4,0,2.8-0.3,4.1-0.9l32-14
			c3.8-1.7,6.3-5.5,6.2-9.6c-0.1-4.2-2.6-7.9-6.5-9.4l-32-12.7C110.2,60.9,108.9,60.6,107.6,60.6L107.6,60.6z"/>
	</g>
	<g>
		<line class="st0" x1="120.2" y1="103.1" x2="129.4" y2="99.3"/>
		<path class="st1" d="M120.2,108.3c-2,0-3.9-1.2-4.8-3.2c-1.1-2.6,0.1-5.7,2.8-6.8l9.2-3.8c2.6-1.1,5.7,0.1,6.8,2.8
			c1.1,2.6-0.1,5.7-2.8,6.8l-9.2,3.8C121.6,108.2,120.9,108.3,120.2,108.3z"/>
	</g>
	<g>
		<polygon class="st0" points="43.6,97.7 75.6,84.7 75.6,127.5 43.6,139.2 		"/>
		<path class="st1" d="M75.6,84.7v42.8l-32,11.7V97.7L75.6,84.7 M75.6,74.4c-1.3,0-2.6,0.2-3.9,0.8l-32,13c-3.9,1.6-6.5,5.4-6.5,9.6
			v41.5c0,3.4,1.6,6.5,4.4,8.5c1.8,1.2,3.8,1.9,5.9,1.9c1.2,0,2.4-0.2,3.5-0.6l32-11.7c4.1-1.5,6.8-5.4,6.8-9.7V84.7
			c0-3.4-1.7-6.6-4.6-8.6C79.7,74.9,77.6,74.4,75.6,74.4L75.6,74.4z"/>
	</g>
	<g>
		<polygon class="st0" points="43.6,97.7 11.5,84.7 11.5,127.5 43.6,139.2 		"/>
		<path class="st1" d="M11.5,84.7l32,13v41.5l-32-11.7V84.7 M11.5,74.4c-2,0-4,0.6-5.8,1.8c-2.8,1.9-4.6,5.1-4.6,8.6v42.8
			c0,4.3,2.7,8.2,6.8,9.7l32,11.7c1.2,0.4,2.3,0.6,3.5,0.6c2.1,0,4.2-0.6,5.9-1.9c2.8-1.9,4.4-5.1,4.4-8.5V97.7c0-4.2-2.6-8-6.5-9.6
			l-32-13C14.2,74.6,12.9,74.4,11.5,74.4L11.5,74.4z"/>
	</g>
	<g>
		<line class="st0" x1="36.8" y1="81.8" x2="60.6" y2="90.5"/>
		<path class="st1" d="M60.6,95.6c-0.6,0-1.2-0.1-1.8-0.3L35,86.6c-2.7-1-4.1-3.9-3.1-6.6c1-2.7,3.9-4.1,6.6-3.1l23.8,8.7
			c2.7,1,4.1,3.9,3.1,6.6C64.7,94.3,62.7,95.6,60.6,95.6z"/>
	</g>
	<g>
		<polygon class="st0" points="43.8,97.7 11.5,83.8 43.7,71 76,83.5 		"/>
		<path class="st1" d="M43.7,71L76,83.5L43.8,97.7L11.5,83.8L43.7,71 M43.7,60.6c-1.3,0-2.6,0.2-3.8,0.7L7.7,74.2
			c-3.9,1.5-6.5,5.3-6.5,9.5c-0.1,4.2,2.4,8,6.3,9.6l32.3,13.9c1.3,0.6,2.7,0.8,4.1,0.8c1.4,0,2.8-0.3,4.1-0.9L80.1,93
			c3.8-1.7,6.3-5.5,6.2-9.7c-0.1-4.2-2.7-7.9-6.6-9.4L47.5,61.3C46.3,60.9,45,60.6,43.7,60.6L43.7,60.6z"/>
	</g>
	<g>
		<line class="st0" x1="56.1" y1="103.1" x2="65.3" y2="99.3"/>
		<path class="st1" d="M56.1,108.3c-2,0-3.9-1.2-4.8-3.2c-1.1-2.6,0.1-5.7,2.8-6.8l9.2-3.8c2.6-1.1,5.7,0.1,6.8,2.8
			c1.1,2.6-0.1,5.7-2.8,6.8l-9.2,3.8C57.5,108.2,56.8,108.3,56.1,108.3z"/>
	</g>
</g>
<g>
	<g>
		<path class="st2" d="M76,86.3c-0.4,0-0.8-0.1-1.2-0.4c-0.6-0.4-0.9-1-0.9-1.7V44.1c0-0.8,0.5-1.6,1.3-1.9l31-12.5
			c0.6-0.3,1.4-0.2,1.9,0.2c0.6,0.4,0.9,1,0.9,1.7V73c0,0.9-0.5,1.6-1.4,1.9l-31,11.3C76.5,86.3,76.2,86.3,76,86.3z M78.1,45.5v35.8
			l26.9-9.8V34.6L78.1,45.5z"/>
		<path class="st2" d="M76,86.5c-0.5,0-0.9-0.1-1.3-0.4c-0.6-0.4-0.9-1.1-0.9-1.8V44.1c0-0.9,0.5-1.7,1.4-2l31-12.5
			c0.7-0.3,1.4-0.2,2.1,0.2c0.6,0.4,1,1.1,1,1.8V73c0,0.9-0.6,1.7-1.4,2.1l-31,11.3C76.5,86.4,76.2,86.5,76,86.5z M107,29.6
			c-0.2,0-0.5,0-0.7,0.1l-31,12.5c-0.7,0.3-1.2,1-1.2,1.8v40.2c0,0.6,0.3,1.2,0.8,1.6c0.5,0.4,1.2,0.4,1.8,0.2l31-11.3
			c0.8-0.3,1.3-1,1.3-1.8V31.6c0-0.6-0.3-1.2-0.9-1.6C107.7,29.8,107.4,29.6,107,29.6z M77.9,81.5V45.4l0.1,0l27-10.9v37.2l-0.1,0
			L77.9,81.5z M78.2,45.6v35.5l26.6-9.7V34.8L78.2,45.6z"/>
	</g>
	<g>
		<path class="st2" d="M76,86.3c-0.2,0-0.5,0-0.7-0.1l-31-11.3c-0.8-0.3-1.4-1.1-1.4-1.9V31.6c0-0.7,0.3-1.3,0.9-1.7
			c0.6-0.4,1.3-0.5,1.9-0.2l31,12.5c0.8,0.3,1.3,1.1,1.3,1.9v40.2c0,0.7-0.3,1.3-0.9,1.7C76.8,86.2,76.4,86.3,76,86.3z M47.1,71.5
			l26.9,9.8V45.5L47.1,34.6V71.5z"/>
		<path class="st2" d="M76,86.5c-0.3,0-0.5,0-0.8-0.1L44.2,75c-0.9-0.3-1.4-1.1-1.4-2.1V31.6c0-0.7,0.4-1.4,1-1.8
			c0.6-0.4,1.4-0.5,2.1-0.2l31,12.5c0.8,0.3,1.4,1.1,1.4,2v40.2c0,0.7-0.4,1.4-0.9,1.8C76.9,86.3,76.4,86.5,76,86.5z M45,29.6
			c-0.4,0-0.8,0.1-1.1,0.3c-0.5,0.4-0.9,1-0.9,1.6V73c0,0.8,0.5,1.5,1.3,1.8l31,11.3c0.6,0.2,1.3,0.1,1.8-0.2c0.5-0.4,0.8-1,0.8-1.6
			V44.1c0-0.8-0.5-1.5-1.2-1.8l-31-12.5C45.5,29.7,45.2,29.6,45,29.6z M74.1,81.5l-0.2-0.1l-27-9.8V34.4l0.2,0.1l26.9,10.9V81.5z
			 M47.2,71.4l26.6,9.7V45.6L47.2,34.8V71.4z"/>
	</g>
	<g>
		<path class="st2" d="M92.5,39.2c-0.2,0-0.5,0-0.7-0.1l-23.2-8.4c-1.1-0.4-1.6-1.6-1.2-2.6c0.4-1.1,1.6-1.6,2.6-1.2l23.2,8.4
			c1.1,0.4,1.6,1.6,1.2,2.6C94.1,38.7,93.3,39.2,92.5,39.2z"/>
		<path class="st2" d="M92.5,39.4c-0.3,0-0.5,0-0.8-0.1l-23.2-8.4c-0.6-0.2-1-0.6-1.2-1.1c-0.2-0.5-0.3-1.1-0.1-1.7
			c0.2-0.6,0.6-1,1.1-1.2c0.5-0.2,1.1-0.3,1.7-0.1l23.2,8.4c0.6,0.2,1,0.6,1.2,1.1c0.2,0.5,0.3,1.1,0.1,1.7
			C94.2,38.8,93.4,39.4,92.5,39.4z M69.3,26.8c-0.3,0-0.6,0.1-0.8,0.2c-0.5,0.2-0.8,0.6-1,1.1c-0.2,0.5-0.2,1,0.1,1.5
			c0.2,0.5,0.6,0.8,1.1,1L91.8,39c0.2,0.1,0.4,0.1,0.7,0.1c0.8,0,1.5-0.5,1.8-1.3c0.2-0.5,0.2-1-0.1-1.5c-0.2-0.5-0.6-0.8-1.1-1
			L70,26.9C69.7,26.8,69.5,26.8,69.3,26.8z"/>
	</g>
	<g>
		<path class="st2" d="M76,46.2c-0.3,0-0.5-0.1-0.8-0.2l-31-12.5c-0.8-0.3-1.3-1.1-1.3-1.9c0-0.9,0.6-1.6,1.4-1.9l31-11.4
			c0.5-0.2,1-0.2,1.4,0l31,11.4c0.8,0.3,1.3,1.1,1.4,1.9c0,0.9-0.5,1.6-1.3,1.9L76.8,46C76.5,46.1,76.3,46.2,76,46.2z M50.7,31.7
			L76,41.9l25.3-10.2L76,22.4L50.7,31.7z"/>
		<path class="st2" d="M76,46.3c-0.3,0-0.6-0.1-0.8-0.2l-31-12.5c-0.8-0.3-1.4-1.2-1.4-2.1s0.6-1.7,1.4-2l31-11.4
			c0.5-0.2,1-0.2,1.5,0l31,11.4c0.8,0.3,1.4,1.1,1.4,2c0,0.9-0.5,1.7-1.4,2.1l-31,12.5C76.5,46.3,76.3,46.3,76,46.3z M76,18.2
			c-0.2,0-0.5,0-0.7,0.1l-31,11.4c-0.7,0.3-1.3,1-1.3,1.8c0,0.8,0.5,1.5,1.2,1.8l31,12.5c0.5,0.2,1,0.2,1.5,0l31-12.5
			c0.7-0.3,1.2-1,1.2-1.8c0-0.8-0.5-1.5-1.3-1.8l-31-11.4C76.4,18.3,76.2,18.2,76,18.2z M76,42L76,42L50.4,31.7L76,22.2l0,0
			l25.6,9.4L76,42z M51.1,31.7L76,41.7l24.9-10.1L76,22.5L51.1,31.7z"/>
	</g>
	<g>
		<path class="st2" d="M88.2,51.5c-0.8,0-1.6-0.5-1.9-1.3c-0.4-1.1,0.1-2.3,1.1-2.7l8.9-3.7c1.1-0.4,2.3,0.1,2.7,1.1
			c0.4,1.1-0.1,2.3-1.1,2.7L89,51.3C88.7,51.4,88.4,51.5,88.2,51.5z"/>
		<path class="st2" d="M88.2,51.6c-0.9,0-1.7-0.5-2-1.3c-0.2-0.5-0.2-1.1,0-1.7c0.2-0.5,0.6-1,1.2-1.2l8.9-3.7
			c1.1-0.5,2.4,0.1,2.9,1.2c0.5,1.1-0.1,2.4-1.2,2.9L89,51.4C88.7,51.5,88.4,51.6,88.2,51.6z M97,43.8c-0.2,0-0.5,0-0.7,0.1
			l-8.9,3.7c-1,0.4-1.5,1.6-1,2.5c0.3,0.7,1,1.2,1.8,1.2c0.3,0,0.5-0.1,0.7-0.2l8.9-3.7c1-0.4,1.5-1.6,1-2.5
			C98.5,44.2,97.8,43.8,97,43.8z"/>
	</g>
	<g>
		<path class="st2" d="M106.6,139.2c-0.4,0-0.8-0.1-1.2-0.4c-0.6-0.4-0.9-1-0.9-1.7V97c0-0.8,0.5-1.6,1.3-1.9l31-12.5
			c0.6-0.3,1.4-0.2,1.9,0.2c0.6,0.4,0.9,1,0.9,1.7v41.4c0,0.9-0.5,1.6-1.4,1.9l-31,11.3C107.1,139.1,106.8,139.2,106.6,139.2z
			 M108.7,98.4v35.8l26.9-9.8V87.5L108.7,98.4z"/>
		<path class="st2" d="M106.6,139.3c-0.5,0-0.9-0.1-1.3-0.4c-0.6-0.4-0.9-1.1-0.9-1.8V97c0-0.9,0.5-1.7,1.4-2l31-12.5
			c0.7-0.3,1.4-0.2,2.1,0.2c0.6,0.4,1,1.1,1,1.8v41.4c0,0.9-0.6,1.7-1.4,2.1l-31,11.3C107.1,139.3,106.9,139.3,106.6,139.3z
			 M137.6,82.5c-0.2,0-0.5,0-0.7,0.1l-31,12.5c-0.7,0.3-1.2,1-1.2,1.8v40.1c0,0.6,0.3,1.2,0.8,1.6c0.5,0.4,1.2,0.4,1.8,0.2l31-11.3
			c0.8-0.3,1.3-1,1.3-1.8V84.4c0-0.6-0.3-1.2-0.9-1.6C138.4,82.6,138,82.5,137.6,82.5z M108.5,134.3V98.3l0.1,0l27-10.9v37.2l-0.1,0
			L108.5,134.3z M108.8,98.4V134l26.6-9.7V87.7L108.8,98.4z"/>
	</g>
	<g>
		<path class="st2" d="M106.6,139.2c-0.2,0-0.5,0-0.7-0.1l-31-11.3c-0.8-0.3-1.4-1.1-1.4-1.9V84.4c0-0.7,0.3-1.3,0.9-1.7
			c0.6-0.4,1.3-0.5,1.9-0.2l31,12.5c0.8,0.3,1.3,1.1,1.3,1.9v40.2c0,0.7-0.3,1.3-0.9,1.7C107.4,139.1,107,139.2,106.6,139.2z
			 M77.7,124.4l26.9,9.8V98.4L77.7,87.5V124.4z"/>
		<path class="st2" d="M106.6,139.3c-0.3,0-0.5,0-0.8-0.1l-31-11.3c-0.9-0.3-1.4-1.1-1.4-2.1V84.4c0-0.7,0.4-1.4,1-1.8
			c0.6-0.4,1.4-0.5,2.1-0.2l31,12.5c0.8,0.3,1.4,1.1,1.4,2v40.2c0,0.7-0.4,1.4-0.9,1.8C107.5,139.2,107.1,139.3,106.6,139.3z
			 M75.6,82.5c-0.4,0-0.8,0.1-1.1,0.3c-0.5,0.4-0.9,1-0.9,1.6v41.4c0,0.8,0.5,1.5,1.3,1.8l31,11.3c0.6,0.2,1.3,0.1,1.8-0.2
			c0.5-0.4,0.8-1,0.8-1.6V97c0-0.8-0.5-1.5-1.2-1.8l-31-12.5C76.1,82.5,75.8,82.5,75.6,82.5z M104.7,134.3l-0.2-0.1l-27-9.8V87.3
			l0.2,0.1l26.9,10.9V134.3z M77.8,124.3l26.6,9.7V98.4L77.8,87.7V124.3z"/>
	</g>
	<g>
		<path class="st2" d="M123.1,92.1c-0.2,0-0.5,0-0.7-0.1l-22.1-8.1c-1.1-0.4-1.6-1.6-1.2-2.6c0.4-1.1,1.6-1.6,2.6-1.2l22.1,8.1
			c1.1,0.4,1.6,1.6,1.2,2.6C124.7,91.6,123.9,92.1,123.1,92.1z"/>
		<path class="st2" d="M123.1,92.2c-0.3,0-0.5,0-0.8-0.1L100.2,84c-0.6-0.2-1-0.6-1.2-1.1c-0.2-0.5-0.3-1.1-0.1-1.7
			c0.2-0.6,0.6-1,1.1-1.2c0.5-0.2,1.1-0.3,1.7-0.1l22.1,8.1c0.6,0.2,1,0.6,1.2,1.1c0.2,0.5,0.3,1.1,0.1,1.7
			C124.8,91.6,124,92.2,123.1,92.2z M101,80c-0.3,0-0.6,0.1-0.8,0.2c-0.5,0.2-0.8,0.6-1,1.1c-0.2,0.5-0.2,1,0.1,1.5
			c0.2,0.5,0.6,0.8,1.1,1l22.1,8.1c0.2,0.1,0.4,0.1,0.7,0.1c0.8,0,1.5-0.5,1.8-1.3c0.2-0.5,0.2-1-0.1-1.5c-0.2-0.5-0.6-0.8-1.1-1
			l-22.1-8.1C101.4,80.1,101.2,80,101,80z"/>
	</g>
	<g>
		<path class="st2" d="M106.6,99c-0.3,0-0.5-0.1-0.8-0.2l-31-12.5c-0.8-0.3-1.3-1.1-1.3-1.9c0-0.9,0.6-1.6,1.4-1.9l31-11.4
			c0.5-0.2,1-0.2,1.4,0l31,11.4c0.8,0.3,1.3,1.1,1.4,1.9c0,0.9-0.5,1.6-1.3,1.9l-31,12.5C107.1,99,106.9,99,106.6,99z M81.3,84.5
			l25.3,10.2l25.3-10.2l-25.3-9.3L81.3,84.5z"/>
		<path class="st2" d="M106.6,99.2c-0.3,0-0.6-0.1-0.8-0.2l-31-12.5c-0.8-0.3-1.4-1.2-1.4-2.1c0-0.9,0.6-1.7,1.4-2l31-11.4
			c0.5-0.2,1-0.2,1.5,0l31,11.4c0.8,0.3,1.4,1.1,1.4,2c0,0.9-0.5,1.7-1.4,2.1l-31,12.5C107.2,99.1,106.9,99.2,106.6,99.2z
			 M106.6,71.1c-0.2,0-0.5,0-0.7,0.1l-31,11.4c-0.7,0.3-1.3,1-1.3,1.8c0,0.8,0.5,1.5,1.2,1.8l31,12.5c0.5,0.2,1,0.2,1.5,0l31-12.5
			c0.7-0.3,1.2-1,1.2-1.8c0-0.8-0.5-1.5-1.3-1.8l-31-11.4C107.1,71.1,106.8,71.1,106.6,71.1z M106.6,94.9L106.6,94.9L81,84.5
			l25.6-9.4l0,0l25.6,9.4L106.6,94.9z M81.7,84.5l24.9,10.1l24.9-10.1l-24.9-9.2L81.7,84.5z"/>
	</g>
	<g>
		<path class="st2" d="M118.8,104.3c-0.8,0-1.6-0.5-1.9-1.3c-0.4-1.1,0.1-2.3,1.1-2.7l8.9-3.7c1.1-0.4,2.3,0.1,2.7,1.1
			c0.4,1.1-0.1,2.3-1.1,2.7l-8.9,3.7C119.3,104.3,119,104.3,118.8,104.3z"/>
		<path class="st2" d="M118.8,104.4c-0.9,0-1.7-0.5-2-1.3c-0.2-0.5-0.2-1.1,0-1.7c0.2-0.5,0.6-1,1.2-1.2l8.9-3.7
			c1.1-0.5,2.4,0.1,2.9,1.2c0.5,1.1-0.1,2.4-1.2,2.9l-8.9,3.7C119.3,104.4,119.1,104.4,118.8,104.4z M127.6,96.6
			c-0.2,0-0.5,0-0.7,0.2l-8.9,3.7c-1,0.4-1.5,1.6-1,2.5c0.3,0.7,1,1.2,1.8,1.2c0.3,0,0.5-0.1,0.7-0.2l8.9-3.7c0.5-0.2,0.8-0.6,1-1.1
			c0.2-0.5,0.2-1,0-1.5C129.1,97,128.4,96.6,127.6,96.6z"/>
	</g>
	<g>
		<path class="st2" d="M44.6,139.2c-0.4,0-0.8-0.1-1.2-0.4c-0.6-0.4-0.9-1-0.9-1.7V97c0-0.8,0.5-1.6,1.3-1.9l31-12.5
			c0.6-0.3,1.4-0.2,1.9,0.2c0.6,0.4,0.9,1,0.9,1.7v41.4c0,0.9-0.5,1.6-1.4,1.9l-31,11.3C45.1,139.1,44.8,139.2,44.6,139.2z
			 M46.7,98.4v35.8l26.9-9.8V87.5L46.7,98.4z"/>
		<path class="st2" d="M44.6,139.3c-0.5,0-0.9-0.1-1.3-0.4c-0.6-0.4-0.9-1.1-0.9-1.8V97c0-0.9,0.5-1.7,1.4-2l31-12.5
			c0.7-0.3,1.4-0.2,2.1,0.2s1,1.1,1,1.8v41.4c0,0.9-0.6,1.7-1.4,2.1l-31,11.3C45.1,139.3,44.9,139.3,44.6,139.3z M75.6,82.5
			c-0.2,0-0.5,0-0.7,0.1l-31,12.5c-0.7,0.3-1.2,1-1.2,1.8v40.1c0,0.6,0.3,1.2,0.8,1.6c0.5,0.4,1.2,0.4,1.8,0.2l31-11.3
			c0.8-0.3,1.3-1,1.3-1.8V84.4c0-0.6-0.3-1.2-0.9-1.6C76.4,82.6,76,82.5,75.6,82.5z M46.5,134.3V98.3l0.1,0l27-10.9v37.2l-0.1,0
			L46.5,134.3z M46.8,98.4V134l26.6-9.7V87.7L46.8,98.4z"/>
	</g>
	<g>
		<path class="st2" d="M44.6,139.2c-0.2,0-0.5,0-0.7-0.1l-31-11.3c-0.8-0.3-1.4-1.1-1.4-1.9V84.4c0-0.7,0.3-1.3,0.9-1.7
			c0.6-0.4,1.3-0.5,1.9-0.2l31,12.5c0.8,0.3,1.3,1.1,1.3,1.9v40.2c0,0.7-0.3,1.3-0.9,1.7C45.4,139.1,45,139.2,44.6,139.2z
			 M15.7,124.4l26.9,9.8V98.4L15.7,87.5V124.4z"/>
		<path class="st2" d="M44.6,139.3c-0.3,0-0.5,0-0.8-0.1l-31-11.3c-0.9-0.3-1.4-1.1-1.4-2.1V84.4c0-0.7,0.4-1.4,1-1.8
			c0.6-0.4,1.4-0.5,2.1-0.2l31,12.5c0.8,0.3,1.4,1.1,1.4,2v40.2c0,0.7-0.4,1.4-0.9,1.8C45.5,139.2,45.1,139.3,44.6,139.3z
			 M13.6,82.5c-0.4,0-0.8,0.1-1.1,0.3c-0.5,0.4-0.9,1-0.9,1.6v41.4c0,0.8,0.5,1.5,1.3,1.8l31,11.3c0.6,0.2,1.3,0.1,1.8-0.2
			c0.5-0.4,0.8-1,0.8-1.6V97c0-0.8-0.5-1.5-1.2-1.8l-31-12.5C14.1,82.5,13.9,82.5,13.6,82.5z M42.7,134.3l-0.2-0.1l-27-9.8V87.3
			l0.2,0.1l26.9,10.9V134.3z M15.8,124.3l26.6,9.7V98.4L15.8,87.7V124.3z"/>
	</g>
	<g>
		<path class="st2" d="M61.1,92.1c-0.2,0-0.5,0-0.7-0.1l-23.1-8.4c-1.1-0.4-1.6-1.6-1.2-2.6c0.4-1.1,1.6-1.6,2.6-1.2l23.1,8.4
			c1.1,0.4,1.6,1.6,1.2,2.6C62.7,91.6,61.9,92.1,61.1,92.1z"/>
		<path class="st2" d="M61.1,92.2c-0.3,0-0.5,0-0.8-0.1l-23.1-8.4c-0.6-0.2-1-0.6-1.2-1.1c-0.2-0.5-0.3-1.1-0.1-1.7
			c0.2-0.6,0.6-1,1.1-1.2c0.5-0.2,1.1-0.3,1.7-0.1L61.8,88c0.6,0.2,1,0.6,1.2,1.1c0.2,0.5,0.3,1.1,0.1,1.7
			C62.8,91.6,62,92.2,61.1,92.2z M38,79.7c-0.3,0-0.6,0.1-0.8,0.2c-0.5,0.2-0.8,0.6-1,1.1c-0.2,0.5-0.2,1,0.1,1.5
			c0.2,0.5,0.6,0.8,1.1,1l23.1,8.4c0.2,0.1,0.4,0.1,0.7,0.1c0.8,0,1.5-0.5,1.8-1.3c0.2-0.5,0.2-1-0.1-1.5c-0.2-0.5-0.6-0.8-1.1-1
			l-23.1-8.4C38.5,79.7,38.3,79.7,38,79.7z"/>
	</g>
	<g>
		<path class="st2" d="M44.6,99c-0.3,0-0.5-0.1-0.8-0.2l-31-12.5c-0.8-0.3-1.3-1.1-1.3-1.9c0-0.9,0.6-1.6,1.4-1.9l31-11.4
			c0.5-0.2,1-0.2,1.4,0l31,11.4c0.8,0.3,1.3,1.1,1.4,1.9c0,0.9-0.5,1.6-1.3,1.9l-31,12.5C45.1,99,44.9,99,44.6,99z M19.3,84.5
			l25.3,10.2l25.3-10.2l-25.3-9.3L19.3,84.5z"/>
		<path class="st2" d="M44.6,99.2c-0.3,0-0.6-0.1-0.8-0.2l-31-12.5c-0.8-0.3-1.4-1.2-1.4-2.1c0-0.9,0.6-1.7,1.4-2l31-11.4
			c0.5-0.2,1-0.2,1.5,0l31,11.4c0.8,0.3,1.4,1.1,1.4,2c0,0.9-0.5,1.7-1.4,2.1L45.4,99C45.2,99.1,44.9,99.2,44.6,99.2z M44.6,71.1
			c-0.2,0-0.5,0-0.7,0.1l-31,11.4c-0.7,0.3-1.3,1-1.3,1.8c0,0.8,0.5,1.5,1.2,1.8l31,12.5c0.5,0.2,1,0.2,1.5,0l31-12.5
			c0.7-0.3,1.2-1,1.2-1.8c0-0.8-0.5-1.5-1.3-1.8l-31-11.4C45.1,71.1,44.8,71.1,44.6,71.1z M44.6,94.9L44.6,94.9L19,84.5l25.6-9.4
			l0,0l25.6,9.4L44.6,94.9z M19.7,84.5l24.9,10.1l24.9-10.1l-24.9-9.2L19.7,84.5z"/>
	</g>
	<g>
		<path class="st2" d="M56.8,104.3c-0.8,0-1.6-0.5-1.9-1.3c-0.4-1.1,0.1-2.3,1.1-2.7l8.9-3.7c1.1-0.4,2.3,0.1,2.7,1.1
			c0.4,1.1-0.1,2.3-1.1,2.7l-8.9,3.7C57.3,104.3,57,104.3,56.8,104.3z"/>
		<path class="st2" d="M56.8,104.4c-0.9,0-1.7-0.5-2-1.3c-0.2-0.5-0.2-1.1,0-1.7c0.2-0.5,0.6-1,1.2-1.2l8.9-3.7
			c0.5-0.2,1.1-0.2,1.7,0c0.5,0.2,1,0.6,1.2,1.2c0.5,1.1-0.1,2.4-1.2,2.9l-8.9,3.7C57.4,104.4,57.1,104.4,56.8,104.4z M65.6,96.6
			c-0.3,0-0.5,0.1-0.7,0.2l-8.9,3.7c-1,0.4-1.5,1.6-1,2.5c0.3,0.7,1,1.2,1.8,1.2c0.3,0,0.5-0.1,0.7-0.2l8.9-3.7c1-0.4,1.5-1.6,1-2.5
			c-0.2-0.5-0.6-0.8-1.1-1C66.1,96.6,65.9,96.6,65.6,96.6z"/>
	</g>
</g>
</svg>
