<?xml version="1.0" encoding="utf-8"?>
<!-- Generator: Adobe Illustrator 19.1.0, SVG Export Plug-In . SVG Version: 6.00 Build 0)  -->
<svg version="1.1" id="Слой_1" xmlns="http://www.w3.org/2000/svg" xmlns:xlink="http://www.w3.org/1999/xlink" x="0px" y="0px"
	 width="150px" height="150px" viewBox="0 0 150 150" style="enable-background:new 0 0 150 150;" xml:space="preserve">
<style type="text/css">
	.st0{fill:#FFFFFF;}
	.st1{fill:#EFC73E;}
</style>
<g>
	<path class="st0" d="M131,80.2h-5.3V56c0-5.8-4.7-10.6-10.6-10.6H108l-7.3-13.2c-1.1-2-3.2-3.3-5.5-3.3c-1.1,0-2.1,0.3-3.1,0.8
		L64,45.4H32.6C26.7,45.4,22,50.1,22,56v72.5c0,5.8,4.7,10.6,10.6,10.6h82.6c5.8,0,10.6-4.7,10.6-10.6v-21.3h5.3V80.2L131,80.2z"/>
	<path class="st0" d="M95.1,29c2.3,0,4.4,1.2,5.5,3.3l7.3,13.2h7.2c5.8,0,10.6,4.7,10.6,10.6v24.3h5.3v26.9h-5.3v21.3
		c0,5.8-4.7,10.6-10.6,10.6H32.6c-5.8,0-10.6-4.7-10.6-10.6V56c0-5.8,4.7-10.6,10.6-10.6H64l28.1-15.6C93,29.3,94.1,29,95.1,29
		 M95.1,18c-2.9,0-5.8,0.8-8.4,2.2L61.1,34.4H32.6C20.7,34.4,11,44.1,11,56v72.5c0,11.9,9.7,21.6,21.6,21.6h82.6
		c11.9,0,21.6-9.7,21.6-21.6v-10.3h5.3v-11V80.2v-11h-5.3V56c0-11.9-9.7-21.6-21.6-21.6h-0.7l-4.2-7.5C107.2,21.4,101.4,18,95.1,18
		L95.1,18z"/>
</g>
<path class="st1" d="M131,80.2h-5.3V56c0-5.8-4.7-10.6-10.6-10.6H108l-7.3-13.2c-1.1-2-3.2-3.3-5.5-3.3c-1.1,0-2.1,0.3-3.1,0.8
	L64,45.4H32.6C26.7,45.4,22,50.1,22,56v72.5c0,5.8,4.7,10.6,10.6,10.6h82.6c5.8,0,10.6-4.7,10.6-10.6v-21.3h5.3V80.2L131,80.2z
	 M115.2,49.6c3.3,0,5.9,2.5,6.3,5.6h-7.9l-3.1-5.6H115.2z M94.1,33.5c1-0.6,2.3-0.2,2.9,0.8l11.7,21H54.9L94.1,33.5z M121.5,128.4
	c0,3.5-2.8,6.3-6.3,6.3H32.6c-3.5,0-6.3-2.8-6.3-6.3V56c0-3.5,2.8-6.3,6.3-6.3h23.8l-10.1,5.6H33.9c-1.2,0-2.1,0.9-2.1,2.1
	c0,1.2,0.9,2.1,2.1,2.1h4.7h77.2h5.7v20.8H106c-7.2,0-13,5.8-13,13v0.9c0,7.2,5.8,13,13,13h15.5V128.4L121.5,128.4z M126.8,102.9
	h-1.1H106c-4.8,0-8.8-3.9-8.8-8.8v-0.9c0-4.8,3.9-8.8,8.8-8.8h19.7h1.1V102.9z M112.5,93.9c0,2.6-2.1,4.7-4.7,4.7
	c-2.6,0-4.7-2.1-4.7-4.7c0-2.6,2.1-4.7,4.7-4.7C110.4,89.2,112.5,91.3,112.5,93.9z"/>
</svg>
