<?xml version="1.0" encoding="utf-8"?>
<!-- Generator: Adobe Illustrator 21.0.2, SVG Export Plug-In . SVG Version: 6.00 Build 0)  -->
<svg version="1.1" id="Layer_1" xmlns="http://www.w3.org/2000/svg"  x="0px" y="0px"
	 width="164.3px" height="150px" viewBox="0 0 164.3 150" style="enable-background:new 0 0 164.3 150;" xml:space="preserve">
<style type="text/css">
	.st0{fill:#FFFFFF;}
	.st1{fill:#00509F;}
</style>
<g id="Layer_1_1_">
</g>
<g>
	<g>
		<path class="st0" d="M130.7,85.8c9-6.1,13.9-14.3,13.9-23.1s-4.9-17-13.9-23.1c-8.8-6-20.4-9.3-32.7-9.3s-23.9,3.3-32.7,9.3
			c-9,6.1-13.9,14.3-13.9,23.1s4.9,17,13.9,23.1c0.2,0.2,0.5,0.3,0.7,0.5l9.6,19.2H55.3c-1.1,0-1.9,0.9-1.9,1.9v30.5
			c0,1.1,0.9,1.9,1.9,1.9h85.3c1.1,0,1.9-0.9,1.9-1.9v-30.5c0-1.1-0.9-1.9-1.9-1.9h-20.3l9.6-19.2C130.2,86.1,130.4,85.9,130.7,85.8
			z"/>
		<path class="st0" d="M98,30.3c12.3,0,23.9,3.3,32.7,9.3c9,6.1,13.9,14.3,13.9,23.1s-4.9,17-13.9,23.1c-0.2,0.2-0.5,0.3-0.7,0.5
			l-9.6,19.2h20.3c1.1,0,1.9,0.9,1.9,1.9v30.5c0,1.1-0.9,1.9-1.9,1.9H55.3c-1.1,0-1.9-0.9-1.9-1.9v-30.5c0-1.1,0.9-1.9,1.9-1.9h20.3
			L66,86.2c-0.2-0.2-0.5-0.3-0.7-0.5c-9-6.1-13.9-14.3-13.9-23.1s4.9-17,13.9-23.1C74.1,33.6,85.7,30.3,98,30.3 M98,20.3
			c-14.3,0-27.9,3.9-38.3,11c-11.8,8-18.3,19.2-18.3,31.3c0,11.7,6,22.4,16.8,30.3l1.3,2.5h-4.2c-6.5,0-11.9,5.3-11.9,11.9v30.5
			c0,6.5,5.3,11.9,11.9,11.9h85.3c6.5,0,11.9-5.3,11.9-11.9v-30.5c0-6.5-5.3-11.9-11.9-11.9h-4.2l1.3-2.5
			c10.9-7.9,16.8-18.6,16.8-30.3c0-12.2-6.5-23.3-18.3-31.3C125.9,24.2,112.3,20.3,98,20.3L98,20.3z"/>
	</g>
	<g>
		<path class="st0" d="M146.7,16c-0.8,0-1.6,0.1-2.3,0.3c-0.7-3.7-4-6.4-7.8-6.4c-3.9,0-7.1,2.8-7.8,6.4c-0.7-0.2-1.5-0.3-2.3-0.3
			c-4.4,0-8,3.6-8,8c0,1.1,0.9,1.9,1.9,1.9h32.5c1.1,0,1.9-0.9,1.9-1.9C154.7,19.6,151.2,16,146.7,16z"/>
		<path class="st0" d="M136.6,10c3.9,0,7.1,2.8,7.8,6.4c0.7-0.2,1.5-0.3,2.3-0.3c4.4,0,8,3.6,8,8c0,1.1-0.9,1.9-1.9,1.9h-32.5
			c-1.1,0-1.9-0.9-1.9-1.9c0-4.4,3.6-8,8-8c0.8,0,1.6,0.1,2.3,0.3C129.5,12.7,132.7,10,136.6,10 M136.6,0c-5.5,0-10.5,2.5-13.8,6.5
			c-8.2,1.7-14.3,8.9-14.3,17.6c0,6.5,5.3,11.9,11.9,11.9h32.5c6.5,0,11.9-5.3,11.9-11.9c0-8.7-6.2-15.9-14.3-17.6
			C147,2.5,142,0,136.6,0L136.6,0z"/>
	</g>
	<g>
		<path class="st0" d="M75.5,30.1c0-4.4-3.6-8-8-8c-0.8,0-1.6,0.1-2.3,0.3c-0.7-3.7-4-6.4-7.8-6.4s-7.1,2.8-7.8,6.4
			c-0.7-0.2-1.5-0.3-2.3-0.3c-4.4,0-8,3.6-8,8c0,1.1,0.9,1.9,1.9,1.9h32.5C74.7,32,75.5,31.2,75.5,30.1z"/>
		<path class="st0" d="M57.4,16c3.9,0,7.1,2.8,7.8,6.4c0.7-0.2,1.5-0.3,2.3-0.3c4.4,0,8,3.6,8,8c0,1.1-0.9,1.9-1.9,1.9H41.1
			c-1.1,0-1.9-0.9-1.9-1.9c0-4.4,3.6-8,8-8c0.8,0,1.6,0.1,2.3,0.3C50.2,18.8,53.5,16,57.4,16 M57.4,6.1c-5.5,0-10.5,2.5-13.8,6.5
			c-8.2,1.7-14.3,8.9-14.3,17.6c0,6.5,5.3,11.9,11.9,11.9h32.5c6.5,0,11.9-5.3,11.9-11.9c0-8.7-6.2-15.9-14.3-17.6
			C67.8,8.6,62.8,6.1,57.4,6.1L57.4,6.1z"/>
	</g>
</g>
<path class="st1" d="M130.4,85.5c9-6.1,13.9-14.3,13.9-23.1s-4.9-17-13.9-23.1c-8.8-6-20.4-9.3-32.7-9.3s-23.9,3.3-32.7,9.3
	c-9,6.1-13.9,14.3-13.9,23.1s4.9,17,13.9,23.1c0.2,0.2,0.5,0.3,0.7,0.5l9.6,19.2H55.1c-1.1,0-1.9,0.9-1.9,1.9v30.5
	c0,1.1,0.9,1.9,1.9,1.9h85.3c1.1,0,1.9-0.9,1.9-1.9v-30.5c0-1.1-0.9-1.9-1.9-1.9h-20.3l9.6-19.2C130,85.8,130.2,85.7,130.4,85.5z
	 M139.3,58.1c-0.5-0.1-1-0.3-1.5-0.4c-3.3-0.9-8.1-1.6-13.8-2.2c-1-0.1-2,0.7-2.1,1.7c-0.1,1,0.7,2,1.7,2.1
	c9.7,0.9,14.4,2.2,16.2,3.1c-1.3,0.6-4.6,1.7-12.5,2.7c-8.1,1-18.6,1.5-29.5,1.5s-21.4-0.5-29.5-1.5c-7.9-1-11.2-2-12.5-2.7
	c1.3-0.6,4.6-1.7,12.5-2.7c8.1-1,18.6-1.5,29.5-1.5c5.9,0,11.7,0.2,17.2,0.5c1,0.1,1.9-0.7,2-1.8c0.1-1-0.7-1.9-1.8-2
	c-5.5-0.3-11.4-0.5-17.4-0.5c-12,0-23.3,0.6-31.9,1.8c-4.1,0.6-7.3,1.2-9.7,1.9c1.8-3.1,5.5-6,10.7-8.4C75.1,46,86.1,44,97.7,44
	s22.6,2.1,30.8,5.8C133.8,52.2,137.5,55.1,139.3,58.1z M56.2,66.7c2.3,0.7,5.6,1.4,9.7,1.9c8.5,1.2,19.8,1.8,31.9,1.8
	s23.3-0.6,31.9-1.8c4.1-0.6,7.3-1.2,9.7-1.9c-1.8,3.1-5.5,6-10.7,8.4c-8.2,3.7-19.1,5.8-30.8,5.8S75.1,78.8,66.9,75
	C61.7,72.7,58,69.7,56.2,66.7z M97.7,33.8c16.6,0,31.1,6.4,38.2,15.7c-8.4-5.7-22.2-9.3-38.2-9.3s-29.8,3.6-38.2,9.3
	C66.7,40.2,81.1,33.8,97.7,33.8z M59.6,75.3c8.4,5.7,22.2,9.3,38.2,9.3s29.8-3.6,38.2-9.3C128.8,84.6,114.4,91,97.7,91
	S66.7,84.6,59.6,75.3z M94.7,105.2L92,94.5c1.9,0.2,3.8,0.2,5.7,0.2s3.9-0.1,5.7-0.2l-2.7,10.7H94.7z M71.7,89.3
	c4.9,2.3,10.5,3.9,16.3,4.8l2.8,11.1H79.6L71.7,89.3z M138.5,135.7H57V109h81.5V135.7z M115.9,105.2h-11.1l2.8-11.1
	c5.8-0.9,11.4-2.5,16.3-4.8L115.9,105.2z"/>
<path class="st1" d="M146.5,15.8c-0.8,0-1.6,0.1-2.3,0.3c-0.7-3.7-4-6.4-7.8-6.4c-3.9,0-7.1,2.8-7.8,6.4c-0.7-0.2-1.5-0.3-2.3-0.3
	c-4.4,0-8,3.6-8,8c0,1.1,0.9,1.9,1.9,1.9h32.5c1.1,0,1.9-0.9,1.9-1.9C154.5,19.4,150.9,15.8,146.5,15.8z M122.5,21.9
	c0.7-1.4,2.1-2.3,3.7-2.3c1.1,0,2.2,0.4,3,1.2c0.6,0.6,1.6,0.7,2.3,0.3c0.8-0.5,1.1-1.4,0.8-2.2c-0.1-0.4-0.2-0.8-0.2-1.2
	c0-2.3,1.9-4.2,4.2-4.2s4.2,1.9,4.2,4.2c0,0.4-0.1,0.8-0.2,1.2c-0.3,0.8,0.1,1.7,0.8,2.2c0.8,0.5,1.7,0.3,2.3-0.3
	c0.8-0.8,1.9-1.2,3-1.2c1.6,0,3,0.9,3.7,2.3H122.5z"/>
<path class="st1" d="M75.3,29.9c0-4.4-3.6-8-8-8c-0.8,0-1.6,0.1-2.3,0.3c-0.7-3.7-4-6.4-7.8-6.4s-7.1,2.8-7.8,6.4
	c-0.7-0.2-1.5-0.3-2.3-0.3c-4.4,0-8,3.6-8,8c0,1.1,0.9,1.9,1.9,1.9h32.5C74.4,31.8,75.3,31,75.3,29.9z M43.2,28
	c0.7-1.4,2.1-2.3,3.7-2.3c1.1,0,2.2,0.4,3,1.2c0.6,0.6,1.6,0.7,2.3,0.3c0.8-0.5,1.1-1.4,0.8-2.2c-0.1-0.4-0.2-0.8-0.2-1.2
	c0-2.3,1.9-4.2,4.2-4.2s4.2,1.9,4.2,4.2c0,0.4-0.1,0.8-0.2,1.2c-0.3,0.8,0.1,1.7,0.8,2.2c0.8,0.5,1.7,0.3,2.3-0.3
	c0.8-0.8,1.9-1.2,3-1.2c1.6,0,3,0.9,3.7,2.3H43.2z"/>
<path class="st1" d="M86.6,118.3h-6l-1.9-5.7c-0.3-0.8-1-1.3-1.8-1.3c-0.8,0-1.6,0.5-1.8,1.3l-1.9,5.7h-6c-0.8,0-1.6,0.5-1.8,1.3
	c-0.3,0.8,0,1.6,0.7,2.1l4.9,3.5l-1.9,5.7c-0.2,0.7,0,1.5,0.5,2c0.7,0.6,1.7,0.6,2.4,0.1l4.9-3.5l4.9,3.5c0.7,0.5,1.6,0.5,2.3,0
	c0.6-0.5,0.9-1.3,0.6-2.1l-1.9-5.7l4.9-3.5c0.7-0.5,0.9-1.3,0.7-2.1C88.1,118.8,87.4,118.3,86.6,118.3z M79.5,123
	c-0.7,0.5-0.9,1.3-0.7,2.1l0.5,1.4l-1.2-0.9c-0.7-0.5-1.6-0.5-2.2,0l-1.2,0.9l0.5-1.4c0.3-0.8,0-1.6-0.7-2.1l-1.2-0.9h1.5
	c0.8,0,1.6-0.5,1.8-1.3l0.5-1.4l0.5,1.4c0.3,0.8,1,1.3,1.8,1.3h1.5L79.5,123z"/>
<path class="st1" d="M91.7,117.4c-1.1,0-1.9,0.9-1.9,1.9c0,1.1,0.9,1.9,1.9,1.9H106c1.1,0,1.9-0.9,1.9-1.9c0-1.1-0.9-1.9-1.9-1.9
	H91.7z"/>
<path class="st1" d="M114,121.2h2c1.1,0,1.9-0.9,1.9-1.9c0-1.1-0.9-1.9-1.9-1.9h-2c-1.1,0-1.9,0.9-1.9,1.9
	C112.1,120.3,112.9,121.2,114,121.2z"/>
<path class="st1" d="M124,121.2h4.2c1.1,0,1.9-0.9,1.9-1.9c0-1.1-0.9-1.9-1.9-1.9H124c-1.1,0-1.9,0.9-1.9,1.9
	C122.1,120.3,123,121.2,124,121.2z"/>
<path class="st1" d="M99.9,125.5h-8.3c-1.1,0-1.9,0.9-1.9,1.9c0,1.1,0.9,1.9,1.9,1.9h8.3c1.1,0,1.9-0.9,1.9-1.9
	C101.8,126.4,101,125.5,99.9,125.5z"/>
<path class="st1" d="M128.2,125.5h-20.3c-1.1,0-1.9,0.9-1.9,1.9c0,1.1,0.9,1.9,1.9,1.9h20.3c1.1,0,1.9-0.9,1.9-1.9
	C130.1,126.4,129.3,125.5,128.2,125.5z"/>
</svg>
