<?xml version="1.0" encoding="utf-8"?>
<!-- Generator: Adobe Illustrator 19.1.0, SVG Export Plug-In . SVG Version: 6.00 Build 0)  -->
<svg version="1.1" id="Слой_1" xmlns="http://www.w3.org/2000/svg" xmlns:xlink="http://www.w3.org/1999/xlink" x="0px" y="0px"
	 width="150px" height="150px" viewBox="0 0 150 150" style="enable-background:new 0 0 150 150;" xml:space="preserve">
<style type="text/css">
	.st0{fill:#FFFFFF;}
	.st1{fill:#EFC73E;}
</style>
<g>
	<path class="st0" d="M135.5,58.7c-0.4-0.5-1-0.7-1.6-0.7h-2V41.6c0-1.1-0.9-2.1-2-2.1h-19.9l-1.9-20.7c-0.1-1.1-1.1-1.9-2.2-1.9
		l-53.1,4.2c-0.5,0-1.1,0.3-1.4,0.7c-0.4,0.4-0.5,1-0.5,1.5l1.8,20.2h-8.9c-1.1,0-2,0.9-2,2.1V58h-8.6l-3.7-16.1c0-0.1,0-0.2,0-0.3
		c0-4.5-3.7-8.2-8.2-8.2c-4.5,0-8.2,3.7-8.2,8.2c0,4.5,3.7,8.2,8.2,8.2c2,0,3.9-0.8,5.4-2l2.9,12.4c0,0.1,0,0.2,0,0.3l12.3,53.3
		c0,0,0,0,0,0l3.8,16.4c0.2,0.9,1,1.6,2,1.6h6.7c1,4.7,5.1,8.2,10,8.2c4.9,0,9.1-3.5,10-8.2h20.9c1,4.7,5.1,8.2,10,8.2
		c5,0,9.1-3.5,10-8.2h6.4c1.1,0,2-0.9,2-2.1c0-1.1-0.9-2.1-2-2.1h-6.4c-1-4.7-5.1-8.2-10-8.2c-4.9,0-9.1,3.5-10,8.2H74.3
		c-1-4.7-5.1-8.2-10-8.2c-5,0-9.1,3.5-10,8.2h-5l-2.8-12.3h79.4c1,0,1.9-0.7,2-1.7l8.2-53.3C136.1,59.8,135.9,59.2,135.5,58.7z"/>
	<path class="st0" d="M106,17c1.1,0,2,0.8,2.1,1.9l1.9,20.7h19.9c1.1,0,2,0.9,2,2.1V58h2c0.6,0,1.2,0.3,1.6,0.7
		c0.4,0.5,0.6,1.1,0.5,1.6l-8.2,53.3c-0.2,1-1,1.7-2,1.7H46.3l2.8,12.3h5c1-4.7,5.1-8.2,10-8.2s9.1,3.5,10,8.2h20.9
		c1-4.7,5.1-8.2,10-8.2s9.1,3.5,10,8.2h6.4c1.1,0,2,0.9,2,2.1c0,1.1-0.9,2.1-2,2.1h-6.4c-1,4.7-5.1,8.2-10,8.2s-9.1-3.5-10-8.2H74.3
		c-1,4.7-5.1,8.2-10,8.2s-9.1-3.5-10-8.2h-6.7c-1,0-1.8-0.7-2-1.6l-3.8-16.4c0,0,0,0,0,0L29.5,60.5c0-0.1,0-0.2,0-0.3l-2.9-12.4
		c-1.4,1.2-3.3,2-5.4,2c-4.5,0-8.2-3.7-8.2-8.2c0-4.5,3.7-8.2,8.2-8.2c4.5,0,8.2,3.7,8.2,8.2c0,0.1,0,0.2,0,0.3L33.1,58h8.6V45.7
		c0-1.1,0.9-2.1,2-2.1h8.9l-1.8-20.2c0-0.5,0.1-1.1,0.5-1.5c0.4-0.4,0.9-0.7,1.4-0.7l53.1-4.2C105.9,17,106,17,106,17 M106,7L106,7
		c-0.3,0-0.5,0-0.8,0l-0.1,0l-0.1,0l-53.1,4.2c-3.2,0.3-6.2,1.8-8.2,4.2l0,0l0,0c-2.1,2.5-3,5.6-2.8,8.8l0.8,9.5
		c-1.3,0.2-2.5,0.6-3.6,1.2c-2.6-6.8-9.3-11.6-17-11.6C11.2,23.4,3,31.6,3,41.6c0,9.3,7,17,16,18.1l0.5,2.3c0,0.2,0.1,0.5,0.1,0.7
		L32,116.1l0,0l0,0l0,0.1l3.7,16.2c1.3,5.5,6.1,9.3,11.7,9.3H48c3.7,5,9.7,8.2,16.3,8.2c6.6,0,12.5-3.2,16.3-8.2H89
		c3.7,5,9.7,8.2,16.3,8.2c6.6,0,12.5-3.2,16.3-8.2h0.1c6.6,0,12-5.4,12-12.1c0-2.2-0.6-4.3-1.7-6.1c2.9-1.8,5.1-4.8,5.6-8.5
		l8.2-53.3c0.5-3.5-0.5-7-2.8-9.7c-0.4-0.4-0.8-0.8-1.2-1.2v-9.4c0-6.6-5.4-12.1-12-12.1h-10.8L118,18C117.4,11.7,112.3,7,106,7
		L106,7z"/>
</g>
<path class="st1" d="M135.5,58.7c-0.4-0.5-1-0.7-1.6-0.7h-2V41.6c0-1.1-0.9-2.1-2-2.1h-19.9l-1.9-20.7c-0.1-1.1-1.1-1.9-2.2-1.9
	l-53.1,4.2c-0.5,0-1.1,0.3-1.4,0.7c-0.4,0.4-0.5,1-0.5,1.5l1.8,20.2h-8.9c-1.1,0-2,0.9-2,2.1V58h-8.6l-3.7-16.1c0-0.1,0-0.2,0-0.3
	c0-4.5-3.7-8.2-8.2-8.2c-4.5,0-8.2,3.7-8.2,8.2c0,4.5,3.7,8.2,8.2,8.2c2,0,3.9-0.8,5.4-2l2.9,12.4c0,0.1,0,0.2,0,0.3l12.3,53.3
	c0,0,0,0,0,0l3.8,16.4c0.2,0.9,1,1.6,2,1.6h6.7c1,4.7,5.1,8.2,10,8.2c4.9,0,9.1-3.5,10-8.2h20.9c1,4.7,5.1,8.2,10,8.2
	c5,0,9.1-3.5,10-8.2h6.4c1.1,0,2-0.9,2-2.1c0-1.1-0.9-2.1-2-2.1h-6.4c-1-4.7-5.1-8.2-10-8.2c-4.9,0-9.1,3.5-10,8.2H74.3
	c-1-4.7-5.1-8.2-10-8.2c-5,0-9.1,3.5-10,8.2h-5l-2.8-12.3h79.4c1,0,1.9-0.7,2-1.7l8.2-53.3C136.1,59.8,135.9,59.2,135.5,58.7z
	 M105.3,123.6c3.4,0,6.2,2.8,6.2,6.2c0,3.4-2.8,6.2-6.2,6.2c-3.4,0-6.2-2.8-6.2-6.2C99.1,126.4,101.9,123.6,105.3,123.6z
	 M64.3,123.6c3.4,0,6.1,2.8,6.1,6.2c0,3.4-2.8,6.2-6.1,6.2c-3.4,0-6.2-2.8-6.2-6.2C58.1,126.4,60.9,123.6,64.3,123.6z M127.8,58
	h-24.6V44l3.6-0.3h21V58z M78.6,58v-6.2h20.5V58H78.6z M99.1,44.3v3.5H78.6v-1.9L99.1,44.3z M104.2,21.2l1.6,18.4l-49.1,3.8
	l-1.6-18.3L104.2,21.2z M45.8,47.7h28.7V58H45.8V47.7z M21.2,45.7c-2.3,0-4.1-1.8-4.1-4.1c0-2.3,1.8-4.1,4.1-4.1
	c2.3,0,4.1,1.8,4.1,4.1C25.3,43.9,23.5,45.7,21.2,45.7z M124,111.3H45.4L34.1,62.1h9.7h32.8h24.6h28.7h1.7L124,111.3z"/>
</svg>
