<?xml version="1.0" encoding="utf-8"?>
<!-- Generator: Adobe Illustrator 21.0.2, SVG Export Plug-In . SVG Version: 6.00 Build 0)  -->
<svg version="1.1" xmlns="http://www.w3.org/2000/svg"  x="0px" y="0px" width="150px"
	 height="150px" viewBox="0 0 150 150" style="enable-background:new 0 0 150 150;" xml:space="preserve">
<style type="text/css">
	.st0{fill-rule:evenodd;clip-rule:evenodd;fill:#FFFFFF;}
	.st1{fill:#FFFFFF;}
	.st2{fill:#00509F;}
	.st3{fill-rule:evenodd;clip-rule:evenodd;fill:#00509F;}
</style>
<g id="Layer_1_copy">
	<g>
		<g>
			<g>
				<path class="st0" d="M106.1,28.1c-4.5,0-8.9,1.3-12.9,3.9C87.6,21,77.7,14.2,67,14.2h-0.1c-6.4,0-12.5,2.4-17.7,6.9
					c-0.7,0.6-0.8,1.8-0.2,2.6c0.6,0.8,1.7,0.9,2.5,0.2c4.6-4,10-6,15.6-6c9.6,0,18.4,6.2,23.4,16.4c0,0-0.1,0.1-0.1,0.1
					c-0.7,0.6-0.8,1.8-0.2,2.6c0.6,0.8,1.7,0.9,2.5,0.2c4-3.5,8.7-5.3,13.6-5.3c13.2,0,24,13.4,24,30c0,5.3-1.1,10.5-3.3,15.1
					c-0.4,0.9-0.1,2,0.8,2.4c0.2,0.1,0.5,0.2,0.8,0.2c0.7,0,1.3-0.4,1.6-1c2.3-5,3.6-10.7,3.6-16.5v-0.2
					C133.6,43.2,121.2,28.1,106.1,28.1z"/>
				<path class="st1" d="M67,14.2c10.7,0,20.6,6.8,26.2,17.9c3.9-2.6,8.3-3.9,12.9-3.9c15.2,0,27.5,15.1,27.5,33.6v0.2
					c0,5.8-1.3,11.5-3.6,16.5c-0.3,0.7-0.9,1-1.6,1c-0.3,0-0.5-0.1-0.8-0.2c-0.9-0.4-1.2-1.5-0.8-2.4c2.1-4.6,3.3-9.8,3.3-15.1
					c0-16.5-10.8-30-24-30c-4.9,0-9.6,1.8-13.6,5.3c-0.3,0.3-0.7,0.4-1.1,0.4c-0.5,0-1-0.2-1.4-0.7c-0.6-0.8-0.5-1.9,0.2-2.6
					c0,0,0.1-0.1,0.1-0.1c-5-10.1-13.8-16.4-23.4-16.4c-5.6,0-11,2.1-15.6,6c-0.3,0.3-0.7,0.4-1.1,0.4c-0.5,0-1-0.2-1.4-0.7
					c-0.6-0.8-0.5-1.9,0.2-2.6c5.2-4.5,11.3-6.9,17.7-6.9H67 M67,4.2L67,4.2h-0.1c-8.8,0-17.2,3.3-24.3,9.3
					c-4.9,4.2-5.5,11.4-1.5,16.4c2.2,2.8,5.6,4.4,9.1,4.4c2.8,0,5.5-1,7.7-2.8c2.8-2.4,5.8-3.6,9-3.6c4.7,0,9.3,2.9,12.6,7.7
					c0,2.7,0.8,5.4,2.7,7.6c2.2,2.8,5.6,4.4,9.1,4.4c2.8,0,5.5-1,7.7-2.8c2.2-1.9,4.6-2.9,7.1-2.9c7.6,0,14,9.1,14,20
					c0,3.8-0.8,7.6-2.3,10.8c-2.7,5.8-0.3,12.8,5.4,15.6c1.6,0.8,3.4,1.2,5.2,1.2c4.5,0,8.7-2.7,10.6-6.8c3-6.3,4.5-13.5,4.5-20.7
					l0-0.2c0-24-16.9-43.6-37.5-43.6c-3.1,0-6.2,0.4-9.1,1.3C89.3,9.9,78.4,4.2,67,4.2L67,4.2L67,4.2z"/>
			</g>
			<g>
				<path class="st0" d="M107.7,96.1c0.8,0.9,1.6,2,2,2.8h-2c0,0,0,0,0,0h-2C106.1,98.1,106.9,97,107.7,96.1L107.7,96.1z M68.8,94.2
					C68.8,94.2,68.8,94.2,68.8,94.2h-2.6c0.3-1.1,1.5-2.6,2.6-3.8c1.1,1.2,2.3,2.7,2.6,3.8H68.8L68.8,94.2z M123,129.6
					c-3.1,2.3-8,0.5-10.3-2.7c-2.6-3.7-2.9-7.9-3.3-12.7l0-0.2c-0.3-3.8-0.3-7.7,0-11.5h0.8c1,0,2-0.5,2.6-1.3
					c0.6-0.8,0.8-1.9,0.5-2.9l0,0c-0.3-1.2-1.1-2.5-2-3.5c4.2-1,8.2-3.2,11.7-6.4c0.7-0.7,0.8-1.8,0.1-2.6c-0.7-0.7-1.8-0.8-2.5-0.1
					c-4.2,4-9.2,6.1-14.5,6.1c-13.2,0-24-13.4-24-30c0-5.8,1.3-11.4,3.9-16.3c0.5-0.9,0.1-2-0.7-2.5c-0.9-0.5-1.9-0.1-2.4,0.7
					c-2.8,5.4-4.3,11.6-4.3,18c0,6.6,1.6,12.8,4.3,18c-4.7,4.2-10.1,6.4-15.9,6.4c-15.1,0-27.4-15.3-27.4-34.1
					c0-6.6,1.5-13,4.4-18.5c0.5-0.9,0.1-2-0.7-2.5c-0.9-0.5-1.9-0.1-2.4,0.7C37.7,37.7,36,44.7,36,51.9c0,20,12.7,36.4,28.8,37.7
					c-0.9,1.2-1.7,2.5-2.1,3.7c-0.3,1.1-0.1,2.2,0.6,3.1c0.7,0.9,1.7,1.4,2.7,1.4h0.6c-0.2,2.6,0.2,6.8,3.9,11.7
					c0.7,1,1.5,1.9,2.2,2.8c1.5,1.9,3,3.6,4.2,5.7c0.3,0.4,0.5,0.8,0.8,1.2c0.6,0.9,1.1,1.7,1.5,2.6c0.9,2.2,1.1,4.6,0.5,6.8
					c-1.6,5.7-7.6,6.5-12.3,6.1c-2.5-0.2-6.8-1-7.8-4.1c-0.3-1-1.3-1.5-2.2-1.2c-0.9,0.3-1.4,1.3-1.1,2.3c1.2,3.8,5.1,6.1,10.9,6.6
					c0.7,0.1,1.5,0.1,2.2,0.1c7.3,0,12.1-3.1,13.7-8.8c0.8-3,0.6-6.2-0.6-9.2c-0.5-1.2-1.1-2.2-1.8-3.2c-0.3-0.4-0.5-0.8-0.7-1.1
					c-1.4-2.3-3-4.2-4.5-6.1c-0.7-0.9-1.5-1.8-2.2-2.7c-3.3-4.2-3.4-7.7-3.2-9.4h1.3c1.1,0,2.1-0.5,2.7-1.4c0.7-0.9,0.9-2,0.6-3.1
					l0,0c-0.4-1.4-1.4-3-2.4-4.2c4.4-1,8.6-3.1,12.3-6.3c4.6,6.9,11.4,11.6,19.1,12.4c-0.7,1-1.3,2-1.6,3.1c-0.3,1-0.1,2.1,0.5,2.9
					c0.6,0.8,1.6,1.3,2.6,1.3h0.5c-0.3,3.9-0.3,7.9,0,11.8l0,0.2c0.4,5.2,0.8,10.1,4,14.6c1.6,2.3,4.1,4,6.8,4.8c1,0.3,2,0.4,3,0.4
					c2,0,3.8-0.6,5.4-1.8c0.8-0.6,1-1.7,0.4-2.5C124.9,129.2,123.8,129,123,129.6z"/>
				<path class="st1" d="M42.4,30.7c0.3,0,0.6,0.1,0.8,0.2c0.9,0.5,1.2,1.6,0.7,2.5c-2.9,5.5-4.4,11.9-4.4,18.5
					c0,18.8,12.3,34.1,27.4,34.1c5.8,0,11.2-2.2,15.9-6.4c-2.7-5.2-4.3-11.4-4.3-18c0-6.4,1.5-12.6,4.3-18c0.3-0.6,0.9-1,1.6-1
					c0.3,0,0.6,0.1,0.8,0.2c0.9,0.5,1.2,1.6,0.7,2.5c-2.5,4.9-3.9,10.5-3.9,16.3c0,16.5,10.8,30,24,30c5.3,0,10.3-2.1,14.5-6.1
					c0.3-0.3,0.8-0.5,1.2-0.5c0.5,0,1,0.2,1.3,0.6c0.7,0.7,0.6,1.9-0.1,2.6c-3.5,3.3-7.4,5.5-11.7,6.4c0.8,1.1,1.7,2.3,2,3.5
					c0.3,1,0.1,2.1-0.5,2.9c-0.6,0.8-1.6,1.3-2.6,1.3h-0.8c-0.3,3.8-0.3,7.7,0,11.5l0,0.2c0.4,4.9,0.7,9.1,3.3,12.7
					c1.5,2.2,4.3,3.7,6.9,3.7c1.2,0,2.4-0.3,3.3-1.1c0.3-0.2,0.7-0.3,1-0.3c0.5,0,1.1,0.3,1.4,0.8c0.6,0.8,0.4,2-0.4,2.5
					c-1.6,1.2-3.4,1.8-5.4,1.8c-1,0-2-0.1-3-0.4c-2.7-0.8-5.2-2.5-6.8-4.8c-3.2-4.5-3.6-9.4-4-14.6l0-0.2c-0.3-3.9-0.3-7.8,0-11.8
					h-0.5c-1,0-2-0.5-2.6-1.3c-0.6-0.8-0.8-1.9-0.5-2.9c0.3-1,0.9-2.1,1.6-3.1c-7.7-0.8-14.5-5.4-19.1-12.4
					c-3.7,3.2-7.9,5.3-12.3,6.3c1,1.3,2.1,2.8,2.4,4.2c0.3,1.1,0.1,2.2-0.6,3.1c-0.7,0.9-1.7,1.4-2.7,1.4h-1.3
					c-0.2,1.7-0.1,5.2,3.2,9.4c0.7,0.9,1.4,1.8,2.2,2.7c1.6,1.9,3.2,3.8,4.5,6.1c0.2,0.4,0.5,0.7,0.7,1.1c0.6,1,1.3,2,1.8,3.2
					c1.2,3,1.4,6.3,0.6,9.2c-1.6,5.7-6.5,8.8-13.7,8.8c-0.7,0-1.4,0-2.2-0.1c-5.8-0.5-9.7-2.8-10.9-6.6c-0.3-1,0.2-2,1.1-2.3
					c0.2-0.1,0.4-0.1,0.5-0.1c0.7,0,1.4,0.5,1.7,1.3c1,3.1,5.3,3.9,7.8,4.1c0.6,0,1.3,0.1,1.9,0.1c4.3,0,8.9-1.2,10.3-6.2
					c0.6-2.2,0.4-4.6-0.5-6.8c-0.3-0.8-0.9-1.7-1.5-2.6c-0.3-0.4-0.5-0.8-0.8-1.2c-1.2-2.1-2.7-3.8-4.2-5.7
					c-0.7-0.9-1.5-1.8-2.2-2.8c-3.7-4.8-4.2-9.1-3.9-11.7h-0.6c-1.1,0-2.1-0.5-2.7-1.4c-0.7-0.9-0.9-2-0.6-3.1
					c0.3-1.2,1.2-2.6,2.1-3.7C48.7,88.3,36,71.9,36,51.9c0-7.2,1.7-14.2,4.8-20.3C41.1,31.1,41.7,30.7,42.4,30.7 M66.2,94.2h2.6
					c0,0,0,0,0,0h2.6c-0.3-1.1-1.5-2.6-2.6-3.8C67.7,91.6,66.5,93.2,66.2,94.2 M105.7,98.9h2c0,0,0,0,0,0h2c-0.4-0.8-1.2-1.9-2-2.8
					C106.9,97,106.1,98.1,105.7,98.9 M42.4,20.7L42.4,20.7c-4.4,0-8.4,2.4-10.4,6.3C28.1,34.5,26,43.1,26,51.9
					c0,11.8,3.7,23.2,10.4,31.9c4.5,5.9,10.2,10.3,16.4,13c0.4,2,1.2,3.9,2.4,5.6c0.6,0.8,1.2,1.5,2,2.1c0.8,3.4,2.4,7.1,5.4,11.1
					c0.8,1.1,1.7,2.1,2.4,3c1.4,1.7,2.5,3.1,3.4,4.5c0.3,0.5,0.6,1,1,1.5c0,0,0.1,0.1,0.1,0.1c0,0-0.1,0-0.1,0c-0.4,0-0.7,0-1.1,0
					c-0.1,0-0.3,0-0.4,0c-2.1-3.3-5.8-5.3-9.8-5.3c-1.3,0-2.5,0.2-3.7,0.6c-6.1,2-9.4,8.7-7.5,14.8c2.5,7.8,9.6,12.8,19.6,13.6
					c1,0.1,2,0.1,3,0.1c11.8,0,20.5-6,23.4-16.1c1.4-5.1,1.1-10.7-0.9-15.7c-0.8-2-1.9-3.7-2.6-4.8c-0.2-0.3-0.4-0.6-0.5-0.8
					c-1.8-2.9-3.7-5.3-5.4-7.4c-0.3-0.4-0.6-0.8-0.9-1.2c0,0,0,0,0,0c1.1-1.5,1.9-3.1,2.3-4.9c2.4,2,5.1,3.6,7.9,4.9
					c0.4,1.7,1.2,3.3,2.2,4.8c0.3,0.4,0.6,0.8,0.9,1.1c0,2.3,0.1,4.6,0.3,6.8l0,0.2c0.5,5.8,1,12.9,5.8,19.6
					c2.9,4.1,7.2,7.2,12.1,8.6c1.9,0.6,3.9,0.8,5.8,0.8c4.1,0,8.1-1.3,11.4-3.7c5.2-3.8,6.3-11,2.6-16.3c-2.2-3.1-5.8-5-9.6-5
					c-1.3,0-2.6,0.2-3.8,0.6c-0.5-1.4-0.7-3.5-0.9-6.5l0-0.2c-0.1-1.4-0.2-2.8-0.2-4.3c0.6-0.6,1.1-1.2,1.6-1.8
					c1.5-2,2.3-4.3,2.5-6.6c2.3-1.4,4.4-3,6.5-4.9c4.7-4.4,5-11.7,0.7-16.5c-2.2-2.5-5.4-4-8.8-4c-3,0-5.9,1.1-8.1,3.2
					c-2.3,2.2-4.9,3.3-7.6,3.3c-7.6,0-14-9.1-14-20c0-4.2,0.9-8.2,2.7-11.7c2.9-5.6,0.8-12.7-4.7-15.8c-1.7-1-3.7-1.5-5.7-1.5
					c-4.4,0-8.4,2.4-10.4,6.3c-3.5,6.8-5.4,14.6-5.4,22.6c0,4.7,0.7,9.4,1.9,13.8c-1.2,0.3-2.3,0.5-3.5,0.5
					c-9.4,0-17.4-11.1-17.4-24.1c0-5,1.1-9.8,3.3-13.9c2.9-5.6,0.8-12.7-4.7-15.8C46.3,21.2,44.4,20.7,42.4,20.7L42.4,20.7z"/>
			</g>
		</g>
		<g>
			<path class="st0" d="M77.1,108.5c3.7,1.2,7.8-2,9-5.8c1.4-4.3,0.5-8.4-0.6-13.2l0-0.2c-0.7-3.1-1.6-6.2-2.7-9.2h3.8
				c1,2.7,1.8,5.5,2.4,8.4l0,0.2c1.1,5.1,2.2,9.8,0.5,15.2c-0.9,2.7-2.7,5.1-5,6.7c-0.9,0.6-1.8,1.1-2.7,1.4c-1.9,0.6-3.8,0.6-5.7,0
				c-0.9-0.3-1.4-1.3-1.1-2.3C75.2,108.7,76.2,108.2,77.1,108.5z"/>
			<path class="st1" d="M86.5,80.2c1,2.7,1.8,5.5,2.4,8.4l0,0.2c1.1,5.1,2.2,9.8,0.5,15.2c-0.9,2.7-2.7,5.1-5,6.7
				c-0.9,0.6-1.8,1.1-2.7,1.4c-1,0.3-1.9,0.5-2.9,0.5c-0.9,0-1.9-0.1-2.8-0.5c-0.9-0.3-1.4-1.3-1.1-2.3c0.2-0.8,0.9-1.3,1.7-1.3
				c0.2,0,0.4,0,0.5,0.1c0.5,0.2,1.1,0.3,1.6,0.3c3.2,0,6.3-2.8,7.4-6c1.4-4.3,0.5-8.4-0.6-13.2l0-0.2c-0.7-3.1-1.6-6.2-2.7-9.2
				H86.5 M93.6,70.2h-7.1h-3.8H68.4l4.9,13.4c1,2.6,1.7,5.3,2.4,8l0,0.2c0.7,3.1,1.1,5.1,1.1,6.7c-0.1,0-0.2,0-0.2,0
				c-5.2,0-9.7,3.3-11.2,8.3c-1.9,6.1,1.5,12.7,7.5,14.8c1.9,0.6,3.9,1,5.9,1c2,0,4.1-0.3,6.1-1c1.8-0.6,3.6-1.5,5.2-2.6
				c4.2-2.9,7.4-7.1,8.9-11.9c2.6-7.9,1-14.9-0.3-20.4l0-0.2c-0.7-3.2-1.6-6.3-2.7-9.4L93.6,70.2L93.6,70.2z"/>
		</g>
		<g>
			<path class="st0" d="M69.9,14.7c8.5-4.4,17.9-4.9,25.8-1l0.1,0.1c5.8,2.9,10.3,7.8,13.1,14.1c0.4,0.9,0,2-0.9,2.4
				c-0.9,0.4-1.9,0-2.3-0.9c-2.5-5.6-6.4-9.9-11.5-12.4c-6.2-3.1-13.4-3.1-20.2-0.3L69.9,14.7z"/>
			<path class="st1" d="M84.1,11c4,0,8,0.9,11.6,2.7l0.1,0.1c5.8,2.9,10.3,7.8,13.1,14.1c0.4,0.9,0,2-0.9,2.4
				c-0.2,0.1-0.5,0.2-0.7,0.2c-0.7,0-1.3-0.4-1.6-1.1c-2.5-5.6-6.4-9.9-11.5-12.4c-3.2-1.6-6.6-2.3-10.1-2.3
				c-3.3,0-6.8,0.7-10.1,2.1l-4.1-2.1C74.5,12.3,79.4,11,84.1,11 M84.1,1L84.1,1c-6.4,0-12.9,1.7-18.9,4.8l-17.3,9.1l17.5,8.7
				l4.1,2.1l4.1,2l4.2-1.7c2.1-0.9,4.2-1.3,6.3-1.3c2,0,3.9,0.4,5.7,1.3c2.9,1.4,5.3,4,6.8,7.5c1.9,4.3,6.1,7,10.8,7
				c1.7,0,3.4-0.4,5-1.1c5.8-2.7,8.3-9.7,5.8-15.5c-3.8-8.5-9.9-15.1-17.8-19.1l-0.1-0.1C95.2,2.3,89.8,1,84.1,1L84.1,1z"/>
		</g>
		<g>
			<ellipse class="st0" cx="67.2" cy="50.3" rx="31.2" ry="36.8"/>
			<path class="st1" d="M67.2,13.6c17.2,0,31.2,16.5,31.2,36.8S84.4,87.1,67.2,87.1S36,70.6,36,50.3S50,13.6,67.2,13.6 M67.2,3.6
				C44.5,3.6,26,24.5,26,50.3s18.5,46.8,41.2,46.8s41.2-21,41.2-46.8S89.9,3.6,67.2,3.6L67.2,3.6z"/>
		</g>
		<g>
			<ellipse class="st0" cx="103.6" cy="63.3" rx="30" ry="34.2"/>
			<path class="st1" d="M103.6,29c16.6,0,30,15.3,30,34.2s-13.4,34.2-30,34.2s-30-15.3-30-34.2S87,29,103.6,29 M103.6,19
				c-22.1,0-40,19.8-40,44.2s17.9,44.2,40,44.2s40-19.8,40-44.2S125.7,19,103.6,19L103.6,19z"/>
		</g>
		<g>
			<ellipse class="st0" cx="84.9" cy="50.3" rx="31.2" ry="36.8"/>
			<path class="st1" d="M84.9,13.6c17.2,0,31.2,16.5,31.2,36.8s-13.9,36.8-31.2,36.8S53.8,70.6,53.8,50.3S67.7,13.6,84.9,13.6
				 M84.9,3.6c-22.7,0-41.2,21-41.2,46.8s18.5,46.8,41.2,46.8s41.2-21,41.2-46.8S107.6,3.6,84.9,3.6L84.9,3.6z"/>
		</g>
	</g>
	<g>
		<path class="st2" d="M72,66.4c0.9,0,1.6,0.8,1.6,1.7c0,1-0.7,1.7-1.6,1.7H54c-0.9,0-1.6-0.6-1.6-1.8c0-4.7,0.9-7.1,3.2-9.5
			c3.2-3.3,7.4-4.6,10.8-7.3c1.8-1.4,3-3.1,3-5.8c0-1.7-0.5-3.2-1.6-4.4c-1.2-1.3-3-2.1-5.3-2.1c-1.7,0-3.3,0.4-4.7,1.1
			c-1.7,0.9-2.4,1.7-3.2,1.7c-1,0-1.7-0.6-1.7-1.7c0-1.2,1.9-2.5,3.4-3.1c2.1-0.9,4.2-1.3,6.5-1.3c3.3,0,6.1,1.2,7.9,3.3
			c1.4,1.6,2.3,3.9,2.3,6.5c0,3.7-1.6,6.1-4,8.1c-3.5,2.9-7.5,4.2-10.5,7c-1.5,1.5-2,3-2,6H72z"/>
	</g>
	<g>
		<g>
			<g>
				<path class="st3" d="M106.1,28.4c-4.5,0-8.9,1.3-12.8,3.9c-5.6-11-15.4-17.8-26.1-17.9H67c-6.4,0-12.5,2.4-17.7,6.9
					c-0.7,0.6-0.8,1.8-0.2,2.6c0.6,0.8,1.7,0.9,2.5,0.2c4.6-4,9.9-6,15.5-6c9.5,0,18.4,6.2,23.3,16.4c0,0-0.1,0.1-0.1,0.1
					c-0.7,0.6-0.8,1.8-0.2,2.6c0.6,0.8,1.7,0.9,2.5,0.2c4-3.5,8.7-5.3,13.6-5.3c13.2,0,23.9,13.4,23.9,30c0,5.3-1.1,10.5-3.2,15.1
					c-0.4,0.9-0.1,2,0.8,2.4c0.2,0.1,0.5,0.2,0.8,0.2c0.7,0,1.3-0.4,1.6-1c2.3-5,3.6-10.7,3.6-16.5v-0.2
					C133.5,43.4,121.2,28.4,106.1,28.4z"/>
				<path class="st2" d="M128.3,79.9c-0.3,0-0.6-0.1-0.9-0.2c-1-0.5-1.4-1.7-0.9-2.7c2.1-4.5,3.2-9.7,3.2-15
					c0-16.4-10.6-29.7-23.7-29.7c-4.8,0-9.5,1.8-13.4,5.2c-0.4,0.4-0.9,0.5-1.4,0.5c-0.5,0-1-0.3-1.4-0.7c-0.7-0.9-0.6-2.1,0.2-2.9
					c-4.9-9.9-13.7-16.1-23-16.1c-5.5,0-10.8,2.1-15.4,6c-0.4,0.4-0.9,0.5-1.4,0.5c-0.5,0-1-0.3-1.4-0.7c-0.7-0.9-0.6-2.2,0.3-2.9
					c5.2-4.5,11.4-6.9,17.8-6.9h0.1c10.7,0,20.5,6.7,26.2,17.8c3.9-2.5,8.3-3.8,12.8-3.8c15.2,0,27.7,15.2,27.7,33.8v0.2
					c0,5.8-1.3,11.6-3.6,16.6C129.8,79.4,129.1,79.9,128.3,79.9z M106.1,31.8c13.3,0,24.2,13.5,24.2,30.2c0,5.3-1.1,10.6-3.3,15.2
					c-0.4,0.8,0,1.8,0.7,2.1c0.2,0.1,0.4,0.2,0.7,0.2c0.6,0,1.1-0.3,1.4-0.9c2.3-5,3.6-10.7,3.6-16.4v-0.2
					c0-18.4-12.2-33.3-27.2-33.3c-4.5,0-8.8,1.3-12.7,3.9l-0.2,0.1L93,32.4c-5.6-11.1-15.3-17.7-25.9-17.7H67
					c-6.3,0-12.4,2.4-17.5,6.8c-0.7,0.6-0.7,1.6-0.2,2.3c0.3,0.3,0.6,0.5,1,0.6c0.4,0,0.8-0.1,1.1-0.4c4.6-4,10-6.1,15.6-6.1
					c9.5,0,18.5,6.3,23.5,16.5l0.1,0.2l-0.2,0.2c-0.7,0.6-0.7,1.6-0.2,2.3c0.3,0.3,0.6,0.5,1,0.6c0.4,0,0.8-0.1,1.1-0.4
					C96.4,33.6,101.1,31.8,106.1,31.8z"/>
			</g>
			<g>
				<path class="st3" d="M107.7,96.3c0.8,0.9,1.6,2,2,2.8h-2c0,0,0,0,0,0h-2C106.1,98.3,106.9,97.3,107.7,96.3L107.7,96.3z
					 M68.9,94.5C68.9,94.5,68.9,94.5,68.9,94.5h-2.6c0.3-1.1,1.5-2.6,2.6-3.8c1.1,1.2,2.3,2.7,2.6,3.8H68.9L68.9,94.5z M122.9,129.9
					c-3.1,2.3-8,0.5-10.2-2.7c-2.6-3.7-2.9-7.9-3.3-12.7l0-0.2c-0.3-3.8-0.3-7.7,0-11.5h0.8c1,0,2-0.5,2.6-1.3
					c0.6-0.8,0.8-1.9,0.5-2.9l0,0c-0.3-1.2-1.1-2.5-2-3.5c4.2-1,8.2-3.2,11.6-6.4c0.7-0.7,0.8-1.8,0.1-2.6c-0.7-0.7-1.8-0.8-2.5-0.1
					c-4.2,4-9.2,6.1-14.4,6.1c-13.2,0-23.9-13.4-23.9-30c0-5.8,1.3-11.4,3.8-16.3c0.5-0.9,0.1-2-0.7-2.5c-0.9-0.5-1.9-0.1-2.4,0.7
					c-2.8,5.4-4.3,11.6-4.3,18c0,6.6,1.6,12.8,4.3,18c-4.6,4.2-10.1,6.4-15.8,6.4C52,86.3,39.7,71,39.7,52.2c0-6.6,1.5-13,4.4-18.5
					c0.5-0.9,0.1-2-0.7-2.5c-0.9-0.5-1.9-0.1-2.4,0.7C37.9,38,36.2,45,36.2,52.2c0,20,12.7,36.4,28.7,37.7c-0.9,1.2-1.7,2.5-2.1,3.7
					c-0.3,1.1-0.1,2.2,0.6,3.1c0.7,0.9,1.6,1.4,2.7,1.4h0.6c-0.2,2.6,0.2,6.8,3.9,11.7c0.7,1,1.5,1.9,2.2,2.8c1.5,1.9,3,3.6,4.2,5.7
					c0.3,0.4,0.5,0.8,0.8,1.2c0.6,0.9,1.1,1.7,1.4,2.6c0.9,2.2,1.1,4.6,0.5,6.8c-1.6,5.7-7.5,6.5-12.2,6.1c-2.5-0.2-6.8-1-7.7-4.1
					c-0.3-1-1.3-1.5-2.2-1.2c-0.9,0.3-1.4,1.3-1.1,2.3c1.2,3.8,5,6.1,10.8,6.6c0.7,0.1,1.5,0.1,2.2,0.1c7.2,0,12.1-3.1,13.7-8.8
					c0.8-3,0.6-6.2-0.6-9.2c-0.5-1.2-1.1-2.2-1.8-3.2c-0.3-0.4-0.5-0.8-0.7-1.1c-1.4-2.3-3-4.2-4.5-6.1c-0.7-0.9-1.5-1.8-2.2-2.7
					c-3.2-4.2-3.4-7.7-3.2-9.4h1.3c1.1,0,2.1-0.5,2.7-1.4c0.7-0.9,0.9-2,0.6-3.1l0,0c-0.4-1.4-1.4-3-2.4-4.2c4.4-1,8.6-3.1,12.3-6.3
					c4.6,6.9,11.4,11.6,19.1,12.4c-0.7,1-1.3,2-1.6,3.1c-0.3,1-0.1,2.1,0.5,2.9c0.6,0.8,1.6,1.3,2.6,1.3h0.5
					c-0.3,3.9-0.3,7.9,0,11.8l0,0.2c0.4,5.2,0.8,10.1,4,14.6c1.6,2.3,4.1,4,6.7,4.8c1,0.3,2,0.4,3,0.4c2,0,3.8-0.6,5.4-1.8
					c0.8-0.6,1-1.7,0.4-2.5C124.8,129.5,123.7,129.3,122.9,129.9z"/>
				<path class="st2" d="M69.5,138.9c-0.7,0-1.4,0-2.2-0.1c-5.9-0.5-9.8-2.9-11-6.8c-0.3-1.1,0.2-2.2,1.3-2.6c0.5-0.2,1-0.1,1.5,0.1
					c0.5,0.2,0.8,0.7,1,1.2c0.9,3,5.1,3.7,7.6,3.9c4.6,0.4,10.4-0.4,12-6c0.6-2.1,0.4-4.5-0.4-6.6c-0.3-0.8-0.9-1.7-1.4-2.5
					c-0.3-0.4-0.5-0.8-0.8-1.2c-1.2-2-2.7-3.8-4.2-5.7c-0.7-0.8-1.5-1.8-2.2-2.8c-3.6-4.7-4.2-8.8-4-11.6h-0.3
					c-1.2,0-2.2-0.5-2.9-1.5c-0.7-0.9-0.9-2.1-0.6-3.3c0.3-1,0.9-2.2,1.8-3.5C48.5,88.5,36,71.9,36,52.2c0-7.2,1.7-14.3,4.8-20.4
					c0.3-0.5,0.7-0.8,1.2-1c0.5-0.2,1-0.1,1.5,0.2c1,0.5,1.3,1.8,0.8,2.8C41.5,39.2,40,45.6,40,52.2C40,70.9,52.1,86.1,67,86.1
					c5.6,0,11-2.1,15.6-6.2c-2.8-5.4-4.2-11.6-4.2-17.9c0-6.4,1.5-12.7,4.3-18.1c0.3-0.5,0.7-0.8,1.2-1c0.5-0.2,1-0.1,1.5,0.2
					c1,0.5,1.3,1.8,0.8,2.8c-2.5,4.8-3.8,10.4-3.8,16.2c0,16.4,10.6,29.7,23.7,29.7c5.2,0,10.1-2.1,14.3-6c0.4-0.4,0.9-0.6,1.4-0.5
					c0.5,0,1,0.3,1.4,0.7c0.7,0.8,0.7,2.1-0.1,2.9c-3.4,3.2-7.2,5.4-11.4,6.4c0.9,1.2,1.5,2.4,1.8,3.3c0.3,1.1,0.1,2.2-0.6,3.1
					c-0.7,0.9-1.7,1.4-2.8,1.4h-0.6c-0.3,3.7-0.3,7.5,0,11.2l0,0.2c0.4,4.8,0.7,9,3.3,12.6c1.3,1.8,3.5,3.2,5.7,3.5
					c1.6,0.3,3.1-0.1,4.3-0.9c0.4-0.3,0.9-0.4,1.5-0.4c0.5,0.1,1,0.4,1.3,0.8c0.6,0.9,0.4,2.2-0.5,2.9c-2.4,1.8-5.5,2.3-8.6,1.4
					c-2.7-0.8-5.2-2.6-6.9-4.9c-3.2-4.6-3.6-9.5-4-14.7l0-0.2c-0.3-3.8-0.3-7.7-0.1-11.6h-0.2c-1.1,0-2.1-0.5-2.8-1.4
					c-0.7-0.9-0.9-2-0.6-3.1c0.2-0.8,0.7-1.8,1.4-2.8c-7.3-0.9-14-5.3-18.7-12.2c-3.6,3-7.6,5.1-11.8,6.1c1.2,1.5,1.9,2.9,2.3,4
					c0.3,1.1,0.1,2.3-0.6,3.3c-0.7,1-1.8,1.5-2.9,1.5h-1.1c-0.2,1.7,0.1,5,3.1,9c0.7,0.9,1.5,1.9,2.2,2.7c1.6,1.9,3.2,3.9,4.5,6.2
					c0.2,0.4,0.4,0.7,0.7,1.1c0.7,1,1.3,2,1.8,3.2c1.2,3,1.4,6.4,0.6,9.4C81.8,135.7,76.8,138.9,69.5,138.9z M58.2,129.8
					c-0.2,0-0.3,0-0.5,0.1c-0.8,0.3-1.2,1.2-1,2c1.2,3.7,4.9,6,10.6,6.4c0.7,0.1,1.5,0.1,2.2,0.1c7.1,0,11.9-3.1,13.5-8.7
					c0.8-2.9,0.6-6.1-0.6-9.1c-0.5-1.1-1.1-2.2-1.7-3.1c-0.3-0.4-0.5-0.8-0.7-1.1c-1.4-2.3-3-4.2-4.5-6.1c-0.7-0.8-1.5-1.8-2.2-2.7
					c-3.3-4.3-3.4-7.8-3.2-9.6l0-0.2h1.5c1,0,1.9-0.5,2.5-1.3c0.6-0.8,0.8-1.9,0.5-2.9c-0.3-1.2-1.1-2.6-2.4-4.1l-0.2-0.3l0.4-0.1
					c4.4-1,8.5-3,12.2-6.2l0.2-0.2l0.1,0.2c4.7,7.1,11.6,11.5,18.9,12.3l0.4,0l-0.2,0.3c-0.8,1.1-1.3,2.1-1.6,3
					c-0.3,0.9-0.1,1.9,0.5,2.7c0.6,0.8,1.4,1.2,2.4,1.2h0.7l0,0.2c-0.3,3.9-0.3,7.9,0,11.7l0,0.2c0.4,5.2,0.8,10,3.9,14.5
					c1.6,2.2,4,3.9,6.6,4.7c3,0.9,5.9,0.4,8.2-1.3c0.7-0.5,0.8-1.5,0.3-2.2c-0.2-0.3-0.6-0.6-1-0.6c-0.4-0.1-0.8,0-1.1,0.3l-0.1-0.2
					l0.1,0.2c-1.3,0.9-2.8,1.3-4.6,1c-2.3-0.4-4.6-1.8-6-3.7c-2.6-3.7-3-8-3.4-12.9l0-0.2c-0.3-3.8-0.3-7.7,0-11.5l0-0.2h1
					c0.9,0,1.8-0.4,2.4-1.2c0.6-0.8,0.8-1.8,0.5-2.7c-0.3-1-0.9-2.2-1.9-3.5l-0.2-0.3l0.3-0.1c4.2-1,8.1-3.1,11.5-6.4
					c0.6-0.6,0.7-1.6,0.1-2.3c-0.3-0.3-0.7-0.5-1.1-0.5c-0.4,0-0.8,0.1-1.1,0.4c-4.2,4-9.3,6.1-14.6,6.1
					c-13.3,0-24.2-13.5-24.2-30.2c0-5.8,1.3-11.5,3.9-16.4c0.4-0.8,0.1-1.7-0.6-2.2c-0.4-0.2-0.8-0.2-1.1-0.1
					c-0.4,0.1-0.7,0.4-0.9,0.8c-2.8,5.3-4.2,11.5-4.2,17.9c0,6.4,1.5,12.5,4.2,17.9l0.1,0.2L83,80.1c-4.7,4.2-10.2,6.4-16,6.4
					c-15.2,0-27.5-15.4-27.5-34.4c0-6.6,1.5-13.1,4.4-18.6c0.4-0.8,0.1-1.7-0.6-2.2c-0.4-0.2-0.8-0.2-1.1-0.1
					c-0.4,0.1-0.7,0.4-0.9,0.8c-3.1,6-4.8,13-4.8,20.2C36.5,71.9,49,88.3,65,89.6l0.4,0L65.1,90c-1.1,1.4-1.7,2.6-2,3.7
					c-0.3,1-0.1,2.1,0.5,2.9c0.6,0.8,1.5,1.3,2.5,1.3H67l0,0.2c-0.2,2.6,0.3,6.8,3.9,11.5c0.7,1,1.5,1.9,2.2,2.8
					c1.5,1.9,3,3.7,4.2,5.7c0.2,0.4,0.5,0.8,0.8,1.2c0.6,0.9,1.1,1.7,1.5,2.6c0.9,2.3,1.1,4.7,0.5,6.9c-1.7,5.9-7.7,6.7-12.5,6.3
					c-2.5-0.2-6.9-1-7.9-4.2c-0.1-0.4-0.4-0.7-0.8-0.9C58.6,129.9,58.4,129.8,58.2,129.8z M110.1,99.4h-4.7l0.1-0.3
					c0.4-1,1.5-2.2,2-2.9l0.2-0.2l0.2,0.2c0.6,0.6,1.6,1.9,2,2.9L110.1,99.4z M106.1,98.9h3.3c-0.3-0.6-0.9-1.4-1.6-2.2
					C107,97.5,106.4,98.3,106.1,98.9z M71.8,94.7H66l0.1-0.3c0.4-1.3,2-3.1,2.6-3.9l0.2-0.2l0.2,0.2c0.7,0.7,2.2,2.5,2.6,3.9
					L71.8,94.7z M66.6,94.2h4.5c-0.4-0.8-1.2-2-2.3-3.2C67.8,92.3,67,93.4,66.6,94.2z"/>
			</g>
		</g>
		<g>
			<path class="st3" d="M77.2,108.7c3.7,1.2,7.8-2,9-5.8c1.4-4.3,0.5-8.4-0.6-13.2l0-0.2c-0.7-3.1-1.6-6.2-2.7-9.2h3.7
				c1,2.7,1.8,5.5,2.4,8.4l0,0.2c1.1,5.1,2.2,9.8,0.5,15.2c-0.9,2.7-2.7,5.1-5,6.7c-0.9,0.6-1.8,1.1-2.7,1.4c-1.9,0.6-3.8,0.6-5.6,0
				c-0.9-0.3-1.4-1.3-1.1-2.3C75.3,109,76.3,108.4,77.2,108.7z"/>
			<path class="st2" d="M78.9,112.9c-1,0-1.9-0.2-2.8-0.5c-1-0.3-1.6-1.5-1.3-2.6c0.2-0.5,0.5-1,1-1.2c0.5-0.2,1-0.3,1.5-0.1v0
				c1.3,0.4,2.8,0.3,4.3-0.4c2-1,3.7-3,4.4-5.2c1.4-4.3,0.5-8.4-0.6-13.1l0-0.2c-0.7-3.1-1.6-6.2-2.7-9.2l-0.1-0.3h4.2l0.1,0.2
				c1,2.8,1.8,5.6,2.4,8.4l0,0.2c1.2,5.1,2.2,9.9,0.5,15.3c-0.9,2.7-2.7,5.2-5.1,6.8c-0.9,0.6-1.8,1.1-2.8,1.4
				C80.9,112.7,79.9,112.9,78.9,112.9z M76.7,108.9c-0.2,0-0.5,0.1-0.7,0.2c-0.4,0.2-0.7,0.5-0.8,0.9c-0.3,0.8,0.2,1.7,1,2
				c1.8,0.6,3.7,0.6,5.5,0c0.9-0.3,1.8-0.8,2.7-1.3c2.3-1.6,4.1-4,4.9-6.6c1.7-5.3,0.6-10-0.5-15l0-0.2c-0.6-2.7-1.4-5.5-2.3-8.2
				h-3.3c1,2.9,1.9,5.9,2.6,8.9l0,0.2c1.1,4.8,2,8.9,0.6,13.3c-0.7,2.3-2.5,4.4-4.6,5.5c-1.6,0.8-3.2,0.9-4.6,0.5
				C77,108.9,76.8,108.9,76.7,108.9z"/>
		</g>
		<g>
			<path class="st3" d="M70,14.9c8.5-4.4,17.8-4.9,25.8-1l0.1,0.1c5.7,2.9,10.2,7.8,13,14.1c0.4,0.9,0,2-0.9,2.4
				c-0.9,0.4-1.9,0-2.3-0.9c-2.5-5.6-6.4-9.9-11.4-12.4C88.1,14.2,81,14.2,74.2,17L70,14.9z"/>
			<path class="st2" d="M107.4,31c-0.2,0-0.5,0-0.7-0.1c-0.5-0.2-0.9-0.6-1.1-1.1c-2.4-5.6-6.4-9.8-11.3-12.3c-6-3-13.1-3.1-20-0.3
				l-0.1,0l-4.6-2.3l0.4-0.2c8.6-4.5,18.1-4.9,26-1l0.1,0.1c5.8,2.9,10.3,7.8,13.2,14.3c0.5,1,0,2.2-1,2.7
				C107.9,30.9,107.6,31,107.4,31z M84.2,14.7c3.6,0,7,0.8,10.2,2.4c5.1,2.5,9.1,6.9,11.5,12.5c0.2,0.4,0.5,0.7,0.9,0.8
				c0.4,0.1,0.8,0.1,1.1,0c0.8-0.4,1.1-1.3,0.8-2.1c-2.8-6.3-7.2-11.2-12.9-14l-0.1-0.1c-7.6-3.8-16.8-3.5-25.1,0.8l3.6,1.8
				C77.5,15.4,80.9,14.7,84.2,14.7z"/>
		</g>
		<g>
			<path class="st2" d="M105.5,80.9c-7.9,0-12.2-6-12.2-17.4C93.3,52,97.6,46,105.5,46c7.9,0,12.2,6,12.2,17.4
				C117.7,74.9,113.4,80.9,105.5,80.9z M111.7,53c-1.4-2.2-3.5-3.3-6.1-3.3c-2.7,0-4.8,1.1-6.1,3.3c-1.4,2.3-2.2,5.8-2.2,10.5
				s0.7,8.2,2.2,10.5c1.4,2.2,3.4,3.3,6.1,3.3c2.7,0,4.7-1.1,6.1-3.3c1.4-2.3,2.2-5.7,2.2-10.5C113.8,58.8,113.1,55.2,111.7,53z"/>
		</g>
	</g>
</g>
<g id="Layer_1">
</g>
</svg>
