<?xml version="1.0" encoding="utf-8"?>
<!-- Generator: Adobe Illustrator 21.0.2, SVG Export Plug-In . SVG Version: 6.00 Build 0)  -->
<svg version="1.1" xmlns="http://www.w3.org/2000/svg"  x="0px" y="0px" width="190px"
	 height="150px" viewBox="0 0 190 150" style="enable-background:new 0 0 190 150;" xml:space="preserve">
<style type="text/css">
	.st0{fill-rule:evenodd;clip-rule:evenodd;fill:#FFFFFF;}
	.st1{fill:#FFFFFF;}
	.st2{fill:#02519D;}
</style>
<g id="Layer_1_copy">
	<g>
		<g>
			<g>
				<polyline class="st0" points="78,73 76.2,73 73.9,72.1 71.2,71 67,70.5 67.6,66.5 66.6,59.7 64,56.7 60.1,56.7 49.6,63.4 
					44.4,63.8 42.1,64.8 39.2,65 34.2,69.5 32.6,74.2 28.5,76.2 28.6,81.2 28,88.9 24.2,89.8 21.1,90.2 18,95.3 18.4,99.4 
					20.6,104.1 21.8,107.6 22.3,111.5 23.7,114.7 29.7,115.1 31.5,112.4 33,109.6 35,109.9 39,107.3 39.8,103.5 42,103.2 
					44.2,103.4 46.1,106.3 51.4,111.4 55.2,113.2 57.6,112.9 59,111.5 61.3,109.6 61.7,109.3 62.2,108.9 65.1,109.5 67.9,109.8 
					69.1,113 73.3,116.3 76.5,122 79.1,123.9 81.6,124.8 86.7,129.6 91.9,129.9 96.3,128.4 100.5,130.2 103.5,130.2 106.9,126.8 
					111,128.4 115.3,128.6 120.6,129.9 128.1,126.5 132.1,126.1 136,123.3 137,117.7 136.7,115.6 138.9,116 144.1,120.3 
					147.6,121.6 152.6,121.2 152,123.1 154.1,131.9 157.8,132.5 163.8,126.7 164.6,124.6 165,113.7 163.9,108.3 156.5,97.6 
					153.4,97.2 151.1,98.4 152.2,91.1 153.1,89 156.1,86 158,84.2 159.5,81.4 158.5,76.6 159.7,75.9 161.3,78.1 163.4,83.8 
					168,88.7 171.8,90.5 175,91 177.7,89.9 178,86 176,83.1 174.6,80.8 173.7,77.8 171.2,74.7 165.7,71.7 165.5,68.2 167.8,66.2 
					168,61.6 166.5,58.6 167,55.4 164.2,51.1 161.4,50.6 162.9,48.4 163.1,45.5 159.6,40.6 157.1,39.7 146.6,48.1 142,59.1 
					139.4,59.5 137.1,60.9 134.8,63.8 132.6,63.9 				"/>
				<path class="st1" d="M159.5,137.8l-9.4-1.4l-2.3-9.7l-0.8,0.1l-5.3-2l-0.7-0.6l-0.3,2l-6.7,4.8l-4.5,0.4l-8.3,3.8l-6.4-1.6
					l-4.6-0.2l-1.9-0.7l-2.6,2.6l-6.1-0.1l-3.3-1.4l-3.5,1.2l-8-0.5l-5.7-5.4l-2.2-0.8l-4.1-2.9l-3.3-5.9L65,116l-0.7-1.6l-0.8-0.1
					l-1.1,0.9l-2.5,2.5l-5.4,0.7l-5.9-2.8l-5.3-5.1l-7.1,4.6l-0.4-0.1l-3.4,5.3l-11.9-1l-2.9-6.5l-0.5-4.2L16,106l-2.5-5.1l-0.7-6.7
					l5.3-8.6l5.2-0.6l0.3-3.8l0-8l5-2.4l1.3-4l7.3-6.5l3.8-0.3l2.3-1l4.8-0.3l10.6-6.9l7.8,0l5,5.9l1.3,8.6l4.5,1.8l0.8,0l0,0.3
					l0.1,0.1L78,68.7l0,9.3l-2.8,0L70,75.9l-8.7-1l1.3-8.4l-0.7-4.6l-0.2-0.2h-0.2l-10.3,6.7l-5.7,0.4l-2.2,1l-2.1,0.2l-2.7,2.5
					l-1.8,5.5l-3.1,1.5l0,2.1L32.7,93l-7.9,1.8l-0.7,0.1l-1,1.6l0.2,1.6l2.1,4.5l1.3,4l0.4,3.4l0-0.1l3.2-5.6l3.4,0.5l0.7-0.5l1-5.2
					l6.3-0.8l5.2,0.4l2.9,4.5l4.3,4.2l1.3,0.6l0.3-0.2l5-4.1l5.1,1l5.5,0.7l1.9,4.6l4,3.2l3.1,5.6l1.1,0.8l2.8,1l4.5,4.3l2.4,0.1
					l5.3-1.9l5,2.2l4.3-4.3l6.4,2.5l4,0.1l4.1,1l6.7-3.1l3.5-0.3l1.2-0.8l0.5-2.9l-0.9-8l10.1,1.8l5.5,4.6l1.7,0.6l11.3-0.9
					l-2.5,7.6l0.6,2.3l1.7-1.7l0.1-0.3l0.3-9.5l-0.8-3.8l-5.3-7.7l-9.1,4.3l2.6-17.2l1.6-3.6l5-4.9l0.3-0.5l-1.3-6.6l7.7-4.4
					l-0.2-3.5l2.5-2.3l0.1-1.3l-1.5-3.2l0.4-2.9l-0.6-0.9l-8.2-1.7l4.9-7.1l-0.6-0.9l-6.5,5.3l-5.3,12.5l-4.3,0.6l-0.7,0.4l-3.2,4
					l-4.5,0.2l-0.2-6.9l-1.6-1.3l2.8-3.5l4-2.5l0.8-0.1l4-9.5L156.2,34l6.6,2.5l5.4,7.6l-0.3,3.6l4.2,6.4l-0.5,3.6l1.3,2.8l-0.4,7.9
					l-0.9,0.8l2.7,1.5l3.8,4.6l1,3.3l1,1.7l2.8,4.1l-0.5,8.9l-7,2.8l-5.3-0.9l-5.3-2.5l-4.1-4.4l-3.6,3.4l-0.3,0.6l0,0.2l2.4,0.3
					l9.2,13.4l1.4,7l-0.4,12.2l-1.5,4L159.5,137.8z M171,84.6l0.1,0.1l-1.1-1.8l-0.8-2.6l-1.3-1.6l-1.3-0.8l1.2,3.2L171,84.6z"/>
			</g>
			<g>
				<path class="st2" d="M157.8,134.5c-0.1,0-0.2,0-0.3,0l-3.7-0.5c-0.8-0.1-1.5-0.7-1.7-1.5l-2.1-8.9c0,0,0,0,0-0.1l-2.2,0.2
					c-0.3,0-0.6,0-0.9-0.1l-3.5-1.3c-0.2-0.1-0.4-0.2-0.6-0.3l-4-3.3l-0.9,5.1c-0.1,0.5-0.4,1-0.8,1.3l-3.9,2.8
					c-0.3,0.2-0.6,0.3-1,0.4l-3.7,0.3l-7.2,3.3c-0.4,0.2-0.9,0.2-1.3,0.1l-5-1.3l-4.1-0.1c-0.2,0-0.5-0.1-0.7-0.1l-2.9-1.2l-2.5,2.5
					c-0.4,0.4-0.9,0.6-1.4,0.6l-3,0c-0.3,0-0.5-0.1-0.8-0.2l-3.5-1.5l-3.6,1.3c-0.3,0.1-0.5,0.1-0.8,0.1l-5.2-0.3
					c-0.5,0-0.9-0.2-1.3-0.5l-4.8-4.5l-2.1-0.8c-0.2-0.1-0.3-0.1-0.5-0.2l-2.6-1.8c-0.2-0.2-0.4-0.4-0.6-0.7l-3-5.4l-3.9-3.1
					c-0.3-0.2-0.5-0.5-0.6-0.8l-0.8-2l-1.6-0.2c0,0-0.1,0-0.1,0l-2-0.4l-0.3,0.2l-2.1,1.7l-1.4,1.4c-0.3,0.3-0.7,0.5-1.1,0.6
					l-2.3,0.3c-0.4,0.1-0.8,0-1.1-0.2l-3.8-1.8c-0.2-0.1-0.4-0.2-0.5-0.4l-5.3-5.1c-0.1-0.1-0.2-0.2-0.3-0.4l-1.4-2.1l-1-0.1
					l-0.6,0.1l-0.5,2.4c-0.1,0.5-0.4,1-0.9,1.3l-4,2.6c-0.4,0.3-0.9,0.4-1.4,0.3l-0.6-0.1l-0.9,1.6c0,0,0,0.1-0.1,0.1l-1.8,2.7
					c-0.4,0.6-1.1,1-1.8,0.9l-6-0.5c-0.7-0.1-1.4-0.5-1.7-1.2l-1.4-3.2c-0.1-0.2-0.1-0.4-0.2-0.6l-0.5-3.7l-1-3.2l-2.2-4.6
					c-0.1-0.2-0.2-0.4-0.2-0.7L16,95.5c0-0.4,0.1-0.9,0.3-1.3l3.1-5.1c0.3-0.5,0.9-0.9,1.5-0.9l3-0.3l2.3-0.5l0.5-6.2l0-5
					c0-0.8,0.4-1.5,1.1-1.8l3.3-1.6l1.3-3.9c0.1-0.3,0.3-0.6,0.6-0.9l5-4.5c0.3-0.3,0.7-0.5,1.2-0.5l2.6-0.2l1.9-0.8
					c0.2-0.1,0.4-0.1,0.7-0.2l4.7-0.3L59,55c0.3-0.2,0.7-0.3,1.1-0.3h0l4,0c0.6,0,1.1,0.3,1.5,0.7l2.6,3c0.2,0.3,0.4,0.6,0.5,1
					l1,6.8c0,0.2,0,0.4,0,0.6l-0.3,1.9l2.1,0.2c0.2,0,0.4,0.1,0.5,0.1l4.6,1.9l1.4,0c0,0,0,0,0,0c1.1,0,2,0.9,2,2c0,1.1-0.9,2-2,2
					l-1.8,0c-0.3,0-0.5-0.1-0.8-0.2l-4.7-1.9l-3.9-0.4c-0.5-0.1-1-0.3-1.4-0.8c-0.3-0.4-0.5-1-0.4-1.5l0.6-3.7l-0.9-5.9l-1.6-1.9
					l-2.4,0l-10,6.4c-0.3,0.2-0.6,0.3-0.9,0.3l-4.9,0.3l-1.9,0.8c-0.2,0.1-0.4,0.1-0.6,0.2L40,66.9l-4.1,3.7l-1.4,4.2
					c-0.2,0.5-0.5,0.9-1,1.2l-2.9,1.4l0,3.8c0,0.1,0,0.1,0,0.2L30,89.1c-0.1,0.9-0.7,1.6-1.6,1.8l-3.8,0.9c-0.1,0-0.1,0-0.2,0
					L22.3,92L20,95.7l0.3,3.1l2.1,4.4c0,0.1,0.1,0.2,0.1,0.2l1.1,3.5c0,0.1,0.1,0.2,0.1,0.4l0.5,3.6l0.8,1.8l3.6,0.3l1.1-1.7
					l1.6-2.7c0.4-0.7,1.2-1.1,2-1l1.2,0.2l2.7-1.8l0.6-3c0.2-0.8,0.9-1.5,1.7-1.6l2.2-0.3c0.1,0,0.3,0,0.4,0l2.2,0.2
					c0.6,0,1.2,0.4,1.5,0.9l1.8,2.7l4.9,4.8l3,1.4l1.1-0.1l1-1c0,0,0.1-0.1,0.1-0.1l2.2-1.9c0.1-0.1,0.1-0.1,0.2-0.2l0.3-0.2
					l0.4-0.3c0.5-0.4,1.1-0.6,1.7-0.4l2.8,0.5l2.7,0.4c0.7,0.1,1.3,0.6,1.6,1.2l1.1,2.6l3.8,3c0.2,0.2,0.4,0.4,0.5,0.6l3,5.3l2,1.4
					l2.3,0.8c0.3,0.1,0.5,0.2,0.7,0.4l4.5,4.3l4.1,0.2l4-1.4c0.5-0.2,1-0.2,1.5,0l3.8,1.7l1.8,0l2.9-2.9c0.6-0.6,1.4-0.7,2.2-0.4
					l3.8,1.5l3.9,0.1c0.1,0,0.3,0,0.4,0.1l4.6,1.2l6.9-3.1c0.2-0.1,0.4-0.2,0.7-0.2l3.5-0.3l2.8-2l0.8-4.5l-0.2-1.8
					c-0.1-0.6,0.2-1.3,0.6-1.7c0.5-0.4,1.1-0.6,1.7-0.5l2.2,0.4c0.3,0.1,0.7,0.2,0.9,0.4l4.9,4.1l2.8,1l4.5-0.4
					c0.7-0.1,1.3,0.2,1.7,0.8c0.4,0.5,0.5,1.2,0.3,1.9l-0.4,1.3l1.7,7l1.4,0.2l5-4.7l0.5-1.4l0.3-10.3l-0.9-4.8l-6.6-9.6l-1.6-0.2
					l-1.8,0.9c-0.7,0.3-1.5,0.2-2.1-0.2c-0.6-0.4-0.9-1.2-0.8-1.9l1.1-7.3c0-0.2,0.1-0.3,0.1-0.5l0.9-2.1c0.1-0.2,0.3-0.5,0.4-0.6
					l4.7-4.5l1-1.9l-0.8-4.1c-0.2-0.8,0.2-1.7,1-2.1l1.2-0.7c0.9-0.5,2-0.3,2.6,0.5l1.6,2.2c0.1,0.2,0.2,0.3,0.3,0.5l1.9,5.3l4,4.3
					l3.2,1.5l2.4,0.4l1-0.4l0.1-2l-1.6-2.3c0,0,0-0.1-0.1-0.1l-1.4-2.3c-0.1-0.1-0.2-0.3-0.2-0.5l-0.8-2.6l-2.1-2.5l-5.1-2.9
					c-0.6-0.3-1-0.9-1-1.6l-0.2-3.5c0-0.6,0.2-1.2,0.7-1.6l1.6-1.5L166,62l-1.2-2.5c-0.2-0.4-0.2-0.7-0.2-1.1l0.3-2.5l-1.9-2.9
					l-2-0.4c-0.7-0.1-1.2-0.6-1.5-1.2c-0.3-0.6-0.2-1.3,0.2-1.9l1.2-1.8l0.1-1.6l-2.7-3.8l-0.9-0.3l-9.2,7.4l-4.4,10.5
					c-0.3,0.7-0.9,1.1-1.6,1.2l-2.1,0.3l-1.7,1.1l-2.1,2.6c-0.4,0.5-0.9,0.7-1.5,0.7l-2.2,0.1c-1.1,0-2-0.8-2.1-1.9s0.8-2,1.9-2.1
					l1.3,0l1.7-2.1c0.1-0.2,0.3-0.3,0.5-0.4l2.3-1.5c0.2-0.2,0.5-0.3,0.8-0.3l1.4-0.2l4.2-9.9c0.1-0.3,0.3-0.6,0.6-0.8l10.5-8.5
					c0.6-0.4,1.3-0.6,2-0.3l2.5,1c0.4,0.1,0.7,0.4,0.9,0.7l3.5,4.9c0.3,0.4,0.4,0.8,0.4,1.3l-0.2,2.8c0,0.2-0.1,0.5-0.2,0.7
					c0.5,0.1,0.9,0.4,1.2,0.8l2.8,4.2c0.3,0.4,0.4,0.9,0.3,1.4l-0.3,2.7l1.2,2.4c0.1,0.3,0.2,0.6,0.2,1l-0.2,4.6
					c0,0.5-0.3,1-0.7,1.4l-1.5,1.4l0.1,1.4l4.5,2.5c0.2,0.1,0.4,0.3,0.5,0.5l2.6,3.1c0.2,0.2,0.3,0.5,0.4,0.7l0.8,2.7l1.2,2.1
					l1.9,2.8c0.2,0.4,0.4,0.8,0.3,1.2l-0.2,4c0,0.8-0.5,1.5-1.3,1.8l-2.8,1.1c-0.3,0.1-0.7,0.2-1.1,0.1l-3.2-0.5
					c-0.2,0-0.4-0.1-0.5-0.2l-3.8-1.8c-0.2-0.1-0.4-0.3-0.6-0.4l-4.6-4.9c-0.2-0.2-0.3-0.4-0.4-0.7l-0.6-1.6l-1.1,2.2
					c-0.1,0.2-0.2,0.4-0.4,0.6l-4.6,4.4l-0.6,1.5l-0.6,3.6c0,0,0.1,0,0.1,0l3.1,0.4c0.6,0.1,1.1,0.4,1.4,0.9l7.3,10.7
					c0.2,0.2,0.3,0.5,0.3,0.7l1.1,5.4c0,0.2,0,0.3,0,0.5l-0.4,10.9c0,0.2,0,0.4-0.1,0.6l-0.8,2.1c-0.1,0.3-0.3,0.5-0.5,0.8l-6,5.7
					C158.8,134.3,158.3,134.5,157.8,134.5z"/>
				<path class="st1" d="M157.1,37.7c0.2,0,0.5,0,0.7,0.1l2.5,1c0.4,0.1,0.7,0.4,0.9,0.7l3.5,4.9c0.3,0.4,0.4,0.8,0.4,1.3l-0.2,2.8
					c0,0.2-0.1,0.5-0.2,0.7c0.5,0.1,0.9,0.4,1.2,0.8l2.8,4.2c0.3,0.4,0.4,0.9,0.3,1.4l-0.3,2.7l1.2,2.4c0.1,0.3,0.2,0.6,0.2,1
					l-0.2,4.6c0,0.5-0.3,1-0.7,1.4l-1.5,1.4l0.1,1.4l4.5,2.5c0.2,0.1,0.4,0.3,0.5,0.5l2.6,3.1c0.2,0.2,0.3,0.5,0.4,0.7l0.8,2.7
					l1.2,2.1l1.9,2.8c0.2,0.4,0.4,0.8,0.3,1.2l-0.2,4c0,0.8-0.5,1.5-1.3,1.8l-2.8,1.1c-0.2,0.1-0.5,0.1-0.7,0.1c-0.1,0-0.2,0-0.3,0
					l-3.2-0.5c-0.2,0-0.4-0.1-0.5-0.2l-3.8-1.8c-0.2-0.1-0.4-0.3-0.6-0.4l-4.6-4.9c-0.2-0.2-0.3-0.4-0.4-0.7l-0.6-1.6l-1.1,2.2
					c-0.1,0.2-0.2,0.4-0.4,0.6l-4.6,4.4l-0.6,1.5l-0.6,3.6c0,0,0.1,0,0.1,0l3.1,0.4c0.6,0.1,1.1,0.4,1.4,0.9l7.3,10.7
					c0.2,0.2,0.3,0.5,0.3,0.7l1.1,5.4c0,0.2,0,0.3,0,0.5l-0.4,10.9c0,0.2,0,0.4-0.1,0.6l-0.8,2.1c-0.1,0.3-0.3,0.5-0.5,0.8l-6,5.7
					c-0.4,0.4-0.9,0.6-1.4,0.6c-0.1,0-0.2,0-0.3,0l-3.7-0.5c-0.8-0.1-1.5-0.7-1.7-1.5l-2.1-8.9c0,0,0,0,0-0.1l-2.2,0.2
					c-0.1,0-0.1,0-0.2,0c-0.2,0-0.5,0-0.7-0.1l-3.5-1.3c-0.2-0.1-0.4-0.2-0.6-0.3l-4-3.3l-0.9,5.1c-0.1,0.5-0.4,1-0.8,1.3l-3.9,2.8
					c-0.3,0.2-0.6,0.3-1,0.4l-3.7,0.3l-7.2,3.3c-0.3,0.1-0.5,0.2-0.8,0.2c-0.2,0-0.3,0-0.5-0.1l-5-1.3l-4.1-0.1
					c-0.2,0-0.5-0.1-0.7-0.1l-2.9-1.2l-2.5,2.5c-0.4,0.4-0.9,0.6-1.4,0.6l-3,0c-0.3,0-0.5-0.1-0.8-0.2l-3.5-1.5l-3.6,1.3
					c-0.2,0.1-0.4,0.1-0.7,0.1c0,0-0.1,0-0.1,0l-5.2-0.3c-0.5,0-0.9-0.2-1.3-0.5l-4.8-4.5l-2.1-0.8c-0.2-0.1-0.3-0.1-0.5-0.2
					l-2.6-1.8c-0.2-0.2-0.4-0.4-0.6-0.7l-3-5.4l-3.9-3.1c-0.3-0.2-0.5-0.5-0.6-0.8l-0.8-2l-1.6-0.2c0,0-0.1,0-0.1,0l-2-0.4l-0.3,0.2
					l-2.1,1.7l-1.4,1.4c-0.3,0.3-0.7,0.5-1.1,0.6l-2.3,0.3c-0.1,0-0.2,0-0.3,0c-0.3,0-0.6-0.1-0.9-0.2l-3.8-1.8
					c-0.2-0.1-0.4-0.2-0.5-0.4l-5.3-5.1c-0.1-0.1-0.2-0.2-0.3-0.4l-1.4-2.1l-1-0.1l-0.6,0.1l-0.5,2.4c-0.1,0.5-0.4,1-0.9,1.3l-4,2.6
					c-0.3,0.2-0.7,0.3-1.1,0.3c-0.1,0-0.2,0-0.3,0l-0.6-0.1l-0.9,1.6c0,0,0,0.1-0.1,0.1l-1.8,2.7c-0.4,0.6-1,0.9-1.7,0.9
					c-0.1,0-0.1,0-0.2,0l-6-0.5c-0.7-0.1-1.4-0.5-1.7-1.2l-1.4-3.2c-0.1-0.2-0.1-0.4-0.2-0.6l-0.5-3.7l-1-3.2l-2.2-4.6
					c-0.1-0.2-0.2-0.4-0.2-0.7L16,95.5c0-0.4,0.1-0.9,0.3-1.3l3.1-5.1c0.3-0.5,0.9-0.9,1.5-0.9l3-0.3l2.3-0.5l0.5-6.2l0-5
					c0-0.8,0.4-1.5,1.1-1.8l3.3-1.6l1.3-3.9c0.1-0.3,0.3-0.6,0.6-0.9l5-4.5c0.3-0.3,0.7-0.5,1.2-0.5l2.6-0.2l1.9-0.8
					c0.2-0.1,0.4-0.1,0.7-0.2l4.7-0.3L59,55c0.3-0.2,0.7-0.3,1.1-0.3h0l4,0c0.6,0,1.1,0.3,1.5,0.7l2.6,3c0.2,0.3,0.4,0.6,0.5,1
					l1,6.8c0,0.2,0,0.4,0,0.6l-0.3,1.9l2.1,0.2c0.2,0,0.4,0.1,0.5,0.1l4.6,1.9l1.4,0c0,0,0,0,0,0c1.1,0,2,0.9,2,2c0,1.1-0.9,2-2,2
					l-1.8,0c-0.3,0-0.5-0.1-0.8-0.2l-4.7-1.9l-3.9-0.4c-0.5-0.1-1-0.3-1.4-0.8c-0.3-0.4-0.5-1-0.4-1.5l0.6-3.7l-0.9-5.9l-1.6-1.9
					l-2.4,0l-10,6.4c-0.3,0.2-0.6,0.3-0.9,0.3l-4.9,0.3l-1.9,0.8c-0.2,0.1-0.4,0.1-0.6,0.2L40,66.9l-4.1,3.7l-1.4,4.2
					c-0.2,0.5-0.5,0.9-1,1.2l-2.9,1.4l0,3.8c0,0.1,0,0.1,0,0.2L30,89.1c-0.1,0.9-0.7,1.6-1.6,1.8l-3.8,0.9c-0.1,0-0.1,0-0.2,0
					L22.3,92L20,95.7l0.3,3.1l2.1,4.4c0,0.1,0.1,0.2,0.1,0.2l1.1,3.5c0,0.1,0.1,0.2,0.1,0.4l0.5,3.6l0.8,1.8l3.6,0.3l1.1-1.7
					l1.6-2.7c0.4-0.6,1-1,1.7-1c0.1,0,0.2,0,0.3,0l1.2,0.2l2.7-1.8l0.6-3c0.2-0.8,0.9-1.5,1.7-1.6l2.2-0.3c0.1,0,0.2,0,0.3,0
					c0.1,0,0.1,0,0.2,0l2.2,0.2c0.6,0,1.2,0.4,1.5,0.9l1.8,2.7l4.9,4.8l3,1.4l1.1-0.1l1-1c0,0,0.1-0.1,0.1-0.1l2.2-1.9
					c0.1-0.1,0.1-0.1,0.2-0.2l0.3-0.2l0.4-0.3c0.4-0.3,0.8-0.5,1.3-0.5c0.1,0,0.2,0,0.4,0l2.8,0.5l2.7,0.4c0.7,0.1,1.3,0.6,1.6,1.2
					l1.1,2.6l3.8,3c0.2,0.2,0.4,0.4,0.5,0.6l3,5.3l2,1.4l2.3,0.8c0.3,0.1,0.5,0.2,0.7,0.4l4.5,4.3l4.1,0.2l4-1.4
					c0.2-0.1,0.4-0.1,0.7-0.1c0.3,0,0.5,0.1,0.8,0.2l3.8,1.7l1.8,0l2.9-2.9c0.4-0.4,0.9-0.6,1.4-0.6c0.2,0,0.5,0,0.7,0.1l3.8,1.5
					l3.9,0.1c0.1,0,0.3,0,0.4,0.1l4.6,1.2l6.9-3.1c0.2-0.1,0.4-0.2,0.7-0.2l3.5-0.3l2.8-2l0.8-4.5l-0.2-1.8
					c-0.1-0.6,0.2-1.3,0.6-1.7c0.4-0.3,0.9-0.5,1.4-0.5c0.1,0,0.2,0,0.4,0l2.2,0.4c0.3,0.1,0.7,0.2,0.9,0.4l4.9,4.1l2.8,1l4.5-0.4
					c0.1,0,0.1,0,0.2,0c0.6,0,1.2,0.3,1.6,0.8c0.4,0.5,0.5,1.2,0.3,1.9l-0.4,1.3l1.7,7l1.4,0.2l5-4.7l0.5-1.4l0.3-10.3l-0.9-4.8
					l-6.6-9.6l-1.6-0.2l-1.8,0.9c-0.3,0.1-0.6,0.2-0.9,0.2c-0.4,0-0.8-0.1-1.2-0.4c-0.6-0.4-0.9-1.2-0.8-1.9l1.1-7.3
					c0-0.2,0.1-0.3,0.1-0.5l0.9-2.1c0.1-0.2,0.3-0.5,0.4-0.6l4.7-4.5l1-1.9l-0.8-4.1c-0.2-0.8,0.2-1.7,1-2.1l1.2-0.7
					c0.3-0.2,0.7-0.3,1-0.3c0.6,0,1.2,0.3,1.6,0.8l1.6,2.2c0.1,0.2,0.2,0.3,0.3,0.5l1.9,5.3l4,4.3l3.2,1.5l2.4,0.4l1-0.4l0.1-2
					l-1.6-2.3c0,0,0-0.1-0.1-0.1l-1.4-2.3c-0.1-0.1-0.2-0.3-0.2-0.5l-0.8-2.6l-2.1-2.5l-5.1-2.9c-0.6-0.3-1-0.9-1-1.6l-0.2-3.5
					c0-0.6,0.2-1.2,0.7-1.6l1.6-1.5L166,62l-1.2-2.5c-0.2-0.4-0.2-0.7-0.2-1.1l0.3-2.5l-1.9-2.9l-2-0.4c-0.7-0.1-1.2-0.6-1.5-1.2
					c-0.3-0.6-0.2-1.3,0.2-1.9l1.2-1.8l0.1-1.6l-2.7-3.8l-0.9-0.3l-9.2,7.4l-4.4,10.5c-0.3,0.7-0.9,1.1-1.6,1.2l-2.1,0.3l-1.7,1.1
					l-2.1,2.6c-0.4,0.5-0.9,0.7-1.5,0.7l-2.2,0.1c0,0,0,0-0.1,0c-1.1,0-2-0.9-2-1.9c0-1.1,0.8-2,1.9-2.1l1.3,0l1.7-2.1
					c0.1-0.2,0.3-0.3,0.5-0.4l2.3-1.5c0.2-0.2,0.5-0.3,0.8-0.3l1.4-0.2l4.2-9.9c0.1-0.3,0.3-0.6,0.6-0.8l10.5-8.5
					C156.2,37.8,156.6,37.7,157.1,37.7 M157.1,27.7c-2.7,0-5.4,0.9-7.5,2.7l-10.5,8.5c-1.5,1.2-2.7,2.9-3.5,4.7l-2.4,5.8
					c0,0-0.1,0.1-0.1,0.1l-2.3,1.5c-0.8,0.5-1.5,1.1-2.2,1.8c-4.7,1.7-8.1,6.4-7.9,11.7c0.2,6.5,5.5,11.6,12,11.6c0.1,0,0.3,0,0.4,0
					l2.2-0.1c3.5-0.1,6.7-1.7,8.9-4.5l0.4-0.5c3.8-0.8,7.1-3.5,8.6-7.1l1.4-3.4c0.1,0,0.1,0.1,0.2,0.1c0.1,0.6,0.2,1.1,0.4,1.7
					c-0.6,1-1,2.1-1.3,3.2c0,0-0.1,0-0.1,0.1l-1.2,0.7c-4.3,2.5-6.6,7.4-5.9,12.3l-1.9,1.8c-1.2,1.1-2,2.4-2.7,3.9l-0.9,2.1
					c-0.4,1-0.7,2-0.9,3l-1.1,7.3c-0.4,2.7,0.1,5.3,1.3,7.6l-1.7-0.3c-0.7-0.1-1.4-0.2-2.1-0.2c-3.1,0-6,1.2-8.2,3.2
					c-2.2,2.1-3.6,5-3.8,8.1c-0.6,0.2-1.1,0.4-1.7,0.6l-3.7,1.7l-1.2-0.3l0,0l0,0c-0.8-0.2-1.6-0.3-2.5-0.3l-2.2-0.1l-2.1-0.9
					c-1.4-0.6-2.9-0.9-4.5-0.9c-2.5,0-4.9,0.8-6.9,2.2c-1.2-0.4-2.5-0.6-3.7-0.6c-1.4,0-2.7,0.2-4,0.7l-1,0.3l-1.4-1.3
					c-1.2-1.1-2.6-2-4.1-2.6l-0.3-0.1l-1.7-3c-0.8-1.4-1.8-2.5-3-3.5l-1.8-1.4l-0.1-0.2c-1.6-4-5.3-6.8-9.5-7.3L67,97.6l-2.6-0.5
					c-0.7-0.1-1.5-0.2-2.3-0.2c-2.3,0-4.6,0.7-6.5,1.9l-0.3-0.2l-1.1-1.8c-2-3.1-5.4-5.1-9.1-5.4l-2.2-0.2c-0.3,0-0.6,0-0.9,0
					c-0.5,0-1,0-1.5,0.1l-0.7,0.1c0.1-0.5,0.2-1,0.2-1.5l0.5-6.6c1.6-1.4,2.9-3.3,3.6-5.3l0.5-1.4c0.8-0.2,1.6-0.4,2.4-0.7l0.4-0.2
					l3.2-0.2c1.8-0.1,3.5-0.6,5-1.5c0.4,1.4,1.1,2.7,2,3.9c2,2.6,5,4.3,8.2,4.7l2.5,0.3l3.4,1.4c1.6,0.7,3,0.8,4,0.9l0.3,0l0.3,0
					l1.8,0c3.2,0,6.2-1.3,8.5-3.6c2.3-2.3,3.5-5.3,3.5-8.5c0-6.3-4.9-11.4-11-11.9L78.5,58c-0.3-2.2-1.3-4.3-2.7-6l-2.6-3
					c-2.3-2.7-5.6-4.2-9.1-4.2l-4,0c-2.3,0-4.6,0.7-6.5,1.9l-7.8,5.1l-2.2,0.1c-1.4,0.1-2.7,0.4-3.9,1L39.2,53L38.3,53
					c-2.6,0.2-5.2,1.3-7.1,3l-5,4.5c-1.5,1.4-2.7,3.1-3.4,5.1c-3.9,2.1-6.3,6.2-6.3,10.6l0,2.8c-2.4,1-4.4,2.6-5.7,4.9L7.7,89
					c-1.4,2.2-2,4.9-1.7,7.6l0.4,4.1c0.1,1.4,0.5,2.7,1.1,3.9l1.9,4l0.6,1.7l0.4,2.8c0.1,1.2,0.5,2.3,0.9,3.3l1.4,3.2
					c1.8,4,5.6,6.7,10,7.1l6,0.5c0.3,0,0.7,0,1,0c4.1,0,7.8-2.1,10.1-5.5l0.7-1.1c0.4-0.2,0.7-0.4,1.1-0.6l0.8-0.5l0.7,0.7
					c1,0.9,2,1.7,3.2,2.2l3.9,1.8c1.6,0.7,3.4,1.1,5.1,1.1c0.5,0,1.1,0,1.6-0.1l2.3-0.3c1.4-0.2,2.7-0.6,4-1.3l0.9,0.7l2.1,3.7
					c0.9,1.6,2.1,2.9,3.5,3.9l2.6,1.8c0.9,0.6,1.8,1.1,2.8,1.5l0.2,0.1l3.3,3.1c2.1,2,4.7,3.1,7.6,3.3l5.2,0.3c0.2,0,0.5,0,0.7,0
					c1.3,0,2.7-0.2,3.9-0.7c1.4,0.6,2.9,0.9,4.5,0.9l3,0l0.1,0l0.1,0c2.3,0,4.5-0.7,6.4-1.9c0.2,0,0.5,0,0.7,0l3,0.1l4,1l0,0l0,0
					c0.9,0.2,1.9,0.3,2.9,0.3c1.7,0,3.4-0.4,5-1.1l5.6-2.6l2-0.2c2.1-0.2,4.2-0.9,5.9-2.2l3.1-2.3l0.3,1.1c1.1,4.8,5.1,8.4,10,9.1
					l3.7,0.5c0.6,0.1,1.1,0.1,1.7,0.1c3.1,0,6.1-1.2,8.3-3.3l6-5.7c1.3-1.3,2.3-2.8,3-4.5l0.8-2.2c0.4-1.2,0.7-2.5,0.7-3.7l0.4-10.8
					c0-0.9,0-1.8-0.2-2.7l0,0l0,0l-1.1-5.4c-0.2-1.1-0.6-2-1-3c0.1,0,0.2,0,0.3,0c1.5,0,3-0.3,4.4-0.8l2.7-1.1
					c4.3-1.7,7.3-5.8,7.6-10.5l0.2-4c0.1-2.6-0.6-5.2-2.1-7.4l-1.7-2.6l-0.4-0.7l-0.4-1.5c-0.5-1.6-1.2-3-2.3-4.3l-2.6-3.1
					c-0.2-0.2-0.4-0.5-0.6-0.7l0.2-4.2c0.1-1.9-0.3-3.8-1.1-5.6c0.3-2.8-0.4-5.5-1.9-7.8l-1.9-2.9c0.1-2.6-0.7-5.2-2.2-7.3l-3.5-4.9
					c-1.4-1.9-3.3-3.4-5.5-4.3l-2.5-1C160,27.9,158.6,27.7,157.1,27.7L157.1,27.7z"/>
			</g>
		</g>
		<g>
			<g>
				<path class="st0" d="M103.4,27.7c16.5,0,29.9,13.4,29.9,29.9c0,17-19,31.4-29.9,42.5C92.5,89,73.5,74.6,73.5,57.6
					C73.5,41.1,86.9,27.7,103.4,27.7z"/>
				<path class="st1" d="M103.4,27.7c16.5,0,29.9,13.4,29.9,29.9c0,17-19,31.4-29.9,42.5C92.5,89,73.5,74.6,73.5,57.6
					C73.5,41.1,86.9,27.7,103.4,27.7 M103.4,17.7c-22,0-39.9,17.9-39.9,39.9c0,18.3,14.8,32.3,26.6,43.6c2.2,2.1,4.3,4.1,6.1,5.9
					l7.1,7.3l7.1-7.3c1.8-1.8,3.9-3.8,6.1-5.9c11.9-11.3,26.6-25.3,26.6-43.6C143.3,35.6,125.4,17.7,103.4,17.7L103.4,17.7z"/>
			</g>
			<g>
				<path class="st2" d="M103.4,102.1c-0.5,0-1.1-0.2-1.4-0.6c-1.9-1.9-4-4-6.3-6.1C84.9,85.2,71.5,72.5,71.5,57.6
					c0-17.6,14.3-31.9,31.9-31.9c17.6,0,31.9,14.3,31.9,31.9c0,14.9-13.4,27.6-24.1,37.8c-2.3,2.2-4.4,4.2-6.3,6.1
					C104.5,101.9,104,102.1,103.4,102.1z M103.4,29.7c-15.4,0-27.9,12.5-27.9,27.9c0,13.2,12.7,25.2,22.9,34.9
					c1.8,1.7,3.4,3.3,5,4.8c1.6-1.5,3.2-3.1,5-4.8c10.2-9.7,22.9-21.7,22.9-34.9C131.3,42.2,118.8,29.7,103.4,29.7z"/>
				<path class="st1" d="M103.4,25.7c17.6,0,31.9,14.3,31.9,31.9c0,14.9-13.4,27.6-24.1,37.8c-2.3,2.2-4.4,4.2-6.3,6.1
					c-0.4,0.4-0.9,0.6-1.4,0.6s-1.1-0.2-1.4-0.6c-1.9-1.9-4-4-6.3-6.1C84.9,85.2,71.5,72.5,71.5,57.6C71.5,40,85.8,25.7,103.4,25.7
					 M103.4,97.3c1.6-1.5,3.2-3.1,5-4.8c10.2-9.7,22.9-21.7,22.9-34.9c0-15.4-12.5-27.9-27.9-27.9c-15.4,0-27.9,12.5-27.9,27.9
					c0,13.2,12.7,25.2,22.9,34.9C100.2,94.2,101.9,95.7,103.4,97.3 M103.4,15.7c-23.1,0-41.9,18.8-41.9,41.9
					c0,19.2,15.7,34.1,27.2,45c2.2,2.1,4.3,4.1,6.1,5.9c2.2,2.3,5.4,3.6,8.6,3.6s6.3-1.3,8.6-3.6c1.8-1.8,3.8-3.7,6-5.8l0.1-0.1
					c11.5-10.9,27.2-25.9,27.2-45C145.3,34.5,126.5,15.7,103.4,15.7L103.4,15.7z M103.4,83.4c-8.1-7.7-17.9-17.6-17.9-25.8
					c0-9.9,8-17.9,17.9-17.9c9.9,0,17.9,8,17.9,17.9C121.3,65.8,111.5,75.7,103.4,83.4L103.4,83.4z"/>
			</g>
		</g>
		<g>
			<g>
				<path class="st0" d="M107,64.2c-1.1,0.5-2.3,0.7-3.5,0.7c-4.9,0-8.9-4-8.9-8.9c0-4.9,4-8.9,8.9-8.9c3.8,0,7.2,2.4,8.4,6"/>
				<path class="st1" d="M103.4,69.9c-7.7,0-13.9-6.2-13.9-13.9s6.2-13.9,13.9-13.9c5.9,0,11.2,3.8,13.1,9.3l-9.4,3.3
					c-0.5-1.6-2-2.6-3.7-2.6c-2.2,0-3.9,1.8-3.9,3.9s1.8,3.9,3.9,3.9c0.5,0,1.1-0.1,1.6-0.3l4,9.2C107.2,69.6,105.3,69.9,103.4,69.9
					z"/>
			</g>
			<g>
				<path class="st2" d="M103.4,66.9c-6,0-10.9-4.9-10.9-10.9s4.9-10.9,10.9-10.9c4.6,0,8.8,2.9,10.3,7.3c0.4,1-0.2,2.2-1.2,2.5
					c-1,0.4-2.2-0.2-2.5-1.2c-1-2.8-3.6-4.6-6.5-4.6c-3.8,0-6.9,3.1-6.9,6.9s3.1,6.9,6.9,6.9c1,0,1.9-0.2,2.8-0.6c1-0.4,2.2,0,2.6,1
					c0.4,1,0,2.2-1,2.6C106.4,66.6,104.9,66.9,103.4,66.9z"/>
				<path class="st1" d="M103.4,45.1c4.6,0,8.8,2.9,10.3,7.3c0.4,1-0.2,2.2-1.2,2.5c-0.2,0.1-0.4,0.1-0.7,0.1
					c-0.8,0-1.6-0.5-1.9-1.3c-1-2.8-3.6-4.6-6.5-4.6c-3.8,0-6.9,3.1-6.9,6.9s3.1,6.9,6.9,6.9c1,0,1.9-0.2,2.8-0.6
					c0.3-0.1,0.5-0.2,0.8-0.2c0.8,0,1.5,0.5,1.8,1.2c0.4,1,0,2.2-1,2.6c-1.4,0.6-2.8,0.9-4.3,0.9c-6,0-10.9-4.9-10.9-10.9
					S97.4,45.1,103.4,45.1 M103.4,35.1c-11.5,0-20.9,9.4-20.9,20.9s9.4,20.9,20.9,20.9c2.9,0,5.7-0.6,8.3-1.7
					c5-2.2,7.7-7.3,7.2-12.4c1.6-1.1,2.9-2.7,3.8-4.5c1.4-2.9,1.6-6.1,0.5-9.2C120.3,40.8,112.3,35.1,103.4,35.1L103.4,35.1z"/>
			</g>
		</g>
	</g>
</g>
<g id="Layer_1">
	<g>
		<g>
			<polyline class="st0" points="78,73 76.2,73 73.9,72.1 71.2,71 67,70.5 67.6,66.5 66.6,59.7 64,56.7 60.1,56.7 49.6,63.4 
				44.4,63.8 42.1,64.8 39.2,65 34.2,69.5 32.6,74.2 28.5,76.2 28.6,81.2 28,88.9 24.2,89.8 21.1,90.2 18,95.3 18.4,99.4 
				20.6,104.1 21.8,107.6 22.3,111.5 23.7,114.7 29.7,115.1 31.5,112.4 33,109.6 35,109.9 39,107.3 39.8,103.5 42,103.2 44.2,103.4 
				46.1,106.3 51.4,111.4 55.2,113.2 57.6,112.9 59,111.5 61.3,109.6 61.7,109.3 62.2,108.9 65.1,109.5 67.9,109.8 69.1,113 
				73.3,116.3 76.5,122 79.1,123.9 81.6,124.8 86.7,129.6 91.9,129.9 96.3,128.4 100.5,130.2 103.5,130.2 106.9,126.8 111,128.4 
				115.3,128.6 120.6,129.9 128.1,126.5 132.1,126.1 136,123.3 137,117.7 136.7,115.6 138.9,116 144.1,120.3 147.6,121.6 
				152.6,121.2 152,123.1 154.1,131.9 157.8,132.5 163.8,126.7 164.6,124.6 165,113.7 163.9,108.3 156.5,97.6 153.4,97.2 
				151.1,98.4 152.2,91.1 153.1,89 156.1,86 158,84.2 159.5,81.4 158.5,76.6 159.7,75.9 161.3,78.1 163.4,83.8 168,88.7 171.8,90.5 
				175,91 177.7,89.9 178,86 176,83.1 174.6,80.8 173.7,77.8 171.2,74.7 165.7,71.7 165.5,68.2 167.8,66.2 168,61.6 166.5,58.6 
				167,55.4 164.2,51.1 161.4,50.6 162.9,48.4 163.1,45.5 159.6,40.6 157.1,39.7 146.6,48.1 142,59.1 139.4,59.5 137.1,60.9 
				134.8,63.8 132.6,63.9 			"/>
			<path class="st2" d="M157.8,134.5c-0.1,0-0.2,0-0.3,0l-3.7-0.5c-0.8-0.1-1.5-0.7-1.7-1.5l-2.1-8.9c0,0,0,0,0-0.1l-2.2,0.2
				c-0.3,0-0.6,0-0.9-0.1l-3.5-1.3c-0.2-0.1-0.4-0.2-0.6-0.3l-4-3.3l-0.9,5.1c-0.1,0.5-0.4,1-0.8,1.3l-3.9,2.8
				c-0.3,0.2-0.6,0.3-1,0.4l-3.7,0.3l-7.2,3.3c-0.4,0.2-0.9,0.2-1.3,0.1l-5-1.3l-4.1-0.1c-0.2,0-0.5-0.1-0.7-0.1l-2.9-1.2l-2.5,2.5
				c-0.4,0.4-0.9,0.6-1.4,0.6l-3,0c-0.3,0-0.5-0.1-0.8-0.2l-3.5-1.5l-3.6,1.3c-0.3,0.1-0.5,0.1-0.8,0.1l-5.2-0.3
				c-0.5,0-0.9-0.2-1.3-0.5l-4.8-4.5l-2.1-0.8c-0.2-0.1-0.3-0.1-0.5-0.2l-2.6-1.8c-0.2-0.2-0.4-0.4-0.6-0.7l-3-5.4l-3.9-3.1
				c-0.3-0.2-0.5-0.5-0.6-0.8l-0.8-2l-1.6-0.2c0,0-0.1,0-0.1,0l-2-0.4l-0.3,0.2l-2.1,1.7l-1.4,1.4c-0.3,0.3-0.7,0.5-1.1,0.6
				l-2.3,0.3c-0.4,0.1-0.8,0-1.1-0.2l-3.8-1.8c-0.2-0.1-0.4-0.2-0.5-0.4l-5.3-5.1c-0.1-0.1-0.2-0.2-0.3-0.4l-1.4-2.1l-1-0.1
				l-0.6,0.1l-0.5,2.4c-0.1,0.5-0.4,1-0.9,1.3l-4,2.6c-0.4,0.3-0.9,0.4-1.4,0.3l-0.6-0.1l-0.9,1.6c0,0,0,0.1-0.1,0.1l-1.8,2.7
				c-0.4,0.6-1.1,1-1.8,0.9l-6-0.5c-0.7-0.1-1.4-0.5-1.7-1.2l-1.4-3.2c-0.1-0.2-0.1-0.4-0.2-0.6l-0.5-3.7l-1-3.2l-2.2-4.6
				c-0.1-0.2-0.2-0.4-0.2-0.7L16,95.5c0-0.4,0.1-0.9,0.3-1.3l3.1-5.1c0.3-0.5,0.9-0.9,1.5-0.9l3-0.3l2.3-0.5l0.5-6.2l0-5
				c0-0.8,0.4-1.5,1.1-1.8l3.3-1.6l1.3-3.9c0.1-0.3,0.3-0.6,0.6-0.9l5-4.5c0.3-0.3,0.7-0.5,1.2-0.5l2.6-0.2l1.9-0.8
				c0.2-0.1,0.4-0.1,0.7-0.2l4.7-0.3L59,55c0.3-0.2,0.7-0.3,1.1-0.3h0l4,0c0.6,0,1.1,0.3,1.5,0.7l2.6,3c0.2,0.3,0.4,0.6,0.5,1l1,6.8
				c0,0.2,0,0.4,0,0.6l-0.3,1.9l2.1,0.2c0.2,0,0.4,0.1,0.5,0.1l4.6,1.9l1.4,0c0,0,0,0,0,0c1.1,0,2,0.9,2,2c0,1.1-0.9,2-2,2l-1.8,0
				c-0.3,0-0.5-0.1-0.8-0.2l-4.7-1.9l-3.9-0.4c-0.5-0.1-1-0.3-1.4-0.8c-0.3-0.4-0.5-1-0.4-1.5l0.6-3.7l-0.9-5.9l-1.6-1.9l-2.4,0
				l-10,6.4c-0.3,0.2-0.6,0.3-0.9,0.3l-4.9,0.3l-1.9,0.8c-0.2,0.1-0.4,0.1-0.6,0.2L40,66.9l-4.1,3.7l-1.4,4.2
				c-0.2,0.5-0.5,0.9-1,1.2l-2.9,1.4l0,3.8c0,0.1,0,0.1,0,0.2L30,89.1c-0.1,0.9-0.7,1.6-1.6,1.8l-3.8,0.9c-0.1,0-0.1,0-0.2,0
				L22.3,92L20,95.7l0.3,3.1l2.1,4.4c0,0.1,0.1,0.2,0.1,0.2l1.1,3.5c0,0.1,0.1,0.2,0.1,0.4l0.5,3.6l0.8,1.8l3.6,0.3l1.1-1.7l1.6-2.7
				c0.4-0.7,1.2-1.1,2-1l1.2,0.2l2.7-1.8l0.6-3c0.2-0.8,0.9-1.5,1.7-1.6l2.2-0.3c0.1,0,0.3,0,0.4,0l2.2,0.2c0.6,0,1.2,0.4,1.5,0.9
				l1.8,2.7l4.9,4.8l3,1.4l1.1-0.1l1-1c0,0,0.1-0.1,0.1-0.1l2.2-1.9c0.1-0.1,0.1-0.1,0.2-0.2l0.3-0.2l0.4-0.3
				c0.5-0.4,1.1-0.6,1.7-0.4l2.8,0.5l2.7,0.4c0.7,0.1,1.3,0.6,1.6,1.2l1.1,2.6l3.8,3c0.2,0.2,0.4,0.4,0.5,0.6l3,5.3l2,1.4l2.3,0.8
				c0.3,0.1,0.5,0.2,0.7,0.4l4.5,4.3l4.1,0.2l4-1.4c0.5-0.2,1-0.2,1.5,0l3.8,1.7l1.8,0l2.9-2.9c0.6-0.6,1.4-0.7,2.2-0.4l3.8,1.5
				l3.9,0.1c0.1,0,0.3,0,0.4,0.1l4.6,1.2l6.9-3.1c0.2-0.1,0.4-0.2,0.7-0.2l3.5-0.3l2.8-2l0.8-4.5l-0.2-1.8c-0.1-0.6,0.2-1.3,0.6-1.7
				c0.5-0.4,1.1-0.6,1.7-0.5l2.2,0.4c0.3,0.1,0.7,0.2,0.9,0.4l4.9,4.1l2.8,1l4.5-0.4c0.7-0.1,1.3,0.2,1.7,0.8
				c0.4,0.5,0.5,1.2,0.3,1.9l-0.4,1.3l1.7,7l1.4,0.2l5-4.7l0.5-1.4l0.3-10.3l-0.9-4.8l-6.6-9.6l-1.6-0.2l-1.8,0.9
				c-0.7,0.3-1.5,0.2-2.1-0.2c-0.6-0.4-0.9-1.2-0.8-1.9l1.1-7.3c0-0.2,0.1-0.3,0.1-0.5l0.9-2.1c0.1-0.2,0.3-0.5,0.4-0.6l4.7-4.5
				l1-1.9l-0.8-4.1c-0.2-0.8,0.2-1.7,1-2.1l1.2-0.7c0.9-0.5,2-0.3,2.6,0.5l1.6,2.2c0.1,0.2,0.2,0.3,0.3,0.5l1.9,5.3l4,4.3l3.2,1.5
				l2.4,0.4l1-0.4l0.1-2l-1.6-2.3c0,0,0-0.1-0.1-0.1l-1.4-2.3c-0.1-0.1-0.2-0.3-0.2-0.5l-0.8-2.6l-2.1-2.5l-5.1-2.9
				c-0.6-0.3-1-0.9-1-1.6l-0.2-3.5c0-0.6,0.2-1.2,0.7-1.6l1.6-1.5L166,62l-1.2-2.5c-0.2-0.4-0.2-0.7-0.2-1.1l0.3-2.5l-1.9-2.9
				l-2-0.4c-0.7-0.1-1.2-0.6-1.5-1.2c-0.3-0.6-0.2-1.3,0.2-1.9l1.2-1.8l0.1-1.6l-2.7-3.8l-0.9-0.3l-9.2,7.4l-4.4,10.5
				c-0.3,0.7-0.9,1.1-1.6,1.2l-2.1,0.3l-1.7,1.1l-2.1,2.6c-0.4,0.5-0.9,0.7-1.5,0.7l-2.2,0.1c-1.1,0-2-0.8-2.1-1.9s0.8-2,1.9-2.1
				l1.3,0l1.7-2.1c0.1-0.2,0.3-0.3,0.5-0.4l2.3-1.5c0.2-0.2,0.5-0.3,0.8-0.3l1.4-0.2l4.2-9.9c0.1-0.3,0.3-0.6,0.6-0.8l10.5-8.5
				c0.6-0.4,1.3-0.6,2-0.3l2.5,1c0.4,0.1,0.7,0.4,0.9,0.7l3.5,4.9c0.3,0.4,0.4,0.8,0.4,1.3l-0.2,2.8c0,0.2-0.1,0.5-0.2,0.7
				c0.5,0.1,0.9,0.4,1.2,0.8l2.8,4.2c0.3,0.4,0.4,0.9,0.3,1.4l-0.3,2.7l1.2,2.4c0.1,0.3,0.2,0.6,0.2,1l-0.2,4.6c0,0.5-0.3,1-0.7,1.4
				l-1.5,1.4l0.1,1.4l4.5,2.5c0.2,0.1,0.4,0.3,0.5,0.5l2.6,3.1c0.2,0.2,0.3,0.5,0.4,0.7l0.8,2.7l1.2,2.1l1.9,2.8
				c0.2,0.4,0.4,0.8,0.3,1.2l-0.2,4c0,0.8-0.5,1.5-1.3,1.8l-2.8,1.1c-0.3,0.1-0.7,0.2-1.1,0.1l-3.2-0.5c-0.2,0-0.4-0.1-0.5-0.2
				l-3.8-1.8c-0.2-0.1-0.4-0.3-0.6-0.4l-4.6-4.9c-0.2-0.2-0.3-0.4-0.4-0.7l-0.6-1.6l-1.1,2.2c-0.1,0.2-0.2,0.4-0.4,0.6l-4.6,4.4
				l-0.6,1.5l-0.6,3.6c0,0,0.1,0,0.1,0l3.1,0.4c0.6,0.1,1.1,0.4,1.4,0.9l7.3,10.7c0.2,0.2,0.3,0.5,0.3,0.7l1.1,5.4
				c0,0.2,0,0.3,0,0.5l-0.4,10.9c0,0.2,0,0.4-0.1,0.6l-0.8,2.1c-0.1,0.3-0.3,0.5-0.5,0.8l-6,5.7
				C158.8,134.3,158.3,134.5,157.8,134.5z"/>
		</g>
		<g>
			<path class="st0" d="M103.4,27.7c16.5,0,29.9,13.4,29.9,29.9c0,17-19,31.4-29.9,42.5C92.5,89,73.5,74.6,73.5,57.6
				C73.5,41.1,86.9,27.7,103.4,27.7z"/>
			<path class="st2" d="M103.4,102.1c-0.5,0-1.1-0.2-1.4-0.6c-1.9-1.9-4-4-6.3-6.1C84.9,85.2,71.5,72.5,71.5,57.6
				c0-17.6,14.3-31.9,31.9-31.9c17.6,0,31.9,14.3,31.9,31.9c0,14.9-13.4,27.6-24.1,37.8c-2.3,2.2-4.4,4.2-6.3,6.1
				C104.5,101.9,104,102.1,103.4,102.1z M103.4,29.7c-15.4,0-27.9,12.5-27.9,27.9c0,13.2,12.7,25.2,22.9,34.9c1.8,1.7,3.4,3.3,5,4.8
				c1.6-1.5,3.2-3.1,5-4.8c10.2-9.7,22.9-21.7,22.9-34.9C131.3,42.2,118.8,29.7,103.4,29.7z"/>
		</g>
		<g>
			<path class="st0" d="M107,64.2c-1.1,0.5-2.3,0.7-3.5,0.7c-4.9,0-8.9-4-8.9-8.9c0-4.9,4-8.9,8.9-8.9c3.8,0,7.2,2.4,8.4,6"/>
			<path class="st2" d="M103.4,66.9c-6,0-10.9-4.9-10.9-10.9s4.9-10.9,10.9-10.9c4.6,0,8.8,2.9,10.3,7.3c0.4,1-0.2,2.2-1.2,2.5
				c-1,0.4-2.2-0.2-2.5-1.2c-1-2.8-3.6-4.6-6.5-4.6c-3.8,0-6.9,3.1-6.9,6.9s3.1,6.9,6.9,6.9c1,0,1.9-0.2,2.8-0.6c1-0.4,2.2,0,2.6,1
				c0.4,1,0,2.2-1,2.6C106.4,66.6,104.9,66.9,103.4,66.9z"/>
		</g>
	</g>
</g>
</svg>
