<?xml version="1.0" encoding="utf-8"?>
<!-- Generator: Adobe Illustrator 21.0.2, SVG Export Plug-In . SVG Version: 6.00 Build 0)  -->
<svg version="1.1" xmlns="http://www.w3.org/2000/svg" xmlns:xlink="http://www.w3.org/1999/xlink" x="0px" y="0px" width="151.1px"
	 height="120px" viewBox="274.3 327.7 151.1 120" style="enable-background:new 274.3 327.7 151.1 120;" xml:space="preserve">
<style type="text/css">
	.st0{fill:#FFFFFF;}
	.st1{fill:#00509F;}
</style>
<g id="Layer_2">
	<g>
		<path class="st0" d="M290.4,416.1c-6.1,0-11.1-5-11.1-11.1v-50.8c0-6.1,5-11.1,11.1-11.1h75.2c6.1,0,11.1,5,11.1,11.1v22.9
			c0,2.7,0,2.7-17.5,19.6c-5.4,5.2-12.6,12.2-14.8,14.5c-0.9,2.8-3.6,4.9-6.7,4.9H290.4z"/>
		<path class="st0" d="M365.6,348.2c3.3,0,6.1,2.7,6.1,6.1v22.9c0,1.1-31.9,30.9-31.9,32c0,1.1-0.9,2-2,2h-47.4
			c-3.3,0-6.1-2.7-6.1-6.1v-50.8c0-3.3,2.7-6.1,6.1-6.1H365.6 M365.6,338.2h-75.2c-8.9,0-16.1,7.2-16.1,16.1v50.8
			c0,8.9,7.2,16.1,16.1,16.1h47.4c4.9,0,9.1-2.9,11-7.1c2.6-2.7,9-8.9,13.9-13.7c3.9-3.8,8-7.8,11.1-10.8c5.8-5.7,7.9-7.9,7.9-12.4
			v-22.9C381.7,345.5,374.5,338.2,365.6,338.2L365.6,338.2z"/>
	</g>
	<g>
		<path class="st0" d="M336.4,405.4c-5,0-9-4.1-9-9v-11.8c0-5,4.1-9,9-9h75.1c5,0,9,4.1,9,9v11.8c0,5-4.1,9-9,9H336.4z"/>
		<path class="st0" d="M411.4,380.6c2.2,0,4,1.8,4,4v11.8c0,2.2-1.8,4-4,4h-75.1c-2.2,0-4-1.8-4-4v-11.8c0-2.2,1.8-4,4-4H411.4
			 M336.4,384.6C336.3,384.6,336.3,384.6,336.4,384.6L336.4,384.6 M411.4,370.6h-75.1c-7.7,0-14,6.3-14,14v11.8c0,7.7,6.3,14,14,14
			h75.1c7.7,0,14-6.3,14-14v-11.8C425.5,376.9,419.2,370.6,411.4,370.6L411.4,370.6z"/>
	</g>
	<g>
		<path class="st0" d="M340.7,442.2c-5.5,0-9.9-4.4-9.9-9.9v-33.9c0-5,5-5.2,8-5.4c2.1-0.1,5-0.2,8.8-0.3c6.9-0.1,16.3-0.2,26.3-0.2
			s19.4,0.1,26.3,0.2c3.8,0.1,6.7,0.2,8.8,0.3c3,0.1,8,0.4,8,5.4v33.9c0,5.5-4.4,9.9-9.9,9.9H340.7z"/>
		<path class="st0" d="M373.9,397.6c19.1,0,38.1,0.3,38.1,0.8v33.9c0,2.7-2.2,4.9-4.9,4.9h-66.4c-2.7,0-4.9-2.2-4.9-4.9v-33.9
			C335.8,397.9,354.8,397.6,373.9,397.6 M373.9,387.6c-10,0-19.4,0.1-26.4,0.2c-3.8,0.1-6.8,0.2-8.9,0.3c-1.3,0.1-2.2,0.1-3,0.2
			c-7.7,0.8-9.8,6.8-9.8,10.1v33.9c0,8.2,6.7,14.9,14.9,14.9h66.4c8.2,0,14.9-6.7,14.9-14.9v-33.9c0-3.4-2.1-9.3-9.8-10.1
			c-0.8-0.1-1.7-0.1-3-0.2c-2.1-0.1-5.1-0.2-8.9-0.3C393.3,387.7,383.9,387.6,373.9,387.6L373.9,387.6z"/>
	</g>
	<g>
		<path class="st0" d="M363.5,389.7c-5.5,0-11.5-0.1-13.9-0.1l-1,0c-1,0-1.9-0.2-2.8-0.6c-1.7-0.8-3-2.1-3.7-3.9s-0.6-3.6,0.1-5.4
			c3.4-7.6,10.8-12.5,19-12.5c8.2,0,15.7,4.9,19,12.5c1.6,3.5-0.1,7.7-3.6,9.2C375.6,389.5,375.2,389.7,363.5,389.7z"/>
		<path class="st0" d="M361.3,372.2c6.2,0,11.9,3.7,14.5,9.5c0.4,1,0,2.2-1,2.6c-0.5,0.2-5.6,0.3-11.1,0.3c-6.9,0-14.5-0.1-14.9-0.1
			c-0.3,0-0.5-0.1-0.8-0.2c-1-0.4-1.5-1.6-1-2.6C349.3,376,355,372.2,361.3,372.2 M361.3,362.2c-10.2,0-19.5,6.1-23.6,15.5
			c-1.3,2.9-1.4,6.2-0.2,9.2c1.2,3,3.4,5.3,6.3,6.6c1.5,0.7,3.2,1,4.8,1c0.1,0,0.4,0,1,0c2.3,0,8.4,0.1,14,0.1
			c11.9,0,13-0.1,15.2-1.1c6-2.7,8.8-9.8,6.1-15.8C380.7,368.3,371.4,362.2,361.3,362.2L361.3,362.2z"/>
	</g>
	<g>
		<path class="st0" d="M384.3,389.7c-11.6,0-12-0.2-13.2-0.7c-3.5-1.6-5.1-5.7-3.6-9.2c3.4-7.6,10.8-12.5,19-12.5
			c8.2,0,15.7,4.9,19,12.5c0.8,1.7,0.8,3.6,0.1,5.4s-2,3.1-3.7,3.9c-0.9,0.4-1.8,0.6-2.8,0.6l-1,0
			C395.8,389.6,389.8,389.7,384.3,389.7z"/>
		<path class="st0" d="M386.5,372.2c6.2,0,11.9,3.7,14.5,9.5c0.4,1,0,2.2-1,2.6c-0.3,0.1-0.5,0.2-0.8,0.2c-0.4,0-8,0.1-14.9,0.1
			c-5.6,0-10.7-0.1-11.1-0.3c-1-0.4-1.5-1.6-1-2.6C374.6,376,380.3,372.2,386.5,372.2 M386.5,362.2c-10.2,0-19.5,6.1-23.6,15.5
			c-2.7,6.1,0.1,13.2,6.1,15.8c2.2,1,3.3,1.1,15.2,1.1c5.6,0,11.7-0.1,14-0.1c0.5,0,0.9,0,1,0c1.7,0,3.3-0.3,4.8-1
			c2.9-1.3,5.2-3.7,6.3-6.6c1.2-3,1.1-6.2-0.2-9.2C406,368.3,396.7,362.2,386.5,362.2L386.5,362.2z"/>
	</g>
</g>
<g id="Layer_1">
	<path class="st1" d="M337.8,411.2h-47.4c-3.3,0-6.1-2.7-6.1-6.1v-50.8c0-3.3,2.7-6.1,6.1-6.1h75.2c3.3,0,6.1,2.7,6.1,6.1v22.9
		c0,1.1-0.9,2-2,2s-2-0.9-2-2v-22.9c0-1.1-0.9-2.1-2.1-2.1h-75.2c-1.1,0-2.1,0.9-2.1,2.1v50.8c0,1.1,0.9,2.1,2.1,2.1h47.4
		c1.1,0,2,0.9,2,2S338.9,411.2,337.8,411.2z"/>
	<path class="st1" d="M302.3,399.3c-0.4,0-0.8-0.1-1.2-0.4c-0.9-0.7-1.1-1.9-0.4-2.8l14.7-19.9c0.7-0.9,1.9-1.1,2.8-0.4
		c0.9,0.7,1.1,1.9,0.4,2.8l-14.7,19.9C303.5,399,302.9,399.3,302.3,399.3z"/>
	<path class="st1" d="M302.9,387.8c-3.3,0-5.9-2.7-5.9-5.9c0-3.3,2.7-5.9,5.9-5.9c3.3,0,5.9,2.7,5.9,5.9
		C308.8,385.2,306.2,387.8,302.9,387.8z M302.9,380c-1.1,0-1.9,0.9-1.9,1.9c0,1.1,0.9,1.9,1.9,1.9c1.1,0,1.9-0.9,1.9-1.9
		C304.8,380.8,304,380,302.9,380z"/>
	<path class="st1" d="M316.5,398.7c-3.3,0-5.9-2.7-5.9-5.9s2.7-5.9,5.9-5.9s5.9,2.7,5.9,5.9S319.7,398.7,316.5,398.7z M316.5,390.8
		c-1.1,0-1.9,0.9-1.9,1.9s0.9,1.9,1.9,1.9s1.9-0.9,1.9-1.9S317.5,390.8,316.5,390.8z"/>
	<path class="st1" d="M361.6,361h-18.4c-1.1,0-2-0.9-2-2s0.9-2,2-2h18.4c1.1,0,2,0.9,2,2S362.7,361,361.6,361z"/>
	<path class="st1" d="M361.6,369h-18.4c-1.1,0-2-0.9-2-2s0.9-2,2-2h18.4c1.1,0,2,0.9,2,2S362.7,369,361.6,369z"/>
	<path class="st1" d="M411.4,400.5h-75.1c-2.2,0-4-1.8-4-4v-11.8c0-2.2,1.8-4,4-4h75.1c2.2,0,4,1.8,4,4v11.8
		C415.5,398.7,413.7,400.5,411.4,400.5z M336.4,384.7C336.3,384.7,336.3,384.7,336.4,384.7l0,11.8l75.1,0l0-11.8L336.4,384.7z"/>
	<path class="st1" d="M407.1,437.3h-66.4c-2.7,0-4.9-2.2-4.9-4.9v-33.9c0-1.1,0.9-2,2-2s2,0.9,2,2v33.9c0,0.5,0.4,0.9,0.9,0.9h66.4
		c0.5,0,0.9-0.4,0.9-0.9v-33.9c0-1.1,0.9-2,2-2s2,0.9,2,2v33.9C412,435.1,409.8,437.3,407.1,437.3z"/>
	<path class="st1" d="M378.8,437.3c-1.1,0-2-0.9-2-2v-36.8c0-1.1,0.9-2,2-2s2,0.9,2,2v36.8C380.8,436.4,379.9,437.3,378.8,437.3z
		 M369,437.3c-1.1,0-2-0.9-2-2v-36.8c0-1.1,0.9-2,2-2s2,0.9,2,2v36.8C371,436.4,370.1,437.3,369,437.3z"/>
	<path class="st1" d="M348.6,384.7c-0.3,0-0.5-0.1-0.8-0.2c-1-0.4-1.5-1.6-1-2.6c2.6-5.8,8.2-9.5,14.5-9.5c6.2,0,11.9,3.7,14.5,9.5
		c0.4,1,0,2.2-1,2.6c-1,0.4-2.2,0-2.6-1c-1.9-4.4-6.2-7.2-10.8-7.2c-4.6,0-8.9,2.8-10.8,7.2C350.1,384.2,349.4,384.7,348.6,384.7z"
		/>
	<path class="st1" d="M399.2,384.7c-0.8,0-1.5-0.4-1.8-1.2c-1.9-4.3-6.2-7.2-10.8-7.2c-4.6,0-8.9,2.8-10.8,7.2c-0.4,1-1.6,1.5-2.6,1
		c-1-0.4-1.5-1.6-1-2.6c2.6-5.8,8.2-9.5,14.5-9.5c6.2,0,11.9,3.7,14.5,9.5c0.4,1,0,2.2-1,2.6C399.7,384.6,399.4,384.7,399.2,384.7z"
		/>
</g>
</svg>
