<?xml version="1.0" encoding="utf-8"?>
<!-- Generator: Adobe Illustrator 19.1.0, SVG Export Plug-In . SVG Version: 6.00 Build 0)  -->
<svg version="1.1" id="Слой_1" xmlns="http://www.w3.org/2000/svg" xmlns:xlink="http://www.w3.org/1999/xlink" x="0px" y="0px"
	 width="150px" height="150px" viewBox="0 0 150 150" style="enable-background:new 0 0 150 150;" xml:space="preserve">
<style type="text/css">
	.st0{fill-rule:evenodd;clip-rule:evenodd;fill:#FFFFFF;}
	.st1{fill:#FFFFFF;}
	.st2{fill:#F5CA3A;}
</style>
<g>
	<path class="st0" d="M75,20c33.1,0,60,26.9,60,60c0,33.1-26.9,60-60,60c-33.1,0-60-26.9-60-60C15,46.9,41.9,20,75,20z"/>
	<path class="st1" d="M75,20c33.1,0,60,26.9,60,60c0,33.1-26.9,60-60,60c-33.1,0-60-26.9-60-60C15,46.9,41.9,20,75,20 M75,10
		C36.4,10,5,41.4,5,80c0,38.6,31.4,70,70,70s70-31.4,70-70C145,41.4,113.6,10,75,10L75,10z"/>
</g>
<g>
	<g>
		<path class="st2" d="M69,110c1.2,0,2-0.8,2-2V96c0-1.2-0.8-2-2-2c-1.2,0-2,0.8-2,2v12C67,109.2,67.8,110,69,110z M81,110
			c1.2,0,2-0.8,2-2V96c0-1.2-0.8-2-2-2c-1.2,0-2,0.8-2,2v12C79,109.2,79.8,110,81,110z M75,20c-33,0-60,27-60,60
			c0,2.7,0.2,5.4,0.5,8c0.2,2,0.6,4,1.1,6l0.1,0.3c0.6,2.5,1.4,4.9,2.3,7.2v0.1l0.2,0.4c2.3,5.8,5.4,11.2,9.4,16h-0.2l3.2,3.4
			c9.1,9.5,20.7,15.7,33.4,17.8v0l0.4,0c2.8,0.4,5.6,0.7,8.4,0.7c0.4,0,0.8,0,1.2,0s0.8,0,1.2,0c2.9-0.1,5.7-0.3,8.4-0.7l0.4,0v0
			c12.7-2.1,24.3-8.2,33.4-17.8l3.2-3.4h-0.2c4-4.8,7.1-10.2,9.4-16l0.2-0.4v-0.1c2.6-6.7,4-13.9,4-21.5C135,47,108,20,75,20z
			 M19.5,87.3c0-0.2-0.1-0.4-0.1-0.7c0.8-2.8,3-5.6,5.4-8.4c3.2-4,5-7,6.2-9.2c0.6,1.2,1.6,2.8,2.9,4.7L20.1,91
			C19.8,89.8,19.6,88.5,19.5,87.3z M36.3,77.1c0.2,0.3,0.4,0.6,0.7,0.9l0.4,0.6c1.5,2,3,3.9,4.1,5.8L24.4,94c-0.5,0-1.1-0.1-1.5-0.2
			L36.3,77.1z M51,102v-4c0-1.2-0.8-2-2-2c-1.2,0-2,0.8-2,2v4h-1.4c-0.8,0-2.8-0.2-3.4-1.6c-1.4-2.6,0.2-5.4,3.6-9.4
			c2-2.4,3.4-4.4,4.2-6c1,1.4,2.2,3.4,4.2,6l0.4,0.4c0.2,0.3,0.4,0.5,0.6,0.7c0.1,0.2,0.1,0.3,0.2,0.5c1.3,1.6,2.2,2.9,2.7,4.1
			c0.4,1,0.5,2,0.2,3.1c0,0.1,0,0.1-0.1,0.2c0,0,0,0.1-0.1,0.1c-0.1,0.1-0.1,0.2-0.2,0.4c-0.6,1.2-1,1.2-1.4,1.4
			c-0.2,0-0.4,0.1-0.5,0.2c-0.1,0-0.3,0-0.5,0H51z M55,106v12H43v-12h2.4H55z M38.6,94h-0.4h-5.4l9.7-5.5
			C41.3,89.9,39.7,91.8,38.6,94z M23,100.7V98h2h12.5c-0.1,1.4,0.2,2.8,0.9,4.2c0.2,0.4,0.4,0.7,0.6,1.1V118h-5
			C29.3,113,25.6,107.1,23,100.7z M81,135.6c-4,0.4-8,0.4-12,0V134c0-3.4,2.6-6,6-6c3.4,0,6,2.6,6,6V135.6z M85,135.1V134
			c0-5.6-4.4-10-10-10c-5.6,0-10,4.4-10,10v1.1c-10.2-1.9-19.4-6.5-26.9-13.1H39h4h14h2h32h2h14h4h0.9
			C104.4,128.6,95.2,133.2,85,135.1z M59,90.6V84h32v6.5c-2.6,3.4-4.9,7.3-2.6,11.9c0.6,1.1,1.3,2.1,2.6,2.8V118H59v-12.9
			c1.1-0.7,1.8-1.8,2.4-2.9c0,0,0,0,0,0c0.8-1.4,1.1-2.7,1-4C62.3,95.4,60.8,92.9,59,90.6z M89.5,80H77v-4c0-1.2-0.8-2-2-2
			s-2,0.8-2,2v4H60.5L75,54L89.5,80z M69,44c0-3.4,2.6-6,6-6c3.4,0,6,2.6,6,6c0,3.4-2.6,6-6,6C71.6,50,69,47.4,69,44z M104.6,102
			H103v-4c0-1.2-0.8-2-2-2c-1.2,0-2,0.8-2,2v4h-4.4c-0.3,0-0.6,0-0.9-0.1c-0.1-0.1-0.2-0.1-0.3-0.1c0,0,0,0,0,0
			c-0.5-0.2-0.8-0.7-1.2-1.4c-1.4-2.6,0.4-5.2,3.4-9L96,91c1.8-2.4,3.2-4.4,4-6c0.7,1.2,1.7,2.9,3.3,4.8l0.5,0.6
			c0,0.2,0.2,0.4,0.4,0.6c1.4,1.6,2.7,3.4,3.5,5l0.3,0.8c0.3,0.8,0.5,1.5,0.4,2.2c-0.1,0.5-0.2,1-0.4,1.4
			C107.4,101.8,105.4,102,104.6,102z M107,106v12H95v-12h9.4H107z M127,100.7c-2.6,6.4-6.3,12.3-11,17.3h-5v-14.9
			c0.1-0.1,0.1-0.2,0.2-0.3c0.1-0.1,0.3-0.3,0.4-0.6c0.6-1.2,1-2.8,0.8-4.2H125h2V100.7z M130.5,87.3c-0.2,1.8-0.6,3.6-1,5.4
			c-1,0.8-2.6,1.4-4.6,1.4h-4v-6c0-1.2-0.8-2-2-2c-1.2,0-2,0.8-2,2v6h-5.2h-0.6c-1-2-2.6-4-3.8-5.6l-0.2-0.2c0.2-3,2.8-6.2,5.4-9.6
			L113,78c3-3.8,4.8-6.8,6-9c1,2.2,3,5.2,6.2,9.2c2.4,2.8,4.6,5.6,5.4,8.4C130.6,86.8,130.6,87,130.5,87.3z M128.2,75.6
			c-4.6-5.6-6.2-9.2-6.8-10.8c-0.4-1-1-2.2-2.4-2.2c-1.4,0-2,1.2-2.4,2.2c-0.8,1.6-2.4,5-6.8,10.8l-0.4,0.6
			c-2.1,2.7-4.1,5.4-5.3,8.1c-1.1-1.8-1.7-3-1.9-3.7c-0.2-0.8-0.8-2-2.2-2c-1.4,0-2,1.2-2.4,2c-0.4,0.9-1.1,2.4-2.6,4.7V82
			c0-0.6-0.2-1.1-0.6-1.5L79.1,53.2c3.5-1.5,5.9-5,5.9-9.2c0-4.9-3.4-8.9-8-9.8V28c0-1.2-0.8-2-2-2c-1.2,0-2,0.8-2,2v6.2
			c-4.6,0.9-8,4.9-8,9.8c0,4.1,2.4,7.6,5.9,9.2L55.7,80.4C55.3,80.7,55,81.3,55,82v3.4c-1.7-2.5-2.4-4.2-2.8-5c-0.4-0.8-1-2-2.4-2
			c-1.4,0-2,1.2-2.2,2c-0.2,0.7-0.7,1.9-1.8,3.5c0,0,0,0,0,0c-1.2-2.7-3.2-5.3-5.2-7.9l-0.4-0.6c-4.6-5.6-6-9.2-6.8-10.8
			c-0.4-1-1-2.2-2.4-2.2c-1.6,0.2-2,1.4-2.6,2.4c-0.6,1.6-2,5.2-6.8,10.8c-0.9,1.1-1.8,2.2-2.6,3.3C19.6,48.6,44.6,24,75,24
			c30.5,0,55.5,24.7,56,55.1C130.1,77.9,129.1,76.8,128.2,75.6z"/>
	</g>
</g>
</svg>
