<?xml version="1.0" encoding="utf-8"?>
<!-- Generator: Adobe Illustrator 21.0.2, SVG Export Plug-In . SVG Version: 6.00 Build 0)  -->
<svg version="1.1" xmlns="http://www.w3.org/2000/svg" xmlns:xlink="http://www.w3.org/1999/xlink" x="0px" y="0px" width="124px"
	 height="119.2px" viewBox="-296.7 352.3 124 119.2" style="enable-background:new -296.7 352.3 124 119.2;" xml:space="preserve">
<style type="text/css">
	.st0{fill:#FFFFFF;}
	.st1{fill:#00509F;}
</style>
<g id="Layer_2">
	<g>
		<path class="st0" d="M-279.5,466.5c-6.7,0-12.2-5.5-12.2-12.2v-58.1c0-6.7,5.5-12.2,12.2-12.2h89.5c6.7,0,12.2,5.5,12.2,12.2v58.1
			c0,6.7-5.5,12.2-12.2,12.2H-279.5z"/>
		<path class="st0" d="M-189.9,388.9c4,0,7.2,3.2,7.2,7.2v58.1c0,4-3.2,7.2-7.2,7.2h-89.5c-4,0-7.2-3.2-7.2-7.2v-58.1
			c0-4,3.2-7.2,7.2-7.2h44.3c1.1,0,34.4,0,35.5,0H-189.9 M-189.9,378.9h-9.7h-35.5h-44.3c-9.5,0-17.2,7.7-17.2,17.2v58.1
			c0,9.5,7.7,17.2,17.2,17.2h89.5c9.5,0,17.2-7.7,17.2-17.2v-58.1C-172.7,386.6-180.4,378.9-189.9,378.9L-189.9,378.9z"/>
	</g>
	<g>
		<path class="st0" d="M-217.6,418.3c-1.9,0-3.7-0.8-5-2.1c-1.1-1.2-2.5-2.4-3.9-3.8c-7.4-7.1-17.5-16.6-17.5-28.8
			c0-14.6,11.9-26.4,26.4-26.4c14.6,0,26.4,11.9,26.4,26.4c0,12.1-10.1,21.7-17.5,28.7c-1.5,1.4-2.8,2.7-4,3.8
			C-213.9,417.6-215.7,418.3-217.6,418.3z"/>
		<path class="st0" d="M-217.6,362.3c11.8,0,21.4,9.6,21.4,21.4c0,10-8.8,18.3-15.9,25.1c-1.5,1.4-2.9,2.7-4.1,4
			c-0.4,0.4-0.9,0.6-1.4,0.6c-0.5,0-1.1-0.2-1.4-0.6c-1.2-1.3-2.6-2.6-4.1-4c-7.1-6.7-15.9-15.1-15.9-25.1
			C-239,371.9-229.4,362.3-217.6,362.3 M-217.6,352.3c-17.3,0-31.4,14.1-31.4,31.4c0,14.3,11,24.7,19,32.3c1.4,1.3,2.7,2.6,3.8,3.7
			c2.2,2.3,5.4,3.6,8.6,3.6c3.2,0,6.3-1.3,8.6-3.6c1.1-1.1,2.4-2.4,3.8-3.7c8.1-7.7,19.1-18.1,19.1-32.4
			C-186.2,366.4-200.3,352.3-217.6,352.3L-217.6,352.3z"/>
	</g>
</g>
<g id="Layer_1">
	<g>
		<path class="st1" d="M-189.9,461.5h-89.5c-4,0-7.2-3.2-7.2-7.2v-58.1c0-4,3.2-7.2,7.2-7.2h44.3c1.1,0,2,0.9,2,2s-0.9,2-2,2h-44.3
			c-1.8,0-3.2,1.4-3.2,3.2v58.1c0,1.8,1.4,3.2,3.2,3.2h89.5c1.8,0,3.2-1.4,3.2-3.2v-58.1c0-1.8-1.4-3.2-3.2-3.2h-9.7
			c-1.1,0-2-0.9-2-2s0.9-2,2-2h9.7c4,0,7.2,3.2,7.2,7.2v58.1C-182.7,458.2-185.9,461.5-189.9,461.5z"/>
	</g>
	<g>
		<path class="st1" d="M-208.6,461.5c-1.1,0-2-0.9-2-2v-19.2c0-1.1,0.9-2,2-2h23.9c1.1,0,2,0.9,2,2s-0.9,2-2,2h-21.9v17.2
			C-206.6,460.6-207.5,461.5-208.6,461.5z M-230.8,461.5c-1.1,0-2-0.9-2-2v-17.2h-51.9c-1.1,0-2-0.9-2-2s0.9-2,2-2h53.9
			c1.1,0,2,0.9,2,2v19.2C-228.8,460.6-229.7,461.5-230.8,461.5z M-184.7,420.1h-66.5c-1.1,0-2-0.9-2-2v-27.2c0-1.1,0.9-2,2-2
			s2,0.9,2,2v25.2h64.5c1.1,0,2,0.9,2,2S-183.6,420.1-184.7,420.1z M-273.4,420.1h-11.3c-1.1,0-2-0.9-2-2s0.9-2,2-2h9.3v-25.2
			c0-1.1,0.9-2,2-2s2,0.9,2,2v27.2C-271.4,419.2-272.3,420.1-273.4,420.1z"/>
	</g>
	<g>
		<g>
			<path class="st1" d="M-209.3,392.3h-16.6c-1.7,0-3.1-1.4-3.1-3.1v-11.9c0-1.7,1.4-3.1,3.1-3.1h16.6c1.7,0,3.1,1.4,3.1,3.1v11.9
				C-206.2,390.9-207.6,392.3-209.3,392.3z M-225,388.3h14.7v-10H-225V388.3z M-209.3,378.3L-209.3,378.3L-209.3,378.3z"/>
		</g>
		<g>
			<path class="st1" d="M-217.4,381.5c-1.1,0-2-0.9-2-2v-3.3c0-1.1,0.9-2,2-2s2,0.9,2,2v3.3C-215.4,380.6-216.3,381.5-217.4,381.5z"
				/>
		</g>
	</g>
	<g>
		<path class="st1" d="M-217.4,413.3L-217.4,413.3c-0.5,0-1.1-0.2-1.4-0.6c-1.2-1.3-2.6-2.6-4.1-4c-7.1-6.7-15.9-15.1-15.9-25.1
			c0-11.8,9.6-21.4,21.4-21.4s21.4,9.6,21.4,21.4c0,10-8.8,18.3-15.9,25.1c-1.5,1.4-2.9,2.7-4.1,4
			C-216.4,413.1-216.9,413.3-217.4,413.3z M-217.4,366.3c-9.6,0-17.4,7.8-17.4,17.4c0,8.3,8.1,16,14.7,22.2c1,0.9,1.9,1.8,2.8,2.7
			c0.9-0.9,1.8-1.7,2.8-2.7c6.5-6.2,14.7-13.9,14.7-22.2C-200,374.1-207.8,366.3-217.4,366.3z"/>
	</g>
</g>
</svg>
