<?xml version="1.0" encoding="utf-8"?>
<!-- Generator: Adobe Illustrator 21.0.2, SVG Export Plug-In . SVG Version: 6.00 Build 0)  -->
<svg version="1.1" id="Layer_1" xmlns="http://www.w3.org/2000/svg"  x="0px" y="0px"
	 width="164.3px" height="150px" viewBox="0 0 164.3 150" style="enable-background:new 0 0 164.3 150;" xml:space="preserve">
<style type="text/css">
	.st0{fill:#FFFFFF;}
	.st1{fill:#04509D;}
</style>
<g id="Layer_1_1_">
</g>
<g>
	<g>
		<g>
			<path class="st0" d="M121.7,116.8h-12.2l-5-3.3l-15.3-5.4c-1.5-0.5-3-0.4-4.4,0.3c-1.4,0.7-2.4,1.9-2.8,3.4
				c-0.8,2.6,0.4,5.3,2.7,6.6l3.9,2.1l-5.7,0l-2.3-5.9c-0.8-1.9-2.6-3.2-4.7-3.2c-1.6,0-3.2,0.8-4.1,2.1c-0.9,1.3-1.2,3-0.7,4.6
				l0.5,1.6l-4-2.2c-1.3-0.7-2.8-0.8-4.2-0.4c-1.4,0.5-2.5,1.5-3.1,2.8c-1.2,2.6-0.1,5.6,2.4,6.8l9,4.4l18.6,3.8l24.2,0l7.1-1.4
				V116.8z"/>
			<path class="st0" d="M87.4,107.7c0.6,0,1.3,0.1,1.9,0.3l15.3,5.4l5,3.3h12.2v16.8l-7.1,1.4l-24.2,0l-18.6-3.8l-9-4.4
				c-2.5-1.3-3.6-4.3-2.4-6.8c0.6-1.3,1.7-2.3,3.1-2.8c0.5-0.2,1.1-0.3,1.6-0.3c0.9,0,1.7,0.2,2.5,0.6l4,2.2l-0.5-1.6
				c-0.5-1.5-0.3-3.2,0.7-4.6c0.9-1.3,2.5-2.1,4.1-2.1c2.1,0,3.9,1.2,4.7,3.2l2.3,5.9l5.7,0l-3.9-2.1c-2.4-1.3-3.5-4-2.7-6.6
				c0.4-1.5,1.5-2.7,2.8-3.4C85.6,107.9,86.5,107.7,87.4,107.7 M87.4,97.7c-2.4,0-4.9,0.6-7.1,1.7c-1.1,0.6-2.1,1.2-3,2
				c-0.5,0-0.9-0.1-1.4-0.1c-4.5,0-8.8,2-11.6,5.5c-1.3,0.1-2.6,0.3-3.9,0.8c-4,1.3-7.3,4.3-9,8.2c-3.4,7.5-0.3,16.3,7.1,19.9l9,4.4
				c0.8,0.4,1.6,0.7,2.4,0.8l18.6,3.8c0.7,0.1,1.3,0.2,2,0.2l24.2,0c0,0,0,0,0,0c0.7,0,1.3-0.1,2-0.2l7.1-1.4c4.7-0.9,8-5,8-9.8
				v-16.8c0-5.5-4.5-10-10-10h-9.1l-2.5-1.6c-0.7-0.5-1.4-0.8-2.2-1.1l-15.3-5.4C90.9,98,89.1,97.7,87.4,97.7L87.4,97.7z"/>
		</g>
		<g>
			<circle class="st0" cx="41.8" cy="85.4" r="11.2"/>
			<path class="st0" d="M41.8,74.2c6.2,0,11.2,5,11.2,11.2s-5,11.2-11.2,11.2s-11.2-5-11.2-11.2S35.6,74.2,41.8,74.2 M41.8,64.2
				c-11.7,0-21.2,9.5-21.2,21.2s9.5,21.2,21.2,21.2S63,97.1,63,85.4S53.5,64.2,41.8,64.2L41.8,64.2z"/>
		</g>
		<g>
			<circle class="st0" cx="74.9" cy="86.2" r="11.2"/>
			<path class="st0" d="M74.9,75c6.2,0,11.2,5,11.2,11.2s-5,11.2-11.2,11.2s-11.2-5-11.2-11.2S68.8,75,74.9,75 M74.9,65
				c-11.7,0-21.2,9.5-21.2,21.2s9.5,21.2,21.2,21.2s21.2-9.5,21.2-21.2S86.6,65,74.9,65L74.9,65z"/>
		</g>
		<g>
			<circle class="st0" cx="108.1" cy="86.2" r="11.2"/>
			<path class="st0" d="M108.1,75c6.2,0,11.2,5,11.2,11.2s-5,11.2-11.2,11.2s-11.2-5-11.2-11.2S101.9,75,108.1,75 M108.1,65
				c-11.7,0-21.2,9.5-21.2,21.2s9.5,21.2,21.2,21.2s21.2-9.5,21.2-21.2S119.8,65,108.1,65L108.1,65z"/>
		</g>
		<g>
			<circle class="st0" cx="141.3" cy="85.4" r="11.2"/>
			<path class="st0" d="M141.3,74.2c6.2,0,11.2,5,11.2,11.2s-5,11.2-11.2,11.2s-11.2-5-11.2-11.2S135.1,74.2,141.3,74.2 M141.3,64.2
				c-11.7,0-21.2,9.5-21.2,21.2s9.5,21.2,21.2,21.2s21.2-9.5,21.2-21.2S153,64.2,141.3,64.2L141.3,64.2z"/>
		</g>
		<g>
			<line class="st0" x1="41.8" y1="61.6" x2="141.3" y2="61.6"/>
			<path class="st0" d="M141.3,71.6H41.8c-5.5,0-10-4.5-10-10c0-5.5,4.5-10,10-10h99.6c5.5,0,10,4.5,10,10
				C151.3,67.2,146.8,71.6,141.3,71.6z"/>
		</g>
		<g>
			<g>
				<line class="st0" x1="80.6" y1="39.1" x2="94.2" y2="39.1"/>
				<path class="st0" d="M94.2,44.1H80.6c-2.8,0-5-2.2-5-5s2.2-5,5-5h13.6c2.8,0,5,2.2,5,5S97,44.1,94.2,44.1z"/>
			</g>
			<g>
				<g>
					<path class="st0" d="M94.3,19.2c2,0,3.8,0.4,5.4,1.7c1.7,1.4,2.8,3.5,2.8,6.2s-1.2,4.9-3,6.3c-1.6,1.2-3.5,1.5-5.4,1.5h-5.8
						v9.7c0,1-0.9,1.8-1.9,1.8c-1.1,0-1.9-0.8-1.9-1.8V21.1c0-1.1,0.8-1.9,1.9-1.9H94.3z M96.9,23.4c-0.9-0.6-1.9-0.8-3.2-0.8h-5.5
						v9h5.2c1.2,0,2.3-0.2,3.3-0.8c1.1-0.7,1.8-2,1.8-3.7C98.6,25.3,98,24.1,96.9,23.4z"/>
					<path class="st0" d="M94.3,19.2c2,0,3.8,0.4,5.4,1.7c1.7,1.4,2.8,3.5,2.8,6.2s-1.2,4.9-3,6.3c-1.6,1.2-3.5,1.5-5.4,1.5h-5.8
						v9.7c0,1-0.9,1.8-1.9,1.8c-1.1,0-1.9-0.8-1.9-1.8V21.1c0-1.1,0.8-1.9,1.9-1.9H94.3 M88.3,31.6h5.2c1.2,0,2.3-0.2,3.3-0.8
						c1.1-0.7,1.8-2,1.8-3.7c0-1.7-0.6-3-1.7-3.7c-0.9-0.6-1.9-0.8-3.2-0.8h-5.5V31.6 M94.3,9.2h-7.9c-6.6,0-11.9,5.3-11.9,11.9
						v23.5c0,6.5,5.3,11.8,11.9,11.8c6.6,0,11.9-5.3,11.9-11.8v-0.1c2.7-0.5,5.1-1.6,7.1-3.1l0,0l0,0c4.4-3.4,7-8.6,7-14.3
						c0-5.6-2.3-10.6-6.5-14l0,0l0,0C102.7,10.5,98.8,9.2,94.3,9.2L94.3,9.2z"/>
				</g>
			</g>
			<g>
				<g>
					<polyline class="st0" points="73.3,32.8 62,32.8 62,61.2 					"/>
					<path class="st0" d="M62,66.2c-2.8,0-5-2.2-5-5V32.8c0-1.3,0.5-2.6,1.5-3.5c0.9-0.9,2.2-1.5,3.5-1.5l0,0l11.3,0
						c2.8,0,5,2.2,5,5s-2.2,5-5,5l0,0l-6.3,0v23.3C67,63.9,64.8,66.2,62,66.2z"/>
				</g>
				<g>
					<polyline class="st0" points="109.8,32.8 121.1,32.8 121.1,61.2 					"/>
					<path class="st0" d="M121.1,66.2c-2.8,0-5-2.2-5-5V37.8l-6.3,0c-2.8,0-5-2.2-5-5c0-2.8,2.2-5,5-5l11.3,0c1.3,0,2.6,0.5,3.5,1.5
						c0.9,0.9,1.5,2.2,1.5,3.5v28.3C126.1,63.9,123.8,66.2,121.1,66.2z"/>
				</g>
			</g>
		</g>
		<g>
			<line class="st0" x1="41.8" y1="72" x2="41.8" y2="61.6"/>
			<path class="st0" d="M41.8,77c-2.8,0-5-2.2-5-5V61.6c0-2.8,2.2-5,5-5s5,2.2,5,5V72C46.8,74.7,44.5,77,41.8,77z"/>
		</g>
		<g>
			<line class="st0" x1="141.3" y1="72" x2="141.3" y2="61.6"/>
			<path class="st0" d="M141.3,77c-2.8,0-5-2.2-5-5V61.6c0-2.8,2.2-5,5-5s5,2.2,5,5V72C146.3,74.7,144.1,77,141.3,77z"/>
		</g>
		<g>
			<line class="st0" x1="108.1" y1="73.2" x2="108.1" y2="62.9"/>
			<path class="st0" d="M108.1,78.2c-2.8,0-5-2.2-5-5V62.9c0-2.8,2.2-5,5-5s5,2.2,5,5v10.3C113.1,76,110.9,78.2,108.1,78.2z"/>
		</g>
		<g>
			<line class="st0" x1="74.9" y1="73.2" x2="74.9" y2="62.9"/>
			<path class="st0" d="M74.9,78.2c-2.8,0-5-2.2-5-5V62.9c0-2.8,2.2-5,5-5s5,2.2,5,5v10.3C79.9,76,77.7,78.2,74.9,78.2z"/>
		</g>
	</g>
	<g>
		<path class="st0" d="M139.3,137h-16.1c-1.1,0-2-0.9-2-2v-19.7c0-1.1,0.9-2,2-2h16.1c1.1,0,2,0.9,2,2V135
			C141.3,136.1,140.4,137,139.3,137z"/>
		<path class="st0" d="M139.3,113.3c1.1,0,2,0.9,2,2V135c0,1.1-0.9,2-2,2h-16.1c-1.1,0-2-0.9-2-2v-19.7c0-1.1,0.9-2,2-2H139.3
			 M139.3,103.3h-16.1c-6.6,0-12,5.4-12,12V135c0,6.6,5.4,12,12,12h16.1c6.6,0,12-5.4,12-12v-19.7
			C151.3,108.7,145.9,103.3,139.3,103.3L139.3,103.3z"/>
	</g>
	<g>
		<line class="st0" x1="128" y1="119.5" x2="128" y2="130.8"/>
		<path class="st0" d="M128,135.8c-2.8,0-5-2.2-5-5v-11.3c0-2.8,2.2-5,5-5s5,2.2,5,5v11.3C133,133.5,130.7,135.8,128,135.8z"/>
	</g>
	<g>
		<rect x="62" y="31.6" class="st0" width="59" height="29.6"/>
		<path class="st0" d="M121.1,31.6v29.6H62V31.6H121.1 M121.1,21.6H62c-5.5,0-10,4.5-10,10v29.6c0,5.5,4.5,10,10,10h59
			c5.5,0,10-4.5,10-10V31.6C131.1,26,126.6,21.6,121.1,21.6L121.1,21.6z"/>
	</g>
</g>
<g>
	<g>
		<path class="st1" d="M121.7,116.8h-12.2l-5-3.3l-15.3-5.4c-1.5-0.5-3-0.4-4.4,0.3c-1.4,0.7-2.4,1.9-2.8,3.4
			c-0.8,2.6,0.4,5.3,2.7,6.6l3.9,2.1l-5.7,0l-2.3-5.9c-0.8-1.9-2.6-3.2-4.7-3.2c-1.6,0-3.2,0.8-4.1,2.1c-0.9,1.3-1.2,3-0.7,4.6
			l0.5,1.6l-4-2.2c-1.3-0.7-2.8-0.8-4.2-0.4c-1.4,0.5-2.5,1.5-3.1,2.8c-1.2,2.6-0.1,5.6,2.4,6.8l9,4.4l18.6,3.8l24.2,0l7.1-1.4
			V116.8z M74.8,115.6c0.6-0.9,2.1-0.7,2.5,0.3l1.8,4.5l-3.3,0l-1.2-3.6C74.4,116.4,74.5,116,74.8,115.6z M114.3,131.4H91l-17.8-3.6
			l-8.8-4.3c-0.8-0.4-1.1-1.3-0.7-2.1c0.2-0.4,0.5-0.7,0.9-0.8c0.4-0.1,0.9-0.1,1.3,0.1l6.2,3.4h17.2l7.2-3.6l-10.2-5.4
			c-0.8-0.4-1.2-1.4-1-2.3c0.2-0.5,0.5-0.9,1-1.2c0.5-0.2,1-0.3,1.6-0.1l14.7,5.2l5.7,3.8h13.3v9.4L114.3,131.4z"/>
		<path class="st1" d="M114.7,135.2l-24.2,0l-18.7-3.8c0,0,0,0-0.1,0l-9-4.4c-2.7-1.3-3.8-4.5-2.6-7.2c0.6-1.4,1.8-2.4,3.2-2.9
			c1.4-0.5,3-0.3,4.4,0.4l3.4,1.9l-0.3-1c-0.5-1.6-0.3-3.4,0.7-4.8c1-1.4,2.6-2.2,4.3-2.2c2.2,0,4.1,1.3,4.9,3.3l2.3,5.7l4.6,0
			l-3.1-1.6c-2.5-1.3-3.7-4.2-2.9-6.9c0.5-1.5,1.5-2.8,3-3.5c1.4-0.7,3.1-0.8,4.6-0.3l15.3,5.4l5,3.3h12.1c0.1,0,0.3,0.1,0.3,0.3
			v3.6c0,0,0,0,0,0v9.4c0,0,0,0,0,0v3.7c0,0.1-0.1,0.2-0.2,0.2L114.7,135.2z M71.9,130.9l18.6,3.8l24.1,0l6.8-1.4v-3.2l-7.1,1.4
			c0,0,0,0,0,0H91L73.2,128c0,0,0,0-0.1,0l-8.8-4.3c-0.9-0.4-1.3-1.5-0.9-2.4c0.2-0.5,0.6-0.8,1.1-1c0.5-0.2,1-0.1,1.5,0.1l6.2,3.4
			h17.1l6.7-3.3l-9.7-5.2c-0.9-0.5-1.4-1.6-1.1-2.6c0.2-0.6,0.6-1.1,1.1-1.3c0.5-0.3,1.2-0.3,1.7-0.1l14.7,5.2l5.7,3.8h12.9v-3.1
			h-11.9c0,0-0.1,0-0.1,0l-5-3.3l-15.3-5.4c-1.4-0.5-2.9-0.4-4.2,0.3c-1.3,0.7-2.3,1.8-2.7,3.2c-0.7,2.4,0.4,5.1,2.6,6.3l3.9,2.1
			c0.1,0.1,0.2,0.2,0.1,0.3c0,0.1-0.1,0.2-0.2,0.2l-5.7,0c0,0,0,0,0,0c-0.1,0-0.2-0.1-0.2-0.2l-2.3-5.9c-0.7-1.8-2.5-3-4.5-3
			c-1.5,0-3,0.7-3.9,2c-0.9,1.3-1.1,2.9-0.7,4.3l0.5,1.6c0,0.1,0,0.2-0.1,0.3c-0.1,0.1-0.2,0.1-0.3,0l-4-2.2c-1.2-0.7-2.6-0.8-4-0.4
			c-1.3,0.4-2.4,1.4-3,2.7c-1.1,2.5-0.1,5.3,2.3,6.5L71.9,130.9z M73.3,127.6l17.7,3.5l23.2,0l7.2-1.4v-9h-13c0,0-0.1,0-0.1,0
			l-5.7-3.8L88,111.7c-0.5-0.2-0.9-0.1-1.4,0.1c-0.4,0.2-0.7,0.6-0.9,1c-0.2,0.8,0.1,1.6,0.8,2l10.2,5.4c0.1,0,0.1,0.1,0.1,0.2
			s-0.1,0.2-0.1,0.2l-7.2,3.6c0,0-0.1,0-0.1,0H72.2c0,0-0.1,0-0.1,0l-6.2-3.4c-0.3-0.2-0.7-0.2-1.1-0.1c-0.4,0.1-0.6,0.4-0.8,0.7
			c-0.3,0.7,0,1.4,0.6,1.7L73.3,127.6z M75.8,120.7c-0.1,0-0.2-0.1-0.2-0.2l-1.2-3.6c-0.2-0.5-0.1-1.1,0.2-1.5
			c0.3-0.5,0.9-0.7,1.5-0.6c0.6,0.1,1.1,0.5,1.4,1l1.8,4.5c0,0.1,0,0.2,0,0.2c0,0.1-0.1,0.1-0.2,0.1L75.8,120.7
			C75.8,120.7,75.8,120.7,75.8,120.7z M75.9,115.3c-0.4,0-0.7,0.2-0.9,0.4c0,0,0,0,0,0c-0.2,0.3-0.3,0.7-0.2,1.1l1.1,3.4l2.7,0
			L77,116c-0.1-0.4-0.5-0.6-0.9-0.7C76,115.3,75.9,115.3,75.9,115.3z M74.8,115.6L74.8,115.6L74.8,115.6z"/>
	</g>
	<path class="st1" d="M41.8,98.6c-7.3,0-13.2-5.9-13.2-13.2s5.9-13.2,13.2-13.2S55,78.1,55,85.4S49,98.6,41.8,98.6z M41.8,76.2
		c-5.1,0-9.2,4.1-9.2,9.2s4.1,9.2,9.2,9.2s9.2-4.1,9.2-9.2S46.8,76.2,41.8,76.2z"/>
	<path class="st1" d="M74.9,99.4c-7.3,0-13.2-5.9-13.2-13.2S67.7,73,74.9,73s13.2,5.9,13.2,13.2S82.2,99.4,74.9,99.4z M74.9,77
		c-5.1,0-9.2,4.1-9.2,9.2s4.1,9.2,9.2,9.2s9.2-4.1,9.2-9.2S80,77,74.9,77z"/>
	<path class="st1" d="M108.1,99.4c-7.3,0-13.2-5.9-13.2-13.2S100.9,73,108.1,73s13.2,5.9,13.2,13.2S115.4,99.4,108.1,99.4z
		 M108.1,77c-5.1,0-9.2,4.1-9.2,9.2s4.1,9.2,9.2,9.2s9.2-4.1,9.2-9.2S113.2,77,108.1,77z"/>
	<path class="st1" d="M141.3,98.6c-7.3,0-13.2-5.9-13.2-13.2s5.9-13.2,13.2-13.2s13.2,5.9,13.2,13.2S148.6,98.6,141.3,98.6z
		 M141.3,76.2c-5.1,0-9.2,4.1-9.2,9.2s4.1,9.2,9.2,9.2s9.2-4.1,9.2-9.2S146.4,76.2,141.3,76.2z"/>
	<path class="st1" d="M141.3,63.6H41.8c-1.1,0-2-0.9-2-2s0.9-2,2-2h99.6c1.1,0,2,0.9,2,2S142.4,63.6,141.3,63.6z"/>
	<g>
		<path class="st1" d="M94.2,41.1H80.6c-1.1,0-2-0.9-2-2s0.9-2,2-2h13.6c1.1,0,2,0.9,2,2S95.3,41.1,94.2,41.1z"/>
		<g>
			<path class="st1" d="M94.3,19.2c2,0,3.8,0.4,5.4,1.7c1.7,1.4,2.8,3.5,2.8,6.2s-1.2,4.9-3,6.3c-1.6,1.2-3.5,1.5-5.4,1.5h-5.8v9.7
				c0,1-0.9,1.8-1.9,1.8c-1.1,0-1.9-0.8-1.9-1.8V21.1c0-1.1,0.8-1.9,1.9-1.9H94.3z M96.9,23.4c-0.9-0.6-1.9-0.8-3.2-0.8h-5.5v9h5.2
				c1.2,0,2.3-0.2,3.3-0.8c1.1-0.7,1.8-2,1.8-3.7C98.6,25.3,98,24.1,96.9,23.4z"/>
		</g>
		<g>
			<path class="st1" d="M62,63.2c-1.1,0-2-0.9-2-2V32.8c0-0.5,0.2-1,0.6-1.4s0.9-0.6,1.4-0.6l0,0l11.3,0c1.1,0,2,0.9,2,2s-0.9,2-2,2
				l0,0l-9.3,0v26.3C64,62.3,63.1,63.2,62,63.2z"/>
			<path class="st1" d="M121.1,63.2c-1.1,0-2-0.9-2-2V34.8l-9.3,0c-1.1,0-2-0.9-2-2s0.9-2,2-2l11.3,0c0.5,0,1,0.2,1.4,0.6
				c0.4,0.4,0.6,0.9,0.6,1.4v28.3C123.1,62.3,122.2,63.2,121.1,63.2z"/>
		</g>
	</g>
	<path class="st1" d="M41.8,74c-1.1,0-2-0.9-2-2V61.6c0-1.1,0.9-2,2-2s2,0.9,2,2V72C43.8,73.1,42.9,74,41.8,74z"/>
	<path class="st1" d="M141.3,74c-1.1,0-2-0.9-2-2V61.6c0-1.1,0.9-2,2-2s2,0.9,2,2V72C143.3,73.1,142.4,74,141.3,74z"/>
	<path class="st1" d="M108.1,75.2c-1.1,0-2-0.9-2-2V62.9c0-1.1,0.9-2,2-2s2,0.9,2,2v10.3C110.1,74.3,109.2,75.2,108.1,75.2z"/>
	<path class="st1" d="M74.9,75.2c-1.1,0-2-0.9-2-2V62.9c0-1.1,0.9-2,2-2s2,0.9,2,2v10.3C76.9,74.3,76.1,75.2,74.9,75.2z"/>
</g>
<path class="st1" d="M139.3,139h-16.1c-2.2,0-4-1.8-4-4v-19.7c0-2.2,1.8-4,4-4h16.1c2.2,0,4,1.8,4,4V135
	C143.3,137.2,141.5,139,139.3,139z M139.3,135v2V135L139.3,135L139.3,135z M123.2,115.3V135h16.1l0-19.7H123.2z"/>
<path class="st1" d="M128,132.8c-1.1,0-2-0.9-2-2v-11.3c0-1.1,0.9-2,2-2s2,0.9,2,2v11.3C130,131.9,129.1,132.8,128,132.8z"/>
</svg>
