<?xml version="1.0" encoding="utf-8"?>
<!-- Generator: Adobe Illustrator 21.0.2, SVG Export Plug-In . SVG Version: 6.00 Build 0)  -->
<svg version="1.1" xmlns="http://www.w3.org/2000/svg" xmlns:xlink="http://www.w3.org/1999/xlink" x="0px" y="0px" width="138px"
	 height="114px" viewBox="687.6 30.9 138 114" style="enable-background:new 687.6 30.9 138 114;" xml:space="preserve">
<style type="text/css">
	.st0{fill:#FFFFFF;}
	.st1{fill:#00509F;}
	.st2{display:none;fill:#FFFFFF;}
</style>
<g id="Layer_2">
	<g>
		<path class="st0" d="M775.8,116c-3.1,0-5.8-2.1-6.7-4.9c-3-3.3-15.8-15.7-26-25.5c-0.6,0.2-1.2,0.2-1.8,0.2c-3.9,0-7-3.1-7-7V68.5
			c0-6.8,5.5-12.4,12.3-12.4h61.6c6.8,0,12.3,5.5,12.3,12.4v35.2c0,6.8-5.5,12.3-12.3,12.3H775.8z"/>
		<path class="st0" d="M808.2,61.1c4.1,0,7.3,3.3,7.3,7.4v35.2c0,4.1-3.3,7.3-7.3,7.3h-32.4c-1.1,0-2-0.9-2-2s-30.6-30.2-30.6-30.2
			c0,1.1-0.9,2-2,2s-2-0.9-2-2V68.5c0-4.1,3.3-7.4,7.3-7.4H808.2 M808.2,51.1h-61.6c-9.6,0-17.3,7.8-17.3,17.4v10.4
			c0,6.6,5.4,12,12,12c0,0,0.1,0,0.1,0c10.1,9.7,20.2,19.5,23.5,23c1.9,4.2,6.1,7.2,11,7.2h32.4c9.6,0,17.3-7.8,17.3-17.3V68.5
			C825.6,58.9,817.8,51.1,808.2,51.1L808.2,51.1z"/>
	</g>
	<g>
		<path class="st0" d="M724.5,85c-3.9,0-7-3.1-7-7V48.2c0-6.8,5.5-12.3,12.3-12.3h61.6c6.8,0,12.3,5.5,12.3,12.3v14.1
			c0,3.7-2.9,6.7-6.5,7c-2.5,0.5-20,4.3-35.6,7.8C725.6,85,725.4,85,724.5,85z"/>
		<path class="st0" d="M791.5,40.9c4.1,0,7.3,3.3,7.3,7.3v14.1c0,1.1-0.9,2-2,2S725.6,80,724.5,80s-2-0.9-2-2V48.2
			c0-4.1,3.3-7.3,7.3-7.3H791.5 M791.5,30.9h-61.6c-9.6,0-17.3,7.8-17.3,17.3V78c0,6.6,5.4,12,12,12c1.6,0,1.6,0,38.3-8.1
			c14.3-3.2,32-7.1,35.2-7.7c6.1-0.6,10.8-5.7,10.8-11.9V48.2C808.8,38.7,801,30.9,791.5,30.9L791.5,30.9z"/>
	</g>
	<g>
		<path class="st0" d="M704.9,139.9c-6.8,0-12.3-5.5-12.3-12.3V83.4c0-6.8,5.5-12.3,12.3-12.3h65.1c6.8,0,12.3,5.5,12.3,12.3v44.2
			c0,6.8-5.5,12.3-12.3,12.3H704.9z"/>
		<path class="st0" d="M770.1,76c4.1,0,7.3,3.3,7.3,7.3v44.2c0,4.1-3.3,7.3-7.3,7.3h-65.1c-4.1,0-7.3-3.3-7.3-7.3V83.4
			c0-4.1,3.3-7.3,7.3-7.3H770.1 M770.1,66h-65.1c-9.6,0-17.3,7.8-17.3,17.3v44.2c0,9.6,7.8,17.3,17.3,17.3h65.1
			c9.6,0,17.3-7.8,17.3-17.3V83.4C787.4,73.8,779.6,66,770.1,66L770.1,66z"/>
	</g>
</g>
<g id="Layer_1">
	<g>
		<path class="st1" d="M775.4,94.8h-70.5c-4.1,0-7.3-3.3-7.3-7.3c0-1.1,0.9-2,2-2s2,0.9,2,2c0,1.8,1.5,3.3,3.3,3.3h70.5
			c1.1,0,2,0.9,2,2S776.5,94.8,775.4,94.8z"/>
		<path class="st1" d="M807.4,105.7h-18.5c-1.1,0-2-0.9-2-2V92.2c0-1.1,0.9-2,2-2h18.5c1.1,0,2,0.9,2,2v11.5
			C809.4,104.8,808.5,105.7,807.4,105.7z M790.9,101.7h14.5v-7.5h-14.5V101.7z"/>
		<path class="st2" d="M724.5,86.1c-3.9,0-7-3.1-7-7V49.3c0-6.8,5.5-12.3,12.3-12.3h61.6c6.8,0,12.3,5.5,12.3,12.3v14.1
			c0,3.9-3.1,7-7,7s-7-3.1-7-7V51h-58.3v28.1C731.5,83,728.3,86.1,724.5,86.1z"/>
		<path class="st1" d="M724.5,81.1c-1.1,0-2-0.9-2-2V49.3c0-4.1,3.3-7.3,7.3-7.3h61.6c4.1,0,7.3,3.3,7.3,7.3v14.1c0,1.1-0.9,2-2,2
			s-2-0.9-2-2V49.3c0-1.8-1.5-3.3-3.3-3.3h-61.6c-1.8,0-3.3,1.5-3.3,3.3v29.8C726.5,80.2,725.6,81.1,724.5,81.1z"/>
		<path class="st2" d="M807.8,116.3h-32.4c-3.9,0-7-3.1-7-7s3.1-7,7-7h30.8V70.4h-58.3v8.7c0,3.9-3.1,7-7,7s-7-3.1-7-7V68.8
			c0-6.8,5.5-12.4,12.3-12.4h61.6c6.8,0,12.3,5.5,12.3,12.4v35.2C820.2,110.8,814.6,116.3,807.8,116.3z"/>
		<path class="st1" d="M807.8,111.3h-32.4c-1.1,0-2-0.9-2-2s0.9-2,2-2h32.4c1.8,0,3.3-1.5,3.3-3.3V68.8c0-1.8-1.5-3.4-3.3-3.4h-61.6
			c-1.8,0-3.3,1.5-3.3,3.4v10.4c0,1.1-0.9,2-2,2s-2-0.9-2-2V68.8c0-4.1,3.3-7.4,7.3-7.4h61.6c4.1,0,7.3,3.3,7.3,7.4v35.2
			C815.2,108,811.9,111.3,807.8,111.3z"/>
		<path class="st1" d="M746.8,65.5h-22.3c-1.1,0-2-0.9-2-2c0-1.1,0.9-2,2-2h22.3c1.1,0,2,0.9,2,2C748.8,64.6,747.9,65.5,746.8,65.5z
			 M796.8,54.7h-72.3c-1.1,0-2-0.9-2-2s0.9-2,2-2h72.3c1.1,0,2,0.9,2,2S797.9,54.7,796.8,54.7z"/>
		<path class="st1" d="M775.4,120.2H765c-2.7,0-4.9-2.2-4.9-4.9v-5.2c0-2.7,2.2-4.9,4.9-4.9h10.4c1.1,0,2,0.9,2,2v11
			C777.4,119.3,776.5,120.2,775.4,120.2z M765,109.2c-0.5,0-0.9,0.4-0.9,0.9v5.2c0,0.5,0.4,0.9,0.9,0.9h8.4v-7H765z"/>
		<path class="st1" d="M775.3,87.9H709c-1.1,0-2-0.9-2-2s0.9-2,2-2h66.3c1.1,0,2,0.9,2,2S776.4,87.9,775.3,87.9z"/>
		<path class="st1" d="M770.1,136h-65.1c-4.1,0-7.3-3.3-7.3-7.3V84.5c0-4.1,3.3-7.3,7.3-7.3h65.1c4.1,0,7.3,3.3,7.3,7.3v44.2
			C777.4,132.7,774.1,136,770.1,136z M704.9,81.1c-1.8,0-3.3,1.5-3.3,3.3v44.2c0,1.8,1.5,3.3,3.3,3.3h65.1c1.8,0,3.3-1.5,3.3-3.3
			V84.5c0-1.8-1.5-3.3-3.3-3.3H704.9z"/>
	</g>
</g>
</svg>
