<?xml version="1.0" encoding="utf-8"?>
<!-- Generator: Adobe Illustrator 21.0.2, SVG Export Plug-In . SVG Version: 6.00 Build 0)  -->
<svg version="1.1" xmlns="http://www.w3.org/2000/svg"  x="0px" y="0px" width="153.3px"
	 height="150px" viewBox="0 0 153.3 150" style="enable-background:new 0 0 153.3 150;" xml:space="preserve">
<style type="text/css">
	.st0{fill-rule:evenodd;clip-rule:evenodd;fill:#FFFFFF;}
	.st1{fill:#FFFFFF;}
	.st2{fill:#00509F;}
</style>
<g id="Layer_1_copy">
	<g>
		<g>
			<path class="st0" d="M66.9,138.9c31.5,0,57.3-25.7,57.3-57.3c0-31.5-25.7-57.3-57.3-57.3S9.6,50.1,9.6,81.7
				C9.6,113.2,35.4,138.9,66.9,138.9z"/>
			<path class="st1" d="M66.9,24.4c31.5,0,57.3,25.7,57.3,57.3c0,31.5-25.7,57.3-57.3,57.3S9.6,113.2,9.6,81.7
				C9.6,50.1,35.4,24.4,66.9,24.4 M66.9,14.4c-37.1,0-67.3,30.2-67.3,67.3c0,37.1,30.2,67.3,67.3,67.3c37.1,0,67.3-30.2,67.3-67.3
				C134.2,44.6,104,14.4,66.9,14.4L66.9,14.4z"/>
		</g>
		<g>
			<path class="st0" d="M91.6,132.6c28.1,0,50.9-22.9,50.9-50.9c0-28.1-22.9-50.9-50.9-50.9S40.7,53.6,40.7,81.7
				C40.7,109.7,63.6,132.6,91.6,132.6z"/>
			<path class="st1" d="M91.6,30.7c28.1,0,50.9,22.9,50.9,50.9c0,28.1-22.9,50.9-50.9,50.9c-28.1,0-50.9-22.9-50.9-50.9
				C40.7,53.6,63.6,30.7,91.6,30.7 M91.6,20.7c-33.6,0-60.9,27.3-60.9,60.9c0,33.6,27.3,60.9,60.9,60.9c33.6,0,60.9-27.3,60.9-60.9
				C152.5,48.1,125.2,20.7,91.6,20.7L91.6,20.7z"/>
		</g>
	</g>
	<g>
		<path class="st2" d="M92.4,133.3c-1.1,0-2-0.9-2-2s0.9-2,2-2c26.1,0,47.3-21.2,47.3-47.3c0-24.5-19.1-45.2-43.6-47.1
			c-1.1-0.1-1.9-1-1.8-2.1c0.1-1.1,1-1.9,2.1-1.8c26.5,2,47.3,24.5,47.3,51.1C143.6,110.3,120.7,133.3,92.4,133.3z"/>
		<path class="st2" d="M111.7,117.6c-0.7,0-1.4-0.4-1.7-1c-0.6-1-0.2-2.2,0.7-2.7c11.4-6.6,18.4-18.8,18.4-31.8
			c0-12.1-6-23.4-15.9-30.3c-0.9-0.6-1.1-1.9-0.5-2.8c0.6-0.9,1.9-1.1,2.8-0.5c11.1,7.6,17.7,20.2,17.7,33.6
			c0,14.5-7.8,28-20.4,35.3C112.4,117.5,112.1,117.6,111.7,117.6z"/>
		<path class="st2" d="M67.7,139.1c-32,0-58-26-58-58s26-58,58-58c32,0,58,26,58,58S99.7,139.1,67.7,139.1z M67.7,27.1
			c-29.8,0-54,24.2-54,54c0,29.8,24.2,54,54,54c29.8,0,54-24.2,54-54C121.7,51.3,97.5,27.1,67.7,27.1z"/>
		<path class="st2" d="M43.4,118.2c-0.4,0-0.8-0.1-1.1-0.4C30.2,109.5,23,95.7,23,81.1c0-24.6,20-44.7,44.7-44.7s44.7,20,44.7,44.7
			c0,14.6-7.2,28.4-19.2,36.7c-0.9,0.6-2.2,0.4-2.8-0.5c-0.6-0.9-0.4-2.2,0.5-2.8c11-7.6,17.5-20.1,17.5-33.4
			c0-22.4-18.2-40.7-40.7-40.7C45.3,40.5,27,58.7,27,81.1c0,13.3,6.5,25.8,17.5,33.4c0.9,0.6,1.1,1.9,0.5,2.8
			C44.6,117.9,44,118.2,43.4,118.2z"/>
		<path class="st2" d="M67.7,125.9c-4.6,0-9.2-0.7-13.6-2.1c-1.1-0.3-1.6-1.5-1.3-2.5c0.3-1.1,1.5-1.6,2.5-1.3
			c7.9,2.5,16.6,2.5,24.5,0.1c1.1-0.3,2.2,0.3,2.5,1.3c0.3,1.1-0.3,2.2-1.3,2.5C76.7,125.2,72.2,125.9,67.7,125.9z"/>
		<g>
			<g>
				<path class="st2" d="M60.4,68.4c1.4,0,2.5,1.2,2.5,2.6c0,1.4-1.1,2.6-2.5,2.6h-6.6v19.7c0,1.6-1.3,2.8-2.9,2.8
					c-1.6,0-2.9-1.2-2.9-2.8V73.5h-6.6c-1.4,0-2.5-1.2-2.5-2.6c0-1.4,1.1-2.6,2.5-2.6H60.4 M60.4,64.4h-19c-3.6,0-6.5,2.9-6.5,6.6
					c0,3.6,2.9,6.6,6.5,6.6H44v15.7c0,3.8,3.1,6.8,6.9,6.8c3.8,0,6.9-3.1,6.9-6.8V77.5h2.6c3.6,0,6.5-2.9,6.5-6.6
					C66.9,67.4,64,64.4,60.4,64.4L60.4,64.4z"/>
				<path class="st2" d="M92.6,68.1c2.2,0,3.6,1.6,3.6,3.5v21.8c0,1.5-1.1,2.7-2.8,2.7c-1.7,0-2.8-1.2-2.8-2.7v-15l-5.7,9.7
					c-0.6,1-1.4,1.8-2.8,1.8c-1.4,0-2.2-0.8-2.8-1.8l-5.7-9.7v15c0,1.5-1.1,2.7-2.8,2.7S68,94.9,68,93.4V71.6c0-2,1.4-3.5,3.6-3.5
					c1.4,0,2.5,0.7,3.2,1.8l7.3,12.7l7.4-12.7C90,68.8,91.1,68.1,92.6,68.1 M92.6,64.1c-2.8,0-5.3,1.4-6.6,3.8l-3.9,6.7l-3.8-6.7
					c0,0,0,0,0,0c-1.4-2.4-3.8-3.8-6.6-3.8c-4.3,0-7.6,3.2-7.6,7.5v21.8c0,3.7,3,6.7,6.8,6.7c3.8,0,6.8-2.9,6.8-6.7v-1.2
					c1.3,1.1,2.8,1.7,4.5,1.7c1.7,0,3.3-0.6,4.5-1.7v1.2c0,3.7,3,6.7,6.8,6.7c3.8,0,6.8-2.9,6.8-6.7V71.6
					C100.2,67.3,96.9,64.1,92.6,64.1L92.6,64.1z"/>
			</g>
		</g>
	</g>
</g>
<g id="Layer_1">
</g>
</svg>
