<?xml version="1.0" encoding="utf-8"?>
<!-- Generator: Adobe Illustrator 19.1.0, SVG Export Plug-In . SVG Version: 6.00 Build 0)  -->
<svg version="1.1" id="Слой_1" xmlns="http://www.w3.org/2000/svg" xmlns:xlink="http://www.w3.org/1999/xlink" x="0px" y="0px"
	 width="25px" height="23px" viewBox="0 0 25 23" style="enable-background:new 0 0 25 23;" xml:space="preserve">
<style type="text/css">
	.st0{fill:#FFFFFF;}
</style>
<path class="st0" d="M3.8,21.1l3,1.9L21.3,1.9l-3-1.9L3.8,21.1z M5.6,0.9c-1,0-2,0.2-2.8,0.7C1.9,2,1.2,2.7,0.7,3.5
	C0.2,4.3,0,5.3,0,6.4c0,1.1,0.2,2,0.7,2.9c0.5,0.8,1.2,1.5,2,1.9c0.8,0.5,1.8,0.7,2.8,0.7c1,0,2-0.2,2.8-0.7c0.8-0.4,1.5-1.1,2-1.9
	c0.5-0.8,0.7-1.8,0.7-2.9c0-1.1-0.2-2-0.7-2.9C9.9,2.7,9.2,2,8.4,1.6C7.5,1.1,6.6,0.9,5.6,0.9L5.6,0.9z M5.6,3.8c1.3,0,2,0.9,2,2.6
	c0,1.7-0.7,2.6-2,2.6C4.8,8.9,4.3,8.7,4,8.2C3.7,7.7,3.5,7.1,3.5,6.4C3.5,4.6,4.2,3.8,5.6,3.8L5.6,3.8z M19.4,11.4
	c-1,0-2,0.2-2.8,0.7c-0.9,0.4-1.5,1.1-2,1.9c-0.5,0.8-0.7,1.8-0.7,2.9c0,1.1,0.2,2,0.7,2.9c0.5,0.8,1.2,1.5,2,1.9
	c0.9,0.4,1.8,0.7,2.8,0.7c1,0,2-0.2,2.8-0.7c0.8-0.4,1.5-1.1,2-1.9c0.5-0.8,0.7-1.8,0.7-2.9c0-1.1-0.2-2-0.7-2.9
	c-0.5-0.8-1.2-1.4-2-1.9C21.4,11.7,20.5,11.4,19.4,11.4L19.4,11.4z M19.4,14.3c1.3,0,2,0.8,2,2.5c0,1.7-0.7,2.6-2,2.6
	c-0.7,0-1.3-0.2-1.6-0.7c-0.3-0.5-0.5-1.1-0.5-1.9C17.4,15.2,18.1,14.3,19.4,14.3L19.4,14.3z"/>
</svg>
