<?xml version="1.0" encoding="utf-8"?>
<!-- Generator: Adobe Illustrator 19.1.0, SVG Export Plug-In . SVG Version: 6.00 Build 0)  -->
<svg version="1.1" id="Слой_1" xmlns="http://www.w3.org/2000/svg" xmlns:xlink="http://www.w3.org/1999/xlink" x="0px" y="0px"
	 width="101.9px" height="83.4px" viewBox="0 0 101.9 83.4" style="enable-background:new 0 0 101.9 83.4;" xml:space="preserve">
<style type="text/css">
	.st0{fill-rule:evenodd;clip-rule:evenodd;fill:#155196;}
</style>
<path class="st0" d="M92.6,0H34.8c-5.2,0-9.3,4.2-9.3,9.4v4.9c0,1.2,1,2.1,2.1,2.1c1.2,0,2.1-1,2.1-2.1V9.4c0-2.8,2.3-5.1,5.1-5.1
	h57.8c2.8,0,5.1,2.3,5.1,5.1l0,39.5c0,2.8-2.3,5.1-5.1,5.1l-22.9,0c-1.2,0-2.1,1-2.1,2.1c0,1.2,1,2.1,2.1,2.1h22.9
	c5.2,0,9.4-4.2,9.4-9.3V9.4C101.9,4.2,97.7,0,92.6,0"/>
<path class="st0" d="M73.7,28.6l15.9-13.9c0.9-0.8,1-2.1,0.2-3c-0.8-0.9-2.1-0.9-3-0.2l-23,20.3l-5-4.5c0,0,0,0,0,0
	c-0.1-0.1-0.2-0.2-0.3-0.3L40.7,11.5c-0.9-0.8-2.2-0.7-3,0.2c-0.8,0.9-0.7,2.2,0.2,3l16.1,14.1L42.3,39.7c-0.9,0.8-0.9,2.2-0.1,3
	c0.4,0.4,1,0.7,1.6,0.7c0.5,0,1-0.2,1.5-0.6l11.9-11.2l5.2,4.6c0.4,0.4,0.9,0.5,1.4,0.5s1-0.2,1.4-0.6l5.3-4.8l16.2,15.2
	c0.4,0.4,0.9,0.6,1.5,0.6c0.6,0,1.1-0.2,1.6-0.7c0.8-0.9,0.8-2.2-0.1-3L73.7,28.6z"/>
<path class="st0" d="M57.9,55.5c-1.5-1.6-3.3-2.4-5.2-2.4c-1.9,0-3.7,0.8-5.3,2.4l-4.9,4.9c-0.4-0.2-0.8-0.4-1.2-0.6
	c-0.6-0.3-1.1-0.5-1.5-0.8C35.2,56,31,52.2,27,47.3c-1.9-2.4-3.2-4.5-4.2-6.6c1.3-1.2,2.4-2.4,3.6-3.5c0.4-0.4,0.9-0.9,1.3-1.3
	c3.3-3.3,3.3-7.5,0-10.7l-4.2-4.2c-0.5-0.5-1-1-1.4-1.5c-0.9-1-1.9-2-2.9-2.9c-1.5-1.5-3.3-2.3-5.2-2.3c-1.9,0-3.7,0.8-5.3,2.3l0,0
	l-5.3,5.3c-2,2-3.1,4.4-3.4,7.2c-0.4,4.5,1,8.7,2,11.5c2.5,6.8,6.3,13,11.8,19.8c6.8,8.1,14.9,14.5,24.3,19c3.6,1.7,8.3,3.7,13.6,4
	c0.3,0,0.7,0,1,0c3.6,0,6.6-1.3,8.9-3.8c0,0,0,0,0.1-0.1c0.8-1,1.7-1.9,2.7-2.8c0.7-0.6,1.3-1.3,2-2c1.5-1.6,2.3-3.5,2.3-5.4
	c0-1.9-0.8-3.8-2.4-5.3L57.9,55.5z M63.5,71.8C63.5,71.8,63.5,71.8,63.5,71.8c-0.6,0.7-1.2,1.2-1.9,1.9c-1,1-2,2-3,3.1
	c-1.6,1.7-3.4,2.5-5.8,2.5c-0.2,0-0.5,0-0.7,0c-4.6-0.3-8.9-2.1-12.1-3.6c-8.8-4.2-16.5-10.3-22.9-17.9C11.8,51.4,8.3,45.5,6,39.2
	c-1.4-3.9-2-6.9-1.7-9.7c0.2-1.8,0.9-3.3,2.1-4.6l5.3-5.3c0.8-0.7,1.6-1.1,2.4-1.1c1,0,1.8,0.6,2.3,1.1l0,0c0.9,0.9,1.8,1.8,2.8,2.8
	c0.5,0.5,1,1,1.5,1.5l4.2,4.2c1.6,1.6,1.6,3.2,0,4.8c-0.4,0.4-0.9,0.9-1.3,1.3c-1.3,1.3-2.5,2.6-3.9,3.8c0,0-0.1,0-0.1,0.1
	c-1.3,1.3-1.1,2.6-0.8,3.5l0,0.1c1.1,2.7,2.6,5.2,5,8.2l0,0c4.3,5.3,8.8,9.4,13.8,12.5c0.6,0.4,1.3,0.7,1.9,1
	c0.6,0.3,1.1,0.5,1.5,0.8c0.1,0,0.1,0.1,0.2,0.1c0.5,0.3,1,0.4,1.5,0.4c1.3,0,2.1-0.8,2.4-1.1l5.3-5.3c0.5-0.5,1.4-1.2,2.3-1.2
	c1,0,1.8,0.6,2.2,1.1l8.6,8.6C65.1,68.6,65.1,70.2,63.5,71.8"/>
</svg>
