<?xml version="1.0" encoding="utf-8"?>
<!-- Generator: Adobe Illustrator 19.1.0, SVG Export Plug-In . SVG Version: 6.00 Build 0)  -->
<svg version="1.1" id="Слой_1" xmlns="http://www.w3.org/2000/svg" xmlns:xlink="http://www.w3.org/1999/xlink" x="0px" y="0px"
	 width="73.7px" height="90.4px" viewBox="0 0 73.7 90.4" style="enable-background:new 0 0 73.7 90.4;" xml:space="preserve">
<style type="text/css">
	.st0{fill-rule:evenodd;clip-rule:evenodd;fill:#1B5292;}
</style>
<path class="st0" d="M22.4,36.8c0-1.2-1-2.2-2.2-2.2H2.2c-1.2,0-2.2,1-2.2,2.2c0,1.2,1,2.2,2.2,2.2h17.9
	C21.4,39.1,22.4,38.1,22.4,36.8"/>
<path class="st0" d="M71.5,34.6H53.5c-1.2,0-2.2,1-2.2,2.2c0,1.2,1,2.2,2.2,2.2h17.9c1.2,0,2.2-1,2.2-2.2
	C73.7,35.6,72.7,34.6,71.5,34.6"/>
<path class="st0" d="M36.8,22.4c1.2,0,2.2-1,2.2-2.2V2.2c0-1.2-1-2.2-2.2-2.2c-1.2,0-2.2,1-2.2,2.2v17.9
	C34.6,21.4,35.6,22.4,36.8,22.4"/>
<path class="st0" d="M48.6,27.3c0.6,0,1.1-0.2,1.6-0.7L62.9,14c0.9-0.9,0.9-2.3,0-3.2c-0.9-0.9-2.3-0.9-3.2,0L47,23.5
	c-0.9,0.9-0.9,2.3,0,3.2C47.5,27.1,48.1,27.3,48.6,27.3"/>
<path class="st0" d="M23.5,26.7c0.4,0.4,1,0.7,1.6,0.7c0.6,0,1.1-0.2,1.6-0.7c0.9-0.9,0.9-2.3,0-3.2L14,10.8c-0.9-0.9-2.3-0.9-3.2,0
	s-0.9,2.3,0,3.2L23.5,26.7z"/>
<path class="st0" d="M63.8,51c-1.7-1.5-3.8-2.3-6-2.3H44.9v-9c0-4.3-1.3-7.5-3.8-9.4c-4-2.9-9.5-1.3-9.7-1.2
	c-0.9,0.3-1.6,1.2-1.6,2.1v10.9c0,3.3-1.6,6.1-4.7,8.4c-2.4,1.7-4.8,2.5-5.2,2.6l-0.2,0.1c-0.8-1-2.1-1.5-3.5-1.5H7.7
	c-2.5,0-4.6,2.1-4.6,4.6v27.9c0,2.5,2.1,4.6,4.6,4.6h8.5c1.1,0,2.2-0.4,2.9-1.1c1.7,1.7,4,2.7,6.6,2.7h26.7c2.7,0,5.1-0.7,6.9-1.9
	c2.3-1.6,3.7-4,4.2-7.2L67,59.8C67.5,56.5,66.3,53.1,63.8,51 M16.4,84.1c0,0.1-0.1,0.1-0.1,0.1H7.7c-0.1,0-0.1-0.1-0.1-0.1V56.2
	c0-0.1,0.1-0.1,0.1-0.1h8.5c0.1,0,0.1,0.1,0.1,0.1V84.1z M62.5,59.1l-3.5,21.5c0,0,0,0.1,0,0.1c-0.1,1.3-0.6,5.2-6.6,5.2H25.7
	c-2.4,0-4.5-1.8-4.9-4.2c0-0.1,0-0.2-0.1-0.3v-24l0.1,0c0,0,0.1,0,0.1,0c0.1,0,3.3-0.9,6.5-3.2c4.4-3.1,6.7-7.3,6.7-12.1v-9.1
	c1.2-0.1,2.9-0.1,4.2,0.8c1.3,1,2,2.9,2,5.7v11.3c0,1.2,1,2.2,2.2,2.2h15.1c1.1,0,2.2,0.4,3.1,1.2C62.2,55.5,62.8,57.3,62.5,59.1"/>
</svg>
