<?xml version="1.0" encoding="utf-8"?>
<!-- Generator: Adobe Illustrator 19.1.0, SVG Export Plug-In . SVG Version: 6.00 Build 0)  -->
<svg version="1.1" id="Слой_1" xmlns="http://www.w3.org/2000/svg" xmlns:xlink="http://www.w3.org/1999/xlink" x="0px" y="0px"
	 width="89.7px" height="76.3px" viewBox="0 0 89.7 76.3" style="enable-background:new 0 0 89.7 76.3;" xml:space="preserve">
<style type="text/css">
	.st0{fill-rule:evenodd;clip-rule:evenodd;fill:#155196;}
</style>
<path class="st0" d="M25.6,0c-4.6,0-8.3,3.7-8.3,8.3v32.9c0,4.6,3.7,8.3,8.3,8.3h37.1l10.5,12.1c0.6,0.7,1.5,1.2,2.5,1.2
	c1.8,0,3.3-1.5,3.3-3.3v-9.9h2.4c4.6,0,8.3-3.7,8.3-8.3v-33C89.7,3.7,86,0,81.4,0H25.6z M85.2,8.3v32.9c0,2.1-1.7,3.8-3.8,3.8h-4.6
	c-1.2,0-2.3,1-2.3,2.3v9l-9.1-10.5c-0.4-0.5-1-0.8-1.7-0.8H25.6c-2.1,0-3.8-1.7-3.8-3.8v-33c0-2.1,1.7-3.8,3.8-3.8h55.8
	C83.5,4.5,85.2,6.2,85.2,8.3"/>
<path class="st0" d="M12.8,76.1c0.4,0.1,0.8,0.2,1.2,0.2c0.9,0,1.8-0.4,2.5-1.2l10.5-12.1h32.7c1.2,0,2.3-1,2.3-2.3
	c0-1.2-1-2.3-2.3-2.3H25.9c-0.7,0-1.3,0.3-1.7,0.8l-9.1,10.5v-9c0-1.2-1-2.3-2.3-2.3H8.3c-2.1,0-3.8-1.7-3.8-3.8V21.8
	c0-2.1,1.7-3.8,3.8-3.8c1.2,0,2.3-1,2.3-2.3c0-1.2-1-2.2-2.3-2.2c-4.6,0-8.3,3.7-8.3,8.3v32.9c0,4.6,3.7,8.3,8.3,8.3h2.4V73
	C10.6,74.4,11.5,75.6,12.8,76.1"/>
<path class="st0" d="M56.2,25.5c0,1.5-1.2,2.7-2.7,2.7c-1.5,0-2.7-1.2-2.7-2.7c0-1.5,1.2-2.7,2.7-2.7C55,22.9,56.2,24.1,56.2,25.5"
	/>
<path class="st0" d="M47.2,25.5c0,1.5-1.2,2.7-2.7,2.7c-1.5,0-2.7-1.2-2.7-2.7c0-1.5,1.2-2.7,2.7-2.7C46,22.9,47.2,24.1,47.2,25.5"
	/>
<path class="st0" d="M65.2,25.5c0,1.5-1.2,2.7-2.7,2.7c-1.5,0-2.7-1.2-2.7-2.7c0-1.5,1.2-2.7,2.7-2.7C64,22.9,65.2,24.1,65.2,25.5"
	/>
</svg>
