<?xml version="1.0" encoding="utf-8"?>
<!-- Generator: Adobe Illustrator 19.1.0, SVG Export Plug-In . SVG Version: 6.00 Build 0)  -->
<svg version="1.1" id="Слой_1" xmlns="http://www.w3.org/2000/svg" xmlns:xlink="http://www.w3.org/1999/xlink" x="0px" y="0px"
	 width="45px" height="40px" viewBox="0 0 45 40" style="enable-background:new 0 0 45 40;" xml:space="preserve">
<style type="text/css">
	.st0{fill:#00509F;}
</style>
<g>
	<g>
		<path class="st0" d="M37.7,30.6c-0.6-0.5-1.5-0.4-2,0.3c-0.1,0.1-0.2,0.2-0.3,0.4C34,33,32,34.5,29.6,35.5c0,0,0,0,0,0
			c-3.8,1.8-8.2,2.1-12.5,0.7c-3.7-1.2-6.8-3.6-9-7c-1.7-2.7-2.6-5.6-2.6-8.7c0-0.1,0-0.2,0-0.2h1.8c0.7,0,1-0.8,0.5-1.3l-3.2-3.2
			c-0.3-0.3-0.8-0.3-1.1,0L0.2,19c-0.5,0.5-0.1,1.3,0.5,1.3h1.8c0,3.7,1.1,7.3,3.1,10.5c0,0,0,0,0,0c2.6,4,6.2,6.8,10.6,8.2
			c2.1,0.7,4.2,1,6.4,1c2.9,0,5.7-0.6,8.2-1.8c3-1.3,5.4-3.2,7.2-5.5C38.5,32,38.3,31.1,37.7,30.6z M44.3,20h-1.8c0-0.4,0-0.8,0-1.2
			c-0.2-3.1-1.1-6.2-2.7-8.9c-1.5-2.6-3.7-4.9-6.2-6.6C31,1.6,28,0.5,24.9,0.1c-3.4-0.4-6.9,0.1-10,1.4C11.8,2.8,9.1,4.8,7,7.4
			C6.5,8.1,6.6,9,7.2,9.5c0.6,0.5,1.5,0.4,2-0.2C9.3,9.1,9.4,9,9.5,8.9c1.8-2,4-3.7,6.5-4.7c2.7-1.1,5.7-1.5,8.6-1.2
			c2.6,0.3,5.2,1.3,7.4,2.7c2.2,1.4,4,3.4,5.3,5.6c1.3,2.3,2.1,4.9,2.3,7.6c0,0.2,0,0.3,0,0.5c0,0.2,0,0.3,0,0.5h-1.8
			c-0.7,0-1,0.8-0.5,1.3l3.2,3.2c0.3,0.3,0.8,0.3,1.1,0l3.2-3.2C45.3,20.8,44.9,20,44.3,20z"/>
	</g>
</g>
</svg>
