<?xml version="1.0" encoding="utf-8"?>
<!-- Generator: Adobe Illustrator 20.1.0, SVG Export Plug-In . SVG Version: 6.00 Build 0)  -->
<svg version="1.1" id="Слой_1" xmlns="http://www.w3.org/2000/svg" xmlns:xlink="http://www.w3.org/1999/xlink" x="0px" y="0px"
	 width="40px" height="40px" viewBox="0 0 40 40" style="enable-background:new 0 0 40 40;" xml:space="preserve">
<style type="text/css">
	.st0{fill:#91A4BA;}
</style>
<g>
	<path class="st0" d="M23,6.5c-0.6,0-1-0.4-1-1V3c0-0.6,0.4-1,1-1s1,0.4,1,1v2.5C24,6.1,23.6,6.5,23,6.5z"/>
	<path class="st0" d="M23,6.5c-0.6,0-1-0.4-1-1V3c0-0.6,0.4-1,1-1s1,0.4,1,1v2.5C24,6.1,23.6,6.5,23,6.5z"/>
	<path class="st0" d="M27.5,34h-3.4c-0.6,0-1-0.4-1-1s0.4-1,1-1h3.4c0.6,0,1,0.4,1,1S28.1,34,27.5,34z"/>
	<path class="st0" d="M27.5,34h-3.4c-0.6,0-1-0.4-1-1s0.4-1,1-1h3.4c0.6,0,1,0.4,1,1S28.1,34,27.5,34z"/>
	<path class="st0" d="M17.9,38H4.1C2.4,38,1,36.6,1,34.9V22.1C1,20.4,2.4,19,4.1,19h13.9c1.7,0,3.1,1.4,3.1,3.1v12.9
		C21,36.6,19.6,38,17.9,38z M4.1,21C3.5,21,3,21.5,3,22.1v12.9C3,35.5,3.5,36,4.1,36h13.9c0.6,0,1.1-0.5,1.1-1.1V22.1
		c0-0.6-0.5-1.1-1.1-1.1H4.1z"/>
	<path class="st0" d="M35.9,38H22.1c-1.7,0-3.1-1.4-3.1-3.1V22.1c0-1.7,1.4-3.1,3.1-3.1h13.9c1.7,0,3.1,1.4,3.1,3.1v12.9
		C39,36.6,37.6,38,35.9,38z M22.1,21c-0.6,0-1.1,0.5-1.1,1.1v12.9c0,0.6,0.5,1.1,1.1,1.1h13.9c0.6,0,1.1-0.5,1.1-1.1V22.1
		c0-0.6-0.5-1.1-1.1-1.1H22.1z"/>
	<path class="st0" d="M29.9,21H16.1c-1.7,0-3.1-1.4-3.1-3.1V5.1C13,3.4,14.4,2,16.1,2h13.9C31.6,2,33,3.4,33,5.1v12.9
		C33,19.6,31.6,21,29.9,21z M16.1,4C15.5,4,15,4.5,15,5.1v12.9c0,0.6,0.5,1.1,1.1,1.1h13.9c0.6,0,1.1-0.5,1.1-1.1V5.1
		C31,4.5,30.5,4,29.9,4H16.1z"/>
	<path class="st0" d="M11,23.5c-0.6,0-1-0.4-1-1V20c0-0.6,0.4-1,1-1s1,0.4,1,1v2.5C12,23.1,11.6,23.5,11,23.5z"/>
</g>
</svg>
