<?xml version="1.0" encoding="utf-8"?>
<!-- Generator: Adobe Illustrator 21.0.2, SVG Export Plug-In . SVG Version: 6.00 Build 0)  -->
<svg version="1.1" id="Layer_1" xmlns="http://www.w3.org/2000/svg" xmlns:xlink="http://www.w3.org/1999/xlink" x="0px" y="0px"
	 width="40px" height="40px" viewBox="0 0 40 40" style="enable-background:new 0 0 40 40;" xml:space="preserve">
<style type="text/css">
	.st0{fill:#E62117;}
	.st1{fill-rule:evenodd;clip-rule:evenodd;fill:#FFFFFF;}
</style>
<g>
	<circle class="st0" cx="20" cy="20" r="20"/>
</g>
<path class="st1" d="M29.8,15.9c-0.2-1-1.1-1.8-2.1-1.9c-2.4-0.3-4.8-0.3-7.2-0.3c-2.4,0-4.8,0-7.2,0.3c-1,0.1-1.9,0.9-2.1,1.9
	c-0.3,1.5-0.3,3.1-0.3,4.6c0,1.5,0,3.1,0.3,4.6c0.2,1,1.1,1.8,2.1,1.9c2.4,0.3,4.8,0.3,7.2,0.3c2.4,0,4.8,0,7.2-0.3
	c1-0.1,1.9-0.9,2.1-1.9c0.3-1.5,0.3-3.1,0.3-4.6C30.1,19,30.1,17.4,29.8,15.9L29.8,15.9z M18,23.5v-6.4c2,1.1,4.1,2.1,6.1,3.2
	C22.1,21.4,20.1,22.4,18,23.5L18,23.5z M18,23.5"/>
</svg>
