<?xml version="1.0" encoding="utf-8"?>
<!-- Generator: Adobe Illustrator 21.0.2, SVG Export Plug-In . SVG Version: 6.00 Build 0)  -->
<svg version="1.1" id="Слой_1" xmlns="http://www.w3.org/2000/svg"  x="0px" y="0px"
	 width="40px" height="40px" viewBox="0 0 40 40" style="enable-background:new 0 0 40 40;" xml:space="preserve">
<style type="text/css">
	.st0{fill:#00509F;}
</style>
<g>
	<path class="st0" d="M34,34.6c-0.5,0-0.9-0.4-1-0.9L30.9,9.9H8.2c-0.6,0-1-0.4-1-1s0.4-1,1-1h23.5c0.5,0,0.9,0.4,1,0.9L35,33.5
		C35,34,34.6,34.5,34,34.6L34,34.6z"/>
	<path class="st0" d="M29.4,39c-0.6,0-1-0.4-1-1s0.4-1,1-1c1.1,0,2.1-0.5,2.8-1.2c0.6-0.6,0.8-1.4,0.8-2.1c0-0.6,0.4-1,0.9-1.1
		s1,0.4,1.1,0.9c0.1,1.3-0.3,2.6-1.3,3.6C32.6,38.3,31,39,29.4,39z"/>
	<path class="st0" d="M29.4,39c-0.6,0-1-0.4-1-1s0.4-1,1-1c1.1,0,2.1-0.5,2.8-1.2c0.6-0.6,0.8-1.4,0.8-2.1c0-0.6,0.4-1,0.9-1.1
		s1,0.4,1.1,0.9c0.1,1.3-0.3,2.6-1.3,3.6C32.6,38.3,31,39,29.4,39z"/>
	<path class="st0" d="M29.4,39H10.6c-0.6,0-1-0.4-1-1s0.4-1,1-1h18.8c0.6,0,1,0.4,1,1S30,39,29.4,39z"/>
	<path class="st0" d="M10.6,39c-1.6,0-3.2-0.7-4.3-1.9c-0.9-1-1.4-2.3-1.3-3.6c0-0.5,0.5-1,1.1-0.9c0.6,0,1,0.5,0.9,1.1
		c-0.1,0.7,0.2,1.5,0.8,2.1c0.7,0.8,1.8,1.2,2.8,1.2c0.6,0,1,0.4,1,1S11.2,39,10.6,39z"/>
	<path class="st0" d="M6,34.6L6,34.6c-0.6-0.1-1-0.5-1-1.1L7.2,8.8c0-0.5,0.5-0.9,1.1-0.9s1,0.5,0.9,1.1L7,33.7
		C7,34.2,6.5,34.6,6,34.6z"/>
	<path class="st0" d="M13.2,15.2c-0.6,0-1-0.4-1-1V8.6c0-0.6,0.4-1,1-1s1,0.4,1,1v5.7C14.2,14.8,13.8,15.2,13.2,15.2z"/>
	<path class="st0" d="M13.2,9.6c-0.6,0-1-0.4-1-1C12.2,4.4,15.7,1,20,1c0.6,0,1,0.4,1,1s-0.4,1-1,1c-3.2,0-5.8,2.5-5.8,5.6
		C14.2,9.1,13.8,9.6,13.2,9.6z"/>
	<path class="st0" d="M26.8,9.6c-0.6,0-1-0.4-1-1C25.8,5.5,23.2,3,20,3c-0.6,0-1-0.4-1-1s0.4-1,1-1c4.3,0,7.8,3.4,7.8,7.6
		C27.8,9.1,27.3,9.6,26.8,9.6z"/>
	<path class="st0" d="M26.8,15.2c-0.6,0-1-0.4-1-1V8.6c0-0.6,0.4-1,1-1s1,0.4,1,1v5.7C27.8,14.8,27.3,15.2,26.8,15.2z"/>
	<path class="st0" d="M18.9,29.2c-0.2,0-0.4-0.1-0.6-0.2L14,25.6c-0.4-0.3-0.5-1-0.2-1.4s1-0.5,1.4-0.2l3.6,2.9l5.8-5.8
		c0.4-0.4,1-0.4,1.4,0s0.4,1,0,1.4l-6.4,6.4C19.4,29.1,19.2,29.2,18.9,29.2z"/>
</g>
</svg>
