<?xml version="1.0" encoding="utf-8"?>
<!-- Generator: Adobe Illustrator 21.0.2, SVG Export Plug-In . SVG Version: 6.00 Build 0)  -->
<svg version="1.1" id="Слой_1" xmlns="http://www.w3.org/2000/svg"  x="0px" y="0px"
	 width="40px" height="40px" viewBox="0 0 40 40" style="enable-background:new 0 0 40 40;" xml:space="preserve">
<style type="text/css">
	.st0{fill:#00509F;}
</style>
<g>
	<path class="st0" d="M32.1,15.8H20.6c-0.6,0-1-0.4-1-1s0.4-1,1-1h11.5c0.6,0,1,0.4,1,1S32.6,15.8,32.1,15.8z"/>
	<path class="st0" d="M17.9,38c-2.2,0-4.1-1.8-4.1-4s1.8-4,4.1-4c2.2,0,4.1,1.8,4.1,4S20.2,38,17.9,38z M17.9,32
		c-1.1,0-2.1,0.9-2.1,2s0.9,2,2.1,2c1.1,0,2.1-0.9,2.1-2S19.1,32,17.9,32z"/>
	<path class="st0" d="M31.3,38c-2.2,0-4.1-1.8-4.1-4s1.8-4,4.1-4c2.2,0,4.1,1.8,4.1,4C35.3,36.2,33.5,38,31.3,38z M31.3,32
		c-1.1,0-2.1,0.9-2.1,2s0.9,2,2.1,2c1.1,0,2.1-0.9,2.1-2C33.3,32.9,32.4,32,31.3,32z"/>
	<path class="st0" d="M14.9,28.8c-0.5,0-0.9-0.3-1-0.8L13,24.4c-0.1-0.5,0.2-1.1,0.7-1.2s1.1,0.2,1.2,0.7l0.7,2.8h18.7l0,0
		c0.6,0,1,0.4,1,1s-0.4,1-1,1L14.9,28.8L14.9,28.8z"/>
	<path class="st0" d="M8,9.8C7.6,9.8,7.1,9.5,7,9L6.4,6.4L0.9,3.9C0.3,3.7,0.1,3.1,0.3,2.6s0.8-0.7,1.3-0.5l6,2.7
		C8,4.9,8.2,5.2,8.3,5.5L9,8.6c0.1,0.5-0.2,1.1-0.8,1.2C8.2,9.8,8.1,9.8,8,9.8z"/>
	<path class="st0" d="M33.2,24.8h-20c-1.6,0-2.9-1.2-3.4-3.2L7,9.1c0-0.3,0-0.6,0.2-0.9S7.7,7.9,8,7.9h28.3c1.2,0,2.2,0.5,2.9,1.3
		c0.6,0.8,0.7,1.7,0.4,2.7l-3,9.8C35.8,24.3,34.3,24.8,33.2,24.8z M9.3,9.9l2.6,11.3c0.1,0.5,0.5,1.6,1.4,1.6h20
		c0.2,0,0.9,0,1.4-1.7l3-9.8c0.1-0.4,0.1-0.6-0.1-0.9c-0.2-0.3-0.7-0.5-1.2-0.5C36.4,9.9,9.3,9.9,9.3,9.9z"/>
</g>
</svg>
