<?xml version="1.0" encoding="utf-8"?>
<!-- Generator: Adobe Illustrator 21.0.2, SVG Export Plug-In . SVG Version: 6.00 Build 0)  -->
<svg version="1.1" id="Слой_1" xmlns="http://www.w3.org/2000/svg"  x="0px" y="0px"
	 width="40px" height="40px" viewBox="0 0 40 40" style="enable-background:new 0 0 40 40;" xml:space="preserve">
<style type="text/css">
	.st0{fill:#00509F;}
</style>
<g>
	<path class="st0" d="M24.4,17.3c-0.5,0-1-0.4-1-0.9L22.4,2h-2.2l-1.1,14.4c0,0.6-0.5,1-1.1,0.9c-0.6,0-1-0.5-0.9-1.1l1.1-15.3
		c0-0.5,0.5-0.9,1-0.9h4c0.5,0,1,0.4,1,0.9l1.1,15.3C25.5,16.8,25,17.3,24.4,17.3C24.5,17.3,24.4,17.3,24.4,17.3z"/>
	<path class="st0" d="M32.7,17.3c-0.5,0-1-0.4-1-0.9L30.6,2h-2.2l-1.1,14.4c0,0.6-0.5,1-1.1,0.9c-0.6,0-1-0.5-0.9-1.1l1.1-15.3
		c0-0.5,0.5-0.9,1-0.9h4c0.5,0,1,0.4,1,0.9l1.1,15.3C33.7,16.8,33.3,17.3,32.7,17.3L32.7,17.3z"/>
	<path class="st0" d="M29.3,40c-0.6,0-1-0.4-1-1V28.7H11.7V39c0,0.6-0.4,1-1,1s-1-0.4-1-1V27.7c0-0.6,0.4-1,1-1h18.6
		c0.6,0,1,0.4,1,1V39C30.3,39.6,29.9,40,29.3,40z"/>
	<path class="st0" d="M36.3,40H3.7C2.2,40,1,38.8,1,37.3V18c0-1.5,1.2-2.7,2.7-2.7h32.5c1.5,0,2.7,1.2,2.7,2.7v19.2
		C39,38.8,37.8,40,36.3,40z M3.7,17.3C3.3,17.3,3,17.6,3,18v19.2C3,37.7,3.3,38,3.7,38h32.5c0.4,0,0.7-0.3,0.7-0.7V18
		c0-0.4-0.3-0.7-0.7-0.7H3.7z"/>
</g>
</svg>
