<?xml version="1.0" encoding="utf-8"?>
<!-- Generator: Adobe Illustrator 21.0.2, SVG Export Plug-In . SVG Version: 6.00 Build 0)  -->
<svg version="1.1" id="Layer_1" xmlns="http://www.w3.org/2000/svg" xmlns:xlink="http://www.w3.org/1999/xlink" x="0px" y="0px"
	 width="50px" height="50px" viewBox="0 0 50 50" style="enable-background:new 0 0 50 50;" xml:space="preserve">
<g>
	<path d="M39.3,37.7l-2-23c0-0.5-0.4-0.8-0.9-0.8h-4.3c0-3.8-3.1-6.9-6.9-6.9c-3.8,0-6.9,3.1-6.9,6.9h-4.3c-0.5,0-0.8,0.3-0.9,0.8
		l-2,23v0.1c0,2.6,2.4,4.6,5.2,4.6h17.8C37,42.4,39.3,40.4,39.3,37.7L39.3,37.7z M25.2,8.8c2.9,0,5.2,2.3,5.2,5.2H20
		C20,11.1,22.3,8.8,25.2,8.8L25.2,8.8z M34.1,40.7H16.2c-1.9,0-3.5-1.3-3.5-2.8l2-22.1h3.5v3.1c0,0.5,0.4,0.9,0.9,0.9
		c0.5,0,0.9-0.4,0.9-0.9v-3.1h10.4v3.1c0,0.5,0.4,0.9,0.9,0.9c0.5,0,0.9-0.4,0.9-0.9v-3.1h3.5l2,22.1C37.5,39.4,36,40.7,34.1,40.7
		L34.1,40.7z M34.1,40.7"/>
</g>
</svg>
