<?xml version="1.0" encoding="utf-8"?>
<!-- Generator: Adobe Illustrator 21.0.2, SVG Export Plug-In . SVG Version: 6.00 Build 0)  -->
<svg version="1.1" id="Layer_1" xmlns="http://www.w3.org/2000/svg" xmlns:xlink="http://www.w3.org/1999/xlink" x="0px" y="0px"
	 width="356.1px" height="247.6px" viewBox="45.9 213.8 356.1 247.6" style="enable-background:new 45.9 213.8 356.1 247.6;"
	 xml:space="preserve">
<style type="text/css">
	.st0{opacity:0.5;fill:#D1A923;}
</style>
<path class="st0" d="M251.3,271.3H65.6c-4.9,0-8.9,4-8.9,8.9v161.5c0,4.9,4,8.9,8.9,8.9h239.3c4.9,0,8.9-4,8.9-8.9v-108
	c0-3,2.4-5.4,5.4-5.4s5.4,2.4,5.4,5.4v108c0,10.8-8.8,19.6-19.6,19.6H65.6c-10.8,0-19.6-8.8-19.6-19.6V280.2
	c0-10.8,8.8-19.6,19.6-19.6h185.7c3,0,5.4,2.4,5.4,5.4C256.7,268.9,254.3,271.3,251.3,271.3z"/>
<path class="st0" d="M269.7,315.2c-2.1-2-5.5-2-7.6,0.2l-70.9,76c-1.6,1.7-3.7,2.6-6,2.6s-4.4-0.9-6-2.6L76.6,283.7
	c-2-2.1-5.4-2.2-7.6-0.2c-2.1,2-2.2,5.4-0.2,7.6l66.5,69.8l-66.5,70.1c-2,2.1-1.9,5.5,0.2,7.6c1,1,2.4,1.5,3.7,1.5
	c1.4,0,2.8-0.6,3.9-1.7l66.1-69.7l28.8,30.2c3.6,3.8,8.5,5.9,13.7,5.9c5.2,0,10.1-2.1,13.7-5.9l28.8-30.2l65.7,67.9
	c1.1,1.1,2.5,1.7,3.9,1.7c1.3,0,2.6-0.5,3.7-1.5c2.1-2,2.2-5.4,0.2-7.6l-66.1-68.3l34.7-38C271.9,320.6,271.8,317.3,269.7,315.2z"/>
<path class="st0" d="M319.2,213.8c-28.6,0-51.8,23.2-51.8,51.8c0,28.6,23.2,51.8,51.8,51.8s51.8-23.2,51.8-51.8
	S347.7,213.8,319.2,213.8z M319.2,306.7c-22.6,0-41.1-18.4-41.1-41.1s18.4-41.1,41.1-41.1c22.6,0,41.1,18.4,41.1,41.1
	S341.8,306.7,319.2,306.7z"/>
<path class="st0" d="M321.2,242.8c-2-0.8-4.3-0.4-5.8,1.2l-7.1,7.1c-2.1,2.1-2.1,5.5,0,7.6c1.5,1.5,3.7,1.9,5.6,1.3v23.5
	c0,3,2.4,5.4,5.4,5.4s5.4-2.4,5.4-5.4v-35.7C324.5,245.6,323.2,243.6,321.2,242.8z"/>
</svg>
