<?xml version="1.0" encoding="utf-8"?>
<!-- Generator: Adobe Illustrator 21.0.2, SVG Export Plug-In . SVG Version: 6.00 Build 0)  -->
<svg version="1.1" id="Layer_1" xmlns="http://www.w3.org/2000/svg"  x="0px" y="0px"
	 width="28px" height="13.4px" viewBox="193 390.3 28 13.4" style="enable-background:new 193 390.3 28 13.4;" xml:space="preserve"
	>
<path d="M215.1,402.2c0.2,0.9,1.1,1.6,2,1.6s1.8-0.7,2-1.6h1.3c0.3,0,0.6-0.2,0.6-0.6v-4.2c0-0.1,0-0.3-0.1-0.4l-3.2-3.7
	c-0.1-0.1-0.3-0.2-0.4-0.2h-2.7v-2.3c0-0.3-0.2-0.6-0.6-0.6h-11.5c-0.3,0-0.6,0.2-0.6,0.6v0.8h-5.4c-0.3,0-0.6,0.2-0.6,0.6
	s0.2,0.6,0.6,0.6h5.4v7.2h-3.2c-0.3,0-0.6,0.2-0.6,0.6c0,0.3,0.2,0.6,0.6,0.6h3.2v0.6c0,0.3,0.2,0.6,0.6,0.6h1.2
	c0.2,0.9,1.1,1.6,2,1.6s1.8-0.7,2-1.6L215.1,402.2L215.1,402.2z M213.4,401.1h-5.7c-0.2-0.9-1.1-1.6-2-1.6s-1.8,0.7-2,1.6H203v-9.7
	h10.4L213.4,401.1L213.4,401.1z M205.6,402.6c-0.5,0-1-0.4-1-1c0-0.5,0.4-1,1-1s1,0.4,1,1C206.6,402.2,206.2,402.6,205.6,402.6z
	 M217.1,402.6c-0.5,0-1-0.4-1-1c0-0.5,0.4-1,1-1c0.5,0,1,0.4,1,1C218.1,402.2,217.7,402.6,217.1,402.6z M219.9,401.1h-0.7
	c-0.2-0.9-1.1-1.6-2-1.6s-1.8,0.7-2,1.6h-0.6v-6.8h2.5l2.9,3.4V401.1z"/>
<path d="M196.8,399.9h-0.3c-0.3,0-0.6,0.2-0.6,0.6s0.2,0.6,0.6,0.6h0.3c0.3,0,0.6-0.2,0.6-0.6S197.1,399.9,196.8,399.9z"/>
<path d="M200.1,396.3c0-0.3-0.2-0.6-0.6-0.6h-6c-0.3,0-0.6,0.2-0.6,0.6c0,0.3,0.2,0.6,0.6,0.6h6
	C199.8,396.8,200.1,396.6,200.1,396.3z"/>
</svg>
