<?xml version="1.0" encoding="utf-8"?>
<!-- Generator: Adobe Illustrator 21.0.2, SVG Export Plug-In . SVG Version: 6.00 Build 0)  -->
<svg version="1.1" id="Layer_1" xmlns="http://www.w3.org/2000/svg" xmlns:xlink="http://www.w3.org/1999/xlink" x="0px" y="0px"
	 width="50px" height="50px" viewBox="0 0 50 50" style="enable-background:new 0 0 50 50;" xml:space="preserve">
<path d="M38.5,35.3H14.2c-0.4,0-0.7-0.2-0.7-0.6L8.3,11.3L3.1,9.1c-0.4-0.2-0.6-0.6-0.4-1c0.2-0.4,0.6-0.6,1-0.4l5.5,2.4
	c0.2,0.1,0.4,0.3,0.4,0.5l5.2,23.2h23.7c0.4,0,0.8,0.3,0.8,0.8S38.9,35.3,38.5,35.3z"/>
<path d="M39.3,30.8H13.8c-0.4,0-0.8-0.3-0.8-0.8s0.3-0.8,0.8-0.8h25l4.1-13.7H10.2c-0.4,0-0.8-0.3-0.8-0.8s0.3-0.8,0.8-0.8h33.7
	c0.2,0,0.5,0.1,0.6,0.3c0.1,0.2,0.2,0.4,0.1,0.7L40,30.3C39.9,30.6,39.6,30.8,39.3,30.8z"/>
<path d="M33,20.7H19.7c-0.4,0-0.8-0.3-0.8-0.8s0.3-0.8,0.8-0.8H33c0.4,0,0.8,0.3,0.8,0.8S33.5,20.7,33,20.7z"/>
<path d="M32.3,25.7H20.7c-0.4,0-0.8-0.3-0.8-0.8s0.3-0.8,0.8-0.8h11.6c0.4,0,0.8,0.3,0.8,0.8S32.7,25.7,32.3,25.7z"/>
<g>
	<path d="M20.2,44.1c-1.9,0-3.5-1.6-3.5-3.5s1.6-3.5,3.5-3.5s3.5,1.6,3.5,3.5S22.1,44.1,20.2,44.1z M20.2,38.7c-1.1,0-2,0.9-2,2
		c0,1.1,0.9,2,2,2c1.1,0,2-0.9,2-2C22.1,39.6,21.2,38.7,20.2,38.7z"/>
	<path d="M32.6,44.1c-1.9,0-3.5-1.6-3.5-3.5s1.6-3.5,3.5-3.5s3.5,1.6,3.5,3.5S34.5,44.1,32.6,44.1z M32.6,38.7c-1.1,0-2,0.9-2,2
		c0,1.1,0.9,2,2,2c1.1,0,2-0.9,2-2C34.5,39.6,33.6,38.7,32.6,38.7z"/>
</g>
</svg>
