<?xml version="1.0" encoding="utf-8"?>
<!-- Generator: Adobe Illustrator 21.0.2, SVG Export Plug-In . SVG Version: 6.00 Build 0)  -->
<svg version="1.1" id="Layer_1" xmlns="http://www.w3.org/2000/svg" xmlns:xlink="http://www.w3.org/1999/xlink" x="0px" y="0px"
	 width="40px" height="40px" viewBox="0 0 40 40" style="enable-background:new 0 0 40 40;" xml:space="preserve">
<style type="text/css">
	.st0{fill:#3954A1;}
	.st1{display:none;fill-rule:evenodd;clip-rule:evenodd;fill:#FFFFFF;}
	.st2{fill:#FFFFFF;}
</style>
<g>
	<circle class="st0" cx="20" cy="20" r="20"/>
</g>
<path class="st1" d="M29.8,15.9c-0.2-1-1.1-1.8-2.1-1.9c-2.4-0.3-4.8-0.3-7.2-0.3c-2.4,0-4.8,0-7.2,0.3c-1,0.1-1.9,0.9-2.1,1.9
	c-0.3,1.5-0.3,3.1-0.3,4.6c0,1.5,0,3.1,0.3,4.6c0.2,1,1.1,1.8,2.1,1.9c2.4,0.3,4.8,0.3,7.2,0.3c2.4,0,4.8,0,7.2-0.3
	c1-0.1,1.9-0.9,2.1-1.9c0.3-1.5,0.3-3.1,0.3-4.6C30.1,19,30.1,17.4,29.8,15.9L29.8,15.9z M18,23.5v-6.4c2,1.1,4.1,2.1,6.1,3.2
	C22.1,21.4,20.1,22.4,18,23.5L18,23.5z M18,23.5"/>
<g>
	<path class="st2" d="M22,25.6c0,1.8,0,3.6,0,5.4c0,0.2,0,0.2-0.2,0.2c-1.5,0-3,0-4.6,0c-0.2,0-0.3-0.1-0.3-0.3c0-3.5,0-7.1,0-10.6
		c0-0.2,0-0.3-0.2-0.3c-0.7,0-1.3,0-2,0c-0.2,0-0.2,0-0.2-0.2c0-1.1,0-2.2,0-3.4c0-0.2,0.1-0.2,0.2-0.2c0.7,0,1.3,0,2,0
		c0.2,0,0.2-0.1,0.2-0.2c0-1,0-2,0-3c0-0.9,0.2-1.7,0.7-2.4c0.5-0.8,1.3-1.2,2.1-1.5c0.7-0.2,1.3-0.3,2-0.3c1.3,0,2.6,0,3.8,0
		c0.2,0,0.2,0.1,0.2,0.2c0,1.2,0,2.3,0,3.5c0,0.2-0.1,0.2-0.2,0.2c-0.8,0-1.6,0-2.4,0c-0.7,0-1.2,0.5-1.2,1.2c0,0.7,0,1.4,0,2.1
		c0,0.2,0,0.2,0.2,0.2c1.1,0,2.3,0,3.4,0c0.2,0,0.2,0,0.2,0.2c-0.1,1.2-0.2,2.3-0.4,3.4c0,0.1-0.1,0.1-0.2,0.1c-0.7,0-1.3,0-2,0
		c-0.3,0-0.7,0-1,0C22,20,22,20,22,20.2C22,22,22,23.8,22,25.6z"/>
</g>
</svg>
