<?xml version="1.0" encoding="utf-8"?>
<!-- Generator: Adobe Illustrator 21.0.2, SVG Export Plug-In . SVG Version: 6.00 Build 0)  -->
<svg version="1.1" id="Layer_1" xmlns="http://www.w3.org/2000/svg"  x="0px" y="0px"
	 width="20px" height="20px" viewBox="0 0 20 20" style="enable-background:new 0 0 20 20;" xml:space="preserve">
<path d="M13.3,10c0,1.8-1.5,3.3-3.3,3.3S6.7,11.8,6.7,10S8.1,6.7,10,6.7S13.3,8.2,13.3,10z M15.1,10c0-2.8-2.3-5.1-5.1-5.1
	c-2.8,0-5.1,2.3-5.1,5.1c0,2.8,2.3,5.1,5.1,5.1C12.8,15.1,15.1,12.8,15.1,10z M16.5,4.7c0-0.7-0.5-1.2-1.2-1.2
	c-0.7,0-1.2,0.5-1.2,1.2c0,0.7,0.5,1.2,1.2,1.2C16,5.9,16.5,5.3,16.5,4.7z M10,1.8c1.5,0,4.6-0.1,5.9,0.4C16.3,2.4,16.7,2.6,17,3
	c0.4,0.4,0.6,0.7,0.8,1.1c0.5,1.3,0.4,4.4,0.4,5.9s0.1,4.6-0.4,5.9c-0.2,0.5-0.4,0.8-0.8,1.1c-0.4,0.4-0.7,0.6-1.1,0.8
	c-1.3,0.5-4.4,0.4-5.9,0.4c-1.5,0-4.6,0.1-5.9-0.4c-0.5-0.2-0.8-0.4-1.1-0.8c-0.4-0.4-0.6-0.7-0.8-1.1c-0.5-1.3-0.4-4.4-0.4-5.9
	S1.7,5.4,2.2,4.1C2.4,3.6,2.6,3.3,2.9,3c0.4-0.4,0.7-0.6,1.1-0.8C5.4,1.7,8.5,1.8,10,1.8z M20,10c0-1.4,0-2.7-0.1-4.1
	c-0.1-1.6-0.4-3-1.6-4.2c-1.2-1.2-2.6-1.5-4.2-1.6C12.7,0,11.4,0,10,0S7.2,0,5.9,0.1c-1.6,0.1-3,0.4-4.2,1.6S0.1,4.3,0.1,5.9
	C0,7.2,0,8.6,0,10s0,2.7,0.1,4.1c0.1,1.6,0.4,3,1.6,4.2s2.6,1.5,4.2,1.6C7.2,20,8.6,20,10,20s2.7,0,4.1-0.1c1.6-0.1,3-0.4,4.2-1.6
	c1.2-1.2,1.5-2.6,1.6-4.2C20,12.7,20,11.4,20,10z"/>
</svg>
