<?xml version="1.0" encoding="utf-8"?>
<!-- Generator: Adobe Illustrator 19.1.0, SVG Export Plug-In . SVG Version: 6.00 Build 0)  -->
<svg version="1.1" id="Слой_1" xmlns="http://www.w3.org/2000/svg"  x="0px" y="0px"
	 width="32px" height="29px" viewBox="0 0 32 29" style="enable-background:new 0 0 32 29;" xml:space="preserve">
<g>
	<g>
		<path d="M17,14.1V0.9C17,0.4,16.5,0,16,0c-0.5,0-0.9,0.4-0.9,0.9v13.2c-2.1,0.4-3.8,2.3-3.8,4.6c0,2.3,1.6,4.2,3.8,4.6v4.7
			c0,0.5,0.4,0.9,0.9,0.9c0.5,0,0.9-0.4,0.9-0.9v-4.7c2.1-0.4,3.8-2.3,3.8-4.6C20.7,16.4,19.1,14.5,17,14.1z M16,21.6
			c-1.6,0-2.8-1.3-2.8-2.9c0-1.6,1.3-2.9,2.8-2.9c1.6,0,2.8,1.3,2.8,2.9C18.9,20.3,17.6,21.6,16,21.6z M5.6,6.3V0.9
			C5.6,0.4,5.2,0,4.7,0C4.2,0,3.8,0.4,3.8,0.9v5.4C1.6,6.7,0,8.6,0,10.9c0,2.3,1.6,4.2,3.8,4.6v12.5c0,0.5,0.4,0.9,0.9,0.9
			c0.5,0,0.9-0.4,0.9-0.9V15.5c2.1-0.4,3.8-2.3,3.8-4.6C9.4,8.6,7.8,6.7,5.6,6.3z M4.7,13.8c-1.6,0-2.8-1.3-2.8-2.9
			c0-1.6,1.3-2.9,2.8-2.9c1.6,0,2.8,1.3,2.8,2.9C7.5,12.5,6.3,13.8,4.7,13.8z M28.2,6.3V0.9c0-0.5-0.4-0.9-0.9-0.9
			c-0.5,0-0.9,0.4-0.9,0.9v5.4c-2.1,0.4-3.8,2.3-3.8,4.6c0,2.3,1.6,4.2,3.8,4.6v12.5c0,0.5,0.4,0.9,0.9,0.9c0.5,0,0.9-0.4,0.9-0.9
			V15.5c2.1-0.4,3.8-2.3,3.8-4.6C32,8.6,30.4,6.7,28.2,6.3z M27.3,13.8c-1.6,0-2.8-1.3-2.8-2.9c0-1.6,1.3-2.9,2.8-2.9
			c1.6,0,2.8,1.3,2.8,2.9C30.1,12.5,28.9,13.8,27.3,13.8z"/>
	</g>
</g>
</svg>
