<?xml version="1.0" encoding="utf-8"?>
<!-- Generator: Adobe Illustrator 21.0.2, SVG Export Plug-In . SVG Version: 6.00 Build 0)  -->
<svg version="1.1" id="Layer_1" xmlns="http://www.w3.org/2000/svg" xmlns:xlink="http://www.w3.org/1999/xlink" x="0px" y="0px"
	 width="50px" height="50px" viewBox="0 0 50 50" style="enable-background:new 0 0 50 50;" xml:space="preserve">
<path d="M11.8,35.8c-0.4,0.6-0.6,1.3-0.6,2v3.5c0,0.4,0.4,0.7,0.8,0.7c0.4,0,0.7-0.3,0.7-0.7v-3.5c0-1,0.6-1.9,1.6-2.2l4.8-1.7
	l2,2.9c0.3,0.4,0.7,0.6,1.1,0.7c0.1,0,0.1,0,0.2,0c0.4,0,0.8-0.2,1.1-0.4l1.2-1.2v5.5c0,0.4,0.4,0.7,0.8,0.7c0.4,0,0.7-0.3,0.7-0.7
	v-5.5l1.2,1.2c0.3,0.3,0.7,0.4,1.1,0.4c0.1,0,0.1,0,0.2,0c0.4,0,0.9-0.3,1.1-0.7l2-2.9l4.8,1.7c0.9,0.3,1.6,1.2,1.6,2.2v3.5
	c0,0.4,0.4,0.7,0.8,0.7c0.4,0,0.7-0.3,0.7-0.7v-3.5c0-1-0.4-1.9-1.1-2.6c0,0-0.5-0.4-0.7-0.5c-0.6-0.3-1-0.5-1-0.5L36.2,34l-4-1.4
	c0-0.2-0.1-0.4-0.2-0.5l-1.4-1.4v-2.4c0.1-0.1,0.3-0.2,0.4-0.4c1.7-1.6,2.7-3.8,2.7-6.1v-1.9c0.5-1.1,0.8-2.3,0.8-3.5V8.7
	c0-0.4-0.3-0.7-0.7-0.7h-11c-3.8,0-7,3-7,6.9v1.5c0,1.2,0.3,2.4,0.8,3.5v1.6c0,2.6,1.1,5,3.1,6.7v2.4L18.4,32
	c-0.1,0.1-0.2,0.3-0.2,0.5l-4.5,1.6c-0.3,0.1-0.6,0.3-0.9,0.5 M18.1,21.5v-1.8c0-0.1,0-0.2-0.1-0.3c-0.5-0.9-0.7-2-0.7-3v-1.5
	c0-3,2.5-5.5,5.5-5.4h10.2v7c0,1-0.2,2.1-0.7,3c0,0.1-0.1,0.2-0.1,0.3v2c0,1.9-0.8,3.8-2.2,5.1c-0.2,0.2-0.4,0.3-0.6,0.5l0,0
	c-3.2,2.3-7.6,1.7-10-1.5C18.6,24.6,18.1,23.1,18.1,21.5L18.1,21.5z M22.3,36C22.2,36,22.2,36,22.3,36C22.2,36,22.2,36,22.3,36
	l-2.4-3.4l0.7-0.8l3.5,2.3L22.3,36z M25.2,33.2l-4-2.7v-1.3c1.1,0.6,2.2,0.9,3.4,1c0.2,0,0.4,0,0.6,0c1.4,0,2.7-0.3,4-1v1.3
	L25.2,33.2z M28.3,36C28.3,36,28.2,36,28.3,36C28.2,36,28.2,36,28.3,36l-1.9-1.8l3.5-2.3l0.7,0.8L28.3,36z M31.2,16.7
	c-2.8-2.7-8.6-2.2-10.9-1.8c-0.7,0.1-1.3,0.7-1.3,1.5v1.7c0,0.4,0.4,0.7,0.8,0.7c0.4,0,0.7-0.3,0.7-0.7v-1.7c0,0,0,0,0,0
	c1.6-0.2,3.2-0.3,4.8-0.2c2.3,0.1,3.9,0.7,4.9,1.7c0.3,0.3,0.7,0.3,1,0C31.5,17.4,31.5,17,31.2,16.7C31.2,16.7,31.2,16.7,31.2,16.7
	L31.2,16.7z M16.6,39.5c-0.4,0-0.7,0.3-0.7,0.7v1.1c0,0.4,0.4,0.7,0.8,0.7c0.4,0,0.7-0.3,0.7-0.7v-1.1C17.3,39.8,17,39.5,16.6,39.5z
	 M33.8,39.5c-0.4,0-0.7,0.3-0.7,0.7v1.1c0,0.4,0.4,0.7,0.8,0.7c0.4,0,0.7-0.3,0.7-0.7v-1.1C34.6,39.8,34.2,39.5,33.8,39.5z"/>
<path d="M43.8,21.6c-1.6-0.6-3.3-0.9-5-0.8c-0.4,0-0.7,0.3-0.7,0.7c0,0.4,0.3,0.7,0.7,0.7c1.5,0,3,0.2,4.4,0.7
	c0.1,0,0.2,0.1,0.3,0.1c0.3,0,0.5-0.2,0.7-0.4C44.3,22.2,44.2,21.8,43.8,21.6C43.8,21.6,43.8,21.6,43.8,21.6z M38.5,32.2l1.9,1.8
	v4.6c0,0.4,0.4,0.7,0.8,0.7c0.4,0,0.7-0.3,0.7-0.7v-4.6l1.9-1.8c0.1,0.1,0.2,0.1,0.3,0.1l3,0.8c0.7,0.2,1.2,0.8,1.2,1.5v3.9
	c0,0.4,0.4,0.7,0.8,0.7c0.4,0,0.7-0.3,0.7-0.7v-3.9c0-1.4-0.9-2.5-2.2-2.9v0l-3-0.8c-0.1,0-0.2-0.2-0.2-0.3v-1
	c0.2-0.2,0.5-0.4,0.7-0.6c1.1-1,1.7-2.4,1.6-3.8V24l0.3-0.6c0.3-0.6,0.5-1.3,0.5-2v-3.7c0-0.4-0.3-0.7-0.7-0.7c0,0,0,0,0,0h-7
	c-2.5,0-4.6,2-4.6,4.6v0c0,0.6,0.1,1.2,0.4,1.7l0.4,0.7v1.2c0,1.8,0.9,3.5,2.3,4.5v1c0,0.2,0,0.3-0.6,0.5 M41.1,32.8l-1.7-1.6
	c0-0.1,0-0.3,0-0.4v-0.3c0.5,0.2,1,0.2,1.5,0.3c0.1,0,0.1,0,0.2,0c0.5,0,1.1-0.1,1.6-0.2v0.3c0,0.1,0,0.3,0.1,0.4L41.1,32.8z
	 M43.9,28.1c-0.8,0.7-1.8,1.1-2.9,1.1c-2.2-0.1-3.9-1.9-3.8-4.1v-1.3c0-0.1,0-0.2-0.1-0.3l-0.5-0.9c-0.2-0.3-0.3-0.7-0.3-1.1v0
	c0-1.7,1.4-3.1,3.2-3.1h6.3v3c0,0.5-0.1,1-0.3,1.4l-0.4,0.7c-0.1,0.1-0.1,0.2-0.1,0.3v1.5C45.1,26.4,44.7,27.4,43.9,28.1L43.9,28.1z
	 M45.8,35.4c-0.4,0-0.7,0.3-0.7,0.7v0v2.6c0,0.4,0.4,0.7,0.8,0.7c0.4,0,0.7-0.3,0.7-0.7v-2.6C46.6,35.7,46.2,35.4,45.8,35.4
	C45.8,35.4,45.8,35.4,45.8,35.4L45.8,35.4z"/>
<path d="M13.5,31.4c1.2-0.4,2.1-1.2,2.8-2.2c0.1-0.2,0.1-0.4,0-0.6c-0.5-1.4-0.7-2.9-0.6-4.5c0-0.5,0-1-0.1-1.4
	c-0.1-3.4-3-6.1-6.4-6c-3.3,0.1-5.9,2.7-6,6c0,0.4,0,0.9-0.1,1.4c0.1,1.5-0.2,3-0.6,4.5c-0.1,0.2-0.1,0.4,0,0.6
	c0.7,1,1.7,1.8,2.8,2.2l-2,1c-1,0.5-1.7,1.5-1.7,2.7v3.3c0,0.4,0.4,0.7,0.8,0.7c0.4,0,0.7-0.3,0.7-0.7V35c0-0.6,0.3-1.2,0.9-1.4
	l2.4-1.2l0.9,0.8c1.2,1.1,3,1.1,4.2,0l0.9-0.8l0.8,0.4 M6.3,30.2c-0.9-0.3-1.7-0.8-2.4-1.5c0.2-0.6,0.3-1.1,0.4-1.7
	c0.4,0.9,1.1,1.8,1.9,2.3V30.2L6.3,30.2z M10.5,32.2c-0.6,0.6-1.6,0.6-2.2,0l-0.7-0.6c0.1-0.2,0.2-0.5,0.2-0.7v-0.8
	c1.1,0.3,2.2,0.3,3.2,0v0.8c0,0.2,0.1,0.5,0.2,0.7L10.5,32.2z M9.4,28.9c-2.2,0-3.9-1.7-4-3.9c0-0.4-0.3-0.7-0.7-0.7
	c0,0-0.1,0-0.1,0c0-0.1,0-0.1,0-0.2c0-0.5,0-1,0.1-1.4c0.1-1.3,0.6-2.4,1.5-3.3c1.8-1.8,4.7-1.8,6.5,0c0,0,0,0,0,0
	c0.9,0.9,1.4,2.1,1.5,3.3c0,0.4,0,0.9,0.1,1.4v0.1C13.3,23,12,22,10.6,21.6c-0.9-0.3-1.8-0.4-2.8-0.4c-0.2,0-0.4,0.1-0.5,0.2L6,22.8
	c-0.3,0.3-0.3,0.7,0,1c0,0,0,0,0,0c0.3,0.3,0.8,0.3,1,0l1.1-1.1c0.9,0,4,0.4,5.2,3C13,27.5,11.3,28.9,9.4,28.9L9.4,28.9z M12.5,30.2
	v-0.9c0.9-0.6,1.5-1.4,1.9-2.3c0.1,0.6,0.2,1.2,0.4,1.7C14.2,29.4,13.4,30,12.5,30.2L12.5,30.2z M5.5,36c-0.4,0-0.7,0.3-0.7,0.7v0
	v1.7c0,0.4,0.4,0.7,0.8,0.7c0.4,0,0.7-0.3,0.7-0.7v-1.7C6.2,36.3,5.9,36,5.5,36C5.5,36,5.5,36,5.5,36L5.5,36z"/>
<g>
	<path d="M37.9,31.1c0,0-3.4,0.7-4.5,1.1c-0.3,0.1-0.8,0.6-0.8,0.9"/>
	<path d="M32.6,33.1h-0.3c0-0.4,0.6-0.9,0.9-1c1.1-0.4,4.4-1.1,4.6-1.1l0.6,1c0,0-4-0.1-5.1,0.3C33.1,32.4,32.6,32.9,32.6,33.1z"/>
</g>
<g>
	<path d="M13.2,31.3c0,0,2.2,0.8,3.3,1.2c0.3,0.1,0.8,0.6,0.8,0.9"/>
	<path d="M17.4,33.3h-0.3c0-0.2-0.5-0.7-0.8-0.8c-1.1-0.4-3.2,0.3-3.3,0.3l0-1.7c0,0,2.2,0.8,3.3,1.2C16.8,32.4,17.4,33,17.4,33.3z"
		/>
</g>
</svg>
