<?xml version="1.0" encoding="utf-8"?>
<!-- Generator: Adobe Illustrator 21.0.2, SVG Export Plug-In . SVG Version: 6.00 Build 0)  -->
<svg version="1.1" id="Layer_1" xmlns="http://www.w3.org/2000/svg" xmlns:xlink="http://www.w3.org/1999/xlink" x="0px" y="0px"
	 width="50px" height="50px" viewBox="0 0 50 50" style="enable-background:new 0 0 50 50;" xml:space="preserve">
<g>
	<path d="M25,30.4c-0.2-0.3-0.5-0.5-0.9-0.3c-0.5,0.3-1.1,0.5-1.6,0.6c-0.2,0.1-0.4,0.3-0.5,0.5l-0.7,3.4c-0.1,0.3-0.4,0.6-0.7,0.6
		h-1.9c-0.3,0-0.6-0.2-0.7-0.6l-0.7-3.4c0-0.2-0.2-0.4-0.5-0.5c-0.8-0.2-1.6-0.5-2.3-0.9c-0.2-0.1-0.5-0.1-0.7,0l-2.9,1.9
		c-0.3,0.2-0.7,0.2-0.9-0.1l-1.3-1.3c-0.2-0.2-0.3-0.6-0.1-0.9l1.9-2.9c0.1-0.2,0.1-0.5,0-0.7c-0.4-0.7-0.7-1.5-0.9-2.3
		c-0.1-0.2-0.3-0.4-0.5-0.5l-3.4-0.7c-0.3-0.1-0.6-0.4-0.6-0.7v-1.9c0-0.3,0.2-0.6,0.6-0.7l3.4-0.7c0.2,0,0.4-0.2,0.5-0.5
		c0.2-0.8,0.5-1.6,0.9-2.3c0.1-0.2,0.1-0.5,0-0.7l-1.9-2.9c-0.2-0.3-0.2-0.7,0.1-0.9l1.3-1.3c0.2-0.2,0.6-0.3,0.9-0.1l2.9,1.9
		c0.2,0.1,0.5,0.1,0.7,0c0.7-0.4,1.5-0.7,2.3-0.9c0.2-0.1,0.4-0.3,0.5-0.5l0.7-3.4c0.1-0.3,0.4-0.6,0.7-0.6h1.9
		c0.3,0,0.6,0.2,0.7,0.6l0.7,3.4c0,0.2,0.2,0.4,0.5,0.5c0.8,0.2,1.6,0.5,2.3,0.9c0.2,0.1,0.5,0.1,0.7,0l2.9-1.9
		c0.3-0.2,0.7-0.2,0.9,0.1l1.3,1.3c0.2,0.2,0.3,0.6,0.1,0.9L28.8,15c-0.1,0.2-0.1,0.5,0,0.7c0.4,0.7,0.7,1.5,0.9,2.3
		c0.1,0.2,0.3,0.4,0.5,0.5l3.4,0.7c0.3,0.1,0.6,0.4,0.6,0.7v1.9c0,0.3-0.2,0.6-0.6,0.7l-3.4,0.7c-0.2,0-0.4,0.2-0.5,0.5
		c-0.2,0.6-0.4,1.1-0.6,1.7c-0.2,0.3,0,0.7,0.3,0.9c0.3,0.2,0.7,0,0.9-0.3l0,0c0.2-0.5,0.4-1,0.6-1.5l3-0.6c0.9-0.2,1.6-1,1.6-2
		v-1.9c0-1-0.7-1.8-1.6-2l-3-0.6c-0.2-0.6-0.5-1.2-0.8-1.8l1.7-2.6c0.5-0.8,0.4-1.9-0.3-2.5L30.2,9c-0.7-0.7-1.7-0.8-2.5-0.3
		l-2.6,1.7c-0.6-0.3-1.2-0.6-1.8-0.8l-0.6-3c-0.2-0.9-1-1.6-2-1.6h-1.9c-1,0-1.8,0.7-2,1.6l-0.6,3c-0.6,0.2-1.2,0.5-1.8,0.8
		l-2.6-1.7C11,8.2,10,8.3,9.3,9L8,10.3C7.3,11,7.2,12,7.7,12.8l1.7,2.6c-0.3,0.6-0.6,1.2-0.8,1.8l-3,0.6c-0.9,0.2-1.6,1-1.6,2v1.9
		c0,1,0.7,1.8,1.6,2l3,0.6c0.2,0.6,0.5,1.2,0.8,1.8l-1.7,2.6c-0.5,0.8-0.4,1.9,0.3,2.5l1.3,1.3c0.7,0.7,1.7,0.8,2.5,0.3l2.6-1.7
		c0.6,0.3,1.2,0.6,1.8,0.8l0.6,3c0.2,0.9,1,1.6,2,1.6h1.9c1,0,1.8-0.7,2-1.6l0.6-3c0.5-0.2,1-0.4,1.5-0.6
		C25.1,31.1,25.2,30.7,25,30.4C25,30.4,25,30.4,25,30.4z M25.4,24.3c0.3,0.2,0.7,0,0.9-0.3c1.8-3.6,0.4-8-3.2-9.8
		c-2.8-1.4-6.2-0.9-8.4,1.3c-0.2,0.3-0.2,0.7,0,0.9c0.2,0.2,0.6,0.2,0.9,0c2.4-2.3,6.2-2.2,8.5,0.1c1.8,1.8,2.2,4.6,1,6.9
		C24.9,23.8,25,24.2,25.4,24.3C25.4,24.3,25.4,24.3,25.4,24.3L25.4,24.3z M13.7,18c-0.3-0.1-0.7,0.1-0.8,0.4
		c-1.3,3.8,0.7,7.9,4.5,9.3c2.2,0.8,4.7,0.4,6.6-1c0.3-0.2,0.4-0.6,0.1-0.9s-0.6-0.4-0.9-0.1l0,0c-2.7,1.9-6.4,1.3-8.4-1.4
		c-1.1-1.6-1.4-3.6-0.8-5.4C14.2,18.5,14,18.1,13.7,18L13.7,18z M43.8,33.3l-1.9-0.4c-0.1-0.3-0.3-0.7-0.4-1l1.1-1.6
		c0.4-0.6,0.3-1.4-0.2-2l-0.9-0.9c-0.5-0.5-1.3-0.6-2-0.2l-1.6,1.1c-0.3-0.2-0.7-0.3-1-0.4l-0.4-1.9c-0.1-0.7-0.8-1.2-1.5-1.2h-1.2
		c-0.7,0-1.4,0.5-1.5,1.2L31.9,28c-0.3,0.1-0.7,0.3-1,0.4l-1.6-1.1c-0.6-0.4-1.4-0.3-2,0.2l-0.9,0.9c-0.5,0.5-0.6,1.3-0.2,2l1.1,1.6
		c-0.2,0.4-0.4,0.9-0.5,1.4c-0.1,0.3,0.1,0.7,0.4,0.8c0.3,0.1,0.7-0.1,0.8-0.4c0.1-0.5,0.3-1,0.6-1.4c0.1-0.2,0.1-0.5,0-0.7
		l-1.3-1.9c-0.1-0.1-0.1-0.2,0-0.3l0.9-0.9c0.1-0.1,0.2-0.1,0.3,0l1.9,1.3c0.2,0.1,0.5,0.1,0.7,0c0.5-0.3,0.9-0.5,1.4-0.6
		c0.2-0.1,0.4-0.3,0.5-0.5l0.4-2.3c0-0.1,0.1-0.2,0.3-0.2H35c0.1,0,0.2,0.1,0.3,0.2l0.4,2.3c0,0.2,0.2,0.4,0.5,0.5
		c0.5,0.1,1,0.3,1.4,0.6c0.2,0.1,0.5,0.1,0.7,0l1.9-1.3c0.1-0.1,0.2-0.1,0.3,0l0.9,0.9c0.1,0.1,0.1,0.2,0,0.3l-1.3,1.9
		c-0.1,0.2-0.1,0.5,0,0.7c0.3,0.5,0.5,0.9,0.6,1.4c0.1,0.2,0.3,0.4,0.5,0.5l2.3,0.5c0.1,0,0.2,0.1,0.2,0.3V36c0,0.1-0.1,0.2-0.2,0.3
		l-2.3,0.5c-0.2,0-0.4,0.2-0.5,0.5c-0.1,0.5-0.3,1-0.6,1.4c-0.1,0.2-0.1,0.5,0,0.7l1.3,1.9c0.1,0.1,0.1,0.2,0,0.3l-0.9,0.9
		c-0.1,0.1-0.2,0.1-0.3,0l-1.9-1.3c-0.2-0.1-0.5-0.1-0.7,0c-0.5,0.3-0.9,0.5-1.4,0.6c-0.2,0.1-0.4,0.3-0.5,0.5l-0.4,2.2
		c0,0.1-0.1,0.2-0.3,0.2h-1.2c-0.1,0-0.2-0.1-0.3-0.2l-0.4-2.3c0-0.2-0.2-0.4-0.5-0.5c-0.5-0.1-1-0.3-1.4-0.6
		c-0.2-0.1-0.5-0.1-0.7,0l-1.9,1.3c-0.1,0.1-0.2,0.1-0.3,0l-0.9-0.9c-0.1-0.1-0.1-0.2,0-0.3l1.3-1.9c0.1-0.2,0.1-0.5,0-0.7
		c-0.3-0.5-0.5-0.9-0.6-1.4c-0.1-0.2-0.3-0.4-0.5-0.5l-2.3-0.5c-0.1,0-0.2-0.1-0.2-0.3v-1.2c0-0.1,0.1-0.2,0.2-0.3l0.1,0
		c0.4-0.1,0.6-0.4,0.5-0.8c-0.1-0.4-0.4-0.6-0.8-0.5l-0.1,0c-0.7,0.1-1.2,0.8-1.2,1.5V36c0,0.7,0.5,1.4,1.2,1.5l1.9,0.4
		c0.1,0.3,0.3,0.7,0.4,1l-1.1,1.6c-0.4,0.6-0.3,1.4,0.2,2l0.9,0.9c0.5,0.5,1.3,0.6,2,0.2l1.6-1.1c0.3,0.2,0.7,0.3,1,0.4l0.4,1.9
		c0.1,0.7,0.8,1.3,1.5,1.3H35c0.7,0,1.4-0.5,1.5-1.2l0.4-1.9c0.3-0.1,0.7-0.3,1-0.4l1.6,1.1c0.6,0.4,1.4,0.3,2-0.2l0.9-0.9
		c0.5-0.5,0.6-1.3,0.2-2l-1.1-1.6c0.2-0.3,0.3-0.7,0.4-1l1.9-0.4c0.7-0.1,1.2-0.8,1.2-1.5v-1.2C45,34.1,44.5,33.4,43.8,33.3
		L43.8,33.3z M34.4,33.1c1.3,0,2.3,1,2.3,2.3c0,0.4,0.3,0.6,0.6,0.6s0.6-0.3,0.6-0.6c0-2-1.6-3.6-3.6-3.6s-3.6,1.6-3.6,3.6
		s1.6,3.6,3.6,3.6l0,0c0.8,0,1.6-0.3,2.2-0.8c0.3-0.2,0.3-0.6,0.1-0.9c-0.2-0.3-0.6-0.3-0.9-0.1c-1,0.8-2.5,0.6-3.3-0.4
		c-0.3-0.4-0.5-0.9-0.5-1.4C32.1,34.1,33.1,33.1,34.4,33.1L34.4,33.1z M23.7,20.8c0-2.2-1.8-3.9-3.9-3.9s-3.9,1.8-3.9,3.9
		c0,2.2,1.8,3.9,3.9,3.9h0C21.9,24.7,23.7,22.9,23.7,20.8z M17.1,20.8c0-1.5,1.2-2.6,2.7-2.6c1.5,0,2.6,1.2,2.6,2.7
		c0,1.5-1.2,2.6-2.6,2.6C18.3,23.4,17.1,22.2,17.1,20.8L17.1,20.8L17.1,20.8z"/>
	<path d="M35,46.1h-1.2c-0.8,0-1.5-0.6-1.6-1.4L31.8,43c-0.3-0.1-0.6-0.2-0.9-0.4l-1.5,1c-0.7,0.4-1.6,0.4-2.1-0.2l-0.9-0.9
		c-0.6-0.6-0.6-1.5-0.2-2.1l1-1.5c-0.1-0.3-0.3-0.6-0.4-0.9l-1.8-0.4c-0.8-0.2-1.3-0.8-1.3-1.6v-1.2c0-0.8,0.6-1.5,1.3-1.6l0.1,0
		c0.4-0.1,0.8,0.2,0.9,0.6c0.1,0.4-0.2,0.8-0.6,0.9l-0.1,0c-0.1,0-0.1,0.1-0.1,0.1V36c0,0.1,0,0.1,0.1,0.1l2.2,0.5
		c0.3,0.1,0.5,0.3,0.6,0.5c0.1,0.5,0.3,1,0.6,1.4c0.1,0.3,0.1,0.6,0,0.8l-1.3,1.9c0,0.1,0,0.1,0,0.2l0.9,0.9c0,0,0.1,0.1,0.2,0
		l1.9-1.3c0.2-0.2,0.6-0.2,0.8,0c0.4,0.3,0.9,0.4,1.4,0.6c0.3,0.1,0.5,0.3,0.5,0.6l0.5,2.3c0,0.1,0.1,0.1,0.1,0.1H35
		c0.1,0,0.1,0,0.1-0.1l0.4-2.2c0.1-0.3,0.3-0.5,0.5-0.6c0.5-0.1,1-0.3,1.4-0.6c0.3-0.1,0.6-0.1,0.8,0l1.9,1.3c0.1,0,0.1,0,0.2,0
		l0.9-0.9c0,0,0.1-0.1,0-0.2l-1.3-1.9c-0.2-0.2-0.2-0.6,0-0.8c0.3-0.4,0.4-0.9,0.6-1.4c0.1-0.3,0.3-0.5,0.6-0.5l2.2-0.5
		c0.1,0,0.1-0.1,0.1-0.1v-1.2c0-0.1,0-0.1-0.1-0.1l-2.3-0.5c-0.3-0.1-0.5-0.3-0.6-0.5c-0.1-0.5-0.3-1-0.6-1.4
		c-0.1-0.3-0.1-0.6,0-0.8l1.3-1.9c0-0.1,0-0.1,0-0.2l-0.9-0.9c0,0-0.1-0.1-0.2,0l-1.9,1.3c-0.2,0.2-0.6,0.2-0.8,0
		c-0.4-0.3-0.9-0.5-1.4-0.6c-0.3-0.1-0.5-0.3-0.5-0.6l-0.5-2.2c0-0.1-0.1-0.1-0.1-0.1h-1.2c-0.1,0-0.1,0-0.1,0.1l-0.4,2.2
		c-0.1,0.3-0.3,0.5-0.5,0.6c-0.5,0.1-1,0.3-1.4,0.6c-0.3,0.1-0.6,0.1-0.8,0l-1.9-1.3c-0.1,0-0.1,0-0.2,0l-0.9,0.9c0,0-0.1,0.1,0,0.2
		l1.3,1.9c0.2,0.2,0.2,0.6,0,0.8c-0.3,0.4-0.5,0.9-0.6,1.4c-0.1,0.4-0.5,0.7-1,0.5c-0.4-0.1-0.7-0.5-0.5-1c0.1-0.5,0.3-0.9,0.5-1.3
		l-1-1.5c-0.4-0.7-0.4-1.6,0.2-2.1l0.9-0.9c0.6-0.6,1.5-0.6,2.1-0.2l1.5,1c0.3-0.1,0.6-0.3,0.9-0.4l0.4-1.8c0.2-0.8,0.8-1.3,1.6-1.3
		H35c0.8,0,1.5,0.6,1.6,1.3l0.4,1.8c0.3,0.1,0.6,0.2,0.9,0.4l1.5-1c0.7-0.4,1.6-0.3,2.1,0.2l0.9,0.9c0.6,0.6,0.6,1.5,0.2,2.1l-1,1.5
		c0.1,0.3,0.3,0.6,0.4,0.9l1.9,0.4c0.7,0.2,1.2,0.9,1.2,1.6V36c0,0.8-0.6,1.5-1.3,1.6L42,38c-0.1,0.3-0.2,0.6-0.4,0.9l1,1.5
		c0.4,0.7,0.4,1.6-0.2,2.1l-0.9,0.9c-0.6,0.6-1.5,0.6-2.1,0.2l-1.5-1c-0.3,0.1-0.6,0.3-0.9,0.4l-0.4,1.8
		C36.5,45.6,35.8,46.1,35,46.1z M30.9,42.3L30.9,42.3c0.4,0.2,0.7,0.3,1,0.4l0.1,0l0.4,1.9c0.1,0.7,0.7,1.2,1.4,1.2H35
		c0.7,0,1.3-0.5,1.4-1.1l0.4-1.9l0.1,0c0.3-0.1,0.7-0.2,1-0.4l0.1,0l1.6,1.1c0.6,0.4,1.3,0.3,1.8-0.2l0.9-0.9
		c0.5-0.5,0.6-1.2,0.2-1.8l-1.1-1.6l0-0.1c0.2-0.3,0.3-0.6,0.4-1l0-0.1l1.9-0.4c0.7-0.1,1.1-0.7,1.1-1.4v-1.2c0-0.7-0.5-1.3-1.1-1.4
		L41.8,33l0-0.1c-0.1-0.3-0.2-0.7-0.4-1l0-0.1l1.1-1.6c0.4-0.6,0.3-1.3-0.2-1.8l-0.9-0.9c-0.5-0.5-1.2-0.6-1.8-0.2l-1.6,1.1l-0.1,0
		c-0.3-0.2-0.6-0.3-1-0.4l-0.1,0l-0.4-1.9C36.3,25.5,35.7,25,35,25h-1.2c-0.7,0-1.3,0.5-1.4,1.1L32,28.1l-0.1,0
		c-0.3,0.1-0.7,0.2-1,0.4l-0.1,0l-1.6-1.1c-0.6-0.4-1.3-0.3-1.8,0.2l-0.9,0.9c-0.5,0.5-0.6,1.2-0.2,1.8l1.1,1.6l0,0.1
		c-0.2,0.4-0.4,0.9-0.5,1.4c-0.1,0.3,0.1,0.6,0.4,0.6c0.3,0.1,0.6-0.1,0.6-0.4c0.1-0.5,0.3-1,0.6-1.5c0.1-0.2,0.1-0.4,0-0.5
		l-1.3-1.9c-0.1-0.2-0.1-0.4,0-0.5l0.9-0.9c0.1-0.1,0.3-0.1,0.5,0l1.9,1.3c0.2,0.1,0.4,0.1,0.5,0c0.5-0.3,1-0.5,1.5-0.6
		c0.2-0.1,0.3-0.2,0.4-0.4l0.5-2.3c0-0.2,0.2-0.3,0.4-0.3H35c0.2,0,0.3,0.1,0.4,0.3l0.5,2.3c0,0.2,0.2,0.4,0.4,0.4
		c0.5,0.1,1,0.3,1.5,0.6c0.2,0.1,0.4,0.1,0.5,0l1.9-1.3c0.1-0.1,0.4-0.1,0.5,0l0.9,0.9c0.1,0.1,0.1,0.3,0,0.5l-1.3,1.9
		c-0.1,0.2-0.1,0.4,0,0.5c0.3,0.5,0.5,1,0.6,1.5c0.1,0.2,0.2,0.3,0.4,0.4l2.3,0.5c0.2,0,0.3,0.2,0.3,0.4V36c0,0.2-0.1,0.3-0.3,0.4
		l-2.3,0.5c-0.2,0-0.4,0.2-0.4,0.4c-0.1,0.5-0.4,1-0.6,1.5c-0.1,0.2-0.1,0.4,0,0.5l1.3,1.9c0.1,0.2,0.1,0.4,0,0.5l-0.9,0.9
		c-0.1,0.1-0.3,0.1-0.5,0l-1.9-1.3c-0.2-0.1-0.4-0.1-0.5,0c-0.5,0.3-1,0.5-1.5,0.6c-0.2,0.1-0.3,0.2-0.4,0.4l-0.4,2.2
		c0,0.2-0.2,0.3-0.4,0.3h-1.2c-0.2,0-0.3-0.1-0.4-0.3L33,42.3c0-0.2-0.2-0.4-0.4-0.4c-0.5-0.1-1-0.4-1.5-0.6c-0.2-0.1-0.4-0.1-0.5,0
		l-1.9,1.3c-0.2,0.1-0.4,0.1-0.5,0l-0.9-0.9c-0.1-0.1-0.1-0.3,0-0.5l1.3-1.9c0.1-0.2,0.1-0.4,0-0.5c-0.3-0.5-0.5-1-0.6-1.5
		c-0.1-0.2-0.2-0.3-0.4-0.4l-2.3-0.5c-0.2,0-0.3-0.2-0.3-0.4v-1.2c0-0.2,0.1-0.3,0.3-0.4l0.1,0c0.3-0.1,0.5-0.3,0.4-0.6
		c0-0.1-0.1-0.3-0.2-0.3c-0.1-0.1-0.3-0.1-0.4-0.1l-0.1,0c-0.7,0.1-1.1,0.7-1.1,1.4V36c0,0.7,0.5,1.3,1.1,1.4l1.9,0.4l0,0.1
		c0.1,0.3,0.2,0.7,0.4,1l0,0.1l-1.1,1.6c-0.4,0.6-0.3,1.3,0.2,1.8l0.9,0.9c0.5,0.5,1.2,0.6,1.8,0.2L30.9,42.3z M34.4,39.2
		C34.4,39.2,34.4,39.2,34.4,39.2c-2.1,0-3.8-1.7-3.8-3.8s1.7-3.8,3.8-3.8s3.8,1.7,3.8,3.8c0,0.4-0.3,0.8-0.8,0.8s-0.8-0.3-0.8-0.8
		c0-1.2-0.9-2.1-2.1-2.2v0h-0.1c-1.2,0-2.2,1-2.2,2.2c0,0.5,0.2,1,0.5,1.3c0.7,1,2.1,1.1,3.1,0.4c0.3-0.2,0.8-0.2,1.1,0.1
		c0.1,0.2,0.2,0.4,0.2,0.6c0,0.2-0.1,0.4-0.3,0.5C36.1,38.9,35.3,39.2,34.4,39.2z M34.4,31.9c-1.9,0-3.5,1.6-3.5,3.5
		s1.6,3.5,3.5,3.5c0,0,0,0,0,0c0.8,0,1.5-0.3,2.1-0.7c0.1-0.1,0.2-0.2,0.2-0.4c0-0.1,0-0.3-0.1-0.4c-0.2-0.2-0.5-0.3-0.7-0.1
		c-1.1,0.8-2.6,0.6-3.4-0.4c-0.3-0.4-0.5-1-0.5-1.5c0-1.3,1-2.4,2.3-2.4v0l0.1,0c1.4,0,2.5,1.1,2.5,2.5c0,0.3,0.2,0.5,0.5,0.5
		s0.5-0.2,0.5-0.5C37.9,33.5,36.4,31.9,34.4,31.9z M20.7,36.6h-1.9c-1,0-1.9-0.7-2.1-1.7l-0.6-3c-0.6-0.2-1.2-0.4-1.7-0.7l-2.5,1.7
		c-0.8,0.6-2,0.4-2.7-0.3l-1.3-1.3c-0.7-0.7-0.8-1.9-0.3-2.7l1.7-2.5C9,25.5,8.8,25,8.6,24.4l-3-0.6c-1-0.2-1.7-1.1-1.7-2.1v-1.9
		c0-1,0.7-1.9,1.7-2.1l3-0.6C8.8,16.5,9,16,9.3,15.4l-1.7-2.5c-0.6-0.8-0.4-2,0.3-2.7l1.3-1.3C9.9,8.1,11,8,11.9,8.6l2.5,1.7
		c0.5-0.3,1.1-0.5,1.7-0.7l0.6-3c0.2-1,1.1-1.7,2.1-1.7h1.9c1,0,1.9,0.7,2.1,1.7l0.6,3c0.6,0.2,1.2,0.4,1.7,0.7l2.5-1.7
		c0.8-0.6,2-0.4,2.7,0.3l1.3,1.3c0.7,0.7,0.8,1.9,0.3,2.7l-1.7,2.5c0.3,0.5,0.5,1.1,0.7,1.7l3,0.6c1,0.2,1.7,1.1,1.7,2.1v1.9
		c0,1-0.7,1.9-1.7,2.1l-3,0.6c-0.2,0.5-0.4,1-0.6,1.4c-0.1,0.2-0.2,0.3-0.4,0.4c-0.2,0.1-0.4,0.1-0.6,0c-0.4-0.2-0.5-0.6-0.4-1
		c0.3-0.5,0.5-1.1,0.6-1.7c0.1-0.3,0.3-0.5,0.6-0.5l3.4-0.7c0.3-0.1,0.5-0.3,0.5-0.6v-1.9c0-0.3-0.2-0.5-0.5-0.6l-3.4-0.7
		c-0.3-0.1-0.5-0.3-0.6-0.5c-0.2-0.8-0.5-1.5-0.9-2.2c-0.1-0.3-0.1-0.6,0-0.8l1.9-2.9c0.2-0.2,0.1-0.6-0.1-0.8L29.2,10
		c-0.2-0.2-0.5-0.2-0.8-0.1l-2.9,1.9c-0.2,0.2-0.6,0.2-0.8,0c-0.7-0.4-1.5-0.7-2.2-0.9c-0.3-0.1-0.5-0.3-0.5-0.6l-0.7-3.4
		c-0.1-0.3-0.3-0.5-0.6-0.5h-1.9c-0.3,0-0.5,0.2-0.6,0.5l-0.7,3.4c-0.1,0.3-0.3,0.5-0.5,0.6c-0.8,0.2-1.5,0.5-2.2,0.9
		c-0.3,0.1-0.6,0.1-0.8,0L11,9.9c-0.2-0.2-0.6-0.1-0.8,0.1L9,11.3c-0.2,0.2-0.2,0.5-0.1,0.8l1.9,2.9c0.2,0.2,0.2,0.6,0,0.8
		c-0.4,0.7-0.7,1.5-0.9,2.2c-0.1,0.3-0.3,0.5-0.6,0.5l-3.4,0.7c-0.3,0.1-0.5,0.3-0.5,0.6v1.9c0,0.3,0.2,0.5,0.5,0.6L9.3,23
		c0.3,0.1,0.5,0.3,0.6,0.5c0.2,0.8,0.5,1.5,0.9,2.2c0.1,0.3,0.1,0.6,0,0.8l-1.9,2.9C8.7,29.7,8.8,30,9,30.2l1.3,1.3
		c0.2,0.2,0.5,0.2,0.8,0.1l2.9-1.9c0.2-0.2,0.6-0.2,0.8,0c0.7,0.4,1.5,0.7,2.2,0.9c0.3,0.1,0.5,0.3,0.5,0.6l0.7,3.4
		c0.1,0.3,0.3,0.5,0.6,0.5h1.9c0.3,0,0.5-0.2,0.6-0.5l0.7-3.4c0.1-0.3,0.3-0.5,0.5-0.6c0.6-0.2,1.1-0.4,1.6-0.6c0.4-0.2,0.8,0,1,0.3
		l0,0c0.1,0.2,0.1,0.4,0,0.6c-0.1,0.2-0.2,0.3-0.4,0.4c-0.5,0.2-0.9,0.4-1.4,0.6l-0.6,3C22.6,35.9,21.7,36.6,20.7,36.6z M14.4,30.9
		L14.4,30.9c0.6,0.3,1.2,0.6,1.9,0.8l0.1,0l0.6,3.1c0.2,0.9,1,1.5,1.9,1.5h1.9c0.9,0,1.7-0.6,1.9-1.5l0.6-3.1l0.1,0
		c0.5-0.2,1-0.3,1.4-0.6c0.3-0.1,0.4-0.4,0.3-0.7l0,0c-0.1-0.3-0.4-0.4-0.7-0.2c-0.5,0.3-1.1,0.5-1.7,0.6c-0.2,0.1-0.3,0.2-0.4,0.4
		l-0.7,3.4c-0.1,0.4-0.4,0.7-0.8,0.7h-1.9c-0.4,0-0.8-0.3-0.8-0.7l-0.7-3.4c0-0.2-0.2-0.4-0.4-0.4c-0.8-0.2-1.6-0.5-2.3-1
		c-0.2-0.1-0.4-0.1-0.5,0l-2.9,1.9c-0.3,0.2-0.8,0.2-1.1-0.1l-1.3-1.3c-0.3-0.3-0.3-0.7-0.1-1.1l1.9-2.9c0.1-0.2,0.1-0.4,0-0.5
		c-0.4-0.7-0.7-1.5-1-2.3c-0.1-0.2-0.2-0.3-0.4-0.4l-3.4-0.7c-0.4-0.1-0.7-0.4-0.7-0.8v-1.9c0-0.4,0.3-0.8,0.7-0.8l3.4-0.7
		c0.2,0,0.4-0.2,0.4-0.4c0.2-0.8,0.5-1.6,1-2.3c0.1-0.2,0.1-0.4,0-0.5l-1.9-2.9c-0.2-0.3-0.2-0.8,0.1-1.1l1.3-1.3
		c0.3-0.3,0.7-0.3,1.1-0.1l2.9,1.9c0.2,0.1,0.4,0.1,0.5,0c0.7-0.4,1.5-0.7,2.3-1c0.2-0.1,0.3-0.2,0.4-0.4L18,6.9
		c0.1-0.4,0.4-0.7,0.8-0.7h1.9c0.4,0,0.8,0.3,0.8,0.7l0.7,3.4c0,0.2,0.2,0.4,0.4,0.4c0.8,0.2,1.6,0.5,2.3,1c0.2,0.1,0.4,0.1,0.5,0
		l2.9-1.9c0.3-0.2,0.8-0.2,1.1,0.1l1.3,1.3c0.3,0.3,0.3,0.7,0.1,1.1l-1.9,2.9c-0.1,0.2-0.1,0.4,0,0.5c0.4,0.7,0.7,1.5,1,2.3
		c0.1,0.2,0.2,0.3,0.4,0.4l3.4,0.7c0.4,0.1,0.7,0.4,0.7,0.8v1.9c0,0.4-0.3,0.8-0.7,0.8l-3.4,0.7c-0.2,0-0.4,0.2-0.4,0.4
		c-0.2,0.6-0.4,1.1-0.6,1.7c-0.1,0.1-0.1,0.3,0,0.4c0,0.1,0.1,0.2,0.3,0.3c0.3,0.1,0.6,0,0.7-0.2c0.2-0.5,0.4-1,0.6-1.5l0-0.1
		l3.1-0.6c0.9-0.2,1.5-1,1.5-1.9v-1.9c0-0.9-0.6-1.7-1.5-1.9l-3.1-0.6l0-0.1c-0.2-0.6-0.4-1.2-0.7-1.8l0-0.1l1.8-2.6
		c0.5-0.7,0.4-1.8-0.2-2.4L30.1,9c-0.6-0.6-1.6-0.7-2.4-0.2l-2.6,1.8l-0.1,0c-0.6-0.3-1.2-0.5-1.8-0.7l-0.1,0l-0.6-3.1
		c-0.2-0.9-1-1.5-1.9-1.5h-1.9c-0.9,0-1.7,0.6-1.9,1.5l-0.6,3.1l-0.1,0c-0.6,0.2-1.2,0.4-1.8,0.7l-0.1,0l-2.6-1.8
		C11,8.3,10,8.4,9.4,9L8,10.4C7.4,11,7.3,12,7.8,12.8l1.8,2.6l0,0.1C9.2,16,9,16.6,8.8,17.3l0,0.1L5.6,18c-0.9,0.2-1.5,1-1.5,1.9
		v1.9c0,0.9,0.6,1.7,1.5,1.9l3.1,0.6l0,0.1C9,24.9,9.2,25.5,9.5,26l0,0.1l-1.8,2.6c-0.5,0.7-0.4,1.8,0.2,2.4l1.3,1.3
		c0.6,0.6,1.6,0.7,2.4,0.2L14.4,30.9z M19.8,28.2c-0.8,0-1.6-0.1-2.4-0.4c-3.9-1.3-5.9-5.5-4.6-9.4c0.1-0.4,0.6-0.6,1-0.5l0.1,0
		c0.3,0.2,0.5,0.6,0.4,0.9c-0.6,1.8-0.3,3.8,0.8,5.3c1.9,2.6,5.6,3.2,8.2,1.3c0.3-0.2,0.8-0.2,1.1,0.2c0.3,0.3,0.2,0.8-0.2,1.1
		C22.8,27.7,21.3,28.2,19.8,28.2z M13.5,18.1c-0.2,0-0.4,0.1-0.5,0.4c-1.3,3.7,0.7,7.8,4.4,9.1c2.2,0.8,4.6,0.4,6.5-1
		c0.2-0.2,0.3-0.5,0.1-0.7c-0.2-0.2-0.5-0.3-0.7-0.1c-2.7,2-6.6,1.4-8.5-1.4c-1.2-1.6-1.5-3.7-0.8-5.6c0.1-0.3-0.1-0.6-0.3-0.7l0,0
		C13.6,18.1,13.5,18.1,13.5,18.1z M19.8,24.8c-2.2,0-4.1-1.8-4.1-4.1s1.8-4.1,4.1-4.1s4.1,1.8,4.1,4.1l0,0
		C23.8,23,22,24.8,19.8,24.8z M19.8,16.9c-2.1,0-3.8,1.7-3.8,3.8s1.7,3.8,3.8,3.8c2.1,0,3.8-1.7,3.8-3.8
		C23.6,18.6,21.9,16.9,19.8,16.9z M25.5,24.6l-0.2-0.1c-0.4-0.2-0.5-0.7-0.3-1c1.1-2.2,0.7-4.9-1-6.7c-1.1-1.1-2.6-1.8-4.1-1.8
		c-1.6,0-3,0.6-4.2,1.7c-0.3,0.3-0.7,0.3-1,0c-0.2-0.1-0.2-0.3-0.2-0.5c0-0.2,0.1-0.4,0.2-0.6c2.3-2.2,5.7-2.7,8.5-1.3
		c1.8,0.9,3.1,2.4,3.7,4.3s0.4,3.9-0.5,5.6C26.2,24.4,25.8,24.6,25.5,24.6L25.5,24.6z M25.4,24.2L25.4,24.2c0.3,0.1,0.6,0,0.7-0.2
		c0.9-1.7,1-3.6,0.4-5.5c-0.6-1.8-1.8-3.3-3.5-4.2c-2.7-1.4-6-0.9-8.2,1.2c-0.1,0.1-0.1,0.2-0.1,0.4c0,0.1,0.1,0.3,0.2,0.4
		c0.2,0.2,0.5,0.2,0.7,0c1.2-1.1,2.7-1.8,4.3-1.7c1.6,0,3.2,0.7,4.3,1.9c1.8,1.9,2.2,4.7,1.1,7c-0.1,0.1-0.1,0.3,0,0.4
		C25.2,24.1,25.3,24.2,25.4,24.2z M19.8,23.5c-0.7,0-1.4-0.3-2-0.8c-0.5-0.5-0.8-1.2-0.8-2l0-0.1c0-0.7,0.3-1.3,0.8-1.8
		c0.5-0.5,1.2-0.8,2-0.8c0,0,0,0,0,0c0.7,0,1.4,0.3,2,0.8c0.5,0.5,0.8,1.2,0.8,2C22.5,22.3,21.3,23.5,19.8,23.5
		C19.8,23.5,19.8,23.5,19.8,23.5z M17.2,20.9c0,0.6,0.3,1.2,0.7,1.7c0.5,0.5,1.1,0.7,1.8,0.7c0,0,0,0,0,0c1.4,0,2.5-1.1,2.5-2.5
		c0-0.7-0.3-1.3-0.7-1.8c-0.5-0.5-1.1-0.7-1.8-0.7c0,0,0,0,0,0c-1.4,0-2.5,1.1-2.5,2.5L17.2,20.9z"/>
</g>
</svg>
