<?xml version="1.0" encoding="utf-8"?>
<!-- Generator: Adobe Illustrator 21.0.2, SVG Export Plug-In . SVG Version: 6.00 Build 0)  -->
<svg version="1.1" id="Layer_1" xmlns="http://www.w3.org/2000/svg" xmlns:xlink="http://www.w3.org/1999/xlink" x="0px" y="0px"
	 width="50px" height="50px" viewBox="0 0 50 50" style="enable-background:new 0 0 50 50;" xml:space="preserve">
<path d="M40,8.9H9l-4,9V18c0.1,2.1,1.7,3.8,3.8,4.1v19.8h5v-16h7v16h19.2V22.1c2.2-0.1,4-1.9,4.1-4.1v-0.2L40,8.9z M22.3,40.3v-16
	h-10v16h-2V22.1c0.1,0,0.1,0,0.2,0s0.1,0,0.2,0c0.1,0,0.2-0.1,0.3-0.1s0.2-0.1,0.3-0.1s0.2-0.1,0.3-0.1c0.1,0,0.1-0.1,0.2-0.1
	s0.1-0.1,0.2-0.1s0.1-0.1,0.2-0.1s0.1-0.1,0.2-0.1s0.1-0.1,0.2-0.2s0.1-0.1,0.2-0.2s0.1-0.1,0.2-0.2c0.1-0.1,0.1-0.2,0.2-0.3
	c0,0,0.1-0.1,0.1-0.1c0.1,0.1,0.1,0.1,0.2,0.2s0.1,0.1,0.2,0.2c0,0,0.1,0.1,0.1,0.1c0.1,0.1,0.2,0.2,0.3,0.3c0,0,0.1,0,0.1,0.1
	c0.1,0.1,0.2,0.2,0.3,0.3c0,0,0,0,0.1,0c0.1,0.1,0.3,0.2,0.4,0.2c0.1,0,0.1,0,0.2,0.1c0.1,0,0.2,0.1,0.3,0.1c0.1,0,0.2,0,0.2,0.1
	c0.3,0.1,0.6,0.2,0.8,0.2c0.2,0,0.4,0,0.6,0c1.5,0,2.9-0.7,3.7-1.8c1.6,2.1,4.6,2.5,6.6,0.9c0.3-0.2,0.6-0.5,0.9-0.9
	c0.9,1.2,2.3,1.9,3.8,1.8c0.2,0,0.4,0,0.6,0c0.1,0,0.1,0,0.2,0c0.1,0,0.3,0,0.4-0.1c0,0,0,0,0,0c0.2,0,0.3-0.1,0.5-0.1l0,0
	c0.8-0.3,1.5-0.8,2.1-1.5c0,0,0.1,0.1,0.1,0.1c0.1,0.1,0.2,0.3,0.4,0.4c0,0,0.1,0.1,0.1,0.1c0.6,0.5,1.3,0.9,2.1,1.1v18.3L22.3,40.3
	L22.3,40.3z M39.5,20.6l-0.3,0c-0.4,0-0.7-0.1-1.1-0.3l0,0c-0.2-0.1-0.3-0.1-0.4-0.2c0,0-0.1,0-0.1-0.1c-0.1-0.1-0.2-0.1-0.3-0.2
	c-0.1,0-0.1-0.1-0.2-0.2c-0.1-0.1-0.1-0.1-0.2-0.2c-0.1-0.1-0.1-0.2-0.2-0.2c0-0.1-0.1-0.1-0.1-0.2c0-0.1-0.1-0.2-0.1-0.3
	c0,0,0-0.1,0-0.1c0-0.2-0.1-0.3-0.1-0.5H35c-0.2,1.7-1.8,2.8-3.4,2.6c-1.3-0.2-2.4-1.2-2.6-2.6h-1.5c-0.2,1.7-1.8,2.8-3.4,2.6
	c-1.3-0.2-2.4-1.2-2.6-2.6H20c-0.2,1.7-1.8,2.8-3.4,2.6c-1.3-0.2-2.4-1.2-2.6-2.6h-1.5c0,0.2,0,0.4-0.1,0.5
	c-0.4,1.3-1.6,2.1-2.9,2.1h0c-1.5,0.1-2.8-1-3-2.4l3.5-7.8h29l3.5,7.8C42.3,19.6,41,20.7,39.5,20.6L39.5,20.6z M24.8,35.6h11V24.4
	h-11V35.6z M26.4,25.9h8v8.2h-8L26.4,25.9z"/>
</svg>
