<?xml version="1.0" encoding="utf-8"?>
<!-- Generator: Adobe Illustrator 21.0.2, SVG Export Plug-In . SVG Version: 6.00 Build 0)  -->
<svg version="1.1" id="Layer_1" xmlns="http://www.w3.org/2000/svg" xmlns:xlink="http://www.w3.org/1999/xlink" x="0px" y="0px"
	 width="50px" height="50px" viewBox="0 0 50 50" style="enable-background:new 0 0 50 50;" xml:space="preserve">
<g>
	<g>
		<path d="M36,29.3c-0.7-0.8-1.6-1.2-2.6-1.2c-0.9,0-1.8,0.4-2.6,1.2l-2.4,2.4c-0.2-0.1-0.4-0.2-0.6-0.3c-0.3-0.1-0.5-0.3-0.8-0.4
			c-2.3-1.4-4.3-3.3-6.3-5.7c-1-1.2-1.6-2.2-2.1-3.2c0.6-0.6,1.2-1.2,1.8-1.7c0.2-0.2,0.4-0.4,0.6-0.6c1.6-1.6,1.6-3.7,0-5.3
			l-2.1-2.1c-0.2-0.2-0.5-0.5-0.7-0.7c-0.5-0.5-0.9-1-1.4-1.4c-0.7-0.7-1.6-1.1-2.6-1.1c-0.9,0-1.8,0.4-2.6,1.1c0,0,0,0,0,0
			l-2.6,2.6c-1,1-1.5,2.2-1.7,3.5c-0.2,2.2,0.5,4.3,1,5.6c1.2,3.3,3.1,6.4,5.8,9.7c3.3,4,7.3,7.1,11.9,9.3c1.8,0.8,4.1,1.8,6.7,2
			c0.2,0,0.3,0,0.5,0c1.8,0,3.2-0.6,4.4-1.9c0,0,0,0,0,0c0.4-0.5,0.9-0.9,1.3-1.4c0.3-0.3,0.7-0.6,1-1c0.8-0.8,1.1-1.7,1.1-2.6
			c0-0.9-0.4-1.8-1.2-2.6L36,29.3z M38.7,37.3c-0.3,0.3-0.6,0.6-0.9,0.9c-0.5,0.5-1,1-1.5,1.5c-0.8,0.8-1.7,1.2-2.9,1.2
			c-0.1,0-0.2,0-0.4,0c-2.3-0.1-4.4-1-5.9-1.8c-4.3-2.1-8.1-5-11.2-8.8c-2.6-3.1-4.3-6-5.5-9.1c-0.7-1.9-1-3.4-0.9-4.8
			c0.1-0.9,0.4-1.6,1.1-2.3l2.6-2.6c0.4-0.3,0.8-0.5,1.2-0.5c0.5,0,0.9,0.3,1.1,0.5c0,0,0,0,0,0c0.5,0.4,0.9,0.9,1.4,1.4
			c0.2,0.2,0.5,0.5,0.7,0.7l2.1,2.1c0.8,0.8,0.8,1.6,0,2.4c-0.2,0.2-0.4,0.4-0.7,0.7c-0.6,0.7-1.2,1.3-1.9,1.9c0,0,0,0,0,0
			c-0.7,0.7-0.5,1.3-0.4,1.7c0,0,0,0,0,0.1c0.5,1.3,1.3,2.5,2.5,4l0,0c2.1,2.6,4.3,4.6,6.8,6.1c0.3,0.2,0.6,0.4,0.9,0.5
			c0.3,0.1,0.5,0.3,0.8,0.4c0,0,0.1,0,0.1,0.1c0.3,0.1,0.5,0.2,0.8,0.2c0.6,0,1-0.4,1.2-0.5l2.6-2.6c0.3-0.3,0.7-0.6,1.1-0.6
			c0.5,0,0.9,0.3,1.1,0.6c0,0,0,0,0,0l4.2,4.2C39.5,35.7,39.5,36.5,38.7,37.3z M32.2,18.3c1.4,1.4,2.4,3.3,2.7,5.2
			c0.1,0.5,0.5,0.9,1,0.9c0.1,0,0.1,0,0.2,0c0.6-0.1,0.9-0.6,0.8-1.2c-0.4-2.4-1.6-4.6-3.3-6.3c-1.7-1.7-3.9-2.9-6.4-3.3
			c-0.6-0.1-1.1,0.3-1.2,0.8c-0.1,0.6,0.3,1.1,0.8,1.2C29,15.9,30.8,16.8,32.2,18.3z M38.1,12.4C35.2,9.5,31.6,7.7,27.6,7
			c-0.6-0.1-1.1,0.3-1.2,0.8c-0.1,0.6,0.3,1.1,0.8,1.2c3.5,0.6,6.8,2.3,9.4,4.8c2.6,2.6,4.2,5.8,4.8,9.3c0.1,0.5,0.5,0.9,1,0.9
			c0.1,0,0.1,0,0.2,0c0.6-0.1,0.9-0.6,0.8-1.2C42.8,18.9,41,15.3,38.1,12.4z"/>
	</g>
</g>
</svg>
